<?xml version="1.0" encoding="utf-8"?>
<!-- Generator: Adobe Illustrator 16.0.0, SVG Export Plug-In . SVG Version: 6.00 Build 0)  -->
<!DOCTYPE svg PUBLIC "-//W3C//DTD SVG 1.1//EN" "http://www.w3.org/Graphics/SVG/1.1/DTD/svg11.dtd">
<svg version="1.1" id="Calque_1" xmlns="http://www.w3.org/2000/svg" xmlns:xlink="http://www.w3.org/1999/xlink" x="0px" y="0px"
	 width="1181.764px" height="2686.954px" viewBox="0 0 1181.764 2686.954" enable-background="new 0 0 1181.764 2686.954"
	 xml:space="preserve">
<rect x="817.089" y="165.516" opacity="0.4" fill="#1CACB8" width="329.675" height="70"/>
<rect x="817.089" y="280.516" opacity="0.4" fill="#FB5343" width="329.675" height="70"/>
<text transform="matrix(1 0 0 1 310.8296 631.3887)" fill="#494747" font-family="'NeutrafaceText-Book'" font-size="83.9557">Neutraface Text</text>
<text transform="matrix(1 0 0 1 3 48.0938)" fill="#DBD9D4" font-family="'WorkSans-Medium'" font-size="17">Color Palette</text>
<text transform="matrix(1 0 0 1 1059.2412 60.0938)" fill="#DBD9D4" font-family="'WorkSans-Medium'" font-size="14">©</text>
<text transform="matrix(1 0 0 1 1070.5537 60.0938)" fill="#DBD9D4" font-family="'WorkSans-Medium'" font-size="17"> </text>
<text transform="matrix(1 0 0 1 1076.1123 60.0938)" fill="#DBD9D4" font-family="'WorkSans-Medium'" font-size="14">Delphine Geny</text>
<line fill="none" stroke="#DBD9D4" stroke-width="1.8" stroke-miterlimit="10" x1="3.382" y1="57.5" x2="1053.382" y2="57.5"/>
<text transform="matrix(1 0 0 1 3 484.5723)" fill="#DBD9D4" font-family="'WorkSans-Medium'" font-size="17">Typography</text>
<text transform="matrix(1 0 0 1 1059.2412 496.5723)" fill="#DBD9D4" font-family="'WorkSans-Medium'" font-size="14">©</text>
<text transform="matrix(1 0 0 1 1070.5537 496.5723)" fill="#DBD9D4" font-family="'WorkSans-Medium'" font-size="17"> </text>
<text transform="matrix(1 0 0 1 1076.1123 496.5723)" fill="#DBD9D4" font-family="'WorkSans-Medium'" font-size="14">Delphine Geny</text>
<line fill="none" stroke="#DBD9D4" stroke-width="1.8" stroke-miterlimit="10" x1="3.382" y1="493.978" x2="1053.382" y2="493.978"/>
<line fill="none" stroke="#494747" stroke-width="1.2" stroke-miterlimit="10" x1="316.938" y1="643.051" x2="864.825" y2="643.051"/>
<g>
	<text transform="matrix(1 0 0 1 475.2129 760.7168)" fill="#494747" font-family="'NeutrafaceText-Book'" font-size="48.0471">Book</text>
	
		<text transform="matrix(1 0 0 1 475.2129 804.1191)" fill="#494747" font-family="'NeutrafaceText-Book'" font-size="28.263" letter-spacing="1">ABCDEFGHIJKLMNOPQRSTUVWXZ  </text>
	
		<text transform="matrix(1 0 0 1 475.2129 844.4893)" fill="#494747" font-family="'NeutrafaceText-Book'" font-size="28.263" letter-spacing="1">abcdefghijklmnopqrstuvwxyz</text>
	
		<text transform="matrix(1 0 0 1 475.2129 885.4893)" fill="#494747" font-family="'NeutrafaceText-Book'" font-size="28.263" letter-spacing="1">1234567890</text>
	<rect x="181.318" y="747.917" fill="none" width="305.489" height="193.254"/>
	<text transform="matrix(1 0 0 1 181.3179 888.5317)" enable-background="new    "><tspan x="0" y="0" fill="#494747" font-family="'NeutrafaceText-Book'" font-size="186" letter-spacing="14">A</tspan><tspan x="136.15" y="0" fill="#494747" font-family="'NeutrafaceText-Book'" font-size="186" letter-spacing="17">a</tspan></text>
	<text transform="matrix(1 0 0 1 475.2129 984.7168)" fill="#494747" font-family="'NeutrafaceText-Bold'" font-size="48.0471">Black</text>
	
		<text transform="matrix(1 0 0 1 475.2129 1028.1191)" fill="#494747" font-family="'NeutrafaceText-Bold'" font-size="28.263" letter-spacing="1">ABCDEFGHIJKLMNOPQRSTUVWXZ  </text>
	
		<text transform="matrix(1 0 0 1 475.2129 1068.4893)" fill="#494747" font-family="'NeutrafaceText-Bold'" font-size="28.263" letter-spacing="1">abcdefghijklmnopqrstuvwxyz</text>
	
		<text transform="matrix(1 0 0 1 475.2129 1109.4893)" fill="#494747" font-family="'NeutrafaceText-Bold'" font-size="28.263" letter-spacing="1">1234567890</text>
	<rect x="181.318" y="968.917" fill="none" width="305.489" height="193.254"/>
	
		<text transform="matrix(1 0 0 1 181.3179 1109.5312)" fill="#494747" font-family="'NeutrafaceText-Bold'" font-size="186" letter-spacing="17">Aa</text>
</g>
<text transform="matrix(1 0 0 1 397.0781 118.0938)" fill="#DBD9D4" font-family="'WorkSans-Medium'" font-size="17">Institutional Palette</text>
<text transform="matrix(1 0 0 1 622.0781 118.0938)" fill="#DBD9D4" font-family="'WorkSans-Medium'" font-size="17">Secondary Palette</text>
<line fill="none" stroke="#DBD9D4" stroke-width="2.1436" stroke-miterlimit="10" x1="592.452" y1="462.954" x2="592.452" y2="101.954"/>
<rect x="817.089" y="165.516" fill="#1CACB8" width="171.675" height="70"/>
<text transform="matrix(1 0 0 1 622.0186 179.1562)" fill="#4C4C4C" font-family="'WorkSans-Bold'" font-size="18">CMYK</text>
<text transform="matrix(1 0 0 1 674.9561 179.1562)" fill="#4C4C4C" font-family="'WorkSans-Regular'" font-size="18">  75 9 27 0   </text>
<text transform="matrix(1 0 0 1 622.0186 206.1562)" fill="#4C4C4C" font-family="'WorkSans-Bold'" font-size="18">RGB </text>
<text transform="matrix(1 0 0 1 664.8936 206.1562)" fill="#4C4C4C" font-family="'WorkSans-Regular'" font-size="18"> 28 172 184</text>
<text transform="matrix(1 0 0 1 622.0186 233.1562)" fill="#4C4C4C" font-family="'WorkSans-Bold'" font-size="18">HEX</text>
<text transform="matrix(1 0 0 1 658.665 233.1562)" fill="#4C4C4C" font-family="'WorkSans-Regular'" font-size="18">  #1cacb8</text>
<text transform="matrix(1 0 0 1 1108.2432 155.5)" fill="#4C4C4C" font-family="'WorkSans-Regular'" font-size="18">40%</text>
<g>
	<text transform="matrix(1 0 0 1 837.207 204.0625)" fill="#FFFFFF" font-family="'WorkSans-Bold'" font-size="18">Pantone</text>
	<text transform="matrix(1 0 0 1 911.1494 204.0625)" fill="#4C4C4C" font-family="'WorkSans-Regular'" font-size="18">  </text>
	<text transform="matrix(1 0 0 1 923.4248 204.0625)" fill="#FFFFFF" font-family="'WorkSans-Regular'" font-size="18">7466C </text>
</g>
<rect x="817.089" y="280.516" fill="#FB5343" width="171.675" height="70"/>
<text transform="matrix(1 0 0 1 622.0186 294.1562)" fill="#4C4C4C" font-family="'WorkSans-Bold'" font-size="18">CMYK</text>
<text transform="matrix(1 0 0 1 674.9561 294.1562)" fill="#4C4C4C" font-family="'WorkSans-Regular'" font-size="18">  0 82 79 0   </text>
<text transform="matrix(1 0 0 1 622.0186 321.1562)" fill="#4C4C4C" font-family="'WorkSans-Bold'" font-size="18">RGB </text>
<text transform="matrix(1 0 0 1 664.8936 321.1562)" fill="#4C4C4C" font-family="'WorkSans-Regular'" font-size="18"> 251 83 57</text>
<text transform="matrix(1 0 0 1 622.0186 348.1562)" fill="#4C4C4C" font-family="'WorkSans-Bold'" font-size="18">HEX</text>
<text transform="matrix(1 0 0 1 658.665 348.1562)" fill="#4C4C4C" font-family="'WorkSans-Regular'" font-size="18">  #fb5343</text>
<text transform="matrix(1 0 0 1 1108.2432 270.5)" fill="#4C4C4C" font-family="'WorkSans-Regular'" font-size="18">40%</text>
<text transform="matrix(1 0 0 1 943.2432 155.5)" fill="#4C4C4C" font-family="'WorkSans-Regular'" font-size="18">100%</text>
<text transform="matrix(1 0 0 1 943.2432 270.5)" fill="#4C4C4C" font-family="'WorkSans-Regular'" font-size="18">100%</text>
<g>
	<text transform="matrix(1 0 0 1 837.207 319.0625)" fill="#FFFFFF" font-family="'WorkSans-Bold'" font-size="18">Pantone</text>
	<text transform="matrix(1 0 0 1 911.1494 319.0625)" fill="#4C4C4C" font-family="'WorkSans-Regular'" font-size="18">  </text>
	<text transform="matrix(1 0 0 1 923.4248 319.0625)" enable-background="new    "><tspan x="0" y="0" fill="#FFFFFF" font-family="'WorkSans-Regular'" font-size="18"> </tspan><tspan x="6.137" y="0" fill="#FFFFFF" font-family="'WorkSans-Regular'" font-size="18" letter-spacing="1"> </tspan><tspan x="14.075" y="0" fill="#FFFFFF" font-family="'WorkSans-Regular'" font-size="18">172C </tspan></text>
</g>
<rect x="233.089" y="165.179" fill="#231F20" width="329.675" height="70"/>
<text transform="matrix(1 0 0 1 38.0181 178.8198)" fill="#4C4C4C" font-family="'WorkSans-Bold'" font-size="18">CMYK</text>
<text transform="matrix(1 0 0 1 90.9561 178.8198)" fill="#4C4C4C" font-family="'WorkSans-Regular'" font-size="18">  40 30 30 100   </text>
<text transform="matrix(1 0 0 1 38.0181 205.8198)" fill="#4C4C4C" font-family="'WorkSans-Bold'" font-size="18">RGB </text>
<text transform="matrix(1 0 0 1 80.8931 205.8198)" fill="#4C4C4C" font-family="'WorkSans-Regular'" font-size="18"> 0 0 0</text>
<text transform="matrix(1 0 0 1 38.0181 232.8198)" fill="#4C4C4C" font-family="'WorkSans-Bold'" font-size="18">HEX</text>
<text transform="matrix(1 0 0 1 74.665 232.8198)" fill="#4C4C4C" font-family="'WorkSans-Regular'" font-size="18">  #000</text>
<text transform="matrix(1 0 0 1 518.2432 155.1636)" fill="#4C4C4C" font-family="'WorkSans-Regular'" font-size="18">100%</text>
<g>
	<text transform="matrix(1 0 0 1 253.207 203.7261)" fill="#FFFFFF" font-family="'WorkSans-Bold'" font-size="18">Black</text>
	<text transform="matrix(1 0 0 1 300.1499 203.7261)" fill="#FFFFFF" font-family="'WorkSans-Regular'" font-size="18">  100%</text>
</g>
<g>
	<path fill="#1CACB8" d="M57.022,1717.933c0,0-5.27-33.192-28.989-30.313c-24.334,2.967-19.769,81.701,14.495,155.492
		c34.264,73.793,72.472,76.427,80.378,76.427c7.908,0,48.488,6.622,67.198-47.437c11.865-34.26,6.043-60.613-10.54-59.298
		c-23.643,1.879-20.33,29.203-22.402,39.531c-3.948,19.767-17.747,25.762-42.158,14.497
		C97.872,1858.927,63.612,1807.532,57.022,1717.933"/>
	<path fill="#1CACB8" d="M154.612,1749.248c0,0,1.104,8.593,5.507,8.593c4.405,0,7.985-12.622,9.357-20.14
		c1.379-7.521,2.756-41.901-7.431-56.946c-10.186-15.039-33.864-25.116-47.625-17.798c-13.767,7.322-12.938,26.393-9.359,31.497
		c3.576,5.106,10.787,10.857,17.341,14.726C129.947,1713.644,145.802,1723.729,154.612,1749.248"/>
	<path fill="#1CACB8" d="M477.383,1618.557c0,0-65.15-43.184-30.322-71.579c9.981-8.134,23.956,3.014,29.112,20.965
		C482.344,1589.474,477.383,1618.557,477.383,1618.557 M325.831,1509.735c36.9-25.037,42.17,97.504,42.17,97.504
		S288.937,1534.771,325.831,1509.735 M541.93,1540.525c-10.54-90.085-44.441-153.93-138.353-198.137
		c-97.987-46.116-159.442,13.178-184.477,52.71c-25.036,39.528-42.167,115.959-34.265,179.202c0,0-73.786-15.625-98.823,16.562
		c-25.036,32.2-22.406,53.277-6.592,63.826c11.782,7.852,21.224,3.948,34.264-17.137c34.603-55.955,97.505,22.398,101.461,23.721
		c3.953,1.321,30.303,22.405,34.259-17.131c3.956-39.527-38.214-159.439,21.424-234.251c34.664-43.486,78.722-72.775,164.373-10.837
		c89.582,64.774,97.515,197.648,65.888,212.146c0,0-3.581-116.37-66.416-90.819c0,0-77.211,32.846,24.247,132.984
		c0,0-18.444,14.5-61.931-11.856c0,0,7.518-180.591-72.473-180.521c-79.992,0.054-94.876,86.964,44.802,208.192
		c0,0,5.27,54.026-26.359,59.298c-31.626,5.272-40.842-6.592-61.927-34.262c-21.085-27.673-40.854,0-40.854,0
		s-13.174,11.859,9.225,36.892c22.403,25.043,23.722,40.852,18.451,51.393c-5.271,10.541-9.511,28.465-31.651,24.138
		c-20.729-4.055-32.318,13.232-15.012,31.046c20.771,21.389,74.329,18.609,80.924-59.133c0,0,61.588,26.702,80.375-26.358
		c17.844-50.385,12.758-61.586,12.758-61.586s57.082,36.188,86.066-3.159c0,0,10.545-12.993,13.185-34.082
		C494.501,1653.365,555.153,1653.565,541.93,1540.525"/>
</g>
<g>
	<path fill="#FB5343" d="M57.021,2343.921c0,0-5.269-33.192-28.987-30.31c-24.334,2.96-19.77,81.698,14.495,155.489
		c34.265,73.791,72.471,76.425,80.378,76.425c7.907,0,48.488,6.623,67.198-47.433c11.863-34.262,6.043-60.618-10.54-59.301
		c-23.643,1.879-20.33,29.201-22.402,39.529c-3.948,19.771-17.747,25.764-42.158,14.497
		C97.872,2484.915,63.613,2433.521,57.021,2343.921"/>
	<path fill="#FB5343" d="M154.613,2375.237c0,0,1.103,8.591,5.505,8.591c4.404,0,7.986-12.623,9.36-20.139
		c1.377-7.521,2.754-41.901-7.432-56.946c-10.188-15.041-33.866-25.116-47.627-17.795c-13.763,7.316-12.936,26.394-9.358,31.493
		c3.579,5.106,10.788,10.857,17.341,14.727C129.947,2339.63,145.803,2349.716,154.613,2375.237"/>
	<path fill="#FB5343" d="M477.383,2244.546c0,0-65.151-43.182-30.322-71.581c9.981-8.134,23.956,3.016,29.109,20.966
		C482.344,2215.463,477.383,2244.546,477.383,2244.546 M325.831,2135.726C362.73,2110.688,368,2233.23,368,2233.23
		S288.935,2160.758,325.831,2135.726 M541.93,2166.515c-10.539-90.085-44.442-153.932-138.355-198.136
		c-97.985-46.121-159.44,13.175-184.476,52.706c-25.037,39.531-42.168,115.963-34.265,179.202c0,0-73.786-15.626-98.825,16.567
		c-25.036,32.197-22.405,53.271-6.59,63.819c11.782,7.851,21.225,3.947,34.265-17.133c34.604-55.956,97.504,22.4,101.459,23.718
		c3.954,1.324,30.305,22.409,34.258-17.129c3.956-39.524-38.213-159.442,21.425-234.25c34.665-43.487,78.722-72.772,164.373-10.839
		c89.582,64.778,97.516,197.65,65.888,212.149c0,0-3.581-116.373-66.417-90.82c0,0-77.209,32.845,24.25,132.985
		c0,0-18.445,14.495-61.933-11.859c0,0,7.518-180.589-72.471-180.523c-79.994,0.06-94.878,86.966,44.803,208.193
		c0,0,5.267,54.029-26.362,59.301c-31.625,5.27-40.841-6.594-61.926-34.264c-21.087-27.673-40.854,0-40.854,0
		s-13.174,11.863,9.228,36.896c22.401,25.036,23.718,40.849,18.448,51.388c-5.271,10.542-9.509,28.468-31.65,24.138
		c-20.727-4.055-32.318,13.234-15.012,31.049c20.77,21.386,74.328,18.608,80.924-59.134c0,0,61.588,26.702,80.376-26.358
		c17.844-50.389,12.757-61.59,12.757-61.59s57.083,36.193,86.067-3.152c0,0,10.544-13,13.183-34.083
		C494.5,2279.354,555.155,2279.552,541.93,2166.515"/>
</g>
<g opacity="0.3">
	<path fill="#1CACB8" d="M684.678,1717.935c0,0-5.27-33.194-28.99-30.315c-24.332,2.968-19.769,81.701,14.495,155.492
		c34.267,73.793,72.471,76.427,80.379,76.427c7.907,0,48.488,6.622,67.199-47.437c11.865-34.26,6.043-60.613-10.541-59.298
		c-23.643,1.879-20.33,29.203-22.403,39.531c-3.947,19.767-17.744,25.762-42.156,14.497
		C725.525,1858.929,691.268,1807.534,684.678,1717.935"/>
	<path fill="#1CACB8" d="M782.268,1749.248c0,0,1.101,8.593,5.508,8.593c4.405,0,7.983-12.622,9.358-20.14
		c1.379-7.521,2.754-41.901-7.434-56.946c-10.185-15.039-33.865-25.116-47.624-17.793c-13.768,7.318-12.938,26.388-9.358,31.492
		c3.574,5.109,10.788,10.857,17.342,14.726C757.604,1713.644,773.455,1723.729,782.268,1749.248"/>
	<path fill="#1CACB8" d="M1105.038,1618.56c0,0-65.147-43.187-30.323-71.582c9.98-8.134,23.957,3.014,29.112,20.965
		C1109.999,1589.474,1105.038,1618.56,1105.038,1618.56 M953.485,1509.735c36.899-25.037,42.169,97.507,42.169,97.507
		S916.592,1534.771,953.485,1509.735 M1169.584,1540.525c-10.537-90.085-44.44-153.93-138.352-198.137
		c-97.986-46.116-159.443,13.178-184.479,52.71c-25.034,39.528-42.165,115.959-34.262,179.202c0,0-73.789-15.625-98.823,16.562
		c-25.038,32.2-22.407,53.279-6.594,63.826c11.783,7.852,21.226,3.948,34.264-17.137c34.604-55.953,97.507,22.399,101.463,23.721
		c3.952,1.321,30.302,22.405,34.26-17.131c3.954-39.527-38.216-159.439,21.422-234.25c34.665-43.488,78.722-72.777,164.373-10.838
		c89.581,64.774,97.514,197.648,65.888,212.146c0,0-3.58-116.37-66.417-90.819c0,0-77.209,32.848,24.248,132.987
		c0,0-18.444,14.497-61.93-11.859c0,0,7.518-180.591-72.471-180.521c-79.99,0.054-94.88,86.964,44.803,208.192
		c0,0,5.266,54.026-26.364,59.298c-31.624,5.272-40.839-6.592-61.924-34.262c-21.084-27.673-40.855,0-40.855,0
		s-13.173,11.862,9.228,36.894c22.402,25.041,23.721,40.85,18.449,51.391c-5.272,10.541-9.511,28.465-31.651,24.138
		c-20.727-4.055-32.317,13.232-15.012,31.046c20.771,21.389,74.331,18.609,80.925-59.133c0,0,61.586,26.704,80.374-26.358
		c17.844-50.385,12.76-61.586,12.76-61.586s57.079,36.188,86.065-3.157c0,0,10.545-12.995,13.183-34.081
		C1122.153,1653.365,1182.81,1653.565,1169.584,1540.525"/>
</g>
<g opacity="0.3">
	<path fill="#FB5343" d="M684.676,2343.921c0,0-5.27-33.192-28.988-30.31c-24.334,2.965-19.771,81.698,14.495,155.489
		c34.262,73.791,72.469,76.425,80.377,76.425c7.907,0,48.488,6.623,67.199-47.438c11.863-34.257,6.043-60.613-10.539-59.296
		c-23.643,1.879-20.33,29.201-22.403,39.529c-3.947,19.767-17.748,25.764-42.158,14.497
		C725.525,2484.915,691.268,2433.521,684.676,2343.921"/>
	<path fill="#FB5343" d="M782.268,2375.237c0,0,1.101,8.591,5.503,8.591c4.407,0,7.988-12.623,9.361-20.136
		c1.377-7.524,2.754-41.906-7.434-56.945c-10.187-15.045-33.863-25.116-47.624-17.799c-13.766,7.321-12.939,26.39-9.356,31.493
		c3.574,5.106,10.786,10.857,17.338,14.727C757.6,2339.63,773.455,2349.716,782.268,2375.237"/>
	<path fill="#FB5343" d="M1105.038,2244.546c0,0-65.15-43.186-30.323-71.581c9.98-8.134,23.957,3.016,29.108,20.966
		C1109.997,2215.463,1105.038,2244.546,1105.038,2244.546 M953.485,2135.722c36.897-25.034,42.169,97.505,42.169,97.505
		S916.588,2160.758,953.485,2135.722 M1169.584,2166.515c-10.541-90.085-44.442-153.932-138.356-198.14
		c-97.983-46.117-159.438,13.179-184.475,52.71s-42.167,115.963-34.262,179.206c0,0-73.789-15.63-98.827,16.563
		c-25.034,32.197-22.403,53.275-6.59,63.819c11.781,7.851,21.224,3.951,34.264-17.138c34.604-55.951,97.503,22.4,101.459,23.723
		c3.954,1.324,30.306,22.409,34.26-17.129c3.953-39.524-38.216-159.442,21.422-234.25c34.667-43.487,78.723-72.772,164.375-10.839
		c89.583,64.778,97.516,197.65,65.888,212.149c0,0-3.58-116.373-66.417-90.822c0,0-77.209,32.849,24.25,132.987
		c0,0-18.442,14.495-61.932-11.859c0,0,7.518-180.589-72.471-180.523c-79.993,0.06-94.878,86.966,44.803,208.198
		c0,0,5.268,54.024-26.362,59.296c-31.624,5.27-40.841-6.594-61.926-34.264c-21.085-27.671-40.855,0-40.855,0
		s-13.171,11.863,9.226,36.896c22.404,25.036,23.72,40.849,18.45,51.388c-5.27,10.542-9.508,28.468-31.648,24.138
		c-20.729-4.055-32.32,13.234-15.012,31.049c20.769,21.386,74.326,18.608,80.922-59.134c0,0,61.589,26.702,80.377-26.358
		c17.844-50.389,12.758-61.59,12.758-61.59s57.081,36.193,86.067-3.152c0,0,10.543-12.998,13.183-34.083
		C1122.153,2279.354,1182.808,2279.552,1169.584,2166.515"/>
</g>
<text transform="matrix(1 0 0 1 3 1240.6455)" fill="#DBD9D4" font-family="'WorkSans-Medium'" font-size="17">Logo alternative</text>
<text transform="matrix(1 0 0 1 1059.2412 1252.6455)" fill="#DBD9D4" font-family="'WorkSans-Medium'" font-size="14">©</text>
<text transform="matrix(1 0 0 1 1070.5537 1252.6455)" fill="#DBD9D4" font-family="'WorkSans-Medium'" font-size="17"> </text>
<text transform="matrix(1 0 0 1 1076.1123 1252.6455)" fill="#DBD9D4" font-family="'WorkSans-Medium'" font-size="14">Delphine Geny</text>
<line fill="none" stroke="#DBD9D4" stroke-width="1.8" stroke-miterlimit="10" x1="3.382" y1="1250.051" x2="1053.382" y2="1250.051"/>
<rect y="2620.878" fill="#FB5343" width="1181.764" height="23"/>
<rect y="2640.549" fill="#1CACB8" width="1181.764" height="19.368"/>
</svg>
