<?xml version="1.0" encoding="utf-8"?>
<!-- Generator: Adobe Illustrator 16.0.0, SVG Export Plug-In . SVG Version: 6.00 Build 0)  -->
<!DOCTYPE svg PUBLIC "-//W3C//DTD SVG 1.1//EN" "http://www.w3.org/Graphics/SVG/1.1/DTD/svg11.dtd">
<svg version="1.1" id="Calque_1" xmlns="http://www.w3.org/2000/svg" xmlns:xlink="http://www.w3.org/1999/xlink" x="0px" y="0px"
	 width="1181.764px" height="752.961px" viewBox="0 0 1181.764 752.961" enable-background="new 0 0 1181.764 752.961"
	 xml:space="preserve">
<text transform="matrix(1 0 0 1 3 48.0938)" fill="#DBD9D4" font-family="'WorkSans-Medium'" font-size="17">Primary Logo</text>
<text transform="matrix(1 0 0 1 1059.2412 60.0938)" fill="#DBD9D4" font-family="'WorkSans-Medium'" font-size="14">©</text>
<text transform="matrix(1 0 0 1 1070.5537 60.0938)" fill="#DBD9D4" font-family="'WorkSans-Medium'" font-size="17"> </text>
<text transform="matrix(1 0 0 1 1076.1123 60.0938)" fill="#DBD9D4" font-family="'WorkSans-Medium'" font-size="14">Delphine Geny</text>
<line fill="none" stroke="#DBD9D4" stroke-width="1.8" stroke-miterlimit="10" x1="3.382" y1="57.5" x2="1053.382" y2="57.5"/>
<g>
	<path d="M418.028,439.481c0,0-4.117-25.934-22.648-23.681c-19.011,2.317-15.444,63.827,11.326,121.479
		c26.769,57.65,56.619,59.709,62.796,59.709c6.178,0,37.882,5.173,52.5-37.06c9.268-26.768,4.722-47.356-8.236-46.327
		c-18.472,1.468-15.883,22.814-17.503,30.885c-3.082,15.442-13.863,20.126-32.934,11.324
		C449.942,549.637,423.178,509.483,418.028,439.481"/>
	<path d="M494.272,463.946c0,0,0.861,6.714,4.302,6.714c3.443,0,6.237-9.859,7.312-15.733c1.075-5.878,2.152-32.737-5.808-44.489
		c-7.956-11.753-26.455-19.622-37.207-13.904c-10.754,5.719-10.106,20.618-7.311,24.605c2.794,3.99,8.427,8.483,13.548,11.504
		C475.002,436.13,487.388,444.011,494.272,463.946"/>
	<path d="M746.442,361.845c0,0-50.9-33.74-23.689-55.925c7.795-6.354,18.715,2.354,22.742,16.38
		C750.317,339.121,746.442,361.845,746.442,361.845 M628.04,276.824c28.826-19.561,32.945,76.177,32.945,76.177
		S599.215,296.383,628.04,276.824 M796.87,300.879c-8.236-70.38-34.721-120.259-108.092-154.797
		c-76.555-36.03-124.566,10.295-144.124,41.181c-19.561,30.883-32.944,90.595-26.77,140.003c0,0-57.647-12.208-77.208,12.941
		c-19.559,25.157-17.503,41.623-5.149,49.863c9.204,6.133,16.581,3.084,26.768-13.389c27.035-43.715,76.178,17.501,79.268,18.533
		c3.088,1.031,23.675,17.504,26.764-13.384c3.091-30.881-29.854-124.565,16.739-183.012c27.081-33.974,61.503-56.856,128.419-8.468
		c69.986,50.608,76.186,154.418,51.477,165.743c0,0-2.799-90.917-51.889-70.953c0,0-60.322,25.661,18.943,103.896
		c0,0-14.41,11.327-48.383-9.264c0,0,5.873-141.089-56.621-141.035c-62.494,0.043-74.125,67.942,35.002,162.653
		c0,0,4.117,42.21-20.594,46.328c-24.707,4.118-31.909-5.15-48.382-26.768c-16.472-21.619-31.917,0-31.917,0
		s-10.293,9.267,7.208,28.823c17.502,19.563,18.531,31.914,14.415,40.149c-4.118,8.234-7.431,22.238-24.729,18.857
		c-16.196-3.166-25.249,10.339-11.729,24.256c16.228,16.711,58.069,14.54,63.224-46.199c0,0,48.116,20.863,62.796-20.593
		c13.939-39.364,9.967-48.117,9.967-48.117s44.596,28.275,67.24-2.464c0,0,8.238-10.153,10.301-26.628
		C759.815,389.037,807.202,389.194,796.87,300.879"/>
</g>
<g>
	<path d="M537.872,674.65h10.547v2.883h-7.265v3.801h6.398v2.813h-6.398v3.558h7.593v2.883h-10.875V674.65z"/>
	<path d="M554.605,674.65h4.896c4.899,0,8.391,3.257,8.391,7.969s-3.468,7.969-8.391,7.969h-4.896V674.65z M559.338,687.705
		c3.539,0,5.156-2.111,5.156-5.086s-1.617-5.086-5.156-5.086h-1.453v10.172H559.338z"/>
	<path d="M573.539,674.65h3.281v15.938h-3.281V674.65z"/>
	<path d="M586.641,677.533h-4.547v-2.883h12.374v2.883h-4.547v13.055h-3.28V677.533z"/>
	<path d="M599.763,674.65h3.281v15.938h-3.281V674.65z"/>
	<path d="M608.69,682.619c0-4.712,3.656-8.18,8.25-8.18s8.25,3.468,8.25,8.18s-3.656,8.18-8.25,8.18S608.69,687.331,608.69,682.619z
		 M621.815,682.619c0-2.975-1.969-5.25-4.875-5.25s-4.873,2.275-4.873,5.25s1.967,5.25,4.873,5.25S621.815,685.594,621.815,682.619z
		"/>
	<path d="M635.522,683.182c-0.795-0.751-1.896-2.181-1.896-2.181s0.234,1.759,0.234,2.907v6.68h-3.07v-16.079h0.328l8.039,7.548
		c0.773,0.727,1.873,2.181,1.873,2.181s-0.211-1.807-0.211-2.907v-6.68h3.072v16.079h-0.328L635.522,683.182z"/>
</g>
</svg>
