<?xml version="1.0" encoding="utf-8"?>
<!-- Generator: Adobe Illustrator 16.0.0, SVG Export Plug-In . SVG Version: 6.00 Build 0)  -->
<!DOCTYPE svg PUBLIC "-//W3C//DTD SVG 1.1//EN" "http://www.w3.org/Graphics/SVG/1.1/DTD/svg11.dtd">
<svg version="1.1" id="Calque_1" xmlns="http://www.w3.org/2000/svg" xmlns:xlink="http://www.w3.org/1999/xlink" x="0px" y="0px"
	 width="1181.764px" height="608.922px" viewBox="0 0 1181.764 608.922" enable-background="new 0 0 1181.764 608.922"
	 xml:space="preserve">
<text transform="matrix(1 0 0 1 3 48.0938)" fill="#DBD9D4" font-family="'WorkSans-Medium'" font-size="17">Typeface</text>
<text transform="matrix(1 0 0 1 1059.2412 60.0938)" fill="#DBD9D4" font-family="'WorkSans-Medium'" font-size="14">©</text>
<text transform="matrix(1 0 0 1 1070.5537 60.0938)" fill="#DBD9D4" font-family="'WorkSans-Medium'" font-size="17"> </text>
<text transform="matrix(1 0 0 1 1076.1123 60.0938)" fill="#DBD9D4" font-family="'WorkSans-Medium'" font-size="14">Delphine Geny</text>
<line fill="none" stroke="#DBD9D4" stroke-width="1.8" stroke-miterlimit="10" x1="3.382" y1="57.5" x2="1053.382" y2="57.5"/>
<g>
	<defs>
		
			<rect id="SVGID_1_" x="122.584" y="36.578" transform="matrix(-0.9999 0.0153 -0.0153 -0.9999 1161.33 655.3016)" width="911.135" height="591.054"/>
	</defs>
	<clipPath id="SVGID_2_">
		<use xlink:href="#SVGID_1_"  overflow="visible"/>
	</clipPath>
	<path clip-path="url(#SVGID_2_)" fill="#231F20" d="M297.444,188.325c-3.149,0.151-2.798,5.085-6.458,2.305
		c-10.574-8.035-6.965-30.744-6.965-30.744c-12.63-5.094-19.996-5.423-28.129,0.432c-9.614,6.918-10.057,21.713-10.057,21.713
		s-9.5,1.503-11.15,6.817c-1.649,5.312,0.298,7.726,4.465,8.743c5.893,1.442,6.753-11.121,9.843-7.203
		c3.09,3.92,4.134,7.358,8.373,9.569c11.547,6.021,17.174-9.076,17.194-7.756c0.021,1.321,4.031,8.75,9.535,10.431
		c5.504,1.677,16.969-2.848,17.901-8.125C302.43,192.062,301.017,188.153,297.444,188.325 M270.186,189.184
		c-8.223,0.126-9.924-2.916-11.39-9.413c-0.564-2.504,0.212-5.689,2.918-9.834c2.914-4.465,7.275-6.061,11.853-4.152
		C278.146,167.691,276.952,189.08,270.186,189.184"/>
	<path clip-path="url(#SVGID_2_)" d="M314.828,176.603c0,0,50.72-26.449,55.565-74.239c3.761-37.076-27.934-28.809-33.248-22.847
		c-5.313,5.958-13.26,10.339-14.268,57.509c-1.053,49.339-0.926,52.455,11.751,60.633c12.681,8.181,24.127-7.42,25.777-12.734
		c1.651-5.313,1.907,11.429,18.373,12.499c16.464,1.071,17.162-9.964,17.162-9.964s-16.945,5.988-26.113-9.185
		c-6.752-11.179-4.514-18.77-10.711-21.093c-6.084-2.283-7.77,1.508-6.823,6.749c0.947,5.24,10.094,9.068,3.111,19.312
		c-6.985,10.241-13.924,9.457-19.184,5.134c-5.261-4.322-3.232-41.367-3.34-48.418c-0.108-7.05,5.756-48.127,13.517-50.009
		c7.762-1.879,14.016,2.195,13.954,19.273c-0.046,12.688-12.347,29.167-45.647,59.216
		C306.109,176.193,314.828,176.603,314.828,176.603"/>
	<path clip-path="url(#SVGID_2_)" fill="#231F20" d="M424.341,182.763c0,0-4.433-22.564,9.639-27.967
		c11.915-4.578,18.852,0.267,22.123,4.511c2.931,3.808,0.291,9.178-6.627,5.5c-5.314-2.827-8.664-0.825-11.982,1.684
		c-4.781,3.612-6.995,11.373-1.118,19.3c5.873,7.927,13.056,7.402,18.212-0.279c5.155-7.682,8.051-6.263,8.051-6.263
		s5.785,1.946-2.209,12.031c-7.996,10.088-16.782,12.424-25.809,6.302l-8.221-5.575l-9.996,4.547c0,0-6.249-0.395-5.361-5.776
		C411.96,185.224,424.341,182.763,424.341,182.763"/>
	<path clip-path="url(#SVGID_2_)" fill="#231F20" d="M555.458,192.646c-2.285-2.001-4.76,0.073-8.576-0.354
		c-5.932-0.665-10.549-2.774-12.581-10.985c-2.031-8.21-3.368-15.105-2.547-23.816c0.816-8.708,0.743-44.584,3.012-51.892
		c2.27-7.308-4.534-16.417-9.218-11.013c-5.501,6.348-3.546,15.578-3.915,24.307c-0.411,9.795-0.832,38.766-0.832,38.766
		s-14.904-8.905-22.543,0.264c-4.91,5.894-8.752,11.01-8.521,24.067c0,0-3.672,8.721-11.687,14.179
		c-8.013,5.455-2.289,5.853,0.089,5.816c2.381-0.036,12.771-5.946,14.135-10.125c1.363-4.176,5.373,8.855,13.483,9.702
		c13.385,1.396,17.075-4.558,19.848-10.213c2.767-5.653,0.934,11.458,19.698,11.17C554.822,202.374,559.802,196.458,555.458,192.646
		 M513.879,189.567c-5.465,0.772-9.773-1.105-12.741-7.78c-1.915-4.308-0.815-12.451,4.009-18.097
		c4.452-5.207,13.767-3.089,16.8,8.501C524.986,183.782,519.345,188.795,513.879,189.567"/>
	<path clip-path="url(#SVGID_2_)" fill="#231F20" d="M572.658,190.255c3.567,1.071,6.706-6.42,18.499-9.71
		c10.235-2.853,17.412-6.378,16.514-15.258c-0.896-8.88-7.682-12.743-13.098-10.244c-8.693,4.01-18.373,17.434-13.567,33.533
		c4.817,16.14,18.239,13.408,23.756,10.229c3.988-2.3,5.895-3.602,9.112-9.216c1.571-2.744,1.86-7.422-0.595-9.13
		c-1.599-1.115-4.268,0.953-4.803,2.84c-2.719,9.615-13.403,10.093-16.581,7.587c-3.249-2.562-5.249-10.301-4.554-14.734
		c0.69-4.437,8.111-17.02,12.329-15.132c4.216,1.893,2.012,10.964-22.603,19.149c-4.572,1.521-6.502,2.735-7.256,4.311
		C568.6,187.006,569.646,189.351,572.658,190.255"/>
	<path clip-path="url(#SVGID_2_)" fill="#231F20" d="M640.626,197.391c-1.875,2.719-0.271,4.704,2.627,5.015
		c4.737,0.511,32.117-30.094,36.575-34.532c5.328-5.311,22.948-36.18,1.801-45.901c-16.497-7.58-26.261,9.489-27.419,24.09
		c-1.874,23.582,5.026,55.285,5.292,72.519s1.942,31.694,0.577,39.771c-1.375,8.125-5.103,9.433-10.452,2.377
		c-5.672-7.495-0.378-23.752,3.86-31.849c3.627-6.933,4.747-9.591,22.705-27.837c0.915-0.923,4.536-5.222,10.065-9.695
		c4.931-3.98,9.57-6.888,10.111-8.951c1.257-4.798-1.168-5.902-3.94-5.27c-1.596,0.363-8.796,6.609-10.9,8.957
		c-7.5,8.36-8.361,7.946-14.498,15.006c-6.219,7.145-11.718,12.653-14.291,15.81c-6.259,7.675-22.49,26.434-9.4,52.001
		c7.262,14.178,18.457,7.13,21.883,4.017c6.51-5.926,5.986-28.023,4.809-47.382c-1.182-19.359-4.118-42.805-5.879-60.956
		c-1.13-11.659-2.944-21.249,4.15-30.204c3.902-4.919,19.279-8.149,15.373,10.693C679.089,167.183,642.494,194.67,640.626,197.391"
		/>
	<path clip-path="url(#SVGID_2_)" fill="#231F20" d="M776.458,179.372c0,0,6.771-3.078,6.841,1.549
		c0.072,4.625-3.912,5.678-10.303,12.386c-6.394,6.709-27.655,31.205-28.779,47.415c-0.916,13.274,1.218,17.661,4.278,18.913
		c6.05,2.483,10.724-16.895,9.266-29.404c-1.457-12.514-2.146-34.188-2.239-40.213c-0.092-6.026,1.012-18.602-4.879-21.817
		c-5.893-3.213-13.69-3.425-16.882,0.259c-3.185,3.686-4.812,19.644,1.962,21.862c9.42,3.082,15-4.513,16.849-2.32
		c2.988,3.551-1.816,8.623-8.274,11.035c-6.456,2.413-10.82,3.059-20.909-8.525c-3.587-4.122-7.617,11.276-13.488,9.384
		c-5.757-1.857-2.022-7.57,0.203-10.58c2.229-3.008,9.93-6.103,11.503-9.432c1.02-2.166-1.009-16.5,10.68-23.301
		c7.724-4.491,17.397-6.82,25.001,0.279c6.256,5.843,5.879,14.771,5.902,19.03c0.028,5.946-1.956,26.629,0.451,35.297
		c2.402,8.668,11.924,36.614-2.441,52.699c-14.36,16.087-24.814,1.785-26.674-4.548c-3.08-10.53-5.527-23.056,11.04-46.454
		C762.129,189.487,776.458,179.372,776.458,179.372"/>
	<path clip-path="url(#SVGID_2_)" fill="#231F20" d="M797.323,179.764c0,0-2.062,2.74,0.063,4.208
		c2.128,1.471,4.575,4.141,9.921-0.152c5.349-4.291,32.611-29.661,37.318-36.347c4.709-6.685,27.145-33.486,8.232-51.45
		c-13.522-12.839-27.065-0.571-29.345,7.583c-2.988,10.68-2.51,32.506-1.424,44.513c1.086,12.01,0.655,42.681-1.067,47.817
		c-1.725,5.135,1.337,5.281,3.39,5.358c3.302,0.129,3.866-4.568,3.357-7.266c-0.505-2.698-0.472-20.135,1.872-24.08
		c2.344-3.945,6.2-7.31,11.056-4.38c4.853,2.935,3.237,15.586,3.623,20.684c0.755,9.916,3.228,15.216,8.338,15.138
		c5.106-0.078,8.49-1.687,11.641-5.538c3.472-4.243,4.938-5.17,3.388-9.653c-1.346-3.887-5.005,1.58-5.887,2.795
		c-0.883,1.218-7.089,8.218-8.993,1.633c-1.907-6.582-1.497-19.209-3.394-25.194c-1.896-5.981-8.888-14.59-21.462-9.289
		c0,0-1.164-34.843,1.988-45.126c3.147-10.268,10.366-12.56,13.656-11.331c6.815,2.545,10.653,8.855,6.663,22.743
		c-3.998,13.892-21.409,35.205-35.102,44.131C801.467,175.493,797.323,179.764,797.323,179.764"/>
	<path clip-path="url(#SVGID_2_)" fill="#231F20" d="M897.502,172.894c0,0-3.86,6.352-7.982,8.541
		c-4.282,2.268-6.604,1.202-7.842-1.685c-0.952-2.207-0.231-4.348,2.144-6.142c3.099-2.34,5.251-1.489,8.744-9.056
		c0.958-2.08,3.178-8.467,3.126-11.771c-0.05-3.308,0.923-5.447,3.222-5.482c1.935-0.03,5.72,0.534,5.8,5.64
		c0.077,5.112-1.246,14.946-1.022,18.259c0.308,4.634,1.296,15.901,3.489,18.281c2.55,2.77,6.854,2.704,10.716-0.364
		c3.861-3.065,6.764-7.878,6.764-7.878s3.701-3.921,5.229-0.728c1.863,3.882-2.381,8.848-4.29,11.248
		c-2.209,2.773-13.466,13.68-21.98,7.498C895.104,193.075,896.947,175.907,897.502,172.894"/>
	<path clip-path="url(#SVGID_2_)" fill="#231F20" d="M899.692,128.496c-2.466,2.844-3.699,7.269,0.178,11.619
		c2.199,2.471,5.336,1.661,7.414-0.113c2.08-1.773,2.616-5.646,0.557-9.428C905.776,126.798,902.151,125.655,899.692,128.496"/>
	<path clip-path="url(#SVGID_2_)" fill="#231F20" d="M182.878,376.973c0,0-3.779,3.259-6.16,0.095
		c-2.833-3.767,2.437-8.458,2.437-8.458s12.619-12.857,15.647-24.41c3.029-11.549,5.584-15.435,10.585-15.53
		c4.808-0.094,4.867,3.791,5.089,18.218c0.221,14.426-1.172,46.495-0.502,59.331c0.853,16.409,7.125,46.389-1.925,57.348
		c-9.052,10.964-19.859,9.706-26.947,0.414c-6.364-8.334-8.861-18.234-2.709-40.443c5.131-18.518,18.843-31.199,39.056-59.521
		c9.694-13.579,9.162-3.749,9.162-3.749s-16.011,22.538-30.5,43.352c-13.534,19.442-12.75,39.162-11.757,43.868
		c1.542,7.294,4.763,14.533,12.612,12.031c8.574-2.739,5.298-20.716,6.019-32.349c0.72-11.636-2.164-70.913-2.164-70.913
		S191.492,363.809,182.878,376.973"/>
	<path clip-path="url(#SVGID_2_)" fill="#231F20" d="M202.607,311.334c-2.462,2.842-3.698,7.269,0.178,11.621
		c2.2,2.47,5.337,1.658,7.413-0.114c2.081-1.774,2.619-5.648,0.558-9.426C208.692,309.635,205.068,308.49,202.607,311.334"/>
	<path clip-path="url(#SVGID_2_)" fill="#231F20" d="M244.166,348.137c-4.613,3.877-4.59,7.597,0.037,7.262
		c4.63-0.341,26.141-18.96,30.75-22.844c4.612-3.879,16.581-16.282,15.691-40.581c-0.893-24.298-21.774-20.344-28.995-12.59
		c-7.362,7.913-1.678,40.31-2.128,53.247c-1.014,29.132-0.041,38.641,0.366,43.593c0.413,4.949-1.266,7.062,1.579,7.048
		c4.63-0.022,5.364-7.469,5.347-10.94c-0.018-3.473-2.295-23.134,1.408-25.854c3.7-2.72,8.31-6.599,9.488-2.36
		c1.177,4.235-5.444,2.377-7.691,4.667c-2.594,2.633-3.883,6.506-0.43,9.259c4.397,3.513,7.813,2.275,8.777,9.601
		c1.154,8.809,3.45,14.465,9.352,14.434c5.63-0.024,9.72-4.735,12.162-7.835c2.443-3.096,4.521-5.18,4.499-9.307
		c-0.017-3.205-4.254-4.141-5.757-2.02c-3.831,5.42-10.368,15.863-13.013,7.925c-1.635-4.909-0.116-12.88-5.374-15.619
		c-2.154-1.124,5.232-2.276,5.975-8.83c0.519-4.603-5.142-19.006-18.246-16.63c0,0-0.452-13.939-1.65-28.029
		c-0.821-9.647,0.75-20.571,9.877-18.962c8.554,1.505,9.079,29.652-1.661,41.688C261.149,339.439,248.78,344.261,244.166,348.137"/>
	<path clip-path="url(#SVGID_2_)" fill="#231F20" d="M320.63,358.281c2.668,0.761,18.382-9.903,23.462-15.593
		c5.075-5.689,18.229-16.816,17.788-40.77c-0.582-31.692-22.698-30.718-26.453-27.659c-7.521,6.129-8.77,13.69-7.232,51.36
		c1.509,36.941,0.29,40.021,3.364,51.271c2.58,9.436,15.965,6.63,18.722,3.379c2.755-3.251,6.787-6.864,5.048-10.488
		c-0.727-1.516-3.633-1.546-5.203,0.473c-1.575,2.018-7.263,10.124-11.582,2.985c-5.018-8.305-3.812-39.628-3.867-43.234
		c-0.055-3.605,0.611-38.521,2.542-43.359c1.931-4.841,9.767-5.102,13.393-0.101c7.405,10.218,10.688,41.234-27.663,62.88
		C315.355,353.714,319.039,357.826,320.63,358.281"/>
	<path clip-path="url(#SVGID_2_)" fill="#231F20" d="M375.673,356.966c-2.261,1.744-4.442,0.589-4.15-2.077
		c0.347-3.189,1.783-5.379,3.963-10.113c1.525-3.303,5.336-7.386,9.749-8.333c5.44-1.17,10.097,2.935,11.523,6.545
		c1.429,3.614,4.263-4.308,10.679-4.68c5.262-0.308,6.371,1.817,8.466,4.136c2.099,2.32,5.058-1.133,8.258-3.281
		c5.662-3.805,14.736-4.448,16.602,7.781c1.83,12.002,1.037,15.848,1.429,19.277c0.792,6.938,3.58,9.166,7.018,9.239
		c4.8,0.102,8.046-4.523,9.724-3.991c2.124,0.667,2.25,3.914-0.075,6c-2.99,2.685-5.803,4.842-11.885,4.562
		c-3.692-0.164-7.438-1.229-9.198-5.912c-1.914-5.103-1.716-12.461-1.762-17.18c-0.026-2.797-0.593-13.695-6.923-11.816
		c-2.911,0.866-4.963,3.325-4.874,9.098c0.089,5.774,0.904,15.69,0.967,19.753c0.062,4.065-0.773,6.332-2.388,7.141
		c-2.747,1.377-5.79-0.212-5.861-4.855c-0.06-3.886,0.221-8.882,0.065-15.937c-0.095-4.363-2.227-12.371-5.748-14.031
		c-3.063-1.443-11.441,0.391-11.791,7.452c-0.35,7.064-0.073,10.271-0.037,12.623c0.037,2.354,1.806,13.223-0.92,14.547
		c-2.728,1.325-5.92,2.026-6.456-3.095c-0.225-2.137,1.292-20.114,1.292-20.114s1.36-15.865-5.738-15.972
		C380.507,343.63,377.937,355.223,375.673,356.966"/>
	<path clip-path="url(#SVGID_2_)" fill="#231F20" d="M474.053,367.787c0.361,2.164,1.689,3.883,4.963,2.942
		c2.957-0.851,2.554-3.513,2.517-5.898c-0.036-2.392,0.262-7.194,2.161-12.608c1.942-5.541,6.961-10.664,9.997-6.337
		c4.218,6.017,1.51,24.715,2.124,31.116c0.497,5.155,1.56,5.661,3.349,5.808c3.423,0.281,5.296-2.248,4.9-5.935
		c-0.397-3.688-0.919-21.716,0.534-24.56c1.45-2.845,2.889-8.08,7.463-7.063c4.577,1.018,2.851,15.808,2.054,20.594
		c-0.795,4.788-0.173,16.938,8.728,17.02c3.888,0.034,7.027-0.524,8.622-2.175c2.062-2.135,1.985-5.021,0.375-5.998
		c-2.351-1.415-8.862,2.515-9.594-2.678c-0.735-5.193,1.263-12.743-0.759-25.903c-2.109-13.729-9.522-11.889-13.919-10.993
		c-3.045,0.623-7.446,5.018-7.446,5.018s-2.826-6.361-9.276-5.121c-8.261,1.594-11.398,9.296-13.653,15.768
		C474.7,357.943,473.692,365.621,474.053,367.787"/>
	<path clip-path="url(#SVGID_2_)" fill="#231F20" d="M567.4,339.308c0,0-15.544,7.347-12.435,28.185
		c3.111,20.842,22.282,15.66,27.073,12.913c4.795-2.751,16.467-8.798,14.605-29.157c-1.858-20.358-15.375-18.749-18.608-14.782
		c-4.24,5.192-4.14,19.4,11.03,26.394c11.113,5.121,19.851-4.032,20.408-6.607c0.493-2.256-0.769-7.463-3.889-5.884
		c-4.573,2.308-9.217,8.757-14.181,5.984s-7.201-4.18-9.804-7.809c-1.626-2.272-0.098-7.493,3.771-6.64
		c3.86,0.86,12.024,14.683,1.741,25.646c-10.964,11.691-21.899,5.664-23.613,3.376c-1.829-2.448-4.316-9.853,1.53-18.571
		c1.899-2.836,5.189-5.605,8.224-7.298c2.021-1.128,3.943-5.478,0.558-6.726C570.299,337.035,567.4,339.308,567.4,339.308"/>
	<path clip-path="url(#SVGID_2_)" fill="#231F20" d="M622.37,367.882c-2.09,2.375-1.701,7.135,5.951,6.011
		c8.55-1.26,17.67-14.77,18.566-15.692c0.91-0.938,0.168,44.984-0.159,59.495c-0.359,15.966,2.884,19.937,6.705,19.892
		c5.722-0.061,3.154-12.75,2.823-21.224c-0.474-12.24-3.863-61.734-2.12-65.991c1.455-3.558,6.849-7.586,10.592-0.12
		c4.275,8.532,2.639,24.317,4.845,28.041c3.092,5.224,6.202,5.177,9.844,4.165c4.969-1.383,12.057-9.279,12.846-11.729
		c0.786-2.454,0.393-5.154-2.906-4.86c-6.314,0.557-11.329,12.138-13.434-1.172c-1.054-6.664,5.203-27.426-8.825-30.362
		c-6.003-1.253-8.665-0.869-11.412-0.276c-3.671,0.79-1.615-2.556-2.688-5.512c-1.195-3.278-6.443-2.775-7.254,0.328
		c-0.826,3.149,0.581,4.988,0.916,8.953c0.344,4.08-3.425,14.057-9.546,20.89C631.067,365.466,624.745,365.184,622.37,367.882"/>
	<path clip-path="url(#SVGID_2_)" d="M771.816,368.008c-7.401,4.222-12.435,0.821-12.817-3.909
		c-0.384-4.734,2.577-21.14-4.783-27.731c-7.468-6.69-19.996-5.596-27.242,1.803c-5.205,5.314-5.484,16.45-5.431,19.927
		c0,0-12.983,8.436-14.45,11.303c-2.188,4.269,1.092,8.321,4.386,7.207c2.07-0.697,4.661-2.885,7.896-6.397
		c1.083-1.184,4.784-4.256,4.784-4.256s2.286,12.115,9.852,13.788c11.58,2.568,15.188-5.698,15.188-5.698
		s-0.912,53.873-0.774,56.601c0.14,2.725,1.559,7.242,5.292,7.185c4.562-0.069,5.162-1.46,4.793-19.03
		c-0.086-4.122-0.519-38.854-0.519-38.854s4.092,2.43,11.516-0.211c7.426-2.639,8.901-8.032,8.882-9.296
		C778.366,369.172,779.217,363.788,771.816,368.008 M752.847,362.19c-1.445,5.564-16.577,15.044-18.699-2.134
		c-0.629-5.073,1.196-11.81,3.518-14.063c2.321-2.256,5.232-3.87,10.381-1.812C753.757,346.459,754.384,356.289,752.847,362.19"/>
	<path clip-path="url(#SVGID_2_)" d="M792.51,362.951c0,0,3.9-11.34,4.663-18.438c0.499-4.631,3.571-10.909,7.462-9.037
		c4.504,2.166,3.942,7.227,9.293,7.292c5.101,0.065,6.871-6.46,11.181-7.001c3.556-0.443,5.422,1.65,5.464,4.424
		c0.042,2.772-3.483,5.199-3.753,13.52s-1.902,16.354,3.019,19.505c4.147,2.661,7.604-0.998,10.292-3.621
		c1.751-1.704,4.753-2.197,5.936-0.484c2.627,3.821-1.735,9.676-7.193,12.136c-6.01,2.707-18.05,4.585-19.503-9.749
		c-0.818-8.075-0.704-19.384-0.704-19.384s-5.662,2.77-13.107-1.413c-1.038-0.584-1.234,14.742-7.781,20.093
		C794.884,373.15,788.759,372.15,792.51,362.951"/>
	<path clip-path="url(#SVGID_2_)" d="M862.58,367.515c0,0-0.342-4.049,2.97-6.896c3.312-2.852,8.089-10.614,10.369-16.942
		c2.279-6.331,4.739-10.19,7.397-10.184c2.439,0.007,2.386,6.429,3.194,7.781c2.154,3.602,7.576,9.386,8.991,11.751
		c3.735,6.247,6.068,12.635,4.723,16.289c-1.339,3.658,7.149,4.821,7.265,8.28c0.1,3.075-3.577,3.83-6.414,1.358
		c-2.837-2.477-2.853-3.456-2.853-3.456s-3.082,8.58-11.492,7.45c-8.408-1.129-12.131-6.807-13.023-10.288
		c-0.893-3.483,2.841-5.834,4.254-3.295c3.483,6.252,6.312,8.308,10.069,7.132c3.096-0.971,5.965-3.171,5.885-8.483
		c-0.082-5.312-6.802-14.784-11.76-19.01c-4.959-4.228-11.421,21.276-13.916,22.738C865.742,373.201,862.121,370.613,862.58,367.515
		"/>
	<path clip-path="url(#SVGID_2_)" d="M945.122,361.065c0,0,1.859-58.83,2.078-62.419c0.224-3.594,3.494-7.79,6.546-5.345
		c4.051,3.248,1.603,32.655,1.607,33.015c0.006,0.36,10.238-0.828,13.522-0.341c2.551,0.38,6.386,2.345,2.573,5.757
		c-2.034,1.827-13.078,2.354-16.525,2.407c-3.231,0.049-1.178,32.479-0.293,34.785c1.723,4.502,7.001,6.603,11.106,4.358
		c4.108-2.249,8.76-9.109,10.041-11.31c2.152-3.693,7.905-5.09,7.968-0.948c0.096,6.219-11.128,20.017-18.895,21.948
		c-7.77,1.925-15.599-4.581-17.168-14.52c0,0-10.253,13.158-18.523,13.837c-4.134,0.338-5.864-5.306-2.1-6.812
		C931.24,373.812,945.122,361.065,945.122,361.065"/>
	<path clip-path="url(#SVGID_2_)" d="M337.559,533.179c0,0-3.12,3.908-1.292,5.285c5.166,3.891,10.555,2.296,12.888-0.197
		c2.333-2.493,4.285-7.789,4.285-7.789s2.241,13.302,12.403,13.146c10.162-0.155,13.814-5.123,15.141-6.899
		c1.329-1.775,2.135,6.634,8.91,6.53c6.778-0.104,12.438-6.507,12.396-9.314c-0.043-2.809-2.794-4.521-6.317-2.713
		c-3.521,1.812-8.917,3.649-8.351-3.731c0.565-7.379-1.765-26.652-1.765-26.652s-1.146-8.403-4.839-6.241
		c-3.695,2.164-3.002,3.206-2.948,6.717c0.054,3.508,5.444,23.435-4.291,29.549c-9.731,6.116-15.673-5.715-14.749-11.706
		c0.926-5.982-0.264-17.197-0.264-17.197s-1.128-7.343-5.497-4.829c-3.665,2.104-1.845,11.228-2.1,13.643
		c-0.455,4.311,0.125,12.36-5.219,17.358C340.605,533.133,337.559,533.179,337.559,533.179"/>
	<path clip-path="url(#SVGID_2_)" d="M416.933,521.239c0.276,5.281-5.837,6.822-6.788,0.927c-0.824-5.085,1.672-10.068,2.685-12.827
		c1.881-5.126,9.209-12.887,14.305-12.966c6.468-0.099,12.771,9.412,13.419,18.616c0.898,12.713,1.139,19.941,6.067,20.218
		c8.238,0.458,11.099-7.177,11.577-12.65c0.334-3.823,1.423-9.43-2.347-12.311c-5.318-4.068-7.437-4.396-8.257-6.738
		c-0.819-2.338-0.167-5.871,4.75-4.774c5.135,1.152,7.127,4.595,11.434,4.142c4.305-0.456,11.056-2.454,11.769,0.6
		c1.049,4.493-3.426,6.715-5.779,6.752c-2.351,0.035-3.501-1.388-3.401,5.157c0.068,4.453-2.091,13.596-2.778,15.324
		c-1.214,3.076-4.27,13.98-18.204,12.852c-12.103-0.98-11.859-13.957-11.962-20.622c-0.102-6.662-2.314-17.141-6.533-16.952
		C420.23,506.286,416.748,517.713,416.933,521.239"/>
	<path clip-path="url(#SVGID_2_)" d="M490.677,519.621c0.63,3.927,3.088,6.65,7.809,4.84c4.654-1.785,4.666-6.22,5.806-9.41
		c1.14-3.193,7.011-8.439,7.121-1.303c0.109,7.142-2.69,13.911-1.702,18.277c1.702,7.511,6.787,12.243,11.898,12.909
		c10.536,1.37,16.236-4.814,17.735-7.496c0.603-1.076,2.983,4.399,10.979,4.276c6.346-0.097,13.006-5.357,14.094-12.114
		c1.87-11.638-3.096-20.781-3.096-20.781s8.592,4.032,14.131,3.153c4.315-0.68,9.336-2.126,8.639-5.816
		c-0.805-4.249-5.445-4.654-9.764-2.96c-2.087,0.819-6.899,2.75-14.106-1.5c-2.379-1.405-6.512-10.613-8.831-6.806
		c-2.322,3.804,1.899,7.507,1.93,9.489c0.03,1.985,8.873,14.03-0.996,25.602c-4.289,5.029-11.283,1.563-12.393-6.156
		c-1.11-7.718,1.947-15.301,1.893-18.871c-0.055-3.567-3.975-13.428-8.831-6.807c-4.859,6.619-0.623,11.116-0.559,15.278
		c0.064,4.17,0.707,20.229-6.81,21.527c-7.519,1.31-8.028-6.021-6.9-10.008c1.129-3.985,5.988-14.584-2.361-24.762
		c-7.077-8.615-15.408,0.309-17.415,2.849C494.519,508.648,490.045,515.695,490.677,519.621"/>
	<path clip-path="url(#SVGID_2_)" d="M600.17,508.924c-3.136,0.741-5.579,0.049-5.248-5.13c0.293-4.668,10.111-8.605,15.998-8.257
		c6.835,0.401,14.375,7.435,15.317,10.783c0.941,3.342,5.669-11.922,16.656-11.537c13.115,0.46,16.258,6.957,18.235,15.247
		c1.298,5.431-4.551,6.925-5.843,1.286c-0.874-3.814-7.258-7.465-9.538-7.531c-2.279-0.065-11.477,2.369-13.53,8.955
		c-2.055,6.577,1.73,19.054,11.542,19.602c8.429,0.462,7.754-2.067,11.354-2.378c3.487-0.294,5.594,4.749,3.242,7.175
		c-3.324,3.427-19.791,12.577-31.78-6.307c-1.2-1.891-16.102,16.974-27.586,12.287c-4.765-1.939-4.979-7.606-0.545-9.972
		c3.104-1.657,18.669,0.105,23.567-11.776c2.451-5.95-7.567-17.562-12.815-16.132C602.296,507.114,603.302,508.181,600.17,508.924"
		/>
	<path clip-path="url(#SVGID_2_)" d="M688.122,535.461c0,0-4.681,7.311-8.573,9.076c-3.889,1.764-6.991-1.385-5.294-4.391
		c1.694-3.006,8.843-5.674,11.969-14.884c2.27-6.691,1.705-15.795,1.396-22.683c-0.062-1.344-0.096-6.175,2.497-7.494
		c2.592-1.317,5.62-2.852,8.508,0.934c2.893,3.795-1.748,13.66-1.702,16.645c0.046,2.979-1.551,17.421,1.751,20.272
		c3.174,2.735,8.394,2.448,11.389-1.222c2.994-3.667,4.028-7.086,4.399-11.566c0.361-4.481,2.266-22.453,2.266-22.453
		s0.755-7.677,5.374-4.554c4.623,3.124,2.86,15.98,0.399,26.027c-2.458,10.051,1.343,45.151-0.94,52.003
		c-2.296,6.854-6.171,12.951-12.405,14.888c-6.505,2.016-13.475-0.802-13.802-10.437c-0.295-8.569,1.743-19.071,6.055-26.098
		c0.91-1.479,3.002-4.346,5.815-6.789c10.183-8.817,27.798-23.005,30.488-25.719c3.438-3.46,7.845,0.099,5.055,2.907
		c-2.787,2.811-26.832,26.282-33.657,35.759c-6.822,9.479-6.514,14.502-4.952,17.033c1.565,2.534,4.554,3.368,8.292,0.938
		c3.019-1.964,7.119-17.164,4.59-27.135C714.511,536.549,693.598,551.775,688.122,535.461"/>
	<path clip-path="url(#SVGID_2_)" d="M758.508,531.37c2.967-4.286,8.751-17.663,8.456-29.199c-0.189-7.188,1.575-7.485,4.15-8.433
		c2.579-0.945,5.697,2.616,5.154,5.022c-0.551,2.41,5.558-5.802,14.393-3.112c4.644,1.413,3.164,0.491,6.63,0.453
		c3.463-0.042,4.106,5.223,3.212,8.828c-0.721,2.913-11.133,23.344-11.67,27.354c-0.288,2.144,8.567,13.811,9.787,15.915
		c8.558,14.795,6.709,22.99,5.127,30.533c-3.915,18.614-17.258,11.432-23.095,5.441c-5.544-5.68-10.149-14.485-5.823-29.082
		c2.721-9.184,23.839-24.916,28.857-27.815c5.021-2.901,13.65-9.867,18.879-7.526c5.226,2.342,3.912,6.738,2.407,7.185
		c-13.804,4.144-27.318,8.557-35.436,21.485c-3.725,5.933-9.265,21.091-5.992,25.338c7.919,10.269,11.892,1.723,12.073-4.83
		c0.138-4.929-15.797-33.698-14.493-36.517c1.313-2.849,11.347-22.696,10.127-25.056c-1.214-2.358-11.919-1.635-13.828,0.676
		c-4.29,5.203-4.946,24.649-16.612,31.461c-3.898,2.277-10.574,2.809-10.005-1.119C751.471,533.813,756.445,534.351,758.508,531.37"
		/>
</g>
</svg>
