<?xml version="1.0" encoding="utf-8"?>
<!-- Generator: Adobe Illustrator 16.0.0, SVG Export Plug-In . SVG Version: 6.00 Build 0)  -->
<!DOCTYPE svg PUBLIC "-//W3C//DTD SVG 1.1//EN" "http://www.w3.org/Graphics/SVG/1.1/DTD/svg11.dtd">
<svg version="1.1" id="Calque_1" xmlns="http://www.w3.org/2000/svg" xmlns:xlink="http://www.w3.org/1999/xlink" x="0px" y="0px"
	 width="281.279px" height="149.5px" viewBox="-8.92 -100.415 281.279 149.5" enable-background="new -8.92 -100.415 281.279 149.5"
	 xml:space="preserve">
<rect x="23.827" y="-75.207" fill="#FFFFFF" width="205.878" height="105.64"/>
<g>
	<path fill="#010101" d="M120.159-31.657h-2.747c-0.139,0-0.336-0.038-0.515-0.394l-10.536-27.38
		c-0.158-0.573-0.612-0.91-1.284-0.91c-0.673,0-1.127,0.317-1.267,0.87l-10.517,27.38c-0.237,0.434-0.453,0.434-0.514,0.434h-2.748
		c-0.612,0-0.989,0.377-0.989,0.99c0,0.612,0.377,0.988,0.989,0.988h8.007c0.633,0,0.987-0.375,0.987-0.988
		c0-0.613-0.375-0.99-0.987-0.99h-2.531c-0.059,0-0.118,0-0.139,0c0.021-0.038,0.041-0.079,0.06-0.138l2.986-7.789
		c0.078-0.177,0.216-0.375,0.672-0.375h11.979c0.454,0,0.612,0.198,0.672,0.355l3.005,7.829c0.021,0.039,0.039,0.079,0.039,0.098
		c-0.039,0-0.079,0-0.138,0h-2.53c-0.612,0-0.988,0.376-0.988,0.99c0,0.612,0.376,0.988,0.988,0.988h8.007
		c0.613,0,0.987-0.375,0.987-0.988C121.108-31.3,120.773-31.657,120.159-31.657z M110.849-41.975c-0.039,0-0.1,0.019-0.177,0.019
		H99.541c-0.079,0-0.139,0-0.177-0.019c0-0.02,0.019-0.079,0.058-0.119l5.694-14.788l5.693,14.809
		C110.829-42.015,110.849-41.975,110.849-41.975z"/>
	<path fill="#010101" d="M142.043-31.657H139.1c-0.22,0-0.277-0.038-0.277-0.276v-26.984c0-0.632-0.376-0.989-0.987-0.989h-4.214
		c-0.611,0-0.988,0.377-0.988,0.989c0,0.614,0.377,0.989,0.988,0.989h2.945c0.22,0,0.278,0.04,0.278,0.277v25.719
		c0,0.218-0.04,0.276-0.278,0.276h-2.945c-0.611,0-0.988,0.377-0.988,0.99c0,0.612,0.377,0.988,0.988,0.988h8.443
		c0.61,0,0.987-0.375,0.987-0.988C143.052-31.28,142.657-31.657,142.043-31.657z"/>
	<path fill="#010101" d="M149.677-54.133c0.571,0,1.065-0.197,1.46-0.593c0.397-0.395,0.593-0.889,0.593-1.463
		c0-0.573-0.195-1.066-0.593-1.462c-0.79-0.791-2.135-0.791-2.905,0c-0.395,0.396-0.594,0.89-0.594,1.462
		c0,0.574,0.199,1.068,0.594,1.463C148.606-54.331,149.101-54.133,149.677-54.133z"/>
	<path fill="#010101" d="M154.103-31.657h-2.943c-0.22,0-0.278-0.038-0.278-0.276v-18.542c0-0.633-0.374-0.988-0.989-0.988h-4.21
		c-0.613,0-0.987,0.376-0.987,0.988s0.374,0.989,0.987,0.989h2.944c0.219,0,0.279,0.038,0.279,0.276v17.298
		c0,0.217-0.041,0.277-0.279,0.277h-2.944c-0.613,0-0.987,0.375-0.987,0.988c0,0.612,0.374,0.988,0.987,0.988h8.443
		c0.61,0,0.987-0.376,0.987-0.988C155.112-31.261,154.715-31.657,154.103-31.657z"/>
	<path fill="#010101" d="M171.461-33.574c-0.238,0-0.476,0.12-0.691,0.336c-1.406,1.325-2.89,2.017-4.372,2.017
		c-1.5,0-2.628-0.456-3.458-1.424c-0.83-0.948-1.266-2.412-1.266-4.33V-49.21c0-0.218,0.042-0.276,0.275-0.276h7.179
		c0.612,0,0.989-0.377,0.989-0.989s-0.377-0.988-0.989-0.988h-7.179c-0.216,0-0.275-0.041-0.275-0.277v-7.176
		c0-0.632-0.375-0.989-0.987-0.989s-0.989,0.377-0.989,0.989v7.176c0,0.218-0.04,0.277-0.276,0.277h-2.945
		c-0.614,0-0.988,0.376-0.988,0.988s0.374,0.989,0.988,0.989h2.945c0.218,0,0.276,0.038,0.276,0.276v12.236
		c0,2.472,0.592,4.39,1.779,5.713c1.187,1.345,2.846,2.017,4.903,2.017l0.436,0.02c0.217,0,0.769-0.099,3.143-0.909
		c0.712-0.356,1.422-0.89,2.115-1.583c0.117-0.119,0.474-0.474,0.395-0.811c0-0.256-0.139-0.495-0.437-0.81
		C171.815-33.554,171.6-33.574,171.461-33.574z"/>
	<path fill="#010101" d="M188.442-33.574c-0.238,0-0.476,0.12-0.692,0.336c-1.426,1.325-2.888,2.017-4.37,2.017
		c-1.501,0-2.63-0.456-3.46-1.424c-0.83-0.948-1.265-2.412-1.265-4.33V-49.21c0-0.218,0.04-0.276,0.275-0.276h7.179
		c0.612,0,0.989-0.377,0.989-0.989s-0.377-0.988-0.989-0.988h-7.179c-0.215,0-0.275-0.041-0.275-0.277v-7.176
		c0-0.632-0.377-0.989-0.987-0.989c-0.612,0-0.989,0.377-0.989,0.989v7.176c0,0.218-0.04,0.277-0.276,0.277h-2.944
		c-0.615,0-0.99,0.376-0.99,0.988s0.375,0.989,0.99,0.989h2.944c0.216,0,0.276,0.038,0.276,0.276v12.236
		c0,2.472,0.592,4.39,1.778,5.713c1.187,1.345,2.85,2.017,4.902,2.017l0.438,0.02c0.215,0,0.77-0.099,3.143-0.909
		c0.711-0.356,1.422-0.89,2.115-1.583c0.119-0.119,0.474-0.474,0.396-0.811c0-0.256-0.14-0.495-0.436-0.81
		C188.814-33.554,188.6-33.574,188.442-33.574z"/>
	<path fill="#010101" d="M199.058-31.657h-2.945c-0.22,0-0.275-0.038-0.275-0.276v-26.984c0-0.632-0.377-0.989-0.99-0.989h-4.213
		c-0.612,0-0.986,0.377-0.986,0.989c0,0.614,0.374,0.989,0.986,0.989h2.946c0.22,0,0.277,0.04,0.277,0.277v25.719
		c0,0.218-0.04,0.276-0.277,0.276h-2.946c-0.612,0-0.986,0.377-0.986,0.99c0,0.612,0.374,0.988,0.986,0.988h8.444
		c0.63,0,0.987-0.375,0.987-0.988C200.065-31.28,199.67-31.657,199.058-31.657z"/>
	<path fill="#010101" d="M212.283-51.899c-3.028,0-5.518,1.067-7.393,3.202c-1.86,2.115-2.809,4.843-2.809,8.125
		c0,3.281,0.948,6.009,2.809,8.125c1.875,2.115,4.388,3.202,7.451,3.202c2.096,0,3.854-0.335,5.22-0.988
		c1.345-0.633,2.55-1.425,3.576-2.313c0.276-0.237,0.415-0.476,0.436-0.711c0.021-0.139-0.021-0.356-0.216-0.575
		c-0.239-0.277-0.455-0.454-0.635-0.554c-0.277-0.138-0.611-0.04-0.987,0.297c-0.237,0.218-0.573,0.495-1.006,0.831
		c-1.643,1.344-3.758,2.036-6.289,2.036c-2.51,0-4.509-0.791-5.929-2.372c-1.444-1.582-2.254-3.579-2.413-5.97
		c-0.021-0.099,0-0.159,0-0.159c0.02-0.02,0.098-0.06,0.255-0.06h16.605c1.052,0,1.622-0.573,1.622-1.62v-0.634
		c0-2.708-0.97-5.041-2.884-6.958C217.798-50.931,215.308-51.899,212.283-51.899z M212.283-49.903c2.41,0,4.427,0.771,5.99,2.313
		c1.562,1.542,2.351,3.401,2.351,5.536c0,0.217-0.04,0.276-0.273,0.276h-15.974c-0.24,0-0.24-0.039-0.24-0.139
		c0-1.917,0.771-3.755,2.274-5.456C207.914-49.052,209.87-49.903,212.283-49.903z"/>
	<path fill="#010101" d="M52.492,11.68h-2.946c-0.217,0-0.277-0.042-0.277-0.278V-1.253c0-2.053-0.771-3.813-2.273-5.218
		c-1.502-1.404-3.5-2.095-5.931-2.095c-3.123,0-5.772,0.87-7.847,2.548c-0.475,0.336-0.534,0.853-0.178,1.346
		c0.237,0.336,0.514,0.397,0.712,0.397c0.256,0,0.553-0.121,0.849-0.357c0.436-0.336,1.226-0.771,2.333-1.227
		c1.106-0.476,2.55-0.711,4.289-0.711c1.701,0,3.144,0.514,4.311,1.521c1.166,1.029,1.739,2.275,1.739,3.795V0.43
		c0,0.217-0.039,0.276-0.277,0.276h-6.958c-2.609,0-4.725,0.632-6.326,1.857c-1.641,1.265-2.452,2.887-2.452,4.863
		c0,1.958,0.732,3.578,2.156,4.805c1.403,1.225,3.479,1.837,6.187,1.837c1.523,0,3.006-0.413,4.409-1.244
		c1.384-0.83,2.471-1.741,3.243-2.69c0.019-0.02,0.019-0.02,0.04-0.038c0.019,0.058,0.019,0.119,0.019,0.198v2.353
		c0,0.632,0.375,0.987,0.988,0.987h4.211c0.613,0,0.988-0.377,0.988-0.987C53.499,12.034,53.104,11.68,52.492,11.68z M40.037,2.702
		h6.958c0.218,0,0.277,0.041,0.277,0.279v3.694c-0.296,0.516-0.614,0.987-0.949,1.445c-1.997,2.647-4.33,3.991-6.919,3.991
		c-2.095,0-3.658-0.454-4.685-1.324c-1.008-0.869-1.502-1.977-1.502-3.361c0-1.364,0.534-2.47,1.621-3.36
		C35.945,3.157,37.684,2.702,40.037,2.702z"/>
	<path fill="#010101" d="M65.638-8.153h-5.693c-0.217,0-0.276-0.038-0.276-0.275v-7.157c0-0.632-0.376-0.987-0.989-0.987h-4.211
		c-0.612,0-0.988,0.375-0.988,0.987c0,0.615,0.376,0.989,0.988,0.989h2.945c0.219,0,0.277,0.061,0.277,0.279v26.984
		c0,0.632,0.375,0.989,0.988,0.989s0.989-0.377,0.989-0.989v-2.354c0-0.099,0-0.16,0.02-0.218c0,0,0,0,0.02,0.018
		c0.731,0.931,1.779,1.84,3.143,2.71c1.443,0.849,3.104,1.264,4.903,1.264c2.906,0,5.279-1.027,7.018-3.043
		c1.739-2.017,2.61-4.783,2.61-8.224c0-3.498-1.067-6.228-3.165-8.104C72.181-7.182,69.274-8.153,65.638-8.153z M67.812,12.092
		c-2.233,0-4.289-0.909-6.089-2.728c-0.751-0.751-1.424-1.66-2.036-2.71V-5.878c0-0.215,0.04-0.276,0.276-0.276h5.693
		c3.104,0,5.536,0.771,7.217,2.272c1.681,1.503,2.529,3.737,2.529,6.665c0,2.943-0.711,5.256-2.136,6.898
		C71.864,11.281,70.046,12.092,67.812,12.092z"/>
	<path fill="#010101" d="M91.733-8.566c-3.145,0-5.754,1.065-7.73,3.143C82.027-3.346,81.037-0.6,81.037,2.76
		c0,3.343,1.009,6.09,2.966,8.166c1.977,2.095,4.566,3.143,7.73,3.143c3.162,0,5.752-1.065,7.729-3.143
		c1.977-2.075,2.965-4.823,2.965-8.166c0-3.34-0.988-6.088-2.965-8.184C97.485-7.5,94.896-8.566,91.733-8.566z M91.733,12.092
		c-2.63,0-4.766-0.851-6.347-2.53c-1.562-1.68-2.372-3.973-2.372-6.802c0-2.827,0.811-5.119,2.392-6.819
		c1.581-1.68,3.717-2.548,6.327-2.548c2.608,0,4.724,0.85,6.306,2.548c1.581,1.701,2.393,3.993,2.393,6.819
		c0,2.829-0.791,5.122-2.374,6.802C96.518,11.242,94.381,12.092,91.733,12.092z"/>
	<path fill="#010101" d="M130.024,11.68h-2.945c-0.218,0-0.277-0.042-0.277-0.278V-7.142c0-0.635-0.376-0.989-0.987-0.989h-4.211
		c-0.633,0-0.988,0.376-0.988,0.989c0,0.61,0.374,0.987,0.988,0.987h2.945c0.217,0,0.277,0.041,0.277,0.276V6.675
		c-0.614,0.987-1.344,1.9-2.136,2.71c-1.798,1.799-3.736,2.726-5.772,2.726s-3.637-0.571-4.804-1.679
		c-1.167-1.128-1.74-2.847-1.74-5.121V-7.142c0-0.635-0.375-0.989-0.988-0.989h-4.211c-0.613,0-0.988,0.376-0.988,0.989
		c0,0.61,0.375,0.987,0.988,0.987h2.946c0.218,0,0.276,0.041,0.276,0.276V5.293c0,2.806,0.771,5,2.274,6.523
		c1.521,1.5,3.677,2.272,6.425,2.272c2.767,0,5.356-1.325,7.669-3.935c0.02-0.02,0.02-0.02,0.04-0.04c0,0.061,0.021,0.122,0.021,0.2
		v2.354c0,0.632,0.374,0.989,0.988,0.989h4.21c0.633,0,0.986-0.377,0.986-0.989C131.011,12.051,130.657,11.68,130.024,11.68z"/>
	<path fill="#010101" d="M147.382,9.759c-0.238,0-0.473,0.119-0.693,0.336c-1.401,1.324-2.885,2.015-4.367,2.015
		c-1.503,0-2.63-0.454-3.46-1.42c-0.83-0.952-1.267-2.414-1.267-4.33V-5.878c0-0.215,0.062-0.276,0.278-0.276h7.155
		c0.633,0,0.989-0.377,0.989-0.987c0-0.612-0.377-0.989-0.989-0.989h-7.155c-0.216,0-0.278-0.041-0.278-0.276v-7.179
		c0-0.632-0.375-0.987-0.987-0.987c-0.632,0-1.009,0.375-1.009,0.987v7.179c0,0.215-0.039,0.276-0.254,0.276h-2.948
		c-0.632,0-0.987,0.376-0.987,0.989c0,0.61,0.375,0.987,0.987,0.987h2.948c0.215,0,0.254,0.041,0.254,0.276V6.361
		c0,2.47,0.594,4.387,1.78,5.711c1.185,1.344,2.845,2.017,4.904,2.017l0.433,0.021c0.22,0,0.771-0.098,3.143-0.909
		c0.713-0.357,1.425-0.89,2.115-1.583c0.119-0.119,0.474-0.474,0.397-0.81c0-0.256-0.14-0.494-0.436-0.81
		C147.739,9.797,147.521,9.759,147.382,9.759z"/>
	<path fill="#010101" d="M199.194,11.68h-2.945c-0.217,0-0.273-0.042-0.273-0.278V0.23c0-2.746-0.716-4.922-2.098-6.463
		c-1.404-1.543-3.181-2.333-5.297-2.333c-2.117,0-4.113,0.949-5.913,2.809c-0.611,0.632-1.164,1.344-1.66,2.093
		c-0.534-1.44-1.323-2.589-2.414-3.419c-1.263-0.969-2.765-1.462-4.486-1.462c-2.231,0-4.506,1.323-6.74,3.935
		c-0.018,0.018-0.038,0.038-0.038,0.038c0-0.058,0-0.119,0-0.197v-2.371c0-0.635-0.377-0.989-0.989-0.989h-4.211
		c-0.612,0-0.989,0.376-0.989,0.989c0,0.61,0.377,0.987,0.989,0.987h2.945c0.218,0,0.278,0.041,0.278,0.276v17.298
		c0,0.218-0.061,0.278-0.278,0.278h-2.945c-0.612,0-0.989,0.375-0.989,0.99c0,0.612,0.377,0.986,0.989,0.986h8.007
		c0.611,0,0.988-0.375,0.988-0.986c0-0.615-0.377-0.99-0.988-0.99h-2.531c-0.217,0-0.275-0.041-0.275-0.278V-1.132
		c0.612-1.009,1.283-1.898,1.977-2.69c1.602-1.819,3.221-2.748,4.802-2.748c1.622,0,2.908,0.574,3.976,1.741
		c1.068,1.164,1.602,2.867,1.602,5.059v11.171c0,0.216-0.061,0.278-0.278,0.278h-2.528c-0.635,0-0.988,0.372-0.988,0.987
		c0,0.612,0.374,0.989,0.988,0.989h7.59c0.635,0,0.988-0.377,0.988-0.989c0-0.616-0.377-0.987-0.988-0.987h-2.531
		c-0.217,0-0.276-0.042-0.276-0.278V0.23c0-0.215-0.018-0.612-0.08-1.185c0.534-0.989,1.187-1.938,1.918-2.789
		c1.662-1.875,3.322-2.826,4.924-2.826c1.622,0,2.926,0.574,3.993,1.741c1.068,1.164,1.602,2.867,1.602,5.059v11.171
		c0,0.216-0.06,0.278-0.278,0.278h-2.527c-0.615,0-0.99,0.372-0.99,0.987c0,0.612,0.375,0.989,0.99,0.989h8.004
		c0.612,0,0.986-0.377,0.986-0.989C200.201,12.051,199.809,11.68,199.194,11.68z"/>
	<path fill="#010101" d="M219.635-5.681c-1.916-1.916-4.426-2.885-7.452-2.885c-3.044,0-5.516,1.065-7.394,3.201
		c-1.857,2.116-2.807,4.844-2.807,8.125s0.949,6.01,2.807,8.127c1.878,2.116,4.39,3.201,7.455,3.201
		c2.094,0,3.853-0.336,5.217-0.989c1.345-0.63,2.551-1.42,3.581-2.312c0.275-0.236,0.412-0.474,0.453-0.712
		c0-0.139-0.021-0.354-0.218-0.572c-0.235-0.276-0.455-0.455-0.633-0.554c-0.294-0.139-0.612-0.041-0.989,0.296
		c-0.235,0.218-0.572,0.493-1.01,0.83c-1.64,1.344-3.753,2.036-6.285,2.036c-2.509,0-4.505-0.791-5.929-2.372
		c-1.443-1.581-2.255-3.598-2.412-5.967c-0.02-0.101,0-0.159,0-0.159c0.021-0.022,0.099-0.063,0.256-0.063h16.627
		c1.045,0,1.62-0.569,1.62-1.62V1.3C222.522-1.41,221.553-3.763,219.635-5.681z M212.203-6.569c2.414,0,4.428,0.771,5.989,2.313
		c1.562,1.541,2.373,3.4,2.373,5.536c0,0.217-0.06,0.276-0.277,0.276h-15.975c-0.235,0-0.235-0.041-0.235-0.139
		c0-1.916,0.771-3.755,2.274-5.456C207.835-5.719,209.792-6.569,212.203-6.569z"/>
</g>
</svg>
