<?xml version="1.0" encoding="utf-8"?>
<!-- Generator: Adobe Illustrator 16.0.0, SVG Export Plug-In . SVG Version: 6.00 Build 0)  -->
<!DOCTYPE svg PUBLIC "-//W3C//DTD SVG 1.1//EN" "http://www.w3.org/Graphics/SVG/1.1/DTD/svg11.dtd">
<svg version="1.1" id="Calque_1" xmlns="http://www.w3.org/2000/svg" xmlns:xlink="http://www.w3.org/1999/xlink" x="0px" y="0px"
	 width="841.89px" height="23.33px" viewBox="0 0 841.89 23.33" style="enable-background:new 0 0 841.89 23.33;"
	 xml:space="preserve">
<g>
	<path d="M75.2,13.38h3.76c0.27,0.01,0.48,0.22,0.48,0.49s-0.21,0.49-0.5,0.49h-3.49l-0.23,0l-0.02,0l-0.02,0
		c-0.26-0.01-0.48-0.23-0.48-0.49C74.7,13.61,74.91,13.39,75.2,13.38z"/>
	<path d="M67.92,13.38h3.76c0.27,0.01,0.48,0.22,0.48,0.49c0,0.26-0.21,0.49-0.5,0.49h-3.49l-0.23,0l-0.02,0l-0.02,0
		c-0.27-0.01-0.48-0.23-0.48-0.49S67.64,13.39,67.92,13.38z"/>
	<path d="M60.65,13.38h3.76c0.27,0.01,0.48,0.22,0.48,0.49s-0.21,0.49-0.5,0.49H60.9l-0.23,0l-0.02,0l-0.02,0
		c-0.27-0.01-0.48-0.23-0.48-0.49S60.36,13.39,60.65,13.38z"/>
	<path d="M53.38,13.38h3.76c0.27,0.01,0.48,0.22,0.48,0.49s-0.21,0.49-0.48,0.49l-3.75,0l0,0l-0.03,0
		c-0.27-0.01-0.48-0.23-0.48-0.49S53.09,13.39,53.38,13.38z"/>
	<path d="M46.11,13.38h3.76c0.27,0.01,0.48,0.22,0.48,0.49s-0.21,0.49-0.5,0.49h-3.49l-0.23,0l-0.02,0l-0.01,0
		c-0.27-0.01-0.48-0.23-0.48-0.49S45.82,13.39,46.11,13.38z"/>
	<path d="M38.67,13.38h3.76c0.27,0.01,0.48,0.22,0.48,0.49s-0.21,0.49-0.5,0.49h-3.49l-0.23,0l-0.02,0l-0.02,0
		c-0.27-0.01-0.48-0.23-0.48-0.49S38.39,13.39,38.67,13.38z"/>
	<path d="M31.41,13.38h3.76c0.27,0.01,0.48,0.22,0.48,0.49s-0.21,0.49-0.5,0.49h-3.49l-0.23,0l-0.02,0l-0.01,0
		c-0.26-0.01-0.48-0.23-0.48-0.49C30.91,13.61,31.12,13.39,31.41,13.38z"/>
	<path d="M24.14,13.38h3.76c0.27,0.01,0.48,0.22,0.48,0.49s-0.21,0.49-0.48,0.49l-3.51,0l-0.23,0l-0.02,0l-0.02,0
		c-0.26-0.01-0.48-0.23-0.48-0.49C23.64,13.61,23.85,13.39,24.14,13.38z"/>
	<path d="M16.87,13.38h3.76c0.27,0.01,0.48,0.22,0.48,0.49s-0.21,0.49-0.5,0.49h-3.49l-0.23,0l-0.02,0l-0.02,0
		c-0.27-0.01-0.48-0.23-0.48-0.49S16.58,13.39,16.87,13.38z"/>
	<path d="M9.59,13.38h3.76c0.27,0.01,0.48,0.22,0.48,0.49s-0.21,0.49-0.48,0.49l-3.51,0l-0.23,0l-0.02,0l-0.02,0
		c-0.26-0.01-0.48-0.23-0.48-0.49C9.1,13.61,9.3,13.39,9.59,13.38z"/>
	<path d="M140.76,13.38h3.76c0.27,0.01,0.48,0.22,0.48,0.49s-0.21,0.49-0.5,0.49H141l-0.23,0l-0.02,0l-0.02,0
		c-0.27-0.01-0.48-0.23-0.48-0.49S140.47,13.39,140.76,13.38z"/>
	<path d="M133.49,13.38h3.76c0.27,0.01,0.48,0.22,0.48,0.49s-0.21,0.49-0.5,0.49h-3.49l-0.23,0l-0.02,0l-0.02,0
		c-0.26-0.01-0.48-0.23-0.48-0.49C132.99,13.61,133.2,13.39,133.49,13.38z"/>
	<path d="M126.21,13.38h3.76c0.27,0.01,0.48,0.22,0.48,0.49s-0.21,0.49-0.48,0.49l-3.51,0l-0.23,0l-0.02,0l-0.02,0
		c-0.26-0.01-0.48-0.23-0.48-0.49C125.72,13.61,125.93,13.39,126.21,13.38z"/>
	<path d="M118.94,13.38h3.76c0.27,0.01,0.48,0.22,0.48,0.49s-0.21,0.49-0.5,0.49h-3.49l-0.23,0l-0.02,0l-0.02,0
		c-0.27-0.01-0.48-0.23-0.48-0.49S118.65,13.39,118.94,13.38z"/>
	<path d="M111.67,13.38h3.76c0.27,0.01,0.48,0.22,0.48,0.49s-0.21,0.49-0.48,0.49l-3.51,0l-0.23,0l-0.02,0l-0.02,0
		c-0.26-0.01-0.48-0.23-0.48-0.49C111.17,13.61,111.38,13.39,111.67,13.38z"/>
	<path d="M104.23,13.38H108c0.27,0.01,0.48,0.22,0.48,0.49s-0.21,0.49-0.48,0.49l-3.51,0l-0.23,0l-0.02,0l-0.02,0
		c-0.26-0.01-0.48-0.23-0.48-0.49C103.74,13.61,103.95,13.39,104.23,13.38z"/>
	<path d="M96.97,13.38h3.76c0.27,0.01,0.48,0.22,0.48,0.49c0,0.26-0.21,0.49-0.5,0.49h-3.49l-0.23,0l-0.02,0l-0.02,0
		c-0.27-0.01-0.48-0.23-0.48-0.49S96.68,13.39,96.97,13.38z"/>
	<path d="M89.7,13.38h3.76c0.27,0.01,0.48,0.22,0.48,0.49s-0.21,0.49-0.5,0.49h-3.49l-0.23,0l-0.02,0l-0.02,0
		c-0.27-0.01-0.48-0.23-0.48-0.49S89.41,13.39,89.7,13.38z"/>
	<path d="M82.43,13.38h3.76c0.27,0.01,0.48,0.22,0.48,0.49s-0.21,0.49-0.48,0.49l-3.75,0l0,0l-0.03,0
		c-0.27-0.01-0.48-0.23-0.48-0.49S82.14,13.39,82.43,13.38z"/>
	<path d="M206.37,13.38h3.76c0.27,0.01,0.48,0.22,0.48,0.49s-0.21,0.49-0.5,0.49h-3.49l-0.23,0l-0.02,0l-0.02,0
		c-0.27-0.01-0.48-0.23-0.48-0.49S206.08,13.39,206.37,13.38z"/>
	<path d="M199.09,13.38h3.76c0.27,0.01,0.48,0.22,0.48,0.49s-0.21,0.49-0.5,0.49h-3.49l-0.23,0l-0.02,0l-0.02,0
		c-0.27-0.01-0.48-0.23-0.48-0.49S198.81,13.39,199.09,13.38z"/>
	<path d="M191.82,13.38h3.76c0.27,0.01,0.48,0.22,0.48,0.49s-0.21,0.49-0.5,0.49h-3.49l-0.23,0l-0.02,0l-0.02,0
		c-0.27-0.01-0.48-0.23-0.48-0.49S191.53,13.39,191.82,13.38z"/>
	<path d="M184.55,13.38h3.76c0.27,0.01,0.48,0.22,0.48,0.49s-0.21,0.49-0.5,0.49h-3.73l-0.01,0l-0.02,0
		c-0.27-0.01-0.48-0.23-0.48-0.49S184.26,13.39,184.55,13.38z"/>
	<path d="M177.28,13.38h3.76c0.27,0.01,0.48,0.22,0.48,0.49s-0.21,0.49-0.5,0.49h-3.49l-0.23,0l-0.02,0l-0.02,0
		c-0.27-0.01-0.48-0.23-0.48-0.49S176.99,13.39,177.28,13.38z"/>
	<path d="M169.84,13.38h3.76c0.27,0.01,0.48,0.22,0.48,0.49s-0.21,0.49-0.5,0.49h-3.49l-0.23,0l-0.02,0l-0.02,0
		c-0.27-0.01-0.48-0.23-0.48-0.49S169.55,13.39,169.84,13.38z"/>
	<path d="M162.58,13.38h3.76c0.27,0.01,0.48,0.22,0.48,0.49s-0.21,0.49-0.5,0.49h-3.49l-0.23,0l-0.02,0l-0.02,0
		c-0.27-0.01-0.48-0.23-0.48-0.49S162.29,13.39,162.58,13.38z"/>
	<path d="M155.31,13.38h3.76c0.27,0.01,0.48,0.22,0.48,0.49s-0.21,0.49-0.5,0.49h-3.49l-0.23,0l-0.02,0l-0.02,0
		c-0.27-0.01-0.48-0.23-0.48-0.49S155.02,13.39,155.31,13.38z"/>
	<path d="M148.03,13.38h3.76c0.27,0.01,0.48,0.22,0.48,0.49s-0.21,0.49-0.5,0.49h-3.73l-0.01,0l-0.02,0
		c-0.27-0.01-0.48-0.23-0.48-0.49S147.75,13.39,148.03,13.38z"/>
	<path d="M228.14,13.38h3.76c0.27,0.01,0.48,0.22,0.48,0.49s-0.21,0.49-0.5,0.49h-3.49l-0.23,0l-0.02,0l-0.02,0
		c-0.27-0.01-0.48-0.23-0.48-0.49S227.85,13.39,228.14,13.38z"/>
	<path d="M220.87,13.38h3.76c0.27,0.01,0.48,0.22,0.48,0.49s-0.21,0.49-0.5,0.49h-3.49l-0.23,0l-0.02,0l-0.01,0
		c-0.27-0.01-0.48-0.23-0.48-0.49S220.58,13.39,220.87,13.38z"/>
	<path d="M213.6,13.38h3.76c0.27,0.01,0.48,0.22,0.48,0.49s-0.21,0.49-0.5,0.49h-3.73l-0.01,0l-0.02,0
		c-0.27-0.01-0.48-0.23-0.48-0.49S213.31,13.39,213.6,13.38z"/>
	<path d="M250.01,13.38h3.76c0.27,0.01,0.48,0.22,0.48,0.49s-0.21,0.49-0.5,0.49h-3.49l-0.23,0l-0.02,0l-0.02,0
		c-0.27-0.01-0.48-0.23-0.48-0.49S249.72,13.39,250.01,13.38z"/>
	<path d="M242.74,13.38h3.76c0.27,0.01,0.48,0.22,0.48,0.49s-0.21,0.49-0.5,0.49h-3.49l-0.23,0l-0.02,0l-0.02,0
		c-0.27-0.01-0.48-0.23-0.48-0.49S242.45,13.39,242.74,13.38z"/>
	<path d="M235.47,13.38h3.76c0.27,0.01,0.48,0.22,0.48,0.49s-0.21,0.49-0.5,0.49h-3.49l-0.23,0l-0.02,0l-0.02,0
		c-0.27-0.01-0.48-0.23-0.48-0.49S235.18,13.39,235.47,13.38z"/>
	<path d="M271.79,13.38h3.76c0.27,0.01,0.48,0.22,0.48,0.49s-0.21,0.49-0.5,0.49h-3.49l-0.23,0l-0.02,0l-0.02,0
		c-0.27-0.01-0.48-0.23-0.48-0.49S271.5,13.39,271.79,13.38z"/>
	<path d="M264.51,13.38h3.76c0.27,0.01,0.48,0.22,0.48,0.49s-0.21,0.49-0.5,0.49h-3.49l-0.23,0l-0.02,0l-0.02,0
		c-0.27-0.01-0.48-0.23-0.48-0.49S264.23,13.39,264.51,13.38z"/>
	<path d="M257.24,13.38H261c0.27,0.01,0.48,0.22,0.48,0.49s-0.21,0.49-0.5,0.49h-3.73l-0.01,0l-0.02,0
		c-0.27-0.01-0.48-0.23-0.48-0.49S256.96,13.39,257.24,13.38z"/>
	<path d="M315.56,13.38h3.76c0.27,0.01,0.48,0.22,0.48,0.49s-0.21,0.49-0.5,0.49h-3.49l-0.23,0l-0.02,0l-0.02,0
		c-0.27-0.01-0.48-0.23-0.48-0.49S315.27,13.39,315.56,13.38z"/>
	<path d="M308.28,13.38h3.76c0.27,0.01,0.48,0.22,0.48,0.49s-0.21,0.49-0.5,0.49h-3.49l-0.23,0l-0.02,0l-0.02,0
		c-0.27-0.01-0.48-0.23-0.48-0.49S308,13.39,308.28,13.38z"/>
	<path d="M301.01,13.38h3.76c0.27,0.01,0.48,0.22,0.48,0.49s-0.21,0.49-0.5,0.49h-3.49l-0.23,0l-0.02,0l-0.02,0
		c-0.27-0.01-0.48-0.23-0.48-0.49S300.72,13.39,301.01,13.38z"/>
	<path d="M293.74,13.38h3.76c0.27,0.01,0.48,0.22,0.48,0.49s-0.21,0.49-0.5,0.49h-3.73l-0.01,0l-0.02,0
		c-0.27-0.01-0.48-0.23-0.48-0.49S293.45,13.39,293.74,13.38z"/>
	<path d="M286.47,13.38h3.76c0.27,0.01,0.48,0.22,0.48,0.49s-0.21,0.49-0.5,0.49h-3.49l-0.23,0l-0.02,0l-0.02,0
		c-0.27-0.01-0.48-0.23-0.48-0.49S286.18,13.39,286.47,13.38z"/>
	<path d="M279.03,13.38h3.76c0.27,0.01,0.48,0.22,0.48,0.49s-0.21,0.49-0.5,0.49h-3.49l-0.23,0l-0.02,0l-0.02,0
		c-0.27-0.01-0.48-0.23-0.48-0.49S278.74,13.39,279.03,13.38z"/>
	<path d="M322.79,13.38h3.76c0.27,0.01,0.48,0.22,0.48,0.49s-0.21,0.49-0.5,0.49h-3.73l-0.01,0l-0.02,0
		c-0.27-0.01-0.48-0.23-0.48-0.49S322.5,13.39,322.79,13.38z"/>
	<path d="M1.63,13.84L1.63,13.84c0.01-0.09,0.04-0.16,0.08-0.22l0-0.09h0.04c0.01-0.02,0.02-0.04,0.05-0.06l2.88-2.42
		c0.2-0.16,0.52-0.12,0.68,0.07c0.17,0.2,0.15,0.5-0.07,0.7l-1.86,1.56h2.85c0.27,0.01,0.48,0.23,0.48,0.49
		c0,0.27-0.21,0.48-0.48,0.49l-2.83,0l1.86,1.56c0.2,0.18,0.22,0.48,0.05,0.68c-0.09,0.11-0.23,0.18-0.38,0.18
		c-0.11,0-0.22-0.04-0.32-0.12l-2.67-2.24L1.8,14.28l-0.03-0.02c-0.03-0.02-0.04-0.05-0.04-0.07l-0.02-0.05
		c-0.04-0.06-0.07-0.13-0.08-0.21l-0.01-0.01L1.63,13.84z"/>
</g>
<g>
	<path d="M767.02,13.38h-3.76c-0.27,0.01-0.48,0.22-0.48,0.49s0.21,0.49,0.5,0.49h3.49l0.23,0l0.02,0l0.02,0
		c0.26-0.01,0.48-0.23,0.48-0.49C767.52,13.61,767.31,13.39,767.02,13.38z"/>
	<path d="M774.3,13.38h-3.76c-0.27,0.01-0.48,0.22-0.48,0.49c0,0.26,0.21,0.49,0.5,0.49h3.49l0.23,0l0.02,0l0.02,0
		c0.27-0.01,0.48-0.23,0.48-0.49S774.58,13.39,774.3,13.38z"/>
	<path d="M781.57,13.38h-3.76c-0.27,0.01-0.48,0.22-0.48,0.49s0.21,0.49,0.5,0.49h3.49l0.23,0l0.02,0l0.02,0
		c0.27-0.01,0.48-0.23,0.48-0.49S781.86,13.39,781.57,13.38z"/>
	<path d="M788.84,13.38h-3.76c-0.27,0.01-0.48,0.22-0.48,0.49s0.21,0.49,0.48,0.49l3.75,0l0,0l0.03,0c0.27-0.01,0.48-0.23,0.48-0.49
		S789.13,13.39,788.84,13.38z"/>
	<path d="M796.11,13.38h-3.76c-0.27,0.01-0.48,0.22-0.48,0.49s0.21,0.49,0.5,0.49h3.49l0.23,0l0.02,0l0.02,0
		c0.27-0.01,0.48-0.23,0.48-0.49S796.4,13.39,796.11,13.38z"/>
	<path d="M803.55,13.38h-3.76c-0.27,0.01-0.48,0.22-0.48,0.49s0.21,0.49,0.5,0.49h3.49l0.23,0l0.02,0l0.02,0
		c0.27-0.01,0.48-0.23,0.48-0.49S803.84,13.39,803.55,13.38z"/>
	<path d="M810.81,13.38h-3.76c-0.27,0.01-0.48,0.22-0.48,0.49s0.21,0.49,0.5,0.49h3.49l0.23,0l0.02,0l0.02,0
		c0.26-0.01,0.48-0.23,0.48-0.49C811.31,13.61,811.1,13.39,810.81,13.38z"/>
	<path d="M818.08,13.38h-3.76c-0.27,0.01-0.48,0.22-0.48,0.49s0.21,0.49,0.48,0.49l3.51,0l0.23,0l0.02,0l0.02,0
		c0.26-0.01,0.48-0.23,0.48-0.49C818.58,13.61,818.37,13.39,818.08,13.38z"/>
	<path d="M825.35,13.38h-3.76c-0.27,0.01-0.48,0.22-0.48,0.49s0.21,0.49,0.5,0.49h3.49l0.23,0l0.02,0l0.02,0
		c0.27-0.01,0.48-0.23,0.48-0.49S825.64,13.39,825.35,13.38z"/>
	<path d="M832.63,13.38h-3.76c-0.27,0.01-0.48,0.22-0.48,0.49s0.21,0.49,0.48,0.49l3.51,0l0.23,0l0.02,0l0.02,0
		c0.26-0.01,0.48-0.23,0.48-0.49C833.13,13.61,832.92,13.39,832.63,13.38z"/>
	<path d="M701.46,13.38h-3.76c-0.27,0.01-0.48,0.22-0.48,0.49s0.21,0.49,0.5,0.49h3.49l0.23,0l0.02,0l0.02,0
		c0.27-0.01,0.48-0.23,0.48-0.49S701.75,13.39,701.46,13.38z"/>
	<path d="M708.73,13.38h-3.76c-0.27,0.01-0.48,0.22-0.48,0.49s0.21,0.49,0.5,0.49h3.49l0.23,0l0.02,0l0.01,0
		c0.26-0.01,0.48-0.23,0.48-0.49C709.23,13.61,709.02,13.39,708.73,13.38z"/>
	<path d="M716.01,13.38h-3.76c-0.27,0.01-0.48,0.22-0.48,0.49s0.21,0.49,0.48,0.49l3.51,0l0.23,0l0.02,0l0.01,0
		c0.26-0.01,0.48-0.23,0.48-0.49C716.5,13.61,716.3,13.39,716.01,13.38z"/>
	<path d="M723.28,13.38h-3.76c-0.27,0.01-0.48,0.22-0.48,0.49s0.21,0.49,0.5,0.49h3.49l0.23,0l0.02,0l0.01,0
		c0.27-0.01,0.48-0.23,0.48-0.49S723.57,13.39,723.28,13.38z"/>
	<path d="M730.55,13.38h-3.76c-0.27,0.01-0.48,0.22-0.48,0.49s0.21,0.49,0.48,0.49l3.51,0l0.23,0l0.02,0l0.02,0
		c0.26-0.01,0.48-0.23,0.48-0.49C731.05,13.61,730.84,13.39,730.55,13.38z"/>
	<path d="M737.99,13.38h-3.76c-0.27,0.01-0.48,0.22-0.48,0.49s0.21,0.49,0.48,0.49l3.51,0l0.23,0l0.02,0l0.02,0
		c0.26-0.01,0.48-0.23,0.48-0.49C738.48,13.61,738.28,13.39,737.99,13.38z"/>
	<path d="M745.25,13.38h-3.76c-0.27,0.01-0.48,0.22-0.48,0.49c0,0.26,0.21,0.49,0.5,0.49H745l0.23,0l0.02,0l0.02,0
		c0.27-0.01,0.48-0.23,0.48-0.49S745.54,13.39,745.25,13.38z"/>
	<path d="M752.52,13.38h-3.76c-0.27,0.01-0.48,0.22-0.48,0.49s0.21,0.49,0.5,0.49h3.49l0.23,0l0.02,0l0.02,0
		c0.27-0.01,0.48-0.23,0.48-0.49S752.81,13.39,752.52,13.38z"/>
	<path d="M759.79,13.38h-3.76c-0.27,0.01-0.48,0.22-0.48,0.49s0.21,0.49,0.48,0.49l3.75,0l0,0l0.03,0c0.27-0.01,0.48-0.23,0.48-0.49
		S760.08,13.39,759.79,13.38z"/>
	<path d="M635.86,13.38h-3.76c-0.27,0.01-0.48,0.22-0.48,0.49s0.21,0.49,0.5,0.49h3.49l0.23,0l0.02,0l0.02,0
		c0.27-0.01,0.48-0.23,0.48-0.49S636.14,13.39,635.86,13.38z"/>
	<path d="M643.13,13.38h-3.76c-0.27,0.01-0.48,0.22-0.48,0.49s0.21,0.49,0.5,0.49h3.49l0.23,0l0.02,0l0.02,0
		c0.27-0.01,0.48-0.23,0.48-0.49S643.42,13.39,643.13,13.38z"/>
	<path d="M650.4,13.38h-3.76c-0.27,0.01-0.48,0.22-0.48,0.49s0.21,0.49,0.5,0.49h3.49l0.23,0l0.02,0l0.02,0
		c0.27-0.01,0.48-0.23,0.48-0.49S650.69,13.39,650.4,13.38z"/>
	<path d="M657.67,13.38h-3.76c-0.27,0.01-0.48,0.22-0.48,0.49s0.21,0.49,0.5,0.49h3.73l0.01,0l0.02,0c0.27-0.01,0.48-0.23,0.48-0.49
		S657.96,13.39,657.67,13.38z"/>
	<path d="M664.94,13.38h-3.76c-0.27,0.01-0.48,0.22-0.48,0.49s0.21,0.49,0.5,0.49h3.49l0.23,0l0.02,0l0.02,0
		c0.27-0.01,0.48-0.23,0.48-0.49S665.23,13.39,664.94,13.38z"/>
	<path d="M672.38,13.38h-3.76c-0.27,0.01-0.48,0.22-0.48,0.49s0.21,0.49,0.5,0.49h3.49l0.23,0l0.02,0l0.01,0
		c0.27-0.01,0.48-0.23,0.48-0.49S672.67,13.39,672.38,13.38z"/>
	<path d="M679.64,13.38h-3.76c-0.27,0.01-0.48,0.22-0.48,0.49s0.21,0.49,0.5,0.49h3.49l0.23,0l0.02,0l0.02,0
		c0.27-0.01,0.48-0.23,0.48-0.49S679.93,13.39,679.64,13.38z"/>
	<path d="M686.92,13.38h-3.76c-0.27,0.01-0.48,0.22-0.48,0.49s0.21,0.49,0.5,0.49h3.49l0.23,0l0.02,0l0.02,0
		c0.27-0.01,0.48-0.23,0.48-0.49S687.2,13.39,686.92,13.38z"/>
	<path d="M694.19,13.38h-3.76c-0.27,0.01-0.48,0.22-0.48,0.49s0.21,0.49,0.5,0.49h3.73l0,0l0.02,0c0.27-0.01,0.48-0.23,0.48-0.49
		S694.47,13.39,694.19,13.38z"/>
	<path d="M614.08,13.38h-3.76c-0.27,0.01-0.48,0.22-0.48,0.49s0.21,0.49,0.5,0.49h3.49l0.23,0l0.02,0l0.01,0
		c0.27-0.01,0.48-0.23,0.48-0.49S614.37,13.39,614.08,13.38z"/>
	<path d="M621.35,13.38h-3.76c-0.27,0.01-0.48,0.22-0.48,0.49s0.21,0.49,0.5,0.49h3.49l0.23,0l0.02,0l0.02,0
		c0.27-0.01,0.48-0.23,0.48-0.49S621.64,13.39,621.35,13.38z"/>
	<path d="M628.63,13.38h-3.76c-0.27,0.01-0.48,0.22-0.48,0.49s0.21,0.49,0.5,0.49h3.73l0.01,0l0.02,0c0.27-0.01,0.48-0.23,0.48-0.49
		S628.91,13.39,628.63,13.38z"/>
	<path d="M592.21,13.38h-3.76c-0.27,0.01-0.48,0.22-0.48,0.49s0.21,0.49,0.5,0.49h3.49l0.23,0l0.02,0l0.02,0
		c0.27-0.01,0.48-0.23,0.48-0.49S592.5,13.39,592.21,13.38z"/>
	<path d="M599.48,13.38h-3.76c-0.27,0.01-0.48,0.22-0.48,0.49s0.21,0.49,0.5,0.49h3.49l0.23,0l0.02,0l0.02,0
		c0.27-0.01,0.48-0.23,0.48-0.49S599.77,13.39,599.48,13.38z"/>
	<path d="M606.75,13.38h-3.76c-0.27,0.01-0.48,0.22-0.48,0.49s0.21,0.49,0.5,0.49h3.49l0.23,0l0.02,0l0.02,0
		c0.27-0.01,0.48-0.23,0.48-0.49S607.04,13.39,606.75,13.38z"/>
	<path d="M570.43,13.38h-3.76c-0.27,0.01-0.48,0.22-0.48,0.49s0.21,0.49,0.5,0.49h3.49l0.23,0l0.02,0l0.02,0
		c0.27-0.01,0.48-0.23,0.48-0.49S570.72,13.39,570.43,13.38z"/>
	<path d="M577.71,13.38h-3.76c-0.27,0.01-0.48,0.22-0.48,0.49s0.21,0.49,0.5,0.49h3.49l0.23,0l0.02,0l0.02,0
		c0.27-0.01,0.48-0.23,0.48-0.49S578,13.39,577.71,13.38z"/>
	<path d="M584.98,13.38h-3.76c-0.27,0.01-0.48,0.22-0.48,0.49s0.21,0.49,0.5,0.49h3.73l0.01,0l0.02,0c0.27-0.01,0.48-0.23,0.48-0.49
		S585.27,13.39,584.98,13.38z"/>
	<path d="M526.67,13.38h-3.76c-0.27,0.01-0.48,0.22-0.48,0.49s0.21,0.49,0.5,0.49h3.49l0.23,0l0.02,0l0.02,0
		c0.27-0.01,0.48-0.23,0.48-0.49S526.95,13.39,526.67,13.38z"/>
	<path d="M533.94,13.38h-3.76c-0.27,0.01-0.48,0.22-0.48,0.49s0.21,0.49,0.5,0.49h3.49l0.23,0l0.02,0l0.02,0
		c0.27-0.01,0.48-0.23,0.48-0.49S534.23,13.39,533.94,13.38z"/>
	<path d="M541.21,13.38h-3.76c-0.27,0.01-0.48,0.22-0.48,0.49s0.21,0.49,0.5,0.49h3.49l0.23,0l0.02,0l0.02,0
		c0.27-0.01,0.48-0.23,0.48-0.49S541.5,13.39,541.21,13.38z"/>
	<path d="M548.48,13.38h-3.76c-0.27,0.01-0.48,0.22-0.48,0.49s0.21,0.49,0.5,0.49h3.73l0.01,0l0.02,0c0.27-0.01,0.48-0.23,0.48-0.49
		S548.77,13.39,548.48,13.38z"/>
	<path d="M555.75,13.38h-3.76c-0.27,0.01-0.48,0.22-0.48,0.49s0.21,0.49,0.5,0.49h3.49l0.23,0l0.02,0l0.02,0
		c0.27-0.01,0.47-0.23,0.47-0.49S556.04,13.39,555.75,13.38z"/>
	<path d="M563.19,13.38h-3.76c-0.27,0.01-0.48,0.22-0.48,0.49s0.21,0.49,0.5,0.49h3.49l0.23,0l0.02,0l0.02,0
		c0.27-0.01,0.48-0.23,0.48-0.49S563.48,13.39,563.19,13.38z"/>
	<path d="M519.43,13.38h-3.76c-0.27,0.01-0.48,0.22-0.48,0.49s0.21,0.49,0.5,0.49h3.73l0,0l0.02,0c0.27-0.01,0.48-0.23,0.48-0.49
		S519.72,13.39,519.43,13.38z"/>
	<path d="M840.6,13.84L840.6,13.84c-0.01-0.09-0.04-0.16-0.08-0.22l0-0.09h-0.04c-0.01-0.02-0.02-0.04-0.05-0.06l-2.88-2.42
		c-0.2-0.16-0.52-0.12-0.68,0.07c-0.17,0.2-0.15,0.5,0.07,0.7l1.86,1.56h-2.85c-0.27,0.01-0.48,0.23-0.48,0.49
		c0,0.27,0.21,0.48,0.48,0.49l2.83,0l-1.86,1.56c-0.2,0.18-0.22,0.48-0.05,0.68c0.1,0.11,0.23,0.18,0.38,0.18
		c0.11,0,0.22-0.04,0.32-0.12l2.67-2.24l0.18-0.16l0.03-0.02c0.03-0.02,0.04-0.05,0.04-0.07l0.02-0.05
		c0.04-0.06,0.07-0.13,0.08-0.21l0-0.01L840.6,13.84z"/>
</g>
<g>
	<path d="M350.73,18.52h-1.39c-0.07,0-0.17-0.02-0.26-0.2l-5.33-13.85c-0.08-0.29-0.31-0.46-0.65-0.46s-0.57,0.16-0.64,0.44
		l-5.32,13.85c-0.12,0.22-0.23,0.22-0.26,0.22h-1.39c-0.31,0-0.5,0.19-0.5,0.5s0.19,0.5,0.5,0.5h4.05c0.32,0,0.5-0.19,0.5-0.5
		s-0.19-0.5-0.5-0.5h-1.28c-0.03,0-0.06,0-0.07,0c0.01-0.02,0.02-0.04,0.03-0.07l1.51-3.94c0.04-0.09,0.11-0.19,0.34-0.19h6.06
		c0.23,0,0.31,0.1,0.34,0.18l1.52,3.96c0.01,0.02,0.02,0.04,0.02,0.05c-0.02,0-0.04,0-0.07,0h-1.28c-0.31,0-0.5,0.19-0.5,0.5
		s0.19,0.5,0.5,0.5h4.05c0.31,0,0.5-0.19,0.5-0.5S351.04,18.52,350.73,18.52z M346.02,13.31c-0.02,0-0.05,0.01-0.09,0.01h-5.63
		c-0.04,0-0.07,0-0.09-0.01c0-0.01,0.01-0.04,0.03-0.06l2.88-7.48l2.88,7.49C346.01,13.28,346.02,13.3,346.02,13.31z"/>
	<path d="M361.8,18.52h-1.49c-0.11,0-0.14-0.02-0.14-0.14V4.73c0-0.32-0.19-0.5-0.5-0.5h-2.13c-0.31,0-0.5,0.19-0.5,0.5
		s0.19,0.5,0.5,0.5h1.49c0.11,0,0.14,0.02,0.14,0.14v13.01c0,0.11-0.02,0.14-0.14,0.14h-1.49c-0.31,0-0.5,0.19-0.5,0.5
		s0.19,0.5,0.5,0.5h4.27c0.31,0,0.5-0.19,0.5-0.5S362.11,18.52,361.8,18.52z"/>
	<path d="M365.66,7.15c0.29,0,0.54-0.1,0.74-0.3c0.2-0.2,0.3-0.45,0.3-0.74c0-0.29-0.1-0.54-0.3-0.74c-0.4-0.4-1.08-0.4-1.47,0
		c-0.2,0.2-0.3,0.45-0.3,0.74c0,0.29,0.1,0.54,0.3,0.74C365.12,7.05,365.37,7.15,365.66,7.15z"/>
	<path d="M367.9,18.52h-1.49c-0.11,0-0.14-0.02-0.14-0.14V9c0-0.32-0.19-0.5-0.5-0.5h-2.13c-0.31,0-0.5,0.19-0.5,0.5
		s0.19,0.5,0.5,0.5h1.49c0.11,0,0.14,0.02,0.14,0.14v8.75c0,0.11-0.02,0.14-0.14,0.14h-1.49c-0.31,0-0.5,0.19-0.5,0.5
		s0.19,0.5,0.5,0.5h4.27c0.31,0,0.5-0.19,0.5-0.5S368.21,18.52,367.9,18.52z"/>
	<path d="M376.68,17.55c-0.12,0-0.24,0.06-0.35,0.17c-0.71,0.67-1.46,1.02-2.21,1.02c-0.76,0-1.33-0.23-1.75-0.72
		c-0.42-0.48-0.64-1.22-0.64-2.19V9.64c0-0.11,0.02-0.14,0.14-0.14h3.63c0.31,0,0.5-0.19,0.5-0.5s-0.19-0.5-0.5-0.5h-3.63
		c-0.11,0-0.14-0.02-0.14-0.14V4.73c0-0.32-0.19-0.5-0.5-0.5s-0.5,0.19-0.5,0.5v3.63c0,0.11-0.02,0.14-0.14,0.14h-1.49
		c-0.31,0-0.5,0.19-0.5,0.5s0.19,0.5,0.5,0.5h1.49c0.11,0,0.14,0.02,0.14,0.14v6.19c0,1.25,0.3,2.22,0.9,2.89
		c0.6,0.68,1.44,1.02,2.48,1.02l0.22,0.01c0.11,0,0.39-0.05,1.59-0.46c0.36-0.18,0.72-0.45,1.07-0.8c0.06-0.06,0.24-0.24,0.2-0.41
		c0-0.13-0.07-0.25-0.22-0.41C376.86,17.57,376.75,17.55,376.68,17.55z"/>
	<path d="M385.27,17.55c-0.12,0-0.24,0.06-0.35,0.17c-0.72,0.67-1.46,1.02-2.21,1.02c-0.76,0-1.33-0.23-1.75-0.72
		c-0.42-0.48-0.64-1.22-0.64-2.19V9.64c0-0.11,0.02-0.14,0.14-0.14h3.63c0.31,0,0.5-0.19,0.5-0.5s-0.19-0.5-0.5-0.5h-3.63
		c-0.11,0-0.14-0.02-0.14-0.14V4.73c0-0.32-0.19-0.5-0.5-0.5s-0.5,0.19-0.5,0.5v3.63c0,0.11-0.02,0.14-0.14,0.14h-1.49
		c-0.31,0-0.5,0.19-0.5,0.5s0.19,0.5,0.5,0.5h1.49c0.11,0,0.14,0.02,0.14,0.14v6.19c0,1.25,0.3,2.22,0.9,2.89
		c0.6,0.68,1.44,1.02,2.48,1.02l0.22,0.01c0.11,0,0.39-0.05,1.59-0.46c0.36-0.18,0.72-0.45,1.07-0.8c0.06-0.06,0.24-0.24,0.2-0.41
		c0-0.13-0.07-0.25-0.22-0.41C385.46,17.57,385.35,17.55,385.27,17.55z"/>
	<path d="M390.64,18.52h-1.49c-0.11,0-0.14-0.02-0.14-0.14V4.73c0-0.32-0.19-0.5-0.5-0.5h-2.13c-0.31,0-0.5,0.19-0.5,0.5
		s0.19,0.5,0.5,0.5h1.49c0.11,0,0.14,0.02,0.14,0.14v13.01c0,0.11-0.02,0.14-0.14,0.14h-1.49c-0.31,0-0.5,0.19-0.5,0.5
		s0.19,0.5,0.5,0.5h4.27c0.32,0,0.5-0.19,0.5-0.5S390.95,18.52,390.64,18.52z"/>
	<path d="M397.33,8.28c-1.53,0-2.79,0.54-3.74,1.62c-0.94,1.07-1.42,2.45-1.42,4.11c0,1.66,0.48,3.04,1.42,4.11
		c0.95,1.07,2.22,1.62,3.77,1.62c1.06,0,1.95-0.17,2.64-0.5c0.68-0.32,1.29-0.72,1.81-1.17c0.14-0.12,0.21-0.24,0.22-0.36
		c0.01-0.07-0.01-0.18-0.11-0.29c-0.12-0.14-0.23-0.23-0.32-0.28c-0.14-0.07-0.31-0.02-0.5,0.15c-0.12,0.11-0.29,0.25-0.51,0.42
		c-0.83,0.68-1.9,1.03-3.18,1.03c-1.27,0-2.28-0.4-3-1.2c-0.73-0.8-1.14-1.81-1.22-3.02c-0.01-0.05,0-0.08,0-0.08
		c0.01-0.01,0.05-0.03,0.13-0.03h8.4c0.53,0,0.82-0.29,0.82-0.82v-0.32c0-1.37-0.49-2.55-1.46-3.52
		C400.12,8.77,398.86,8.28,397.33,8.28z M397.33,9.29c1.22,0,2.24,0.39,3.03,1.17c0.79,0.78,1.19,1.72,1.19,2.8
		c0,0.11-0.02,0.14-0.14,0.14h-8.08c-0.12,0-0.12-0.02-0.12-0.07c0-0.97,0.39-1.9,1.15-2.76C395.12,9.72,396.11,9.29,397.33,9.29z"
		/>
	<path d="M420.74,18.52h-1.49c-0.11,0-0.14-0.02-0.14-0.14v-6.4c0-1.04-0.39-1.93-1.15-2.64c-0.76-0.71-1.77-1.06-3-1.06
		c-1.58,0-2.92,0.44-3.97,1.29c-0.24,0.17-0.27,0.43-0.09,0.68c0.12,0.17,0.26,0.2,0.36,0.2c0.13,0,0.28-0.06,0.43-0.18
		c0.22-0.17,0.62-0.39,1.18-0.62c0.56-0.24,1.29-0.36,2.17-0.36c0.86,0,1.59,0.26,2.18,0.77c0.59,0.52,0.88,1.15,0.88,1.92v0.85
		c0,0.11-0.02,0.14-0.14,0.14h-3.52c-1.32,0-2.39,0.32-3.2,0.94c-0.83,0.64-1.24,1.46-1.24,2.46c0,0.99,0.37,1.81,1.09,2.43
		c0.71,0.62,1.76,0.93,3.13,0.93c0.77,0,1.52-0.21,2.23-0.63c0.7-0.42,1.25-0.88,1.64-1.36c0.01-0.01,0.01-0.01,0.02-0.02
		c0.01,0.03,0.01,0.06,0.01,0.1v1.19c0,0.32,0.19,0.5,0.5,0.5h2.13c0.31,0,0.5-0.19,0.5-0.5S421.05,18.52,420.74,18.52z
		 M414.44,13.98h3.52c0.11,0,0.14,0.02,0.14,0.14v1.87c-0.15,0.26-0.31,0.5-0.48,0.73c-1.01,1.34-2.19,2.02-3.5,2.02
		c-1.06,0-1.85-0.23-2.37-0.67c-0.51-0.44-0.76-1-0.76-1.7c0-0.69,0.27-1.25,0.82-1.7C412.37,14.21,413.25,13.98,414.44,13.98z"/>
	<path d="M427.39,8.49h-2.88c-0.11,0-0.14-0.02-0.14-0.14V4.73c0-0.32-0.19-0.5-0.5-0.5h-2.13c-0.31,0-0.5,0.19-0.5,0.5
		s0.19,0.5,0.5,0.5h1.49c0.11,0,0.14,0.03,0.14,0.14v13.65c0,0.32,0.19,0.5,0.5,0.5s0.5-0.19,0.5-0.5v-1.19c0-0.05,0-0.08,0.01-0.11
		c0,0,0,0,0.01,0.01c0.37,0.47,0.9,0.93,1.59,1.37c0.73,0.43,1.57,0.64,2.48,0.64c1.47,0,2.67-0.52,3.55-1.54
		c0.88-1.02,1.32-2.42,1.32-4.16c0-1.77-0.54-3.15-1.6-4.1C430.7,8.98,429.23,8.49,427.39,8.49z M428.49,18.73
		c-1.13,0-2.17-0.46-3.08-1.38c-0.38-0.38-0.72-0.84-1.03-1.37V9.64c0-0.11,0.02-0.14,0.14-0.14h2.88c1.57,0,2.8,0.39,3.65,1.15
		c0.85,0.76,1.28,1.89,1.28,3.37c0,1.49-0.36,2.66-1.08,3.49C430.54,18.32,429.62,18.73,428.49,18.73z"/>
	<path d="M440.59,8.28c-1.59,0-2.91,0.54-3.91,1.59c-1,1.05-1.5,2.44-1.5,4.14c0,1.69,0.51,3.08,1.5,4.13
		c1,1.06,2.31,1.59,3.91,1.59c1.6,0,2.91-0.54,3.91-1.59c1-1.05,1.5-2.44,1.5-4.13c0-1.69-0.5-3.08-1.5-4.14
		C443.5,8.82,442.19,8.28,440.59,8.28z M440.59,18.73c-1.33,0-2.41-0.43-3.21-1.28c-0.79-0.85-1.2-2.01-1.2-3.44
		c0-1.43,0.41-2.59,1.21-3.45c0.8-0.85,1.88-1.29,3.2-1.29c1.32,0,2.39,0.43,3.19,1.29c0.8,0.86,1.21,2.02,1.21,3.45
		c0,1.43-0.4,2.59-1.2,3.44C443.01,18.3,441.93,18.73,440.59,18.73z"/>
	<path d="M459.96,18.52h-1.49c-0.11,0-0.14-0.02-0.14-0.14V9c0-0.32-0.19-0.5-0.5-0.5h-2.13c-0.32,0-0.5,0.19-0.5,0.5
		s0.19,0.5,0.5,0.5h1.49c0.11,0,0.14,0.02,0.14,0.14v6.35c-0.31,0.5-0.68,0.96-1.08,1.37c-0.91,0.91-1.89,1.38-2.92,1.38
		s-1.84-0.29-2.43-0.85c-0.59-0.57-0.88-1.44-0.88-2.59V9c0-0.32-0.19-0.5-0.5-0.5h-2.13c-0.31,0-0.5,0.19-0.5,0.5s0.19,0.5,0.5,0.5
		h1.49c0.11,0,0.14,0.02,0.14,0.14v5.65c0,1.42,0.39,2.53,1.15,3.3c0.77,0.76,1.86,1.15,3.25,1.15c1.4,0,2.71-0.67,3.88-1.99
		c0.01-0.01,0.01-0.01,0.02-0.02c0,0.03,0.01,0.06,0.01,0.1v1.19c0,0.32,0.19,0.5,0.5,0.5h2.13c0.32,0,0.5-0.19,0.5-0.5
		S460.28,18.52,459.96,18.52z"/>
	<path d="M468.74,17.55c-0.12,0-0.24,0.06-0.35,0.17c-0.71,0.67-1.46,1.02-2.21,1.02c-0.76,0-1.33-0.23-1.75-0.72
		c-0.42-0.48-0.64-1.22-0.64-2.19V9.64c0-0.11,0.03-0.14,0.14-0.14h3.62c0.32,0,0.5-0.19,0.5-0.5s-0.19-0.5-0.5-0.5h-3.62
		c-0.11,0-0.14-0.02-0.14-0.14V4.73c0-0.32-0.19-0.5-0.5-0.5c-0.32,0-0.51,0.19-0.51,0.5v3.63c0,0.11-0.02,0.14-0.13,0.14h-1.49
		c-0.32,0-0.5,0.19-0.5,0.5s0.19,0.5,0.5,0.5h1.49c0.11,0,0.13,0.02,0.13,0.14v6.19c0,1.25,0.3,2.22,0.9,2.89
		c0.6,0.68,1.44,1.02,2.48,1.02l0.22,0.01c0.11,0,0.39-0.05,1.59-0.46c0.36-0.18,0.72-0.45,1.07-0.8c0.06-0.06,0.24-0.24,0.2-0.41
		c0-0.13-0.07-0.25-0.22-0.41C468.92,17.57,468.81,17.55,468.74,17.55z"/>
	<path d="M494.95,18.52h-1.49c-0.11,0-0.14-0.02-0.14-0.14v-5.65c0-1.39-0.36-2.49-1.06-3.27c-0.71-0.78-1.61-1.18-2.68-1.18
		s-2.08,0.48-2.99,1.42c-0.31,0.32-0.59,0.68-0.84,1.06c-0.27-0.73-0.67-1.31-1.22-1.73c-0.64-0.49-1.4-0.74-2.27-0.74
		c-1.13,0-2.28,0.67-3.41,1.99c-0.01,0.01-0.02,0.02-0.02,0.02c0-0.03,0-0.06,0-0.1V9c0-0.32-0.19-0.5-0.5-0.5h-2.13
		c-0.31,0-0.5,0.19-0.5,0.5s0.19,0.5,0.5,0.5h1.49c0.11,0,0.14,0.02,0.14,0.14v8.75c0,0.11-0.03,0.14-0.14,0.14h-1.49
		c-0.31,0-0.5,0.19-0.5,0.5s0.19,0.5,0.5,0.5h4.05c0.31,0,0.5-0.19,0.5-0.5s-0.19-0.5-0.5-0.5h-1.28c-0.11,0-0.14-0.02-0.14-0.14
		v-6.35c0.31-0.51,0.65-0.96,1-1.36c0.81-0.92,1.63-1.39,2.43-1.39c0.82,0,1.47,0.29,2.01,0.88c0.54,0.59,0.81,1.45,0.81,2.56v5.65
		c0,0.11-0.03,0.14-0.14,0.14h-1.28c-0.32,0-0.5,0.19-0.5,0.5s0.19,0.5,0.5,0.5h3.84c0.32,0,0.5-0.19,0.5-0.5s-0.19-0.5-0.5-0.5
		h-1.28c-0.11,0-0.14-0.02-0.14-0.14v-5.65c0-0.11-0.01-0.31-0.04-0.6c0.27-0.5,0.6-0.98,0.97-1.41c0.84-0.95,1.68-1.43,2.49-1.43
		c0.82,0,1.48,0.29,2.02,0.88c0.54,0.59,0.81,1.45,0.81,2.56v5.65c0,0.11-0.03,0.14-0.14,0.14h-1.28c-0.31,0-0.5,0.19-0.5,0.5
		s0.19,0.5,0.5,0.5h4.05c0.31,0,0.5-0.19,0.5-0.5S495.26,18.52,494.95,18.52z"/>
	<path d="M505.29,9.74c-0.97-0.97-2.24-1.46-3.77-1.46c-1.54,0-2.79,0.54-3.74,1.62c-0.94,1.07-1.42,2.45-1.42,4.11
		c0,1.66,0.48,3.04,1.42,4.11c0.95,1.07,2.22,1.62,3.77,1.62c1.06,0,1.95-0.17,2.64-0.5c0.68-0.32,1.29-0.72,1.81-1.17
		c0.14-0.12,0.21-0.24,0.23-0.36c0-0.07-0.01-0.18-0.11-0.29c-0.12-0.14-0.23-0.23-0.32-0.28c-0.15-0.07-0.31-0.02-0.5,0.15
		c-0.12,0.11-0.29,0.25-0.51,0.42c-0.83,0.68-1.9,1.03-3.18,1.03c-1.27,0-2.28-0.4-3-1.2c-0.73-0.8-1.14-1.82-1.22-3.02
		c-0.01-0.05,0-0.08,0-0.08c0.01-0.01,0.05-0.03,0.13-0.03h8.41c0.53,0,0.82-0.29,0.82-0.82v-0.32
		C506.75,11.9,506.26,10.71,505.29,9.74z M501.53,9.29c1.22,0,2.24,0.39,3.03,1.17c0.79,0.78,1.2,1.72,1.2,2.8
		c0,0.11-0.03,0.14-0.14,0.14h-8.08c-0.12,0-0.12-0.02-0.12-0.07c0-0.97,0.39-1.9,1.15-2.76C499.32,9.72,500.31,9.29,501.53,9.29z"
		/>
</g>
</svg>
