<?xml version="1.0" encoding="utf-8"?>
<!-- Generator: Adobe Illustrator 16.0.0, SVG Export Plug-In . SVG Version: 6.00 Build 0)  -->
<!DOCTYPE svg PUBLIC "-//W3C//DTD SVG 1.1//EN" "http://www.w3.org/Graphics/SVG/1.1/DTD/svg11.dtd">
<svg version="1.1" id="Calque_1" xmlns="http://www.w3.org/2000/svg" xmlns:xlink="http://www.w3.org/1999/xlink" x="0px" y="0px"
	 width="8.58px" height="11.03px" viewBox="0.03 0 8.58 11.03" style="enable-background:new 0.03 0 8.58 11.03;"
	 xml:space="preserve">
<path style="fill:#010101;" d="M0.1,11.01c0.24,0,0.44-0.09,0.65-0.23c0.01-0.01,0.01,0,0.02-0.01l0,0
	c0.07-0.05,0.16-0.04,0.22-0.11l0.03-0.04l3.66-4.36L8.34,1.9l0.03-0.04C8.75,1.38,8.68,0.67,8.2,0.27C7.71-0.13,7-0.07,6.59,0.39
	V0.4L6.55,0.44L6.08,1.01L1.2,6.83L0.07,8.16L0.03,8.12v2.91h0.01C0.06,11.03,0.08,11.01,0.1,11.01z"/>
</svg>
