<?xml version="1.0" encoding="utf-8"?>
<!-- Generator: Adobe Illustrator 16.0.0, SVG Export Plug-In . SVG Version: 6.00 Build 0)  -->
<!DOCTYPE svg PUBLIC "-//W3C//DTD SVG 1.1//EN" "http://www.w3.org/Graphics/SVG/1.1/DTD/svg11.dtd">
<svg version="1.1" id="Calque_1" xmlns="http://www.w3.org/2000/svg" xmlns:xlink="http://www.w3.org/1999/xlink" x="0px" y="0px"
	 width="11.62px" height="27.67px" viewBox="0 0 11.62 27.67" style="enable-background:new 0 0 11.62 27.67;" xml:space="preserve"
	>
<path style="fill:#010101;" d="M0.38,5.77c-0.41,0.48-0.35,1.19,0.11,1.6L0.5,7.38l0.04,0.03l0.57,0.47l5.82,4.88l1.32,1.11
	L8.23,13.9l0,0L4.9,16.7l-4.36,3.66L0.5,20.39C0.04,20.81-0.02,21.52,0.38,22c0.41,0.48,1.11,0.55,1.6,0.16l0.01-0.01l0.04-0.03
	l0.56-0.47l7.57-6.35l0.57-0.47l0.04-0.03l0.01-0.01c0.06-0.06,0.06-0.15,0.1-0.22h0.01c0.01-0.01,0-0.03,0.01-0.04
	c0.12-0.19,0.22-0.37,0.22-0.59c0-0.01,0-0.02,0.01-0.02l0,0c0,0,0,0,0-0.01c0-0.02-0.02-0.03-0.02-0.05c0-0.24-0.09-0.44-0.23-0.64
	c-0.01-0.01,0-0.01-0.01-0.02l0,0c-0.05-0.07-0.04-0.16-0.11-0.22l-0.04-0.03L6.38,9.3L2.02,5.64L1.98,5.6
	C1.49,5.23,0.78,5.29,0.38,5.77z"/>
<g>
	<path style="fill:#231F20;" d="M38.54,15.87c-0.41,0-0.66,0.25-0.66,0.66v3.07c0,0.15-0.03,0.18-0.18,0.18h-8.94
		c-0.15,0-0.18-0.03-0.18-0.18V2.65c0-0.15,0.03-0.18,0.18-0.18h2.51c0.41,0,0.66-0.25,0.66-0.66c0-0.41-0.25-0.66-0.66-0.66h-6.15
		c-0.41,0-0.66,0.25-0.66,0.66c0,0.41,0.25,0.66,0.66,0.66h1.96c0.15,0,0.18,0.03,0.18,0.18V19.6c0,0.15-0.03,0.18-0.18,0.18h-1.96
		c-0.41,0-0.66,0.25-0.66,0.66s0.25,0.66,0.66,0.66h13.41c0.41,0,0.66-0.25,0.66-0.66v-3.91C39.2,16.12,38.95,15.87,38.54,15.87z"/>
	<path style="fill:#231F20;" d="M47.55,6.46c-2.01,0-3.66,0.71-4.9,2.12c-1.23,1.4-1.86,3.2-1.86,5.3c0,2.17,0.63,3.98,1.86,5.38
		c1.24,1.41,2.9,2.12,4.94,2.12c1.39,0,2.56-0.22,3.46-0.65c0.88-0.42,1.68-0.94,2.37-1.53c0.18-0.15,0.28-0.31,0.29-0.47
		c0.01-0.09-0.01-0.24-0.14-0.39c-0.17-0.19-0.3-0.3-0.42-0.36c-0.19-0.1-0.41-0.03-0.65,0.2c-0.16,0.15-0.38,0.33-0.67,0.55
		c-1.08,0.89-2.48,1.34-4.16,1.34c-1.66,0-2.99-0.53-3.93-1.57c-0.96-1.05-1.49-2.37-1.6-3.95c-0.01-0.07,0-0.11,0.01-0.11
		c0.01-0.01,0.06-0.04,0.17-0.04h11.01c0.69,0,1.08-0.38,1.08-1.07v-0.39c0-1.73-0.64-3.28-1.91-4.56
		C51.21,7.1,49.55,6.46,47.55,6.46z M47.55,7.77c1.59,0,2.92,0.52,3.97,1.54c1.04,1.02,1.56,2.25,1.56,3.62
		c0,0.14-0.03,0.17-0.18,0.17H42.31c-0.15,0-0.15-0.03-0.15-0.09c0-1.22,0.51-2.42,1.5-3.55C44.65,8.34,45.96,7.77,47.55,7.77z"/>
	<path style="fill:#231F20;" d="M66.18,18.51c-0.16,0-0.31,0.08-0.46,0.22c-0.93,0.88-1.91,1.33-2.89,1.33
		c-0.99,0-1.74-0.31-2.29-0.93c-0.56-0.63-0.83-1.6-0.83-2.88V8.23c0-0.14,0.03-0.18,0.18-0.18h4.75c0.41,0,0.66-0.25,0.66-0.66
		c0-0.41-0.25-0.66-0.66-0.66h-4.75c-0.15,0-0.18-0.03-0.18-0.18V1.81c0-0.41-0.25-0.66-0.66-0.66c-0.41,0-0.66,0.25-0.66,0.66v4.75
		c0,0.15-0.03,0.18-0.18,0.18h-1.96c-0.41,0-0.66,0.24-0.66,0.66c0,0.41,0.25,0.66,0.66,0.66h1.96c0.15,0,0.18,0.03,0.18,0.18v8.02
		c0,1.64,0.4,2.91,1.18,3.79c0.79,0.88,1.88,1.33,3.29,1.34l0.25,0.02c0.14,0,0.51-0.07,2.08-0.6c0.47-0.23,0.94-0.59,1.4-1.05
		c0.08-0.08,0.31-0.31,0.27-0.53c0-0.16-0.09-0.33-0.29-0.53C66.42,18.54,66.28,18.51,66.18,18.51z"/>
	<path style="fill:#231F20;" d="M69.24,1.15c-0.41,0-0.66,0.25-0.66,0.66v5.87c0,0.41,0.25,0.66,0.66,0.66s0.66-0.25,0.66-0.66V1.81
		C69.9,1.4,69.65,1.15,69.24,1.15z"/>
	<path style="fill:#231F20;" d="M82.42,13.7c-0.51-0.11-1.09-0.21-1.78-0.31c-0.65-0.09-1.29-0.18-1.93-0.29
		c-1.43-0.2-2.5-0.51-3.19-0.94c-0.65-0.4-0.96-0.96-0.96-1.72c0-0.76,0.37-1.37,1.14-1.88c0.79-0.52,1.93-0.79,3.4-0.79
		c0.78,0,1.49,0.14,2.1,0.42c1.19,0.57,2.17,1.36,2.94,2.35v1.31c0,0.4,0.25,0.64,0.66,0.64c0.41,0,0.66-0.24,0.66-0.64V7.4
		c0-0.41-0.25-0.66-0.66-0.66c-0.41,0-0.66,0.24-0.66,0.66v1.12c0,0.05,0,0.1-0.01,0.14c-0.01-0.01-0.01-0.02-0.02-0.03
		c-1.44-1.44-3.1-2.17-4.95-2.17c-1.83,0-3.29,0.38-4.32,1.14c-1.06,0.77-1.59,1.69-1.59,2.75c0,1.04,0.31,1.84,0.91,2.4
		c0.59,0.52,1.47,0.95,2.61,1.26c0.54,0.15,1.38,0.31,2.52,0.48c1.17,0.17,2.14,0.34,2.94,0.53c1.66,0.38,2.47,1.11,2.47,2.22
		c0,0.84-0.39,1.5-1.19,2.02c-0.82,0.54-2.03,0.81-3.6,0.81c-0.91,0-1.71-0.14-2.36-0.42c-1.25-0.54-2.25-1.33-2.99-2.34v-1.32
		c0-0.41-0.25-0.66-0.66-0.66s-0.66,0.25-0.66,0.66v4.47c0,0.41,0.25,0.66,0.66,0.66s0.66-0.25,0.66-0.66v-1.12
		c0-0.04,0-0.09,0.01-0.12c0.02,0.01,0.04,0.03,0.05,0.05c0.22,0.23,0.52,0.48,0.9,0.74c1.33,0.92,2.81,1.38,4.38,1.38
		c2,0,3.53-0.39,4.55-1.16c1.04-0.79,1.56-1.75,1.56-2.86c0-1.1-0.33-1.94-0.98-2.48C84.41,14.34,83.53,13.95,82.42,13.7z"/>
	<path style="fill:#231F20;" d="M111.31,6.6h-1.82c-0.89,0-1.65,0.28-2.27,0.83c-1.09-0.64-2.56-0.97-4.38-0.97
		c-1.93,0-3.45,0.47-4.53,1.4c-1.08,0.94-1.63,2.14-1.62,3.58c0.01,1.38,0.37,2.46,1.08,3.24c0.14,0.16,0.14,0.23,0.14,0.23
		s-0.01,0.02-0.03,0.03c-1.08,0.47-1.62,1.13-1.62,1.96c0,0.51,0.17,0.94,0.51,1.28c0.31,0.33,0.6,0.54,0.88,0.64
		c0.07,0.02,0.12,0.05,0.16,0.06c-0.01,0-0.01,0.01-0.02,0.01c-0.71,0.35-1.27,0.87-1.65,1.52c-0.38,0.65-0.58,1.32-0.58,2
		c0,0.69,0.14,1.32,0.42,1.87c0.88,1.79,3.26,2.7,7.09,2.7c1.33,0,2.49-0.12,3.43-0.34c2.72-0.62,4.09-2.05,4.07-4.23
		c0-0.69-0.14-1.32-0.42-1.87c-0.88-1.79-3.26-2.7-7.09-2.7h-3.49c-1.32,0-2-0.29-2-0.85c0-0.34,0.12-0.59,0.38-0.75
		c0.28-0.18,0.65-0.33,1.13-0.48c0.97,0.58,2.39,0.88,4.23,0.88c1.91,0,3.43-0.47,4.5-1.4c1.08-0.94,1.63-2.11,1.63-3.45
		c0-1.39-0.38-2.54-1.14-3.44c-0.04-0.04-0.07-0.08-0.07-0.1c0-0.01,0.01-0.06,0.08-0.14c0.43-0.21,0.83-0.32,1.17-0.32h0.98
		c0.15,0,0.18,0.03,0.18,0.18v2.51c0,0.41,0.25,0.66,0.66,0.66c0.41,0,0.66-0.25,0.66-0.66V7.25C111.96,6.84,111.72,6.6,111.31,6.6z
		 M96.88,22.4c0-2.16,2.08-3.25,6.18-3.25c4.11,0,6.19,1.09,6.19,3.26c0.02,0.44-0.08,0.86-0.28,1.25c-0.66,1.32-2.65,1.99-5.9,1.99
		C98.96,25.65,96.88,24.55,96.88,22.4z M108.13,11.6c0,1.15-0.38,2.02-1.16,2.69c-0.78,0.67-2.09,1.02-3.91,1.02
		c-1.81,0-3.13-0.34-3.91-1.02C98.38,13.62,98,12.75,98,11.6c0-1.2,0.38-2.11,1.16-2.79s2.09-1.03,3.91-1.03s3.13,0.35,3.91,1.03
		C107.75,9.49,108.13,10.4,108.13,11.6z"/>
	<path style="fill:#231F20;" d="M119.98,6.46c-2.01,0-3.66,0.71-4.9,2.12c-1.23,1.4-1.86,3.2-1.86,5.3c0,2.17,0.63,3.98,1.86,5.38
		c1.24,1.41,2.91,2.12,4.94,2.12c1.39,0,2.56-0.22,3.46-0.65c0.89-0.42,1.68-0.94,2.37-1.53c0.18-0.15,0.28-0.31,0.29-0.47
		c0.01-0.09-0.01-0.24-0.14-0.39c-0.17-0.19-0.3-0.3-0.42-0.36c-0.19-0.1-0.41-0.03-0.65,0.2c-0.16,0.15-0.38,0.33-0.67,0.55
		c-1.08,0.89-2.48,1.34-4.16,1.34c-1.66,0-2.98-0.53-3.93-1.57c-0.96-1.05-1.5-2.37-1.6-3.95c-0.01-0.07,0-0.11,0.01-0.11
		c0.01-0.01,0.06-0.04,0.17-0.04h11.01c0.69,0,1.08-0.38,1.08-1.07v-0.39c0-1.73-0.64-3.28-1.92-4.56
		C123.64,7.1,121.98,6.46,119.98,6.46z M119.98,7.77c1.59,0,2.92,0.52,3.96,1.54s1.56,2.25,1.56,3.62c0,0.14-0.03,0.17-0.18,0.17
		h-10.59c-0.15,0-0.15-0.03-0.15-0.09c0-1.22,0.51-2.42,1.5-3.55C117.09,8.34,118.39,7.77,119.98,7.77z"/>
	<path style="fill:#231F20;" d="M138.61,18.51c-0.16,0-0.31,0.08-0.46,0.22c-0.93,0.88-1.91,1.33-2.89,1.33
		c-0.99,0-1.74-0.31-2.29-0.93c-0.55-0.63-0.83-1.6-0.83-2.88V8.23c0-0.14,0.03-0.18,0.18-0.18h4.75c0.41,0,0.66-0.25,0.66-0.66
		c0-0.41-0.25-0.66-0.66-0.66h-4.75c-0.15,0-0.18-0.03-0.18-0.18V1.81c0-0.41-0.25-0.66-0.66-0.66s-0.66,0.25-0.66,0.66v4.75
		c0,0.15-0.03,0.18-0.18,0.18h-1.96c-0.41,0-0.66,0.24-0.66,0.66c0,0.41,0.25,0.66,0.66,0.66h1.96c0.15,0,0.18,0.03,0.18,0.18v8.02
		c0,1.64,0.4,2.91,1.18,3.79c0.79,0.88,1.88,1.33,3.29,1.34l0.25,0.02c0.15,0,0.51-0.07,2.08-0.6c0.47-0.23,0.94-0.59,1.4-1.05
		c0.08-0.08,0.31-0.31,0.26-0.53c0-0.16-0.09-0.33-0.29-0.53C138.85,18.54,138.71,18.51,138.61,18.51z"/>
	<path style="fill:#231F20;" d="M151.03,4.98c0.38,0,0.71-0.13,0.97-0.39c0.26-0.26,0.39-0.59,0.39-0.96c0-0.38-0.13-0.71-0.39-0.97
		c-0.52-0.52-1.42-0.52-1.93,0c-0.26,0.26-0.39,0.59-0.39,0.97s0.13,0.71,0.39,0.96C150.32,4.85,150.64,4.98,151.03,4.98z"/>
	<path style="fill:#231F20;" d="M153.96,19.78H152c-0.15,0-0.18-0.03-0.18-0.18V7.4c0-0.41-0.24-0.66-0.66-0.66h-2.79
		c-0.41,0-0.66,0.24-0.66,0.66c0,0.41,0.25,0.66,0.66,0.66h1.96c0.15,0,0.18,0.03,0.18,0.18V19.6c0,0.15-0.03,0.18-0.18,0.18h-1.96
		c-0.41,0-0.66,0.25-0.66,0.66s0.25,0.66,0.66,0.66h5.59c0.41,0,0.66-0.25,0.66-0.66S154.37,19.78,153.96,19.78z"/>
	<path style="fill:#231F20;" d="M172.82,19.78h-1.96c-0.15,0-0.18-0.03-0.18-0.18v-7.34c0-1.84-0.51-3.29-1.51-4.3
		c-1-1-2.43-1.51-4.26-1.51s-3.54,0.88-5.09,2.61c-0.01,0.01-0.02,0.02-0.03,0.02c-0.01-0.03-0.01-0.08-0.01-0.13V7.4
		c0-0.41-0.25-0.66-0.66-0.66h-2.79c-0.41,0-0.66,0.24-0.66,0.66c0,0.41,0.25,0.66,0.66,0.66h1.96c0.15,0,0.18,0.03,0.18,0.18V19.6
		c0,0.15-0.03,0.18-0.18,0.18h-1.96c-0.41,0-0.66,0.25-0.66,0.66s0.25,0.66,0.66,0.66h5.31c0.41,0,0.66-0.25,0.66-0.66
		s-0.24-0.66-0.66-0.66h-1.68c-0.15,0-0.18-0.03-0.18-0.18v-8.23c0.39-0.65,0.86-1.24,1.38-1.77c1.22-1.21,2.51-1.83,3.85-1.83
		c1.34,0,2.42,0.38,3.19,1.12c0.77,0.74,1.15,1.88,1.15,3.37v7.34c0,0.15-0.03,0.18-0.18,0.18h-1.68c-0.41,0-0.66,0.25-0.66,0.66
		s0.25,0.66,0.66,0.66h5.31c0.41,0,0.66-0.25,0.66-0.66S173.23,19.78,172.82,19.78z"/>
	<path style="fill:#231F20;" d="M192.16,18.51c-0.15,0-0.31,0.08-0.46,0.22c-0.93,0.88-1.91,1.33-2.89,1.33
		c-0.99,0-1.74-0.31-2.29-0.93c-0.56-0.63-0.83-1.6-0.83-2.88V8.23c0-0.14,0.03-0.18,0.18-0.18h4.75c0.41,0,0.66-0.25,0.66-0.66
		c0-0.41-0.25-0.66-0.66-0.66h-4.75c-0.15,0-0.18-0.03-0.18-0.18V1.81c0-0.41-0.25-0.66-0.66-0.66s-0.66,0.25-0.66,0.66v4.75
		c0,0.15-0.03,0.18-0.18,0.18h-1.96c-0.41,0-0.66,0.24-0.66,0.66c0,0.41,0.25,0.66,0.66,0.66h1.96c0.15,0,0.18,0.03,0.18,0.18v8.02
		c0,1.64,0.4,2.91,1.18,3.79c0.79,0.88,1.88,1.33,3.29,1.34l0.25,0.02c0.15,0,0.51-0.07,2.08-0.6c0.47-0.23,0.94-0.59,1.4-1.05
		c0.08-0.08,0.31-0.31,0.26-0.53c0-0.17-0.09-0.33-0.29-0.53C192.4,18.54,192.26,18.51,192.16,18.51z"/>
	<path style="fill:#231F20;" d="M200.92,6.46c-2.09,0-3.81,0.7-5.12,2.09c-1.31,1.38-1.97,3.2-1.97,5.33c0,2.21,0.66,4.04,1.97,5.41
		c1.31,1.38,3.03,2.09,5.12,2.09s3.81-0.7,5.12-2.09c1.31-1.38,1.97-3.2,1.97-5.41c0-2.13-0.66-3.95-1.97-5.33
		C204.73,7.16,203.01,6.46,200.92,6.46z M200.92,20.06c-1.75,0-3.16-0.56-4.2-1.67c-1.04-1.11-1.57-2.62-1.57-4.5
		c0-1.8,0.53-3.3,1.58-4.42c1.05-1.12,2.46-1.69,4.18-1.69c1.73,0,3.14,0.57,4.18,1.69c1.05,1.12,1.58,2.62,1.58,4.42
		c0,1.88-0.53,3.39-1.57,4.5C204.08,19.5,202.67,20.06,200.92,20.06z"/>
	<path style="fill:#231F20;" d="M226.28,19.78h-1.96c-0.15,0-0.18-0.03-0.18-0.18V7.4c0-0.41-0.25-0.66-0.66-0.66h-2.79
		c-0.41,0-0.66,0.24-0.66,0.66c0,0.41,0.24,0.66,0.66,0.66h1.96c0.15,0,0.18,0.03,0.18,0.18v8.23c-0.4,0.64-0.88,1.25-1.41,1.79
		c-1.2,1.2-2.48,1.8-3.83,1.8c-1.34,0-2.42-0.38-3.19-1.12c-0.77-0.74-1.15-1.88-1.15-3.39V7.4c0-0.41-0.25-0.66-0.66-0.66h-2.8
		c-0.41,0-0.66,0.24-0.66,0.66c0,0.41,0.24,0.66,0.66,0.66h1.96c0.15,0,0.18,0.03,0.18,0.18v7.32c0,1.87,0.51,3.32,1.51,4.32
		s2.43,1.51,4.26,1.51s3.55-0.88,5.08-2.61c0.01-0.01,0.02-0.02,0.03-0.03c0.01,0.04,0.01,0.08,0.01,0.14v1.56
		c0,0.41,0.24,0.66,0.66,0.66h2.79c0.41,0,0.66-0.25,0.66-0.66S226.7,19.78,226.28,19.78z"/>
	<path style="fill:#231F20;" d="M240.61,17.98c-0.19-0.09-0.4-0.04-0.65,0.19c-0.16,0.14-0.39,0.33-0.69,0.55
		c-1.1,0.89-2.5,1.34-4.15,1.34c-1.66,0-3-0.56-4.01-1.67c-1.01-1.11-1.53-2.61-1.53-4.46c0-1.78,0.49-3.29,1.45-4.45
		c0.99-1.15,2.17-1.71,3.62-1.71c1.92,0,3.62,0.93,5.07,2.78v1.3c0,0.4,0.25,0.64,0.66,0.64c0.41,0,0.66-0.24,0.66-0.64V7.4
		c0-0.41-0.24-0.66-0.66-0.66s-0.66,0.24-0.66,0.66v1.12c0,0.06,0,0.1,0,0.14c-0.01-0.01-0.02-0.02-0.04-0.03
		c-1.43-1.44-3.1-2.17-4.96-2.17c-1.86,0-3.42,0.71-4.64,2.11c-1.21,1.39-1.82,3.2-1.82,5.31c0,2.19,0.62,4.01,1.86,5.4
		c1.24,1.39,2.91,2.1,4.94,2.1c1.39,0,2.55-0.21,3.46-0.63c0.9-0.42,1.68-0.91,2.32-1.47c0.23-0.23,0.32-0.39,0.32-0.55
		c0-0.14-0.06-0.28-0.19-0.44C240.85,18.14,240.73,18.04,240.61,17.98z"/>
	<path style="fill:#231F20;" d="M259.83,19.78h-1.96c-0.15,0-0.18-0.03-0.18-0.18v-7.34c0-1.84-0.51-3.29-1.51-4.3
		c-1-1-2.43-1.51-4.26-1.51s-3.54,0.88-5.09,2.61c-0.01,0.01-0.02,0.02-0.03,0.03c-0.01-0.03-0.01-0.08-0.01-0.14V1.81
		c0-0.41-0.25-0.66-0.66-0.66h-2.79c-0.41,0-0.66,0.25-0.66,0.66c0,0.41,0.24,0.66,0.66,0.66h1.96c0.15,0,0.18,0.03,0.18,0.18V19.6
		c0,0.15-0.03,0.18-0.18,0.18h-1.96c-0.41,0-0.66,0.25-0.66,0.66s0.24,0.66,0.66,0.66h5.31c0.41,0,0.66-0.25,0.66-0.66
		s-0.24-0.66-0.66-0.66h-1.68c-0.15,0-0.18-0.03-0.18-0.18v-8.22c0.41-0.65,0.88-1.25,1.38-1.77c1.22-1.21,2.51-1.83,3.85-1.83
		c1.35,0,2.42,0.38,3.19,1.12c0.77,0.74,1.16,1.88,1.16,3.37v7.34c0,0.15-0.03,0.18-0.18,0.18h-1.68c-0.41,0-0.66,0.25-0.66,0.66
		s0.24,0.66,0.66,0.66h5.31c0.41,0,0.66-0.25,0.66-0.66S260.25,19.78,259.83,19.78z"/>
	<path style="fill:#231F20;" d="M265.41,18.55c-0.3-0.29-0.7-0.45-1.19-0.45c-0.49,0-0.89,0.15-1.19,0.45
		c-0.3,0.3-0.45,0.7-0.45,1.19c0,0.49,0.15,0.89,0.45,1.19c0.3,0.29,0.7,0.44,1.19,0.44c0.5,0,0.89-0.15,1.19-0.44
		c0.3-0.3,0.45-0.7,0.45-1.19C265.85,19.25,265.71,18.85,265.41,18.55z"/>
	<path style="fill:#231F20;" d="M264.22,16.35c0.41,0,0.66-0.24,0.66-0.65V1.81c0-0.41-0.25-0.66-0.66-0.66
		c-0.41,0-0.66,0.25-0.66,0.66v13.88C263.56,16.1,263.8,16.35,264.22,16.35z"/>
</g>
</svg>
