<?xml version="1.0" encoding="utf-8"?>
<!-- Generator: Adobe Illustrator 16.0.0, SVG Export Plug-In . SVG Version: 6.00 Build 0)  -->
<!DOCTYPE svg PUBLIC "-//W3C//DTD SVG 1.1//EN" "http://www.w3.org/Graphics/SVG/1.1/DTD/svg11.dtd">
<svg version="1.1" id="Calque_1" xmlns="http://www.w3.org/2000/svg" xmlns:xlink="http://www.w3.org/1999/xlink" x="0px" y="0px"
	 width="17.25px" height="11.19px" viewBox="0 0 17.25 11.19" style="enable-background:new 0 0 17.25 11.19;" xml:space="preserve"
	>
<g>
	<path style="fill:#010101;" d="M5.82,4.94L2.17,0.59L2.14,0.55c-0.42-0.47-1.13-0.52-1.6-0.12c-0.48,0.41-0.55,1.11-0.16,1.6
		l0.01,0.01l0.03,0.04l0.47,0.56l6.35,7.57l0.47,0.57l0.03,0.04l0.01,0.01c0.06,0.06,0.15,0.06,0.22,0.1c0,0,0,0.01,0,0.01
		c0.01,0.01,0.03,0,0.04,0.01c0.19,0.12,0.37,0.22,0.59,0.22c0.01,0,0.02,0,0.02,0.01V8.28L5.82,4.94z"/>
	<path style="fill:#010101;" d="M9.97,11.17c0.24,0,0.44-0.09,0.65-0.23c0.01-0.01,0.01,0,0.02-0.01c0,0,0,0,0,0
		c0.07-0.05,0.16-0.04,0.22-0.11l0.03-0.04l3.66-4.36l3.66-4.36l0.03-0.04c0.38-0.48,0.31-1.19-0.17-1.59
		c-0.48-0.41-1.19-0.35-1.6,0.11l-0.01,0.01L16.43,0.6l-0.47,0.57l-4.88,5.82L9.94,8.32L9.91,8.28v2.91c0,0,0.01,0,0.01,0
		C9.94,11.19,9.95,11.17,9.97,11.17z"/>
</g>
</svg>
