<?xml version="1.0" encoding="utf-8"?>
<!-- Generator: Adobe Illustrator 16.0.0, SVG Export Plug-In . SVG Version: 6.00 Build 0)  -->
<!DOCTYPE svg PUBLIC "-//W3C//DTD SVG 1.1//EN" "http://www.w3.org/Graphics/SVG/1.1/DTD/svg11.dtd">
<svg version="1.1" id="Calque_1" xmlns="http://www.w3.org/2000/svg" xmlns:xlink="http://www.w3.org/1999/xlink" x="0px" y="0px"
	 width="1181.764px" height="525.962px" viewBox="0 -592.349 1181.764 525.962"
	 enable-background="new 0 -592.349 1181.764 525.962" xml:space="preserve">
<text transform="matrix(1 0 0 1 3 -523.3779)" fill="#DBD9D4" font-family="'WorkSans-Medium'" font-size="17">Naming</text>
<text transform="matrix(1 0 0 1 1059.2412 -511.3779)" fill="#DBD9D4" font-family="'WorkSans-Medium'" font-size="14">©</text>
<text transform="matrix(1 0 0 1 1070.5537 -511.3779)" fill="#DBD9D4" font-family="'WorkSans-Medium'" font-size="17"> </text>
<text transform="matrix(1 0 0 1 1076.1123 -511.3779)" fill="#DBD9D4" font-family="'WorkSans-Medium'" font-size="14">Delphine Geny</text>
<line fill="none" stroke="#DBD9D4" stroke-width="1.8" stroke-miterlimit="10" x1="3.382" y1="-513.972" x2="1053.382" y2="-513.972"/>
<rect x="129.381" y="-232.545" fill="none" width="997.999" height="82"/>
<text transform="matrix(1 0 0 1 129.3813 -219.4048)"><tspan x="0" y="0" fill="#4C4C4C" font-family="'WorkSans-Bold'" font-size="18">Caelo </tspan><tspan x="65.051" y="0" fill="#4C4C4C" font-family="'WorkSans-Regular'" font-size="18">– Caelum, sky in latino.</tspan><tspan x="0" y="21.6" fill="#4C4C4C" font-family="'WorkSans-Regular'" font-size="18" letter-spacing="29">		</tspan><tspan x="72" y="21.6" fill="#4C4C4C" font-family="'WorkSans-Regular'" font-size="18">  De Caelo, ‘On the Heavens’, Aristotle&apos;s chief cosmological treatise.</tspan><tspan x="0" y="43.2" fill="#4C4C4C" font-family="'WorkSans-Bold'" font-size="18">Graphe </tspan><tspan x="79.487" y="43.2" fill="#4C4C4C" font-family="'WorkSans-Regular'" font-size="18">– Graphein, write in ancient greek.</tspan></text>
<rect x="216.863" y="-406.564" fill="none" width="763" height="82"/>
<text transform="matrix(1 0 0 1 216.8633 -348.9517)"><tspan x="0" y="0" font-family="'TrajanPro-Regular'" font-size="90" letter-spacing="9">CAELOG</tspan><tspan x="457.558" y="0" font-family="'TrajanPro-Regular'" font-size="90" letter-spacing="11">R</tspan><tspan x="536.667" y="0" font-family="'TrajanPro-Regular'" font-size="90" letter-spacing="9">APH</tspan></text>
<rect x="799.382" y="-331.046" width="382.822" height="30"/>
<rect x="818.382" y="-322.921" fill="none" width="310" height="30"/>
<text transform="matrix(1 0 0 1 818.3818 -310.105)" fill="#FFFFFF" font-family="'WorkSans-Bold'" font-size="18">‘WRITE THE SKY’</text>
</svg>
