<?xml version="1.0" encoding="utf-8"?>
<!-- Generator: Adobe Illustrator 16.0.0, SVG Export Plug-In . SVG Version: 6.00 Build 0)  -->
<!DOCTYPE svg PUBLIC "-//W3C//DTD SVG 1.1//EN" "http://www.w3.org/Graphics/SVG/1.1/DTD/svg11.dtd">
<svg version="1.1" id="Calque_1" xmlns="http://www.w3.org/2000/svg" xmlns:xlink="http://www.w3.org/1999/xlink" x="0px" y="0px"
	 width="1181.764px" height="702.954px" viewBox="0 0 1181.764 702.954" enable-background="new 0 0 1181.764 702.954"
	 xml:space="preserve">
<text transform="matrix(1 0 0 1 3 14.3271)" fill="#DBD9D4" font-family="'WorkSans-Medium'" font-size="17">Designing the Envelope</text>
<text transform="matrix(1 0 0 1 1059.2412 26.3271)" fill="#DBD9D4" font-family="'WorkSans-Medium'" font-size="14">©</text>
<text transform="matrix(1 0 0 1 1070.5537 26.3271)" fill="#DBD9D4" font-family="'WorkSans-Medium'" font-size="17"> </text>
<text transform="matrix(1 0 0 1 1076.1123 26.3271)" fill="#DBD9D4" font-family="'WorkSans-Medium'" font-size="14">Delphine Geny</text>
<line fill="none" stroke="#DBD9D4" stroke-width="1.8" stroke-miterlimit="10" x1="3.382" y1="23.733" x2="1053.382" y2="23.733"/>
<g>
	<path fill="none" stroke="#EA148C" stroke-miterlimit="10" d="M164.033,503.42l26.893,29.476c0.34,0.443,0.712,0.858,1.117,1.242
		c1.887,1.786,4.429,2.89,7.232,2.89h115.781H529.62h115.779c2.805,0,5.347-1.104,7.234-2.89c0.404-0.384,0.775-0.799,1.116-1.242
		l26.526-29.477l480.85-5.543c8.21,0,14.866-6.635,14.866-14.819c0,0,0-35.621,0-40.172c0-9.588-20.218-82.444-20.218-124.146
		c0-0.146,0.003-0.29,0.003-0.436c0.051-41.545,20.215-111.956,20.215-123.709c0-3.962,0-40.495,0-40.495
		c0-8.184-6.656-14.82-14.866-14.82l-480.85-5.543l-26.526-29.477c-0.341-0.442-0.712-0.856-1.117-1.24
		c-1.888-1.788-4.429-2.891-7.233-2.891h-115.78H315.056H199.275c-2.804,0-5.346,1.104-7.232,2.891
		c-0.405,0.383-0.777,0.798-1.117,1.24l-26.893,29.477l-40.509,11.695c-1.744,0.646-2.907,1.319-4.262,2.775L11.911,294.096v0.043
		c-6.039,7.812-9.196,15.181-9.196,24.606c0,9.428,3.553,17.437,9.196,24.607v0.044l107.351,145.89
		c1.355,1.457,2.518,2.129,4.262,2.774L164.033,503.42z"/>
</g>
<g>
	<g>
		
			<line fill="none" stroke="#3FB34F" stroke-width="0.943" stroke-miterlimit="10" x1="163.282" y1="503.419" x2="165.239" y2="503.419"/>
		
			<line fill="none" stroke="#3FB34F" stroke-width="0.943" stroke-miterlimit="10" stroke-dasharray="3.9068,3.9065" x1="169.146" y1="503.419" x2="675.057" y2="503.419"/>
		
			<line fill="none" stroke="#3FB34F" stroke-width="0.943" stroke-miterlimit="10" x1="677.01" y1="503.419" x2="678.967" y2="503.419"/>
	</g>
</g>
<g>
	<g>
		
			<line fill="none" stroke="#3FB34F" stroke-width="0.7991" stroke-miterlimit="10" x1="164.398" y1="131.843" x2="164.398" y2="133.501"/>
		
			<line fill="none" stroke="#3FB34F" stroke-width="0.7991" stroke-miterlimit="10" stroke-dasharray="3.3064,3.3061" x1="164.398" y1="136.808" x2="164.398" y2="498.844"/>
		
			<line fill="none" stroke="#3FB34F" stroke-width="0.7991" stroke-miterlimit="10" x1="164.398" y1="500.497" x2="164.398" y2="502.155"/>
	</g>
</g>
<g>
	<g>
		
			<line fill="none" stroke="#3FB34F" stroke-width="0.7991" stroke-miterlimit="10" x1="680.276" y1="132.412" x2="680.276" y2="134.07"/>
		
			<line fill="none" stroke="#3FB34F" stroke-width="0.7991" stroke-miterlimit="10" stroke-dasharray="3.3064,3.3061" x1="680.276" y1="137.376" x2="680.276" y2="499.412"/>
		
			<line fill="none" stroke="#3FB34F" stroke-width="0.7991" stroke-miterlimit="10" x1="680.276" y1="501.065" x2="680.276" y2="502.724"/>
	</g>
</g>
<g>
	<g>
		
			<line fill="none" stroke="#3FB34F" stroke-width="0.9405" stroke-miterlimit="10" x1="678.967" y1="133.735" x2="677.016" y2="133.735"/>
		
			<line fill="none" stroke="#3FB34F" stroke-width="0.9405" stroke-miterlimit="10" stroke-dasharray="3.8862,3.8859" x1="673.13" y1="133.735" x2="169.887" y2="133.735"/>
		
			<line fill="none" stroke="#3FB34F" stroke-width="0.9405" stroke-miterlimit="10" x1="167.944" y1="133.735" x2="165.992" y2="133.735"/>
	</g>
</g>
<g>
	<path fill="#FFF02A" d="M86.961,272.545h-2.872v-0.324h2.3h0.171l0.087,0.001l0.085,0.004v-0.01l-0.067-0.025
		c-0.032-0.013-0.055-0.021-0.064-0.024l-0.134-0.055l-2.377-0.977v-0.323l2.351-0.979l0.131-0.056l0.068-0.025
		c0.015-0.008,0.036-0.016,0.064-0.024v-0.01l-0.077,0.002l-0.08,0.003h-0.157h-2.3v-0.325h2.872v0.562l-1.856,0.764l-0.301,0.121
		l-0.15,0.062l-0.149,0.058v0.008l0.149,0.061c0.073,0.029,0.122,0.048,0.15,0.058l0.299,0.124l1.858,0.76V272.545L86.961,272.545z"
		/>
	<path fill="#FFF02A" d="M85.597,273.807c0.205,0,0.309,0.182,0.309,0.544c0,0.214-0.035,0.352-0.103,0.415
		c-0.07,0.064-0.22,0.095-0.452,0.095h-0.244l-0.002-0.007c0.139-0.069,0.209-0.281,0.209-0.635c0-0.298-0.046-0.504-0.139-0.618
		c-0.093-0.113-0.26-0.17-0.503-0.17c-0.409,0-0.613,0.254-0.613,0.762c0,0.343,0.083,0.572,0.249,0.685l-0.003,0.006l-0.216-0.023
		v0.296h1.327c0.279,0,0.469-0.06,0.569-0.177c0.099-0.118,0.148-0.345,0.148-0.678c0-0.309-0.04-0.516-0.122-0.622
		c-0.081-0.107-0.24-0.159-0.477-0.159v0.292C85.566,273.81,85.586,273.807,85.597,273.807L85.597,273.807z M85.003,274.756
		c-0.054,0.081-0.161,0.121-0.32,0.121c-0.253,0-0.379-0.209-0.379-0.624c0-0.206,0.026-0.344,0.079-0.411
		c0.052-0.068,0.161-0.101,0.324-0.101c0.156,0,0.259,0.035,0.307,0.102c0.048,0.068,0.072,0.215,0.072,0.44
		C85.086,274.518,85.058,274.675,85.003,274.756L85.003,274.756z"/>
	<path fill="#FFF02A" d="M86.105,276.132v0.285l-0.275-0.009l-0.007,0.009c0.207,0.089,0.31,0.313,0.31,0.669
		c0,0.288-0.05,0.482-0.151,0.584c-0.101,0.101-0.295,0.151-0.582,0.151h-1.311v-0.294h1.286h0.076c0.173,0,0.29-0.034,0.35-0.099
		c0.06-0.067,0.09-0.193,0.09-0.381c0-0.413-0.197-0.621-0.589-0.621h-1.212v-0.295H86.105L86.105,276.132z"/>
	<path fill="#FFF02A" d="M86.105,280.433h-2.016v-0.296l0.264,0.021l0.006-0.006c-0.199-0.102-0.3-0.322-0.3-0.659
		c0-0.471,0.235-0.707,0.705-0.707h1.341v0.294h-1.341c-0.184,0-0.306,0.031-0.367,0.092c-0.062,0.06-0.093,0.18-0.093,0.356
		c0,0.232,0.045,0.393,0.139,0.479c0.092,0.085,0.26,0.129,0.507,0.129h1.156V280.433L86.105,280.433z"/>
	<path fill="#FFF02A" d="M84.089,281.486h1.771v-0.311h0.245v0.311h0.297c0.393,0,0.588,0.201,0.588,0.607
		c0,0.058-0.005,0.13-0.015,0.211h-0.243c0.01-0.095,0.015-0.164,0.015-0.208c0-0.21-0.107-0.316-0.317-0.316h-0.325v0.524H85.86
		v-0.524h-1.771V281.486L84.089,281.486z"/>
	<path fill="#FFF02A" d="M85.597,283.28c0.205,0,0.309,0.183,0.309,0.546c0,0.214-0.035,0.353-0.103,0.416
		c-0.07,0.063-0.22,0.094-0.452,0.094h-0.244l-0.002-0.007c0.139-0.07,0.209-0.281,0.209-0.638c0-0.296-0.046-0.502-0.139-0.616
		c-0.093-0.115-0.26-0.171-0.503-0.171c-0.409,0-0.613,0.254-0.613,0.763c0,0.345,0.083,0.574,0.249,0.685l-0.003,0.006
		l-0.216-0.022v0.296h1.327c0.279,0,0.469-0.061,0.569-0.179c0.099-0.118,0.148-0.343,0.148-0.679c0-0.31-0.04-0.516-0.122-0.624
		c-0.081-0.104-0.24-0.158-0.477-0.158v0.293C85.566,283.283,85.586,283.28,85.597,283.28L85.597,283.28z M85.003,284.229
		c-0.054,0.082-0.161,0.121-0.32,0.121c-0.253,0-0.379-0.207-0.379-0.623c0-0.207,0.026-0.344,0.079-0.412
		c0.052-0.068,0.161-0.102,0.324-0.102c0.156,0,0.259,0.035,0.307,0.104c0.048,0.067,0.072,0.215,0.072,0.441
		C85.086,283.991,85.058,284.148,85.003,284.229L85.003,284.229z"/>
	<path fill="#FFF02A" d="M84.812,286.991v0.293l-0.109,0.005c-0.429,0-0.645-0.282-0.645-0.848c0-0.362,0.068-0.603,0.205-0.719
		c0.137-0.117,0.418-0.175,0.843-0.175c0.398,0,0.671,0.06,0.812,0.178c0.143,0.118,0.214,0.344,0.214,0.677
		c0,0.327-0.047,0.549-0.144,0.669c-0.096,0.121-0.277,0.18-0.542,0.18v-0.295l0.053,0.002c0.156,0,0.259-0.04,0.312-0.116
		c0.053-0.078,0.079-0.232,0.079-0.461c0-0.223-0.05-0.365-0.148-0.429c-0.098-0.063-0.32-0.094-0.663-0.094
		c-0.334,0-0.547,0.035-0.64,0.107c-0.091,0.073-0.137,0.242-0.137,0.506c0,0.225,0.029,0.368,0.088,0.428
		C84.452,286.96,84.591,286.991,84.812,286.991L84.812,286.991z"/>
	<path fill="#FFF02A" d="M86.105,289.199H85.86v-0.775h-1.232c-0.216,0-0.325,0.095-0.325,0.286c0,0.19,0.096,0.284,0.291,0.284
		l0.099,0.006L84.805,289v0.274l-0.15,0.006c-0.396,0-0.596-0.189-0.596-0.568c0-0.39,0.166-0.585,0.496-0.585h0.073h1.232v-0.279
		h0.245v0.279h0.479v0.296h-0.479V289.199L86.105,289.199z"/>
	<path fill="#FFF02A" d="M86.105,291.608h-2.016v-0.295l0.264,0.021l0.006-0.006c-0.199-0.104-0.3-0.322-0.3-0.659
		c0-0.472,0.235-0.708,0.705-0.708h1.341v0.296h-1.341c-0.184,0-0.306,0.03-0.367,0.09c-0.062,0.061-0.093,0.179-0.093,0.357
		c0,0.231,0.045,0.391,0.139,0.479c0.092,0.085,0.26,0.129,0.507,0.129h1.156V291.608L86.105,291.608z"/>
	<path fill="#FFF02A" d="M86.105,292.61v0.296l-0.232-0.03l-0.006,0.008c0.188,0.115,0.281,0.307,0.281,0.574
		c0,0.371-0.19,0.555-0.57,0.555h-0.139v-0.291l0.051,0.005c0.053,0.004,0.089,0.006,0.106,0.006c0.206,0,0.309-0.113,0.309-0.335
		c0-0.329-0.203-0.492-0.608-0.492h-1.209v-0.296H86.105L86.105,292.61z"/>
	<path fill="#FFF02A" d="M84.631,296.13c-0.136,0-0.226-0.035-0.267-0.107c-0.041-0.07-0.062-0.226-0.062-0.462
		c0-0.25,0.043-0.409,0.13-0.476c0.087-0.068,0.291-0.102,0.608-0.102v1.448h0.158c0.384,0,0.636-0.058,0.755-0.172
		c0.12-0.116,0.179-0.36,0.179-0.73c0-0.339-0.068-0.569-0.207-0.685c-0.137-0.116-0.407-0.174-0.809-0.174
		c-0.434,0-0.719,0.058-0.854,0.173c-0.136,0.116-0.204,0.36-0.204,0.731c0,0.319,0.042,0.542,0.125,0.669s0.229,0.191,0.437,0.191
		l0.073-0.004v-0.301H84.631L84.631,296.13z M85.27,294.987c0.259,0,0.428,0.036,0.505,0.107c0.077,0.07,0.116,0.226,0.116,0.463
		c0,0.236-0.033,0.392-0.099,0.464c-0.065,0.07-0.208,0.106-0.426,0.106l-0.096,0.003V294.987L85.27,294.987z"/>
	<polygon fill="#FFF02A" points="86.961,301.175 84.089,301.175 84.089,300.851 85.425,300.851 85.425,299.175 84.089,299.175 
		84.089,298.85 86.961,298.85 86.961,299.175 85.698,299.175 85.698,300.851 86.961,300.851 86.961,301.175 	"/>
	<path fill="#FFF02A" d="M85.94,302.247c-0.13-0.11-0.411-0.166-0.843-0.166c-0.434,0-0.714,0.056-0.843,0.166
		c-0.129,0.112-0.194,0.352-0.194,0.722c0,0.374,0.065,0.613,0.194,0.726c0.129,0.111,0.41,0.166,0.843,0.166
		c0.432,0,0.713-0.055,0.843-0.166c0.129-0.112,0.193-0.352,0.193-0.726C86.133,302.599,86.069,302.358,85.94,302.247L85.94,302.247
		z M85.763,303.456c-0.085,0.062-0.308,0.094-0.667,0.094c-0.358,0-0.581-0.031-0.666-0.094c-0.085-0.062-0.127-0.224-0.127-0.487
		c0-0.26,0.042-0.422,0.127-0.484c0.085-0.062,0.308-0.093,0.666-0.093c0.359,0,0.582,0.031,0.667,0.093
		c0.084,0.062,0.127,0.224,0.127,0.484C85.891,303.232,85.848,303.394,85.763,303.456L85.763,303.456z"/>
	<path fill="#FFF02A" d="M86.105,304.78v0.297l-0.232-0.03l-0.006,0.006c0.188,0.118,0.281,0.309,0.281,0.576
		c0,0.37-0.19,0.556-0.57,0.556h-0.139v-0.292l0.051,0.005c0.053,0.004,0.089,0.006,0.106,0.006c0.206,0,0.309-0.111,0.309-0.336
		c0-0.327-0.203-0.49-0.608-0.49h-1.209v-0.297H86.105L86.105,304.78z"/>
	<polygon fill="#FFF02A" points="86.961,307.195 84.089,307.195 84.089,306.899 86.961,306.899 86.961,307.195 	"/>
	<path fill="#FFF02A" d="M85.94,308.252c-0.13-0.112-0.411-0.167-0.843-0.167c-0.434,0-0.714,0.055-0.843,0.167
		c-0.129,0.108-0.194,0.352-0.194,0.722c0,0.371,0.065,0.614,0.194,0.725c0.129,0.11,0.41,0.165,0.843,0.165
		c0.432,0,0.713-0.055,0.843-0.165c0.129-0.11,0.193-0.354,0.193-0.725C86.133,308.604,86.069,308.36,85.94,308.252L85.94,308.252z
		 M85.763,309.46c-0.085,0.062-0.308,0.094-0.667,0.094c-0.358,0-0.581-0.032-0.666-0.094c-0.085-0.061-0.127-0.226-0.127-0.486
		c0-0.262,0.042-0.423,0.127-0.486c0.085-0.062,0.308-0.094,0.666-0.094c0.359,0,0.582,0.031,0.667,0.094
		c0.084,0.063,0.127,0.225,0.127,0.486C85.891,309.234,85.848,309.399,85.763,309.46L85.763,309.46z"/>
	<path fill="#FFF02A" d="M86.105,312.144l-0.273,0.014l-0.002-0.004c0.203-0.102,0.303-0.318,0.303-0.647
		c0-0.312-0.073-0.523-0.222-0.637c-0.148-0.115-0.424-0.174-0.828-0.174c-0.389,0-0.656,0.058-0.804,0.17
		c-0.146,0.111-0.221,0.317-0.221,0.615c0,0.361,0.094,0.581,0.281,0.657l-0.002,0.006h-0.403c-0.196,0-0.327-0.038-0.394-0.116
		c-0.066-0.077-0.101-0.228-0.101-0.452c0-0.217,0.027-0.356,0.078-0.421c0.053-0.063,0.165-0.095,0.336-0.095v-0.284
		c-0.253,0-0.426,0.055-0.518,0.164c-0.092,0.11-0.139,0.314-0.139,0.614c0,0.337,0.056,0.57,0.164,0.694
		c0.109,0.126,0.309,0.19,0.6,0.19h2.146V312.144L86.105,312.144z M85.747,312.024c-0.096,0.075-0.296,0.112-0.6,0.112
		c-0.344,0-0.572-0.037-0.68-0.112c-0.109-0.075-0.164-0.229-0.164-0.464c0-0.232,0.049-0.381,0.148-0.452
		c0.099-0.067,0.316-0.102,0.649-0.102c0.331,0,0.545,0.034,0.643,0.102c0.098,0.071,0.147,0.22,0.147,0.452
		C85.891,311.795,85.843,311.949,85.747,312.024L85.747,312.024z"/>
	<path fill="#FFF02A" d="M86.727,313.766l-0.38,0.62l0.155,0.103l0.43-0.57L86.727,313.766L86.727,313.766z M84.631,314.787
		c-0.137,0-0.226-0.037-0.267-0.106c-0.04-0.07-0.061-0.225-0.061-0.462c0-0.25,0.043-0.409,0.129-0.478
		c0.088-0.067,0.291-0.103,0.609-0.103v1.449h0.158c0.384,0,0.636-0.059,0.755-0.173c0.119-0.113,0.179-0.358,0.179-0.729
		c0-0.34-0.068-0.567-0.207-0.686c-0.137-0.114-0.407-0.174-0.809-0.174c-0.434,0-0.719,0.058-0.855,0.174
		c-0.135,0.116-0.203,0.359-0.203,0.731c0,0.318,0.042,0.541,0.125,0.669c0.083,0.126,0.229,0.19,0.437,0.19l0.074-0.004v-0.301
		H84.631L84.631,314.787z M85.27,313.644c0.259,0,0.428,0.035,0.505,0.105c0.077,0.073,0.116,0.227,0.116,0.466
		c0,0.237-0.033,0.391-0.099,0.463c-0.066,0.07-0.208,0.107-0.426,0.107l-0.096,0.002V313.644L85.27,313.644z"/>
	<path fill="#FFF02A" d="M86.105,316.013v0.296l-0.232-0.029l-0.006,0.006c0.188,0.114,0.281,0.307,0.281,0.574
		c0,0.37-0.19,0.556-0.57,0.556h-0.139v-0.289l0.051,0.004c0.053,0.003,0.089,0.005,0.106,0.005c0.206,0,0.309-0.113,0.309-0.335
		c0-0.328-0.203-0.491-0.608-0.491h-1.209v-0.296H86.105L86.105,316.013z"/>
	<path fill="#FFF02A" d="M84.631,319.533c-0.136,0-0.226-0.036-0.267-0.108c-0.041-0.07-0.062-0.224-0.062-0.462
		c0-0.249,0.043-0.407,0.13-0.476s0.291-0.102,0.608-0.102v1.447h0.158c0.384,0,0.636-0.058,0.755-0.173
		c0.12-0.114,0.179-0.356,0.179-0.729c0-0.338-0.068-0.565-0.207-0.684c-0.137-0.116-0.407-0.175-0.809-0.175
		c-0.434,0-0.719,0.059-0.854,0.174c-0.136,0.117-0.204,0.36-0.204,0.73c0,0.32,0.042,0.542,0.125,0.67
		c0.083,0.126,0.229,0.19,0.437,0.19l0.073-0.004v-0.3H84.631L84.631,319.533z M85.27,318.39c0.259,0,0.428,0.036,0.505,0.105
		c0.077,0.07,0.116,0.226,0.116,0.464s-0.033,0.392-0.099,0.464c-0.065,0.071-0.208,0.108-0.426,0.108l-0.096,0.002V318.39
		L85.27,318.39z"/>
	<polygon fill="#FFF02A" points="84.472,321.054 84.089,321.054 84.089,320.729 84.472,320.729 84.472,321.054 	"/>
	<path fill="#FFF02A" d="M85.521,325.521v1.23c-0.074,0.007-0.178,0.009-0.314,0.009c-0.519,0-0.84-0.062-0.962-0.19
		c-0.124-0.127-0.185-0.459-0.185-0.996c0-0.508,0.073-0.833,0.218-0.978c0.145-0.146,0.471-0.217,0.978-0.217l0.422-0.002
		l0.255,0.002c0.425,0,0.708,0.079,0.849,0.24c0.139,0.161,0.21,0.485,0.21,0.975c0,0.488-0.046,0.803-0.138,0.945
		c-0.092,0.142-0.298,0.212-0.617,0.212h-0.109v-0.315h0.072c0.235,0,0.379-0.05,0.435-0.146c0.055-0.098,0.084-0.347,0.084-0.753
		c0-0.374-0.045-0.609-0.134-0.703c-0.088-0.094-0.311-0.142-0.666-0.142l-0.381-0.006l-0.411,0.002
		c-0.362,0-0.586,0.053-0.669,0.157c-0.083,0.104-0.125,0.385-0.125,0.837c0,0.348,0.04,0.563,0.118,0.646
		c0.08,0.082,0.285,0.123,0.619,0.123c0.027,0,0.086-0.006,0.178-0.016v-0.915H85.521L85.521,325.521z"/>
	<path fill="#FFF02A" d="M84.631,328.982c-0.136,0-0.226-0.037-0.267-0.108c-0.041-0.069-0.062-0.224-0.062-0.461
		c0-0.251,0.043-0.41,0.13-0.477c0.087-0.068,0.291-0.104,0.608-0.104v1.449h0.158c0.384,0,0.636-0.058,0.755-0.173
		c0.12-0.114,0.179-0.358,0.179-0.729c0-0.34-0.068-0.568-0.207-0.685c-0.137-0.116-0.407-0.174-0.809-0.174
		c-0.434,0-0.719,0.056-0.854,0.173c-0.136,0.116-0.204,0.359-0.204,0.73c0,0.319,0.042,0.542,0.125,0.669
		c0.083,0.128,0.229,0.191,0.437,0.191l0.073-0.004v-0.3H84.631L84.631,328.982z M85.27,327.838c0.259,0,0.428,0.035,0.505,0.106
		c0.077,0.07,0.116,0.227,0.116,0.465c0,0.236-0.033,0.391-0.099,0.462s-0.208,0.108-0.426,0.108l-0.096,0.003V327.838
		L85.27,327.838z"/>
	<path fill="#FFF02A" d="M86.105,330.178v0.285l-0.275-0.009l-0.007,0.009c0.207,0.09,0.31,0.312,0.31,0.669
		c0,0.288-0.05,0.481-0.151,0.584c-0.101,0.101-0.295,0.151-0.582,0.151h-1.311v-0.294h1.286h0.076c0.173,0,0.29-0.032,0.35-0.099
		c0.06-0.067,0.09-0.194,0.09-0.381c0-0.413-0.197-0.62-0.589-0.62h-1.212v-0.296H86.105L86.105,330.178z"/>
	<path fill="#FFF02A" d="M86.727,333.213l-0.38,0.618l0.155,0.102l0.43-0.569L86.727,333.213L86.727,333.213z M84.631,334.232
		c-0.137,0-0.226-0.035-0.267-0.107c-0.04-0.07-0.061-0.225-0.061-0.462c0-0.249,0.043-0.407,0.129-0.476
		c0.088-0.068,0.291-0.103,0.609-0.103v1.448h0.158c0.384,0,0.636-0.058,0.755-0.174c0.119-0.114,0.179-0.357,0.179-0.728
		c0-0.34-0.068-0.567-0.207-0.685c-0.137-0.116-0.407-0.175-0.809-0.175c-0.434,0-0.719,0.059-0.855,0.174
		c-0.135,0.114-0.203,0.359-0.203,0.73c0,0.318,0.042,0.542,0.125,0.669c0.083,0.128,0.229,0.189,0.437,0.189l0.074-0.002v-0.301
		H84.631L84.631,334.232z M85.27,333.089c0.259,0,0.428,0.035,0.505,0.107c0.077,0.069,0.116,0.225,0.116,0.463
		c0,0.237-0.033,0.393-0.099,0.463c-0.066,0.071-0.208,0.108-0.426,0.108l-0.096,0.002V333.089L85.27,333.089z"/>
	<polygon fill="#FFF02A" points="86.105,336.919 84.089,336.246 84.089,335.823 86.105,335.156 86.105,335.458 85.008,335.814 
		84.665,335.927 84.492,335.979 84.319,336.033 84.319,336.041 84.49,336.092 84.662,336.143 85.004,336.25 86.105,336.591 
		86.105,336.919 	"/>
	<path fill="#FFF02A" d="M84.631,338.994c-0.136,0-0.226-0.036-0.267-0.106c-0.041-0.07-0.062-0.224-0.062-0.462
		c0-0.25,0.043-0.408,0.13-0.476s0.291-0.102,0.608-0.102v1.448h0.158c0.384,0,0.636-0.06,0.755-0.173
		c0.12-0.115,0.179-0.359,0.179-0.73c0-0.338-0.068-0.567-0.207-0.684c-0.137-0.116-0.407-0.175-0.809-0.175
		c-0.434,0-0.719,0.059-0.854,0.174c-0.136,0.116-0.204,0.359-0.204,0.73c0,0.318,0.042,0.542,0.125,0.67
		c0.083,0.126,0.229,0.19,0.437,0.19l0.073-0.003v-0.303H84.631L84.631,338.994z M85.27,337.853c0.259,0,0.428,0.035,0.505,0.104
		c0.077,0.073,0.116,0.228,0.116,0.466c0,0.237-0.033,0.392-0.099,0.464c-0.065,0.07-0.208,0.106-0.426,0.106l-0.096,0.002V337.853
		L85.27,337.853z"/>
	<path fill="#FFF02A" d="M84.472,340.53h-0.413c-0.26,0-0.391-0.096-0.391-0.288c0-0.019,0-0.045,0.001-0.081h0.16
		c0.008,0.124,0.07,0.186,0.186,0.186l0.074-0.003v-0.137h0.383V340.53L84.472,340.53z"/>
	<path fill="#FFF02A" d="M86.961,344.891h-1.108l-0.003-0.007c0.189-0.069,0.283-0.287,0.283-0.651c0-0.294-0.073-0.497-0.22-0.611
		c-0.147-0.113-0.41-0.17-0.788-0.17c-0.41,0-0.69,0.057-0.84,0.169c-0.151,0.113-0.227,0.324-0.227,0.633
		c0,0.337,0.098,0.552,0.293,0.644l-0.002,0.01l-0.261-0.016v0.296h2.872V344.891L86.961,344.891z M85.739,344.771
		c-0.1,0.08-0.295,0.12-0.583,0.12c-0.355,0-0.587-0.036-0.694-0.109c-0.105-0.072-0.159-0.23-0.159-0.474
		c0-0.223,0.053-0.369,0.159-0.44c0.106-0.069,0.328-0.105,0.667-0.105c0.307,0,0.511,0.036,0.611,0.106
		c0.101,0.072,0.151,0.217,0.151,0.435C85.891,344.532,85.84,344.688,85.739,344.771L85.739,344.771z"/>
	<path fill="#FFF02A" d="M84.631,347.534c-0.136,0-0.226-0.035-0.267-0.107c-0.041-0.069-0.062-0.225-0.062-0.462
		c0-0.249,0.043-0.409,0.13-0.476c0.087-0.068,0.291-0.103,0.608-0.103v1.448h0.158c0.384,0,0.636-0.058,0.755-0.173
		c0.12-0.114,0.179-0.358,0.179-0.729c0-0.34-0.068-0.568-0.207-0.685c-0.137-0.117-0.407-0.175-0.809-0.175
		c-0.434,0-0.719,0.058-0.854,0.175c-0.136,0.114-0.204,0.358-0.204,0.729c0,0.318,0.042,0.543,0.125,0.669
		c0.083,0.128,0.229,0.191,0.437,0.191l0.073-0.004v-0.301H84.631L84.631,347.534z M85.27,346.391c0.259,0,0.428,0.035,0.505,0.107
		c0.077,0.069,0.116,0.226,0.116,0.465c0,0.235-0.033,0.391-0.099,0.461c-0.065,0.073-0.208,0.108-0.426,0.108l-0.096,0.002V346.391
		L85.27,346.391z"/>
	<path fill="#FFF02A" d="M83.225,348.73v0.296h1.102v0.006c-0.179,0.106-0.268,0.326-0.268,0.658c0,0.288,0.074,0.49,0.221,0.604
		c0.147,0.114,0.41,0.17,0.788,0.17c0.407,0,0.687-0.056,0.839-0.167c0.152-0.112,0.227-0.319,0.227-0.617
		c0-0.338-0.097-0.559-0.291-0.661l0.007-0.008l0.255,0.015v-0.296H83.225L83.225,348.73z M85.738,350.053
		c-0.102,0.069-0.323,0.103-0.667,0.103c-0.313,0-0.519-0.034-0.618-0.106c-0.101-0.07-0.15-0.215-0.15-0.436
		c0-0.234,0.051-0.388,0.154-0.466c0.103-0.074,0.312-0.114,0.622-0.114c0.336,0,0.556,0.035,0.657,0.107
		c0.102,0.07,0.154,0.224,0.154,0.459C85.891,349.834,85.84,349.984,85.738,350.053L85.738,350.053z"/>
	<path fill="#FFF02A" d="M86.105,353.007h-2.016v-0.295l0.264,0.021l0.006-0.006c-0.199-0.103-0.3-0.322-0.3-0.659
		c0-0.47,0.235-0.706,0.705-0.706h1.341v0.295h-1.341c-0.184,0-0.306,0.03-0.367,0.092c-0.062,0.061-0.093,0.179-0.093,0.355
		c0,0.232,0.045,0.392,0.139,0.479c0.092,0.087,0.26,0.129,0.507,0.129h1.156V353.007L86.105,353.007z"/>
	<path fill="#FFF02A" d="M86.105,353.979h-2.016v0.296h2.016V353.979L86.105,353.979z M86.961,353.979h-0.332v0.296h0.332V353.979
		L86.961,353.979z"/>
	<path fill="#FFF02A" d="M85.573,356.782v-0.296c0.142,0,0.231-0.025,0.265-0.084c0.035-0.057,0.052-0.203,0.052-0.438
		c0-0.22-0.018-0.357-0.054-0.417c-0.036-0.06-0.122-0.088-0.258-0.088c-0.208,0-0.315,0.099-0.325,0.296l-0.013,0.237l-0.015,0.301
		c-0.019,0.364-0.209,0.546-0.574,0.546c-0.227,0-0.382-0.059-0.466-0.18c-0.083-0.122-0.127-0.341-0.127-0.661
		c0-0.329,0.041-0.555,0.122-0.678c0.08-0.124,0.227-0.187,0.441-0.187l0.11-0.001v0.305l-0.095,0.006
		c-0.133,0-0.221,0.034-0.267,0.102c-0.044,0.066-0.066,0.197-0.066,0.395c0,0.241,0.023,0.399,0.069,0.476
		c0.047,0.075,0.143,0.114,0.291,0.114c0.213,0,0.318-0.096,0.318-0.288c0-0.446,0.039-0.74,0.115-0.882
		c0.076-0.142,0.233-0.211,0.472-0.211c0.227,0,0.377,0.056,0.452,0.166c0.076,0.113,0.113,0.333,0.113,0.666
		c0,0.533-0.162,0.8-0.486,0.8L85.573,356.782L85.573,356.782z"/>
	<polygon fill="#FFF02A" points="86.961,360.986 84.089,360.986 84.089,360.662 86.72,360.662 85.908,359.928 86.102,359.724 
		86.961,360.519 86.961,360.986 	"/>
	<polygon fill="#FFF02A" points="86.961,364.66 86.55,364.66 84.089,363.268 84.089,362.883 86.688,364.391 86.688,362.563 
		86.961,362.563 86.961,364.66 	"/>
	<path fill="#FFF02A" d="M86.961,367.699h-0.273v-1.612l-0.869-0.016v0.008c0.156,0.112,0.233,0.364,0.233,0.755
		c0,0.379-0.064,0.638-0.195,0.776s-0.376,0.207-0.736,0.207c-0.44,0-0.727-0.065-0.86-0.196c-0.134-0.132-0.202-0.411-0.202-0.839
		c0-0.426,0.05-0.711,0.149-0.854c0.101-0.145,0.296-0.215,0.591-0.215h0.109v0.304c-0.259,0-0.419,0.04-0.481,0.121
		c-0.063,0.081-0.094,0.286-0.094,0.618c0,0.346,0.04,0.558,0.12,0.635c0.08,0.077,0.299,0.114,0.656,0.114
		c0.289,0,0.474-0.042,0.553-0.128c0.079-0.087,0.119-0.287,0.119-0.6c0-0.438-0.091-0.679-0.274-0.721v-0.293h1.456V367.699
		L86.961,367.699z"/>
	<path fill="#FFF02A" d="M86.961,370.774h-0.273v-1.612l-0.869-0.015v0.006c0.156,0.112,0.233,0.364,0.233,0.757
		c0,0.377-0.064,0.638-0.195,0.774c-0.13,0.139-0.376,0.209-0.736,0.209c-0.44,0-0.727-0.067-0.86-0.197
		c-0.134-0.132-0.202-0.411-0.202-0.84c0-0.425,0.05-0.709,0.149-0.853c0.101-0.144,0.296-0.217,0.591-0.217h0.109v0.306
		c-0.259,0-0.419,0.041-0.481,0.121c-0.063,0.08-0.094,0.286-0.094,0.617c0,0.348,0.04,0.56,0.12,0.636
		c0.08,0.077,0.299,0.116,0.656,0.116c0.289,0,0.474-0.044,0.553-0.131c0.079-0.086,0.119-0.285,0.119-0.6
		c0-0.438-0.091-0.679-0.274-0.719v-0.294h1.456V370.774L86.961,370.774z"/>
	<polygon fill="#FFF02A" points="84.472,371.87 84.089,371.87 84.089,371.546 84.472,371.546 84.472,371.87 	"/>
	<polygon fill="#FFF02A" points="97.502,272.534 89.488,270.535 89.488,269.489 97.502,267.486 97.502,268.71 91.456,270.016 
		97.502,271.312 97.502,272.534 	"/>
	<path fill="#FFF02A" d="M92.466,274.58v1.517l3.112-0.787L92.466,274.58L92.466,274.58z M89.488,278.033v-1.239l1.604-0.406v-2.189
		l-1.604-0.412v-1.24l8.014,2.057v1.403L89.488,278.033L89.488,278.033z"/>
	<path fill="#FFF02A" d="M92.226,283.968c-0.814-0.009-1.738-0.349-2.21-0.795c-0.374-0.348-0.747-1.015-0.781-1.744
		c-0.055-1.314,1.089-2.23,2.782-2.547c0.374-0.064,0.878-0.112,1.406-0.112c0.539,0,1.088,0.04,1.539,0.137
		c1.495,0.332,2.671,1.038,2.671,2.571c0,0.422-0.066,1.014-0.626,1.589c-0.781,0.853-1.814,0.892-2.221,0.901v-1.16
		c0.451-0.033,1.583-0.309,1.462-1.493c-0.055-0.551-0.593-0.981-1.275-1.176c-0.286-0.081-0.814-0.161-1.385-0.187
		c-0.57-0.016-1.187,0.025-1.681,0.187c-0.583,0.195-0.935,0.464-1.122,0.763c-0.088,0.155-0.131,0.307-0.131,0.479
		c-0.011,0.162,0.021,0.34,0.087,0.51c0.319,0.845,1.132,0.869,1.484,0.917V283.968L92.226,283.968z"/>
	<polygon fill="#FFF02A" points="97.502,285.042 97.502,286.26 94.489,286.26 94.489,288.603 97.502,288.603 97.502,289.82 
		89.488,289.82 89.488,288.603 93.116,288.603 93.116,286.26 89.488,286.26 89.488,285.042 97.502,285.042 	"/>
	<polygon fill="#FFF02A" points="97.502,295.494 96.127,295.494 96.127,292.428 94.302,292.428 94.302,295.257 92.929,295.257 
		92.929,292.428 90.863,292.428 90.863,295.633 89.488,295.633 89.488,291.211 97.502,291.211 97.502,295.494 	"/>
	<path fill="#FFF02A" d="M94.028,298.07v1.664c0,0.283,0.406,0.794,1.197,0.721c0.572,0,0.902-0.194,0.902-0.738v-1.647H94.028
		L94.028,298.07z M97.502,296.854v3.285c-0.033,0.592-0.408,1.193-1.276,1.363c-0.351,0.081-0.923,0.203-1.616,0.056
		c-0.692-0.146-0.945-0.404-1.264-0.802c-0.187,0.203-0.385,0.591-1.109,0.656c-0.33,0.032-1.385,0.049-1.792,0.056
		c-0.451,0-0.549,0.098-0.659,0.228h-0.297v-1.304c0.242-0.099,0.484-0.147,0.748-0.164c0.395-0.016,1.034-0.016,1.615,0
		c0.539-0.016,0.802-0.308,0.802-0.729v-1.429h-3.166v-1.216H97.502L97.502,296.854z"/>
	<path fill="#FFF02A" d="M91.214,306.542c0.483,0.389,1.352,0.585,2.22,0.592c0.868-0.007,1.737-0.203,2.221-0.592
		c0.384-0.307,0.538-0.698,0.538-1.087c0-0.39-0.154-0.777-0.538-1.087c-0.483-0.389-1.353-0.585-2.221-0.592
		c-0.868,0.007-1.736,0.203-2.22,0.592c-0.385,0.31-0.539,0.697-0.539,1.087C90.676,305.844,90.829,306.235,91.214,306.542
		L91.214,306.542z M90.236,307.427c-0.693-0.496-1.001-1.217-1.001-1.972c0-0.754,0.308-1.476,1.001-1.97
		c0.78-0.554,1.99-0.878,3.198-0.878c1.21,0,2.418,0.324,3.199,0.878c0.693,0.494,1,1.216,1,1.97c0,0.755-0.308,1.476-1,1.972
		c-0.781,0.551-1.989,0.875-3.199,0.875C92.226,308.302,91.017,307.978,90.236,307.427L90.236,307.427z"/>
	<polygon fill="#FFF02A" points="97.502,310.573 91.995,312.965 97.502,312.965 97.502,314.18 89.488,314.18 89.488,312.98 
		95.072,310.587 89.488,310.587 89.488,309.371 97.502,309.371 97.502,310.573 	"/>
	<path fill="#FFF02A" d="M92.226,323.409c-0.814-0.007-1.738-0.349-2.21-0.795c-0.374-0.348-0.747-1.014-0.781-1.744
		c-0.055-1.313,1.089-2.229,2.782-2.547c0.374-0.063,0.878-0.113,1.406-0.113c0.539,0,1.088,0.042,1.539,0.139
		c1.495,0.334,2.671,1.037,2.671,2.572c0,0.421-0.066,1.012-0.626,1.589c-0.781,0.852-1.814,0.893-2.221,0.899v-1.159
		c0.451-0.033,1.583-0.309,1.462-1.492c-0.055-0.552-0.593-0.981-1.275-1.178c-0.286-0.08-0.814-0.161-1.385-0.186
		c-0.57-0.016-1.187,0.024-1.681,0.186c-0.583,0.196-0.935,0.464-1.122,0.764c-0.088,0.154-0.131,0.309-0.131,0.478
		c-0.011,0.164,0.021,0.342,0.087,0.511c0.319,0.846,1.132,0.869,1.484,0.918V323.409L92.226,323.409z"/>
	<path fill="#FFF02A" d="M91.214,328.191c0.483,0.389,1.352,0.584,2.22,0.592c0.868-0.008,1.737-0.203,2.221-0.592
		c0.384-0.309,0.538-0.698,0.538-1.087s-0.154-0.778-0.538-1.087c-0.483-0.389-1.353-0.583-2.221-0.592
		c-0.868,0.009-1.736,0.203-2.22,0.592c-0.385,0.309-0.539,0.698-0.539,1.087S90.829,327.883,91.214,328.191L91.214,328.191z
		 M90.236,329.075c-0.693-0.495-1.001-1.218-1.001-1.971c0-0.755,0.308-1.476,1.001-1.971c0.78-0.552,1.99-0.876,3.198-0.876
		c1.21,0,2.418,0.324,3.199,0.876c0.693,0.495,1,1.216,1,1.971c0,0.753-0.308,1.476-1,1.971c-0.781,0.551-1.989,0.876-3.199,0.876
		C92.226,329.951,91.017,329.626,90.236,329.075L90.236,329.075z"/>
	<polygon fill="#FFF02A" points="97.502,332.221 91.995,334.613 97.502,334.613 97.502,335.83 89.488,335.83 89.488,334.629 
		95.072,332.235 89.488,332.235 89.488,331.02 97.502,331.02 97.502,332.221 	"/>
	<path fill="#FFF02A" d="M95.062,340.344c0.648,0.017,1.242-0.381,1.264-1.218c0.011-0.592-0.263-1.029-0.923-1.069
		c-0.551-0.032-0.66,0.104-0.803,0.373c-0.197,0.138-0.44,1.258-0.495,1.483c-0.076,0.324-0.274,1.023-0.791,1.396
		c-0.967,0.681-2.869,0.365-3.517-0.372c-0.44-0.503-0.549-1.192-0.561-1.851c-0.011-0.299,0.132-1.013,0.561-1.451
		c0.517-0.527,1.308-0.786,2.066-0.827v1.185c-0.209,0-0.538,0.048-0.824,0.25c-0.375,0.268-0.496,0.707-0.474,1.111
		c0.011,0.406,0.176,0.788,0.374,0.94c0.331,0.261,0.957,0.317,1.352,0.025c0.55-0.389,0.55-1.558,0.902-2.319
		c0.296-0.642,0.923-1.168,2.22-1.07c1.275,0.097,2.221,0.777,2.221,2.221c0,0.317-0.033,1.421-1.022,1.996
		c-0.539,0.308-1.286,0.39-1.55,0.341V340.344L95.062,340.344z"/>
	<polygon fill="#FFF02A" points="97.502,347.032 96.127,347.032 96.127,345.305 89.488,345.305 89.488,344.088 96.127,344.088 
		96.127,342.297 97.502,342.297 97.502,347.032 	"/>
	<path fill="#FFF02A" d="M92.466,348.906v1.519l3.112-0.787L92.466,348.906L92.466,348.906z M89.488,352.362v-1.24l1.604-0.406
		v-2.19l-1.604-0.413v-1.271l8.014,2.09v1.404L89.488,352.362L89.488,352.362z"/>
	<polygon fill="#FFF02A" points="97.502,354.493 91.995,356.885 97.502,356.885 97.502,358.102 89.488,358.102 89.488,356.9 
		95.072,354.508 89.488,354.508 89.488,353.291 97.502,353.291 97.502,354.493 	"/>
	<polygon fill="#FFF02A" points="97.502,363.669 96.127,363.669 96.127,361.941 89.488,361.941 89.488,360.725 96.127,360.725 
		96.127,358.933 97.502,358.933 97.502,363.669 	"/>
	<polygon fill="#FFF02A" points="89.488,365.727 89.488,364.51 97.502,364.51 97.502,365.727 89.488,365.727 	"/>
	<polygon fill="#FFF02A" points="97.502,368.23 91.995,370.623 97.502,370.623 97.502,371.84 89.488,371.84 89.488,370.639 
		95.072,368.247 89.488,368.247 89.488,367.03 97.502,367.03 97.502,368.23 	"/>
	<path fill="#FFF02A" d="M108.079,315.458l2.856-1.027l-2.279,5.28c-0.017,0.043-0.026,0.089-0.026,0.138
		c0,0.106,0.043,0.201,0.113,0.272l0,0c0.07,0.068,0.167,0.111,0.272,0.111c0.049,0,0.095-0.009,0.139-0.024l5.278-2.279
		l-1.026,2.854l0,0l1.026,2.854l-5.278-2.278c-0.043-0.017-0.09-0.026-0.139-0.026c-0.105,0-0.202,0.044-0.272,0.113l0,0
		c-0.07,0.07-0.113,0.166-0.113,0.273c0,0.048,0.009,0.094,0.026,0.136l2.279,5.277l-2.856-1.024l-2.853,1.024l2.278-5.277
		c0.016-0.042,0.026-0.088,0.026-0.136c0-0.107-0.044-0.203-0.112-0.273l0,0c-0.07-0.069-0.166-0.113-0.273-0.113
		c-0.048,0-0.095,0.01-0.137,0.026l-5.279,2.278l1.026-2.854l-1.026-2.854l5.279,2.279c0.042,0.016,0.089,0.024,0.137,0.024
		c0.107,0,0.203-0.043,0.273-0.111l0,0c0.068-0.071,0.113-0.166,0.113-0.272c0-0.049-0.011-0.095-0.027-0.138l-2.278-5.28
		L108.079,315.458L108.079,315.458z"/>
</g>
<g>
	<path fill="#FFF02A" d="M86.961,272.545h-2.872v-0.324h2.3h0.171l0.087,0.001l0.085,0.004v-0.01l-0.067-0.025
		c-0.032-0.013-0.055-0.021-0.064-0.024l-0.134-0.055l-2.377-0.977v-0.323l2.351-0.979l0.131-0.056l0.068-0.025
		c0.015-0.008,0.036-0.016,0.064-0.024v-0.01l-0.077,0.002l-0.08,0.003h-0.157h-2.3v-0.325h2.872v0.562l-1.856,0.764l-0.301,0.121
		l-0.15,0.062l-0.149,0.058v0.008l0.149,0.061c0.073,0.029,0.122,0.048,0.15,0.058l0.299,0.124l1.858,0.76V272.545L86.961,272.545z"
		/>
	<path fill="#FFF02A" d="M85.597,273.807c0.205,0,0.309,0.182,0.309,0.544c0,0.214-0.035,0.352-0.103,0.415
		c-0.07,0.064-0.22,0.095-0.452,0.095h-0.244l-0.002-0.007c0.139-0.069,0.209-0.281,0.209-0.635c0-0.298-0.046-0.504-0.139-0.618
		c-0.093-0.113-0.26-0.17-0.503-0.17c-0.409,0-0.613,0.254-0.613,0.762c0,0.343,0.083,0.572,0.249,0.685l-0.003,0.006l-0.216-0.023
		v0.296h1.327c0.279,0,0.469-0.06,0.569-0.177c0.099-0.118,0.148-0.345,0.148-0.678c0-0.309-0.04-0.516-0.122-0.622
		c-0.081-0.107-0.24-0.159-0.477-0.159v0.292C85.566,273.81,85.586,273.807,85.597,273.807L85.597,273.807z M85.003,274.756
		c-0.054,0.081-0.161,0.121-0.32,0.121c-0.253,0-0.379-0.209-0.379-0.624c0-0.206,0.026-0.344,0.079-0.411
		c0.052-0.068,0.161-0.101,0.324-0.101c0.156,0,0.259,0.035,0.307,0.102c0.048,0.068,0.072,0.215,0.072,0.44
		C85.086,274.518,85.058,274.675,85.003,274.756L85.003,274.756z"/>
	<path fill="#FFF02A" d="M86.105,276.132v0.285l-0.275-0.009l-0.007,0.009c0.207,0.089,0.31,0.313,0.31,0.669
		c0,0.288-0.05,0.482-0.151,0.584c-0.101,0.101-0.295,0.151-0.582,0.151h-1.311v-0.294h1.286h0.076c0.173,0,0.29-0.034,0.35-0.099
		c0.06-0.067,0.09-0.193,0.09-0.381c0-0.413-0.197-0.621-0.589-0.621h-1.212v-0.295H86.105L86.105,276.132z"/>
	<path fill="#FFF02A" d="M86.105,280.433h-2.016v-0.296l0.264,0.021l0.006-0.006c-0.199-0.102-0.3-0.322-0.3-0.659
		c0-0.471,0.235-0.707,0.705-0.707h1.341v0.294h-1.341c-0.184,0-0.306,0.031-0.367,0.092c-0.062,0.06-0.093,0.18-0.093,0.356
		c0,0.232,0.045,0.393,0.139,0.479c0.092,0.085,0.26,0.129,0.507,0.129h1.156V280.433L86.105,280.433z"/>
	<path fill="#FFF02A" d="M84.089,281.486h1.771v-0.311h0.245v0.311h0.297c0.393,0,0.588,0.201,0.588,0.607
		c0,0.058-0.005,0.13-0.015,0.211h-0.243c0.01-0.095,0.015-0.164,0.015-0.208c0-0.21-0.107-0.316-0.317-0.316h-0.325v0.524H85.86
		v-0.524h-1.771V281.486L84.089,281.486z"/>
	<path fill="#FFF02A" d="M85.597,283.28c0.205,0,0.309,0.183,0.309,0.546c0,0.214-0.035,0.353-0.103,0.416
		c-0.07,0.063-0.22,0.094-0.452,0.094h-0.244l-0.002-0.007c0.139-0.07,0.209-0.281,0.209-0.638c0-0.296-0.046-0.502-0.139-0.616
		c-0.093-0.115-0.26-0.171-0.503-0.171c-0.409,0-0.613,0.254-0.613,0.763c0,0.345,0.083,0.574,0.249,0.685l-0.003,0.006
		l-0.216-0.022v0.296h1.327c0.279,0,0.469-0.061,0.569-0.179c0.099-0.118,0.148-0.343,0.148-0.679c0-0.31-0.04-0.516-0.122-0.624
		c-0.081-0.104-0.24-0.158-0.477-0.158v0.293C85.566,283.283,85.586,283.28,85.597,283.28L85.597,283.28z M85.003,284.229
		c-0.054,0.082-0.161,0.121-0.32,0.121c-0.253,0-0.379-0.207-0.379-0.623c0-0.207,0.026-0.344,0.079-0.412
		c0.052-0.068,0.161-0.102,0.324-0.102c0.156,0,0.259,0.035,0.307,0.104c0.048,0.067,0.072,0.215,0.072,0.441
		C85.086,283.991,85.058,284.148,85.003,284.229L85.003,284.229z"/>
	<path fill="#FFF02A" d="M84.812,286.991v0.293l-0.109,0.005c-0.429,0-0.645-0.282-0.645-0.848c0-0.362,0.068-0.603,0.205-0.719
		c0.137-0.117,0.418-0.175,0.843-0.175c0.398,0,0.671,0.06,0.812,0.178c0.143,0.118,0.214,0.344,0.214,0.677
		c0,0.327-0.047,0.549-0.144,0.669c-0.096,0.121-0.277,0.18-0.542,0.18v-0.295l0.053,0.002c0.156,0,0.259-0.04,0.312-0.116
		c0.053-0.078,0.079-0.232,0.079-0.461c0-0.223-0.05-0.365-0.148-0.429c-0.098-0.063-0.32-0.094-0.663-0.094
		c-0.334,0-0.547,0.035-0.64,0.107c-0.091,0.073-0.137,0.242-0.137,0.506c0,0.225,0.029,0.368,0.088,0.428
		C84.452,286.96,84.591,286.991,84.812,286.991L84.812,286.991z"/>
	<path fill="#FFF02A" d="M86.105,289.199H85.86v-0.775h-1.232c-0.216,0-0.325,0.095-0.325,0.286c0,0.19,0.096,0.284,0.291,0.284
		l0.099,0.006L84.805,289v0.274l-0.15,0.006c-0.396,0-0.596-0.189-0.596-0.568c0-0.39,0.166-0.585,0.496-0.585h0.073h1.232v-0.279
		h0.245v0.279h0.479v0.296h-0.479V289.199L86.105,289.199z"/>
	<path fill="#FFF02A" d="M86.105,291.608h-2.016v-0.295l0.264,0.021l0.006-0.006c-0.199-0.104-0.3-0.322-0.3-0.659
		c0-0.472,0.235-0.708,0.705-0.708h1.341v0.296h-1.341c-0.184,0-0.306,0.03-0.367,0.09c-0.062,0.061-0.093,0.179-0.093,0.357
		c0,0.231,0.045,0.391,0.139,0.479c0.092,0.085,0.26,0.129,0.507,0.129h1.156V291.608L86.105,291.608z"/>
	<path fill="#FFF02A" d="M86.105,292.61v0.296l-0.232-0.03l-0.006,0.008c0.188,0.115,0.281,0.307,0.281,0.574
		c0,0.371-0.19,0.555-0.57,0.555h-0.139v-0.291l0.051,0.005c0.053,0.004,0.089,0.006,0.106,0.006c0.206,0,0.309-0.113,0.309-0.335
		c0-0.329-0.203-0.492-0.608-0.492h-1.209v-0.296H86.105L86.105,292.61z"/>
	<path fill="#FFF02A" d="M84.631,296.13c-0.136,0-0.226-0.035-0.267-0.107c-0.041-0.07-0.062-0.226-0.062-0.462
		c0-0.25,0.043-0.409,0.13-0.476c0.087-0.068,0.291-0.102,0.608-0.102v1.448h0.158c0.384,0,0.636-0.058,0.755-0.172
		c0.12-0.116,0.179-0.36,0.179-0.73c0-0.339-0.068-0.569-0.207-0.685c-0.137-0.116-0.407-0.174-0.809-0.174
		c-0.434,0-0.719,0.058-0.854,0.173c-0.136,0.116-0.204,0.36-0.204,0.731c0,0.319,0.042,0.542,0.125,0.669s0.229,0.191,0.437,0.191
		l0.073-0.004v-0.301H84.631L84.631,296.13z M85.27,294.987c0.259,0,0.428,0.036,0.505,0.107c0.077,0.07,0.116,0.226,0.116,0.463
		c0,0.236-0.033,0.392-0.099,0.464c-0.065,0.07-0.208,0.106-0.426,0.106l-0.096,0.003V294.987L85.27,294.987z"/>
	<polygon fill="#FFF02A" points="86.961,301.175 84.089,301.175 84.089,300.851 85.425,300.851 85.425,299.175 84.089,299.175 
		84.089,298.85 86.961,298.85 86.961,299.175 85.698,299.175 85.698,300.851 86.961,300.851 86.961,301.175 	"/>
	<path fill="#FFF02A" d="M85.94,302.247c-0.13-0.11-0.411-0.166-0.843-0.166c-0.434,0-0.714,0.056-0.843,0.166
		c-0.129,0.112-0.194,0.352-0.194,0.722c0,0.374,0.065,0.613,0.194,0.726c0.129,0.111,0.41,0.166,0.843,0.166
		c0.432,0,0.713-0.055,0.843-0.166c0.129-0.112,0.193-0.352,0.193-0.726C86.133,302.599,86.069,302.358,85.94,302.247L85.94,302.247
		z M85.763,303.456c-0.085,0.062-0.308,0.094-0.667,0.094c-0.358,0-0.581-0.031-0.666-0.094c-0.085-0.062-0.127-0.224-0.127-0.487
		c0-0.26,0.042-0.422,0.127-0.484c0.085-0.062,0.308-0.093,0.666-0.093c0.359,0,0.582,0.031,0.667,0.093
		c0.084,0.062,0.127,0.224,0.127,0.484C85.891,303.232,85.848,303.394,85.763,303.456L85.763,303.456z"/>
	<path fill="#FFF02A" d="M86.105,304.78v0.297l-0.232-0.03l-0.006,0.006c0.188,0.118,0.281,0.309,0.281,0.576
		c0,0.37-0.19,0.556-0.57,0.556h-0.139v-0.292l0.051,0.005c0.053,0.004,0.089,0.006,0.106,0.006c0.206,0,0.309-0.111,0.309-0.336
		c0-0.327-0.203-0.49-0.608-0.49h-1.209v-0.297H86.105L86.105,304.78z"/>
	<polygon fill="#FFF02A" points="86.961,307.195 84.089,307.195 84.089,306.899 86.961,306.899 86.961,307.195 	"/>
	<path fill="#FFF02A" d="M85.94,308.252c-0.13-0.112-0.411-0.167-0.843-0.167c-0.434,0-0.714,0.055-0.843,0.167
		c-0.129,0.108-0.194,0.352-0.194,0.722c0,0.371,0.065,0.614,0.194,0.725c0.129,0.11,0.41,0.165,0.843,0.165
		c0.432,0,0.713-0.055,0.843-0.165c0.129-0.11,0.193-0.354,0.193-0.725C86.133,308.604,86.069,308.36,85.94,308.252L85.94,308.252z
		 M85.763,309.46c-0.085,0.062-0.308,0.094-0.667,0.094c-0.358,0-0.581-0.032-0.666-0.094c-0.085-0.061-0.127-0.226-0.127-0.486
		c0-0.262,0.042-0.423,0.127-0.486c0.085-0.062,0.308-0.094,0.666-0.094c0.359,0,0.582,0.031,0.667,0.094
		c0.084,0.063,0.127,0.225,0.127,0.486C85.891,309.234,85.848,309.399,85.763,309.46L85.763,309.46z"/>
	<path fill="#FFF02A" d="M86.105,312.144l-0.273,0.014l-0.002-0.004c0.203-0.102,0.303-0.318,0.303-0.647
		c0-0.312-0.073-0.523-0.222-0.637c-0.148-0.115-0.424-0.174-0.828-0.174c-0.389,0-0.656,0.058-0.804,0.17
		c-0.146,0.111-0.221,0.317-0.221,0.615c0,0.361,0.094,0.581,0.281,0.657l-0.002,0.006h-0.403c-0.196,0-0.327-0.038-0.394-0.116
		c-0.066-0.077-0.101-0.228-0.101-0.452c0-0.217,0.027-0.356,0.078-0.421c0.053-0.063,0.165-0.095,0.336-0.095v-0.284
		c-0.253,0-0.426,0.055-0.518,0.164c-0.092,0.11-0.139,0.314-0.139,0.614c0,0.337,0.056,0.57,0.164,0.694
		c0.109,0.126,0.309,0.19,0.6,0.19h2.146V312.144L86.105,312.144z M85.747,312.024c-0.096,0.075-0.296,0.112-0.6,0.112
		c-0.344,0-0.572-0.037-0.68-0.112c-0.109-0.075-0.164-0.229-0.164-0.464c0-0.232,0.049-0.381,0.148-0.452
		c0.099-0.067,0.316-0.102,0.649-0.102c0.331,0,0.545,0.034,0.643,0.102c0.098,0.071,0.147,0.22,0.147,0.452
		C85.891,311.795,85.843,311.949,85.747,312.024L85.747,312.024z"/>
	<path fill="#FFF02A" d="M86.727,313.766l-0.38,0.62l0.155,0.103l0.43-0.57L86.727,313.766L86.727,313.766z M84.631,314.787
		c-0.137,0-0.226-0.037-0.267-0.106c-0.04-0.07-0.061-0.225-0.061-0.462c0-0.25,0.043-0.409,0.129-0.478
		c0.088-0.067,0.291-0.103,0.609-0.103v1.449h0.158c0.384,0,0.636-0.059,0.755-0.173c0.119-0.113,0.179-0.358,0.179-0.729
		c0-0.34-0.068-0.567-0.207-0.686c-0.137-0.114-0.407-0.174-0.809-0.174c-0.434,0-0.719,0.058-0.855,0.174
		c-0.135,0.116-0.203,0.359-0.203,0.731c0,0.318,0.042,0.541,0.125,0.669c0.083,0.126,0.229,0.19,0.437,0.19l0.074-0.004v-0.301
		H84.631L84.631,314.787z M85.27,313.644c0.259,0,0.428,0.035,0.505,0.105c0.077,0.073,0.116,0.227,0.116,0.466
		c0,0.237-0.033,0.391-0.099,0.463c-0.066,0.07-0.208,0.107-0.426,0.107l-0.096,0.002V313.644L85.27,313.644z"/>
	<path fill="#FFF02A" d="M86.105,316.013v0.296l-0.232-0.029l-0.006,0.006c0.188,0.114,0.281,0.307,0.281,0.574
		c0,0.37-0.19,0.556-0.57,0.556h-0.139v-0.289l0.051,0.004c0.053,0.003,0.089,0.005,0.106,0.005c0.206,0,0.309-0.113,0.309-0.335
		c0-0.328-0.203-0.491-0.608-0.491h-1.209v-0.296H86.105L86.105,316.013z"/>
	<path fill="#FFF02A" d="M84.631,319.533c-0.136,0-0.226-0.036-0.267-0.108c-0.041-0.07-0.062-0.224-0.062-0.462
		c0-0.249,0.043-0.407,0.13-0.476s0.291-0.102,0.608-0.102v1.447h0.158c0.384,0,0.636-0.058,0.755-0.173
		c0.12-0.114,0.179-0.356,0.179-0.729c0-0.338-0.068-0.565-0.207-0.684c-0.137-0.116-0.407-0.175-0.809-0.175
		c-0.434,0-0.719,0.059-0.854,0.174c-0.136,0.117-0.204,0.36-0.204,0.73c0,0.32,0.042,0.542,0.125,0.67
		c0.083,0.126,0.229,0.19,0.437,0.19l0.073-0.004v-0.3H84.631L84.631,319.533z M85.27,318.39c0.259,0,0.428,0.036,0.505,0.105
		c0.077,0.07,0.116,0.226,0.116,0.464s-0.033,0.392-0.099,0.464c-0.065,0.071-0.208,0.108-0.426,0.108l-0.096,0.002V318.39
		L85.27,318.39z"/>
	<polygon fill="#FFF02A" points="84.472,321.054 84.089,321.054 84.089,320.729 84.472,320.729 84.472,321.054 	"/>
	<path fill="#FFF02A" d="M85.521,325.521v1.23c-0.074,0.007-0.178,0.009-0.314,0.009c-0.519,0-0.84-0.062-0.962-0.19
		c-0.124-0.127-0.185-0.459-0.185-0.996c0-0.508,0.073-0.833,0.218-0.978c0.145-0.146,0.471-0.217,0.978-0.217l0.422-0.002
		l0.255,0.002c0.425,0,0.708,0.079,0.849,0.24c0.139,0.161,0.21,0.485,0.21,0.975c0,0.488-0.046,0.803-0.138,0.945
		c-0.092,0.142-0.298,0.212-0.617,0.212h-0.109v-0.315h0.072c0.235,0,0.379-0.05,0.435-0.146c0.055-0.098,0.084-0.347,0.084-0.753
		c0-0.374-0.045-0.609-0.134-0.703c-0.088-0.094-0.311-0.142-0.666-0.142l-0.381-0.006l-0.411,0.002
		c-0.362,0-0.586,0.053-0.669,0.157c-0.083,0.104-0.125,0.385-0.125,0.837c0,0.348,0.04,0.563,0.118,0.646
		c0.08,0.082,0.285,0.123,0.619,0.123c0.027,0,0.086-0.006,0.178-0.016v-0.915H85.521L85.521,325.521z"/>
	<path fill="#FFF02A" d="M84.631,328.982c-0.136,0-0.226-0.037-0.267-0.108c-0.041-0.069-0.062-0.224-0.062-0.461
		c0-0.251,0.043-0.41,0.13-0.477c0.087-0.068,0.291-0.104,0.608-0.104v1.449h0.158c0.384,0,0.636-0.058,0.755-0.173
		c0.12-0.114,0.179-0.358,0.179-0.729c0-0.34-0.068-0.568-0.207-0.685c-0.137-0.116-0.407-0.174-0.809-0.174
		c-0.434,0-0.719,0.056-0.854,0.173c-0.136,0.116-0.204,0.359-0.204,0.73c0,0.319,0.042,0.542,0.125,0.669
		c0.083,0.128,0.229,0.191,0.437,0.191l0.073-0.004v-0.3H84.631L84.631,328.982z M85.27,327.838c0.259,0,0.428,0.035,0.505,0.106
		c0.077,0.07,0.116,0.227,0.116,0.465c0,0.236-0.033,0.391-0.099,0.462s-0.208,0.108-0.426,0.108l-0.096,0.003V327.838
		L85.27,327.838z"/>
	<path fill="#FFF02A" d="M86.105,330.178v0.285l-0.275-0.009l-0.007,0.009c0.207,0.09,0.31,0.312,0.31,0.669
		c0,0.288-0.05,0.481-0.151,0.584c-0.101,0.101-0.295,0.151-0.582,0.151h-1.311v-0.294h1.286h0.076c0.173,0,0.29-0.032,0.35-0.099
		c0.06-0.067,0.09-0.194,0.09-0.381c0-0.413-0.197-0.62-0.589-0.62h-1.212v-0.296H86.105L86.105,330.178z"/>
	<path fill="#FFF02A" d="M86.727,333.213l-0.38,0.618l0.155,0.102l0.43-0.569L86.727,333.213L86.727,333.213z M84.631,334.232
		c-0.137,0-0.226-0.035-0.267-0.107c-0.04-0.07-0.061-0.225-0.061-0.462c0-0.249,0.043-0.407,0.129-0.476
		c0.088-0.068,0.291-0.103,0.609-0.103v1.448h0.158c0.384,0,0.636-0.058,0.755-0.174c0.119-0.114,0.179-0.357,0.179-0.728
		c0-0.34-0.068-0.567-0.207-0.685c-0.137-0.116-0.407-0.175-0.809-0.175c-0.434,0-0.719,0.059-0.855,0.174
		c-0.135,0.114-0.203,0.359-0.203,0.73c0,0.318,0.042,0.542,0.125,0.669c0.083,0.128,0.229,0.189,0.437,0.189l0.074-0.002v-0.301
		H84.631L84.631,334.232z M85.27,333.089c0.259,0,0.428,0.035,0.505,0.107c0.077,0.069,0.116,0.225,0.116,0.463
		c0,0.237-0.033,0.393-0.099,0.463c-0.066,0.071-0.208,0.108-0.426,0.108l-0.096,0.002V333.089L85.27,333.089z"/>
	<polygon fill="#FFF02A" points="86.105,336.919 84.089,336.246 84.089,335.823 86.105,335.156 86.105,335.458 85.008,335.814 
		84.665,335.927 84.492,335.979 84.319,336.033 84.319,336.041 84.49,336.092 84.662,336.143 85.004,336.25 86.105,336.591 
		86.105,336.919 	"/>
	<path fill="#FFF02A" d="M84.631,338.994c-0.136,0-0.226-0.036-0.267-0.106c-0.041-0.07-0.062-0.224-0.062-0.462
		c0-0.25,0.043-0.408,0.13-0.476s0.291-0.102,0.608-0.102v1.448h0.158c0.384,0,0.636-0.06,0.755-0.173
		c0.12-0.115,0.179-0.359,0.179-0.73c0-0.338-0.068-0.567-0.207-0.684c-0.137-0.116-0.407-0.175-0.809-0.175
		c-0.434,0-0.719,0.059-0.854,0.174c-0.136,0.116-0.204,0.359-0.204,0.73c0,0.318,0.042,0.542,0.125,0.67
		c0.083,0.126,0.229,0.19,0.437,0.19l0.073-0.003v-0.303H84.631L84.631,338.994z M85.27,337.853c0.259,0,0.428,0.035,0.505,0.104
		c0.077,0.073,0.116,0.228,0.116,0.466c0,0.237-0.033,0.392-0.099,0.464c-0.065,0.07-0.208,0.106-0.426,0.106l-0.096,0.002V337.853
		L85.27,337.853z"/>
	<path fill="#FFF02A" d="M84.472,340.53h-0.413c-0.26,0-0.391-0.096-0.391-0.288c0-0.019,0-0.045,0.001-0.081h0.16
		c0.008,0.124,0.07,0.186,0.186,0.186l0.074-0.003v-0.137h0.383V340.53L84.472,340.53z"/>
	<path fill="#FFF02A" d="M86.961,344.891h-1.108l-0.003-0.007c0.189-0.069,0.283-0.287,0.283-0.651c0-0.294-0.073-0.497-0.22-0.611
		c-0.147-0.113-0.41-0.17-0.788-0.17c-0.41,0-0.69,0.057-0.84,0.169c-0.151,0.113-0.227,0.324-0.227,0.633
		c0,0.337,0.098,0.552,0.293,0.644l-0.002,0.01l-0.261-0.016v0.296h2.872V344.891L86.961,344.891z M85.739,344.771
		c-0.1,0.08-0.295,0.12-0.583,0.12c-0.355,0-0.587-0.036-0.694-0.109c-0.105-0.072-0.159-0.23-0.159-0.474
		c0-0.223,0.053-0.369,0.159-0.44c0.106-0.069,0.328-0.105,0.667-0.105c0.307,0,0.511,0.036,0.611,0.106
		c0.101,0.072,0.151,0.217,0.151,0.435C85.891,344.532,85.84,344.688,85.739,344.771L85.739,344.771z"/>
	<path fill="#FFF02A" d="M84.631,347.534c-0.136,0-0.226-0.035-0.267-0.107c-0.041-0.069-0.062-0.225-0.062-0.462
		c0-0.249,0.043-0.409,0.13-0.476c0.087-0.068,0.291-0.103,0.608-0.103v1.448h0.158c0.384,0,0.636-0.058,0.755-0.173
		c0.12-0.114,0.179-0.358,0.179-0.729c0-0.34-0.068-0.568-0.207-0.685c-0.137-0.117-0.407-0.175-0.809-0.175
		c-0.434,0-0.719,0.058-0.854,0.175c-0.136,0.114-0.204,0.358-0.204,0.729c0,0.318,0.042,0.543,0.125,0.669
		c0.083,0.128,0.229,0.191,0.437,0.191l0.073-0.004v-0.301H84.631L84.631,347.534z M85.27,346.391c0.259,0,0.428,0.035,0.505,0.107
		c0.077,0.069,0.116,0.226,0.116,0.465c0,0.235-0.033,0.391-0.099,0.461c-0.065,0.073-0.208,0.108-0.426,0.108l-0.096,0.002V346.391
		L85.27,346.391z"/>
	<path fill="#FFF02A" d="M83.225,348.73v0.296h1.102v0.006c-0.179,0.106-0.268,0.326-0.268,0.658c0,0.288,0.074,0.49,0.221,0.604
		c0.147,0.114,0.41,0.17,0.788,0.17c0.407,0,0.687-0.056,0.839-0.167c0.152-0.112,0.227-0.319,0.227-0.617
		c0-0.338-0.097-0.559-0.291-0.661l0.007-0.008l0.255,0.015v-0.296H83.225L83.225,348.73z M85.738,350.053
		c-0.102,0.069-0.323,0.103-0.667,0.103c-0.313,0-0.519-0.034-0.618-0.106c-0.101-0.07-0.15-0.215-0.15-0.436
		c0-0.234,0.051-0.388,0.154-0.466c0.103-0.074,0.312-0.114,0.622-0.114c0.336,0,0.556,0.035,0.657,0.107
		c0.102,0.07,0.154,0.224,0.154,0.459C85.891,349.834,85.84,349.984,85.738,350.053L85.738,350.053z"/>
	<path fill="#FFF02A" d="M86.105,353.007h-2.016v-0.295l0.264,0.021l0.006-0.006c-0.199-0.103-0.3-0.322-0.3-0.659
		c0-0.47,0.235-0.706,0.705-0.706h1.341v0.295h-1.341c-0.184,0-0.306,0.03-0.367,0.092c-0.062,0.061-0.093,0.179-0.093,0.355
		c0,0.232,0.045,0.392,0.139,0.479c0.092,0.087,0.26,0.129,0.507,0.129h1.156V353.007L86.105,353.007z"/>
	<path fill="#FFF02A" d="M86.105,353.979h-2.016v0.296h2.016V353.979L86.105,353.979z M86.961,353.979h-0.332v0.296h0.332V353.979
		L86.961,353.979z"/>
	<path fill="#FFF02A" d="M85.573,356.782v-0.296c0.142,0,0.231-0.025,0.265-0.084c0.035-0.057,0.052-0.203,0.052-0.438
		c0-0.22-0.018-0.357-0.054-0.417c-0.036-0.06-0.122-0.088-0.258-0.088c-0.208,0-0.315,0.099-0.325,0.296l-0.013,0.237l-0.015,0.301
		c-0.019,0.364-0.209,0.546-0.574,0.546c-0.227,0-0.382-0.059-0.466-0.18c-0.083-0.122-0.127-0.341-0.127-0.661
		c0-0.329,0.041-0.555,0.122-0.678c0.08-0.124,0.227-0.187,0.441-0.187l0.11-0.001v0.305l-0.095,0.006
		c-0.133,0-0.221,0.034-0.267,0.102c-0.044,0.066-0.066,0.197-0.066,0.395c0,0.241,0.023,0.399,0.069,0.476
		c0.047,0.075,0.143,0.114,0.291,0.114c0.213,0,0.318-0.096,0.318-0.288c0-0.446,0.039-0.74,0.115-0.882
		c0.076-0.142,0.233-0.211,0.472-0.211c0.227,0,0.377,0.056,0.452,0.166c0.076,0.113,0.113,0.333,0.113,0.666
		c0,0.533-0.162,0.8-0.486,0.8L85.573,356.782L85.573,356.782z"/>
	<polygon fill="#FFF02A" points="86.961,360.986 84.089,360.986 84.089,360.662 86.72,360.662 85.908,359.928 86.102,359.724 
		86.961,360.519 86.961,360.986 	"/>
	<polygon fill="#FFF02A" points="86.961,364.66 86.55,364.66 84.089,363.268 84.089,362.883 86.688,364.391 86.688,362.563 
		86.961,362.563 86.961,364.66 	"/>
	<path fill="#FFF02A" d="M86.961,367.699h-0.273v-1.612l-0.869-0.016v0.008c0.156,0.112,0.233,0.364,0.233,0.755
		c0,0.379-0.064,0.638-0.195,0.776s-0.376,0.207-0.736,0.207c-0.44,0-0.727-0.065-0.86-0.196c-0.134-0.132-0.202-0.411-0.202-0.839
		c0-0.426,0.05-0.711,0.149-0.854c0.101-0.145,0.296-0.215,0.591-0.215h0.109v0.304c-0.259,0-0.419,0.04-0.481,0.121
		c-0.063,0.081-0.094,0.286-0.094,0.618c0,0.346,0.04,0.558,0.12,0.635c0.08,0.077,0.299,0.114,0.656,0.114
		c0.289,0,0.474-0.042,0.553-0.128c0.079-0.087,0.119-0.287,0.119-0.6c0-0.438-0.091-0.679-0.274-0.721v-0.293h1.456V367.699
		L86.961,367.699z"/>
	<path fill="#FFF02A" d="M86.961,370.774h-0.273v-1.612l-0.869-0.015v0.006c0.156,0.112,0.233,0.364,0.233,0.757
		c0,0.377-0.064,0.638-0.195,0.774c-0.13,0.139-0.376,0.209-0.736,0.209c-0.44,0-0.727-0.067-0.86-0.197
		c-0.134-0.132-0.202-0.411-0.202-0.84c0-0.425,0.05-0.709,0.149-0.853c0.101-0.144,0.296-0.217,0.591-0.217h0.109v0.306
		c-0.259,0-0.419,0.041-0.481,0.121c-0.063,0.08-0.094,0.286-0.094,0.617c0,0.348,0.04,0.56,0.12,0.636
		c0.08,0.077,0.299,0.116,0.656,0.116c0.289,0,0.474-0.044,0.553-0.131c0.079-0.086,0.119-0.285,0.119-0.6
		c0-0.438-0.091-0.679-0.274-0.719v-0.294h1.456V370.774L86.961,370.774z"/>
	<polygon fill="#FFF02A" points="84.472,371.87 84.089,371.87 84.089,371.546 84.472,371.546 84.472,371.87 	"/>
	<polygon fill="#FFF02A" points="97.502,272.534 89.488,270.535 89.488,269.489 97.502,267.486 97.502,268.71 91.456,270.016 
		97.502,271.312 97.502,272.534 	"/>
	<path fill="#FFF02A" d="M92.466,274.58v1.517l3.112-0.787L92.466,274.58L92.466,274.58z M89.488,278.033v-1.239l1.604-0.406v-2.189
		l-1.604-0.412v-1.24l8.014,2.057v1.403L89.488,278.033L89.488,278.033z"/>
	<path fill="#FFF02A" d="M92.226,283.968c-0.814-0.009-1.738-0.349-2.21-0.795c-0.374-0.348-0.747-1.015-0.781-1.744
		c-0.055-1.314,1.089-2.23,2.782-2.547c0.374-0.064,0.878-0.112,1.406-0.112c0.539,0,1.088,0.04,1.539,0.137
		c1.495,0.332,2.671,1.038,2.671,2.571c0,0.422-0.066,1.014-0.626,1.589c-0.781,0.853-1.814,0.892-2.221,0.901v-1.16
		c0.451-0.033,1.583-0.309,1.462-1.493c-0.055-0.551-0.593-0.981-1.275-1.176c-0.286-0.081-0.814-0.161-1.385-0.187
		c-0.57-0.016-1.187,0.025-1.681,0.187c-0.583,0.195-0.935,0.464-1.122,0.763c-0.088,0.155-0.131,0.307-0.131,0.479
		c-0.011,0.162,0.021,0.34,0.087,0.51c0.319,0.845,1.132,0.869,1.484,0.917V283.968L92.226,283.968z"/>
	<polygon fill="#FFF02A" points="97.502,285.042 97.502,286.26 94.489,286.26 94.489,288.603 97.502,288.603 97.502,289.82 
		89.488,289.82 89.488,288.603 93.116,288.603 93.116,286.26 89.488,286.26 89.488,285.042 97.502,285.042 	"/>
	<polygon fill="#FFF02A" points="97.502,295.494 96.127,295.494 96.127,292.428 94.302,292.428 94.302,295.257 92.929,295.257 
		92.929,292.428 90.863,292.428 90.863,295.633 89.488,295.633 89.488,291.211 97.502,291.211 97.502,295.494 	"/>
	<path fill="#FFF02A" d="M94.028,298.07v1.664c0,0.283,0.406,0.794,1.197,0.721c0.572,0,0.902-0.194,0.902-0.738v-1.647H94.028
		L94.028,298.07z M97.502,296.854v3.285c-0.033,0.592-0.408,1.193-1.276,1.363c-0.351,0.081-0.923,0.203-1.616,0.056
		c-0.692-0.146-0.945-0.404-1.264-0.802c-0.187,0.203-0.385,0.591-1.109,0.656c-0.33,0.032-1.385,0.049-1.792,0.056
		c-0.451,0-0.549,0.098-0.659,0.228h-0.297v-1.304c0.242-0.099,0.484-0.147,0.748-0.164c0.395-0.016,1.034-0.016,1.615,0
		c0.539-0.016,0.802-0.308,0.802-0.729v-1.429h-3.166v-1.216H97.502L97.502,296.854z"/>
	<path fill="#FFF02A" d="M91.214,306.542c0.483,0.389,1.352,0.585,2.22,0.592c0.868-0.007,1.737-0.203,2.221-0.592
		c0.384-0.307,0.538-0.698,0.538-1.087c0-0.39-0.154-0.777-0.538-1.087c-0.483-0.389-1.353-0.585-2.221-0.592
		c-0.868,0.007-1.736,0.203-2.22,0.592c-0.385,0.31-0.539,0.697-0.539,1.087C90.676,305.844,90.829,306.235,91.214,306.542
		L91.214,306.542z M90.236,307.427c-0.693-0.496-1.001-1.217-1.001-1.972c0-0.754,0.308-1.476,1.001-1.97
		c0.78-0.554,1.99-0.878,3.198-0.878c1.21,0,2.418,0.324,3.199,0.878c0.693,0.494,1,1.216,1,1.97c0,0.755-0.308,1.476-1,1.972
		c-0.781,0.551-1.989,0.875-3.199,0.875C92.226,308.302,91.017,307.978,90.236,307.427L90.236,307.427z"/>
	<polygon fill="#FFF02A" points="97.502,310.573 91.995,312.965 97.502,312.965 97.502,314.18 89.488,314.18 89.488,312.98 
		95.072,310.587 89.488,310.587 89.488,309.371 97.502,309.371 97.502,310.573 	"/>
	<path fill="#FFF02A" d="M92.226,323.409c-0.814-0.007-1.738-0.349-2.21-0.795c-0.374-0.348-0.747-1.014-0.781-1.744
		c-0.055-1.313,1.089-2.229,2.782-2.547c0.374-0.063,0.878-0.113,1.406-0.113c0.539,0,1.088,0.042,1.539,0.139
		c1.495,0.334,2.671,1.037,2.671,2.572c0,0.421-0.066,1.012-0.626,1.589c-0.781,0.852-1.814,0.893-2.221,0.899v-1.159
		c0.451-0.033,1.583-0.309,1.462-1.492c-0.055-0.552-0.593-0.981-1.275-1.178c-0.286-0.08-0.814-0.161-1.385-0.186
		c-0.57-0.016-1.187,0.024-1.681,0.186c-0.583,0.196-0.935,0.464-1.122,0.764c-0.088,0.154-0.131,0.309-0.131,0.478
		c-0.011,0.164,0.021,0.342,0.087,0.511c0.319,0.846,1.132,0.869,1.484,0.918V323.409L92.226,323.409z"/>
	<path fill="#FFF02A" d="M91.214,328.191c0.483,0.389,1.352,0.584,2.22,0.592c0.868-0.008,1.737-0.203,2.221-0.592
		c0.384-0.309,0.538-0.698,0.538-1.087s-0.154-0.778-0.538-1.087c-0.483-0.389-1.353-0.583-2.221-0.592
		c-0.868,0.009-1.736,0.203-2.22,0.592c-0.385,0.309-0.539,0.698-0.539,1.087S90.829,327.883,91.214,328.191L91.214,328.191z
		 M90.236,329.075c-0.693-0.495-1.001-1.218-1.001-1.971c0-0.755,0.308-1.476,1.001-1.971c0.78-0.552,1.99-0.876,3.198-0.876
		c1.21,0,2.418,0.324,3.199,0.876c0.693,0.495,1,1.216,1,1.971c0,0.753-0.308,1.476-1,1.971c-0.781,0.551-1.989,0.876-3.199,0.876
		C92.226,329.951,91.017,329.626,90.236,329.075L90.236,329.075z"/>
	<polygon fill="#FFF02A" points="97.502,332.221 91.995,334.613 97.502,334.613 97.502,335.83 89.488,335.83 89.488,334.629 
		95.072,332.235 89.488,332.235 89.488,331.02 97.502,331.02 97.502,332.221 	"/>
	<path fill="#FFF02A" d="M95.062,340.344c0.648,0.017,1.242-0.381,1.264-1.218c0.011-0.592-0.263-1.029-0.923-1.069
		c-0.551-0.032-0.66,0.104-0.803,0.373c-0.197,0.138-0.44,1.258-0.495,1.483c-0.076,0.324-0.274,1.023-0.791,1.396
		c-0.967,0.681-2.869,0.365-3.517-0.372c-0.44-0.503-0.549-1.192-0.561-1.851c-0.011-0.299,0.132-1.013,0.561-1.451
		c0.517-0.527,1.308-0.786,2.066-0.827v1.185c-0.209,0-0.538,0.048-0.824,0.25c-0.375,0.268-0.496,0.707-0.474,1.111
		c0.011,0.406,0.176,0.788,0.374,0.94c0.331,0.261,0.957,0.317,1.352,0.025c0.55-0.389,0.55-1.558,0.902-2.319
		c0.296-0.642,0.923-1.168,2.22-1.07c1.275,0.097,2.221,0.777,2.221,2.221c0,0.317-0.033,1.421-1.022,1.996
		c-0.539,0.308-1.286,0.39-1.55,0.341V340.344L95.062,340.344z"/>
	<polygon fill="#FFF02A" points="97.502,347.032 96.127,347.032 96.127,345.305 89.488,345.305 89.488,344.088 96.127,344.088 
		96.127,342.297 97.502,342.297 97.502,347.032 	"/>
	<path fill="#FFF02A" d="M92.466,348.906v1.519l3.112-0.787L92.466,348.906L92.466,348.906z M89.488,352.362v-1.24l1.604-0.406
		v-2.19l-1.604-0.413v-1.271l8.014,2.09v1.404L89.488,352.362L89.488,352.362z"/>
	<polygon fill="#FFF02A" points="97.502,354.493 91.995,356.885 97.502,356.885 97.502,358.102 89.488,358.102 89.488,356.9 
		95.072,354.508 89.488,354.508 89.488,353.291 97.502,353.291 97.502,354.493 	"/>
	<polygon fill="#FFF02A" points="97.502,363.669 96.127,363.669 96.127,361.941 89.488,361.941 89.488,360.725 96.127,360.725 
		96.127,358.933 97.502,358.933 97.502,363.669 	"/>
	<polygon fill="#FFF02A" points="89.488,365.727 89.488,364.51 97.502,364.51 97.502,365.727 89.488,365.727 	"/>
	<polygon fill="#FFF02A" points="97.502,368.23 91.995,370.623 97.502,370.623 97.502,371.84 89.488,371.84 89.488,370.639 
		95.072,368.247 89.488,368.247 89.488,367.03 97.502,367.03 97.502,368.23 	"/>
	<path fill="#FFF02A" d="M108.079,315.458l2.856-1.027l-2.279,5.28c-0.017,0.043-0.026,0.089-0.026,0.138
		c0,0.106,0.043,0.201,0.113,0.272l0,0c0.07,0.068,0.167,0.111,0.272,0.111c0.049,0,0.095-0.009,0.139-0.024l5.278-2.279
		l-1.026,2.854l0,0l1.026,2.854l-5.278-2.278c-0.043-0.017-0.09-0.026-0.139-0.026c-0.105,0-0.202,0.044-0.272,0.113l0,0
		c-0.07,0.07-0.113,0.166-0.113,0.273c0,0.048,0.009,0.094,0.026,0.136l2.279,5.277l-2.856-1.024l-2.853,1.024l2.278-5.277
		c0.016-0.042,0.026-0.088,0.026-0.136c0-0.107-0.044-0.203-0.112-0.273l0,0c-0.07-0.069-0.166-0.113-0.273-0.113
		c-0.048,0-0.095,0.01-0.137,0.026l-5.279,2.278l1.026-2.854l-1.026-2.854l5.279,2.279c0.042,0.016,0.089,0.024,0.137,0.024
		c0.107,0,0.203-0.043,0.273-0.111l0,0c0.068-0.071,0.113-0.166,0.113-0.272c0-0.049-0.011-0.095-0.027-0.138l-2.278-5.28
		L108.079,315.458L108.079,315.458z"/>
</g>
<rect x="536.511" y="593.068" fill="#3FB34F" width="19.473" height="19.473"/>
<rect x="168.27" y="593.068" fill="#FFF02A" width="19.473" height="19.473"/>
<rect x="331.019" y="593.068" fill="#EA148C" width="19.474" height="19.473"/>
<rect x="562.746" y="596.568" fill="none" width="206.987" height="22.499"/>
<text transform="matrix(1 0 0 1 562.7456 609.708)" fill="#4C4C4C" font-family="'WorkSans-Bold'" font-size="18">Creasing line</text>
<rect x="198.267" y="596.568" fill="none" width="89.995" height="22.498"/>
<text transform="matrix(1 0 0 1 198.2637 609.708)" fill="#4C4C4C" font-family="'WorkSans-Bold'" font-size="18">Hot foil </text>
<rect x="358.753" y="596.568" fill="none" width="127.494" height="22.498"/>
<text transform="matrix(1 0 0 1 358.7529 609.3838)" fill="#4C4C4C" font-family="'WorkSans-Bold'" font-size="18">Laser cutting</text>
</svg>
