<?xml version="1.0" encoding="utf-8"?>
<!-- Generator: Adobe Illustrator 16.0.0, SVG Export Plug-In . SVG Version: 6.00 Build 0)  -->
<!DOCTYPE svg PUBLIC "-//W3C//DTD SVG 1.1//EN" "http://www.w3.org/Graphics/SVG/1.1/DTD/svg11.dtd">
<svg version="1.1" id="Calque_1" xmlns="http://www.w3.org/2000/svg" xmlns:xlink="http://www.w3.org/1999/xlink" x="0px" y="0px"
	 width="69.349px" height="52px" viewBox="7.5 5.75 69.349 52" enable-background="new 7.5 5.75 69.349 52" xml:space="preserve">
<path id="logo" fill="#010101" d="M58.79,55.454c10.556-3.183,17.377-12.169,17.377-22.892c0-13.292-10.796-24.105-24.064-24.105
	l-7.317-0.026v18.089v0.38v0.221h-0.222h-0.382l-9.971-0.004l-0.369,0.008h-0.015l-0.039-0.002c-0.001,0-0.003,0-0.006,0
	c-0.27,0-0.477,0.222-0.477,0.481c0,0.255,0.195,0.462,0.444,0.481l0.09-0.001l10.725,0.007h0.223v0.221V28.7v9.814
	c0,0.81,0.646,1.467,1.439,1.467c0.812,0,1.468-0.66,1.468-1.467c0-0.769-0.603-1.41-1.367-1.461l-0.354-0.025l-0.206-0.015v-0.204
	v-0.357v-7.746v-0.382v-0.221h0.223h0.381H54.3h0.381h0.222v0.221v0.382v3.857c0,13.391-9.685,23.109-23.03,23.109
	c-12.537,0-22.355-10.151-22.355-23.109c0-12.753,10.357-23.13,23.087-23.13l1.19,0.01l0.378,0.003l0.221,0.003v0.219v0.379v9.754
	v0.014l-0.003,0.042c0.009,0.235,0.219,0.44,0.483,0.44c0.262,0,0.474-0.206,0.482-0.469v-0.404v-0.221h0.005V8.476l-2.755-0.019
	c-13.273,0-24.07,10.812-24.07,24.104c0,13.51,10.25,24.095,23.335,24.095c13.911,0,24.007-10.132,24.007-24.095v-5.438h-9.51
	h-0.383h-0.221V26.9v-0.378V10.017V9.633V9.412h0.222h0.384l5.725,0.02c12.738,0,23.102,10.375,23.102,23.128
	c0,10.282-6.55,18.902-16.688,21.965l-0.487,0.144l-0.108,0.043c-0.2,0.074-0.33,0.257-0.33,0.454c0,0.269,0.218,0.481,0.484,0.481
	c0.029,0,0.066-0.005,0.11-0.014l0.136-0.032L58.79,55.454z"/>
</svg>
