<?xml version="1.0" encoding="utf-8"?>
<!-- Generator: Adobe Illustrator 16.0.0, SVG Export Plug-In . SVG Version: 6.00 Build 0)  -->
<!DOCTYPE svg PUBLIC "-//W3C//DTD SVG 1.1//EN" "http://www.w3.org/Graphics/SVG/1.1/DTD/svg11.dtd">
<svg version="1.1" id="Calque_1" xmlns="http://www.w3.org/2000/svg" xmlns:xlink="http://www.w3.org/1999/xlink" x="0px" y="0px"
	 width="83.875px" height="33.75px" viewBox="3.125 6.812 83.875 33.75" enable-background="new 3.125 6.812 83.875 33.75"
	 xml:space="preserve">
<g>
	<path fill="#010101" d="M42.101,19.946h-1.197c-0.062,0-0.146-0.017-0.224-0.171l-4.586-11.92c-0.069-0.25-0.267-0.396-0.559-0.396
		c-0.293,0-0.491,0.138-0.551,0.378l-4.578,11.919c-0.104,0.189-0.198,0.189-0.224,0.189h-1.197c-0.266,0-0.43,0.164-0.43,0.431
		s0.164,0.43,0.43,0.43h3.486c0.275,0,0.43-0.164,0.43-0.43s-0.164-0.431-0.43-0.431h-1.102c-0.026,0-0.052,0-0.061,0
		c0.009-0.017,0.018-0.034,0.026-0.06l1.3-3.391c0.034-0.077,0.094-0.163,0.292-0.163h5.215c0.198,0,0.267,0.086,0.292,0.155
		l1.308,3.408c0.009,0.017,0.017,0.035,0.017,0.043c-0.017,0-0.035,0-0.06,0h-1.102c-0.267,0-0.43,0.164-0.43,0.431
		s0.164,0.43,0.43,0.43h3.485c0.267,0,0.431-0.164,0.431-0.43C42.513,20.101,42.367,19.946,42.101,19.946z M38.046,15.454
		c-0.017,0-0.043,0.008-0.077,0.008h-4.846c-0.034,0-0.06,0-0.077-0.008c0-0.009,0.008-0.035,0.025-0.052l2.479-6.438l2.479,6.446
		C38.038,15.437,38.046,15.454,38.046,15.454z"/>
	<path fill="#010101" d="M51.626,19.946h-1.281c-0.096,0-0.121-0.017-0.121-0.12V8.079c0-0.275-0.162-0.431-0.43-0.431H47.96
		c-0.268,0-0.432,0.164-0.432,0.431s0.164,0.43,0.432,0.43h1.282c0.096,0,0.12,0.018,0.12,0.121v11.196
		c0,0.095-0.018,0.12-0.12,0.12H47.96c-0.268,0-0.432,0.164-0.432,0.431s0.164,0.43,0.432,0.43h3.676c0.266,0,0.43-0.164,0.43-0.43
		S51.894,19.946,51.626,19.946z"/>
	<path fill="#010101" d="M54.949,10.161c0.249,0,0.464-0.086,0.636-0.258c0.173-0.172,0.258-0.387,0.258-0.637
		s-0.085-0.464-0.258-0.637c-0.344-0.344-0.93-0.344-1.266,0c-0.172,0.172-0.258,0.387-0.258,0.637s0.086,0.465,0.258,0.637
		C54.483,10.075,54.698,10.161,54.949,10.161z"/>
	<path fill="#010101" d="M56.876,19.946h-1.281c-0.096,0-0.121-0.017-0.121-0.12v-8.073c0-0.275-0.162-0.43-0.431-0.43H53.21
		c-0.268,0-0.43,0.164-0.43,0.43s0.162,0.431,0.43,0.431h1.282c0.095,0,0.12,0.017,0.12,0.12v7.53c0,0.095-0.018,0.121-0.12,0.121
		H53.21c-0.268,0-0.43,0.163-0.43,0.43c0,0.267,0.162,0.43,0.43,0.43h3.676c0.266,0,0.43-0.164,0.43-0.43
		C57.315,20.118,57.144,19.946,56.876,19.946z"/>
	<path fill="#010101" d="M64.433,19.111c-0.104,0-0.207,0.052-0.301,0.146c-0.611,0.577-1.258,0.878-1.902,0.878
		c-0.652,0-1.146-0.198-1.506-0.62c-0.361-0.413-0.552-1.05-0.552-1.885v-5.326c0-0.095,0.019-0.12,0.12-0.12h3.125
		c0.268,0,0.432-0.164,0.432-0.431s-0.164-0.43-0.432-0.43h-3.125c-0.094,0-0.12-0.018-0.12-0.121V8.079
		c0-0.275-0.163-0.431-0.43-0.431s-0.431,0.164-0.431,0.431v3.124c0,0.095-0.02,0.121-0.121,0.121h-1.281
		c-0.268,0-0.432,0.164-0.432,0.43s0.164,0.431,0.432,0.431h1.281c0.096,0,0.121,0.017,0.121,0.12v5.327
		c0,1.076,0.258,1.911,0.772,2.487c0.519,0.585,1.239,0.878,2.136,0.878l0.188,0.009c0.095,0,0.335-0.043,1.366-0.396
		c0.312-0.155,0.619-0.388,0.922-0.689c0.052-0.052,0.205-0.207,0.173-0.353c0-0.112-0.062-0.215-0.188-0.353
		C64.587,19.12,64.493,19.111,64.433,19.111z"/>
	<path fill="#010101" d="M71.825,19.111c-0.104,0-0.207,0.052-0.303,0.146c-0.619,0.577-1.256,0.878-1.901,0.878
		c-0.653,0-1.146-0.198-1.506-0.62c-0.361-0.413-0.552-1.05-0.552-1.885v-5.326c0-0.095,0.019-0.12,0.121-0.12h3.125
		c0.267,0,0.431-0.164,0.431-0.431s-0.164-0.43-0.431-0.43h-3.125c-0.096,0-0.121-0.018-0.121-0.121V8.079
		c0-0.275-0.164-0.431-0.431-0.431s-0.431,0.164-0.431,0.431v3.124c0,0.095-0.02,0.121-0.12,0.121H65.3
		c-0.268,0-0.431,0.164-0.431,0.43s0.163,0.431,0.431,0.431h1.282c0.094,0,0.12,0.017,0.12,0.12v5.327
		c0,1.076,0.258,1.911,0.773,2.487c0.518,0.585,1.239,0.878,2.133,0.878l0.19,0.009c0.095,0,0.335-0.043,1.368-0.396
		c0.311-0.155,0.619-0.388,0.921-0.689c0.052-0.052,0.206-0.207,0.173-0.353c0-0.112-0.062-0.215-0.189-0.353
		C71.987,19.12,71.894,19.111,71.825,19.111z"/>
	<path fill="#010101" d="M76.446,19.946h-1.282c-0.097,0-0.12-0.017-0.12-0.12V8.079c0-0.275-0.164-0.431-0.432-0.431h-1.834
		c-0.266,0-0.43,0.164-0.43,0.431s0.164,0.43,0.43,0.43h1.283c0.096,0,0.121,0.018,0.121,0.121v11.196c0,0.095-0.02,0.12-0.121,0.12
		h-1.283c-0.266,0-0.43,0.164-0.43,0.431s0.164,0.43,0.43,0.43h3.677c0.274,0,0.431-0.164,0.431-0.43S76.713,19.946,76.446,19.946z"
		/>
	<path fill="#010101" d="M82.204,11.134c-1.318,0-2.402,0.465-3.219,1.394c-0.812,0.921-1.223,2.108-1.223,3.537
		c0,1.429,0.411,2.616,1.223,3.537c0.814,0.921,1.91,1.394,3.244,1.394c0.912,0,1.678-0.146,2.271-0.43
		c0.585-0.275,1.108-0.62,1.558-1.007c0.121-0.104,0.182-0.207,0.188-0.31c0.009-0.061-0.011-0.155-0.095-0.25
		c-0.104-0.121-0.197-0.198-0.275-0.241c-0.121-0.06-0.268-0.017-0.432,0.129c-0.104,0.095-0.25,0.215-0.438,0.362
		c-0.715,0.585-1.636,0.886-2.736,0.886c-1.094,0-1.963-0.344-2.582-1.033c-0.629-0.688-0.979-1.558-1.051-2.599
		c-0.009-0.043,0-0.069,0-0.069c0.01-0.009,0.043-0.026,0.111-0.026h7.229c0.459,0,0.707-0.25,0.707-0.706v-0.276
		c0-1.179-0.422-2.194-1.256-3.029C84.604,11.555,83.521,11.134,82.204,11.134z M82.204,12.003c1.049,0,1.927,0.335,2.607,1.007
		c0.68,0.671,1.021,1.479,1.021,2.41c0,0.095-0.02,0.121-0.119,0.121h-6.953c-0.105,0-0.105-0.017-0.105-0.061
		c0-0.834,0.337-1.635,0.99-2.375C80.302,12.373,81.153,12.003,82.204,12.003z"/>
	<path fill="#010101" d="M12.642,38.812H11.36c-0.095,0-0.121-0.02-0.121-0.121v-5.51c0-0.894-0.335-1.66-0.99-2.271
		c-0.654-0.611-1.523-0.912-2.582-0.912c-1.359,0-2.513,0.379-3.416,1.108c-0.207,0.146-0.232,0.371-0.078,0.586
		c0.103,0.146,0.224,0.174,0.31,0.174c0.111,0,0.241-0.053,0.37-0.155c0.189-0.146,0.534-0.336,1.016-0.534
		c0.482-0.207,1.11-0.31,1.867-0.31c0.741,0,1.369,0.224,1.876,0.661c0.508,0.449,0.757,0.99,0.757,1.652v0.731
		c0,0.095-0.017,0.12-0.121,0.12H7.219c-1.136,0-2.057,0.273-2.754,0.811c-0.714,0.551-1.067,1.256-1.067,2.115
		c0,0.854,0.319,1.559,0.938,2.094c0.611,0.531,1.515,0.799,2.693,0.799c0.663,0,1.309-0.181,1.919-0.541
		c0.603-0.361,1.076-0.758,1.412-1.172c0.008-0.01,0.008-0.01,0.017-0.018c0.008,0.023,0.008,0.052,0.008,0.086v1.023
		c0,0.274,0.164,0.431,0.43,0.431h1.833c0.267,0,0.43-0.164,0.43-0.431C13.08,38.966,12.908,38.812,12.642,38.812z M7.22,34.902
		h3.029c0.095,0,0.121,0.019,0.121,0.121v1.607c-0.129,0.227-0.267,0.432-0.413,0.631c-0.869,1.15-1.885,1.735-3.012,1.735
		c-0.912,0-1.592-0.197-2.04-0.576c-0.439-0.378-0.654-0.858-0.654-1.463c0-0.595,0.232-1.075,0.706-1.463
		C5.438,35.102,6.195,34.902,7.22,34.902z"/>
	<path fill="#010101" d="M18.364,30.178h-2.478c-0.095,0-0.121-0.017-0.121-0.119v-3.115c0-0.274-0.164-0.43-0.431-0.43h-1.833
		c-0.267,0-0.43,0.162-0.43,0.43c0,0.269,0.164,0.432,0.43,0.432h1.282c0.095,0,0.121,0.025,0.121,0.121v11.747
		c0,0.274,0.164,0.431,0.43,0.431c0.267,0,0.431-0.164,0.431-0.431v-1.024c0-0.043,0-0.068,0.009-0.095c0,0,0,0,0.008,0.008
		c0.318,0.405,0.774,0.802,1.368,1.181c0.628,0.371,1.352,0.551,2.134,0.551c1.265,0,2.298-0.446,3.055-1.324
		c0.757-0.878,1.136-2.082,1.136-3.58c0-1.521-0.465-2.711-1.377-3.527C21.213,30.602,19.948,30.178,18.364,30.178z M19.311,38.99
		c-0.972,0-1.867-0.395-2.65-1.188c-0.327-0.326-0.62-0.724-0.886-1.181v-5.456c0-0.096,0.017-0.12,0.12-0.12h2.479
		c1.351,0,2.41,0.336,3.142,0.989c0.731,0.652,1.101,1.627,1.101,2.9c0,1.28-0.31,2.287-0.93,3.002
		C21.075,38.639,20.284,38.99,19.311,38.99z"/>
	<path fill="#010101" d="M29.725,29.998c-1.369,0-2.504,0.464-3.365,1.367c-0.86,0.904-1.291,2.101-1.291,3.562
		c0,1.454,0.439,2.65,1.291,3.555c0.861,0.912,1.988,1.369,3.365,1.369c1.376,0,2.504-0.465,3.365-1.369
		c0.86-0.902,1.291-2.101,1.291-3.555c0-1.453-0.43-2.65-1.291-3.562C32.229,30.462,31.101,29.998,29.725,29.998z M29.725,38.99
		c-1.145,0-2.074-0.369-2.763-1.102c-0.68-0.73-1.033-1.729-1.033-2.961c0-1.23,0.353-2.23,1.041-2.97
		c0.688-0.729,1.618-1.108,2.754-1.108c1.136,0,2.057,0.371,2.745,1.108c0.688,0.739,1.042,1.737,1.042,2.97
		c0,1.23-0.344,2.229-1.033,2.961C31.807,38.621,30.877,38.99,29.725,38.99z"/>
	<path fill="#010101" d="M46.394,38.812h-1.281c-0.096,0-0.12-0.02-0.12-0.121V30.62c0-0.274-0.164-0.433-0.431-0.433h-1.834
		c-0.273,0-0.43,0.164-0.43,0.433c0,0.267,0.163,0.43,0.43,0.43h1.283c0.094,0,0.12,0.019,0.12,0.12v5.464
		c-0.267,0.431-0.585,0.827-0.93,1.181c-0.783,0.783-1.626,1.188-2.513,1.188s-1.583-0.248-2.091-0.729
		c-0.508-0.492-0.757-1.24-0.757-2.229v-5.421c0-0.275-0.164-0.432-0.431-0.432h-1.833c-0.267,0-0.43,0.164-0.43,0.432
		c0,0.266,0.164,0.43,0.43,0.43h1.283c0.095,0,0.12,0.018,0.12,0.12v4.861c0,1.222,0.336,2.177,0.99,2.84
		c0.662,0.653,1.601,0.989,2.797,0.989c1.206,0,2.333-0.577,3.338-1.713c0.008-0.01,0.008-0.01,0.018-0.02
		c0,0.025,0.009,0.055,0.009,0.087v1.024c0,0.273,0.163,0.431,0.431,0.431h1.832c0.275,0,0.432-0.164,0.432-0.431
		C46.824,38.975,46.669,38.812,46.394,38.812z"/>
	<path fill="#010101" d="M53.95,37.977c-0.104,0-0.206,0.051-0.303,0.146C53.038,38.697,52.392,39,51.747,39
		c-0.654,0-1.145-0.195-1.506-0.618c-0.361-0.414-0.553-1.051-0.553-1.885v-5.328c0-0.094,0.026-0.12,0.121-0.12h3.114
		c0.275,0,0.433-0.164,0.433-0.43c0-0.268-0.164-0.432-0.433-0.432H49.81c-0.095,0-0.121-0.019-0.121-0.121v-3.125
		c0-0.273-0.162-0.43-0.431-0.43c-0.274,0-0.438,0.163-0.438,0.43v3.125c0,0.096-0.016,0.121-0.109,0.121h-1.283
		c-0.275,0-0.43,0.164-0.43,0.432c0,0.266,0.163,0.43,0.43,0.43h1.283c0.094,0,0.109,0.02,0.109,0.12v5.328
		c0,1.073,0.26,1.909,0.775,2.485c0.516,0.584,1.237,0.877,2.135,0.877l0.188,0.011c0.098,0,0.336-0.043,1.368-0.396
		c0.312-0.154,0.618-0.389,0.921-0.688c0.052-0.052,0.206-0.206,0.173-0.353c0-0.111-0.062-0.217-0.188-0.354
		C54.104,37.992,54.011,37.977,53.95,37.977z"/>
	<path fill="#010101" d="M76.506,38.812h-1.282c-0.095,0-0.119-0.02-0.119-0.121v-4.862c0-1.195-0.312-2.144-0.912-2.812
		C73.582,30.346,72.808,30,71.886,30s-1.791,0.413-2.574,1.225c-0.267,0.273-0.506,0.584-0.723,0.909
		c-0.232-0.627-0.576-1.127-1.051-1.487c-0.551-0.422-1.204-0.638-1.953-0.638c-0.973,0-1.962,0.576-2.936,1.714
		c-0.008,0.008-0.018,0.018-0.018,0.018c0-0.025,0-0.053,0-0.086v-1.032c0-0.276-0.162-0.431-0.431-0.431h-1.833
		c-0.268,0-0.432,0.164-0.432,0.431s0.164,0.431,0.432,0.431h1.281c0.096,0,0.121,0.018,0.121,0.119v7.53
		c0,0.095-0.025,0.12-0.121,0.12h-1.281c-0.268,0-0.432,0.164-0.432,0.432s0.164,0.43,0.432,0.43h3.484
		c0.268,0,0.432-0.162,0.432-0.43s-0.164-0.432-0.432-0.432H62.75c-0.095,0-0.12-0.018-0.12-0.12v-5.468
		c0.268-0.439,0.559-0.826,0.86-1.172c0.696-0.791,1.401-1.195,2.091-1.195c0.706,0,1.266,0.25,1.73,0.758
		c0.465,0.507,0.696,1.248,0.696,2.202v4.862c0,0.095-0.026,0.121-0.12,0.121h-1.103c-0.274,0-0.433,0.162-0.433,0.43
		s0.164,0.432,0.433,0.432h3.304c0.276,0,0.432-0.164,0.432-0.432s-0.164-0.43-0.432-0.43h-1.096c-0.096,0-0.12-0.02-0.12-0.121
		v-4.862c0-0.095-0.008-0.267-0.035-0.517c0.231-0.432,0.517-0.845,0.835-1.213c0.725-0.816,1.446-1.23,2.145-1.23
		c0.705,0,1.272,0.25,1.738,0.758c0.465,0.507,0.696,1.248,0.696,2.202v4.862c0,0.095-0.026,0.121-0.121,0.121H73.03
		c-0.268,0-0.432,0.162-0.432,0.43s0.164,0.432,0.432,0.432h3.484c0.266,0,0.43-0.164,0.43-0.432
		C76.944,38.975,76.772,38.812,76.506,38.812z"/>
	<path fill="#010101" d="M85.403,31.254c-0.834-0.834-1.926-1.256-3.243-1.256c-1.325,0-2.401,0.464-3.22,1.395
		c-0.81,0.92-1.221,2.107-1.221,3.537c0,1.428,0.411,2.615,1.221,3.537c0.816,0.922,1.912,1.395,3.246,1.395
		c0.912,0,1.678-0.146,2.271-0.432c0.585-0.273,1.11-0.617,1.56-1.007c0.119-0.103,0.18-0.206,0.196-0.31
		c0-0.061-0.009-0.154-0.095-0.25c-0.104-0.119-0.198-0.197-0.275-0.24c-0.128-0.061-0.267-0.018-0.431,0.129
		c-0.103,0.096-0.249,0.215-0.438,0.361c-0.715,0.584-1.635,0.886-2.736,0.886c-1.092,0-1.961-0.345-2.582-1.032
		c-0.627-0.688-0.979-1.566-1.049-2.598c-0.01-0.045,0-0.069,0-0.069c0.008-0.01,0.043-0.026,0.11-0.026h7.238
		c0.455,0,0.705-0.248,0.705-0.705v-0.274C86.661,33.113,86.239,32.089,85.403,31.254z M82.169,30.867
		c1.051,0,1.928,0.336,2.607,1.007c0.679,0.671,1.033,1.479,1.033,2.41c0,0.095-0.026,0.12-0.121,0.12h-6.955
		c-0.104,0-0.104-0.018-0.104-0.062c0-0.834,0.336-1.635,0.99-2.375C80.269,31.236,81.119,30.867,82.169,30.867z"/>
</g>
</svg>
