<?xml version="1.0" encoding="utf-8"?>
<!-- Generator: Adobe Illustrator 16.0.0, SVG Export Plug-In . SVG Version: 6.00 Build 0)  -->
<!DOCTYPE svg PUBLIC "-//W3C//DTD SVG 1.1//EN" "http://www.w3.org/Graphics/SVG/1.1/DTD/svg11.dtd">
<svg version="1.1" id="Calque_1" xmlns="http://www.w3.org/2000/svg" xmlns:xlink="http://www.w3.org/1999/xlink" x="0px" y="0px"
	 width="185.25px" height="13.458px" viewBox="-18.812 0 185.25 13.458" enable-background="new -18.812 0 185.25 13.458"
	 xml:space="preserve">
<g>
	<path fill="#010101" d="M13.171,12.486h-1.197c-0.062,0-0.146-0.016-0.224-0.17L7.164,0.396C7.095,0.146,6.897,0,6.605,0
		C6.312,0,6.114,0.138,6.054,0.378L1.476,12.297c-0.104,0.189-0.198,0.189-0.224,0.189H0.055c-0.266,0-0.43,0.164-0.43,0.431
		s0.164,0.431,0.43,0.431h3.486c0.275,0,0.43-0.164,0.43-0.431s-0.164-0.431-0.43-0.431H2.439c-0.026,0-0.052,0-0.061,0
		c0.009-0.018,0.018-0.034,0.026-0.061l1.3-3.391c0.034-0.077,0.094-0.163,0.292-0.163h5.215c0.198,0,0.267,0.086,0.292,0.154
		l1.308,3.409c0.009,0.017,0.017,0.035,0.017,0.043c-0.017,0-0.035,0-0.06,0H9.666c-0.267,0-0.43,0.164-0.43,0.431
		s0.164,0.43,0.43,0.43h3.485c0.267,0,0.431-0.164,0.431-0.43C13.583,12.643,13.437,12.486,13.171,12.486z M9.116,7.995
		c-0.017,0-0.043,0.008-0.077,0.008H4.193c-0.034,0-0.06,0-0.077-0.008c0-0.01,0.008-0.035,0.025-0.053L6.62,1.505l2.479,6.446
		C9.108,7.978,9.116,7.995,9.116,7.995z"/>
	<path fill="#010101" d="M22.696,12.486h-1.28c-0.097,0-0.121-0.016-0.121-0.119V0.62c0-0.275-0.162-0.431-0.431-0.431H19.03
		c-0.269,0-0.433,0.164-0.433,0.431s0.164,0.43,0.433,0.43h1.282c0.096,0,0.119,0.018,0.119,0.121v11.196
		c0,0.095-0.018,0.119-0.119,0.119H19.03c-0.269,0-0.433,0.164-0.433,0.432s0.164,0.43,0.433,0.43h3.677
		c0.266,0,0.43-0.164,0.43-0.43S22.964,12.486,22.696,12.486z"/>
	<path fill="#010101" d="M26.019,2.702c0.248,0,0.464-0.086,0.636-0.258c0.173-0.172,0.258-0.387,0.258-0.637
		s-0.085-0.464-0.258-0.637c-0.344-0.344-0.931-0.344-1.267,0c-0.172,0.172-0.258,0.387-0.258,0.637s0.086,0.465,0.258,0.637
		C25.552,2.616,25.767,2.702,26.019,2.702z"/>
	<path fill="#010101" d="M27.946,12.486h-1.28c-0.097,0-0.121-0.016-0.121-0.119V4.294c0-0.275-0.162-0.43-0.432-0.43H24.28
		c-0.269,0-0.431,0.164-0.431,0.43s0.162,0.431,0.431,0.431h1.282c0.095,0,0.119,0.017,0.119,0.12v7.53
		c0,0.096-0.018,0.121-0.119,0.121H24.28c-0.269,0-0.431,0.163-0.431,0.43c0,0.268,0.162,0.43,0.431,0.43h3.677
		c0.266,0,0.43-0.164,0.43-0.43C28.384,12.659,28.214,12.486,27.946,12.486z"/>
	<path fill="#010101" d="M35.503,11.652c-0.104,0-0.207,0.052-0.302,0.146c-0.61,0.577-1.258,0.878-1.901,0.878
		c-0.652,0-1.146-0.197-1.506-0.619c-0.361-0.414-0.553-1.051-0.553-1.886V4.845c0-0.095,0.02-0.12,0.12-0.12h3.125
		c0.269,0,0.433-0.164,0.433-0.431s-0.164-0.43-0.433-0.43h-3.125c-0.095,0-0.12-0.018-0.12-0.121V0.62
		c0-0.275-0.163-0.431-0.43-0.431c-0.268,0-0.432,0.164-0.432,0.431v3.124c0,0.095-0.02,0.121-0.121,0.121h-1.28
		c-0.269,0-0.433,0.164-0.433,0.43s0.164,0.431,0.433,0.431h1.28c0.097,0,0.121,0.017,0.121,0.12v5.327
		c0,1.076,0.258,1.911,0.772,2.487c0.519,0.585,1.239,0.878,2.136,0.878l0.188,0.009c0.095,0,0.335-0.043,1.366-0.396
		c0.312-0.154,0.619-0.387,0.922-0.688c0.052-0.052,0.205-0.207,0.173-0.353c0-0.112-0.062-0.215-0.188-0.354
		C35.657,11.661,35.563,11.652,35.503,11.652z"/>
	<path fill="#010101" d="M42.895,11.652c-0.104,0-0.207,0.052-0.303,0.146c-0.62,0.577-1.256,0.878-1.901,0.878
		c-0.653,0-1.146-0.197-1.506-0.619c-0.361-0.414-0.553-1.051-0.553-1.886V4.845c0-0.095,0.02-0.12,0.121-0.12h3.125
		c0.268,0,0.432-0.164,0.432-0.431s-0.164-0.43-0.432-0.43h-3.125c-0.096,0-0.121-0.018-0.121-0.121V0.62
		c0-0.275-0.164-0.431-0.431-0.431s-0.431,0.164-0.431,0.431v3.124c0,0.095-0.02,0.121-0.12,0.121H36.37
		c-0.268,0-0.431,0.164-0.431,0.43s0.163,0.431,0.431,0.431h1.282c0.094,0,0.12,0.017,0.12,0.12v5.327
		c0,1.076,0.258,1.911,0.772,2.487c0.519,0.585,1.239,0.878,2.133,0.878l0.19,0.009c0.095,0,0.335-0.043,1.369-0.396
		c0.311-0.154,0.619-0.387,0.92-0.688c0.053-0.052,0.207-0.207,0.174-0.353c0-0.112-0.062-0.215-0.189-0.354
		C43.057,11.661,42.965,11.652,42.895,11.652z"/>
	<path fill="#010101" d="M47.516,12.486h-1.281c-0.098,0-0.121-0.016-0.121-0.119V0.62c0-0.275-0.164-0.431-0.432-0.431h-1.834
		c-0.266,0-0.43,0.164-0.43,0.431s0.164,0.43,0.43,0.43h1.283c0.096,0,0.121,0.018,0.121,0.121v11.196
		c0,0.095-0.02,0.119-0.121,0.119h-1.283c-0.266,0-0.43,0.164-0.43,0.432s0.164,0.43,0.43,0.43h3.678
		c0.273,0,0.432-0.164,0.432-0.43S47.783,12.486,47.516,12.486z"/>
	<path fill="#010101" d="M53.273,3.675c-1.316,0-2.4,0.465-3.219,1.394c-0.812,0.921-1.223,2.108-1.223,3.538
		c0,1.429,0.41,2.616,1.223,3.536c0.814,0.922,1.91,1.395,3.244,1.395c0.912,0,1.678-0.146,2.271-0.43
		c0.584-0.275,1.107-0.621,1.559-1.008c0.121-0.104,0.182-0.207,0.188-0.31c0.008-0.062-0.012-0.155-0.096-0.25
		c-0.104-0.121-0.197-0.198-0.275-0.241c-0.121-0.061-0.268-0.017-0.432,0.129c-0.104,0.096-0.25,0.215-0.438,0.362
		c-0.715,0.585-1.637,0.886-2.736,0.886c-1.094,0-1.963-0.344-2.582-1.033c-0.629-0.688-0.979-1.558-1.051-2.599
		c-0.01-0.043,0-0.068,0-0.068c0.01-0.01,0.043-0.026,0.111-0.026h7.229c0.459,0,0.707-0.25,0.707-0.706V7.968
		c0-1.18-0.422-2.195-1.256-3.03C55.674,4.096,54.592,3.675,53.273,3.675z M53.273,4.544c1.049,0,1.928,0.335,2.607,1.007
		c0.68,0.67,1.021,1.479,1.021,2.41c0,0.095-0.02,0.121-0.119,0.121H49.83c-0.105,0-0.105-0.017-0.105-0.062
		c0-0.834,0.338-1.635,0.99-2.375C51.373,4.914,52.223,4.544,53.273,4.544z"/>
	<path fill="#010101" d="M73.004,12.438h-1.283c-0.094,0-0.121-0.021-0.121-0.121V6.806c0-0.894-0.334-1.66-0.988-2.271
		s-1.523-0.912-2.582-0.912c-1.359,0-2.514,0.379-3.416,1.107c-0.207,0.146-0.232,0.371-0.078,0.586
		c0.102,0.146,0.223,0.175,0.309,0.175c0.111,0,0.242-0.054,0.371-0.155C65.404,5.189,65.748,5,66.23,4.802
		c0.482-0.207,1.109-0.311,1.867-0.311c0.74,0,1.369,0.224,1.875,0.66c0.51,0.449,0.758,0.99,0.758,1.652v0.732
		c0,0.094-0.018,0.119-0.121,0.119H67.58c-1.135,0-2.057,0.273-2.754,0.811c-0.713,0.551-1.066,1.256-1.066,2.116
		c0,0.854,0.318,1.559,0.938,2.094c0.611,0.531,1.516,0.799,2.693,0.799c0.662,0,1.309-0.182,1.918-0.541
		c0.604-0.361,1.076-0.758,1.412-1.172c0.01-0.01,0.01-0.01,0.018-0.018c0.008,0.023,0.008,0.051,0.008,0.086v1.023
		c0,0.273,0.164,0.43,0.43,0.43h1.834c0.268,0,0.43-0.164,0.43-0.43C73.441,12.59,73.27,12.438,73.004,12.438z M67.582,8.526h3.029
		c0.094,0,0.121,0.02,0.121,0.121v1.606c-0.129,0.229-0.268,0.434-0.414,0.633c-0.869,1.148-1.885,1.734-3.012,1.734
		c-0.912,0-1.592-0.197-2.041-0.576c-0.438-0.379-0.652-0.857-0.652-1.463c0-0.596,0.23-1.075,0.705-1.464
		C65.799,8.726,66.557,8.526,67.582,8.526z"/>
	<path fill="#010101" d="M78.725,3.802h-2.477c-0.096,0-0.121-0.017-0.121-0.119V0.568c0-0.273-0.164-0.43-0.432-0.43h-1.832
		c-0.268,0-0.432,0.162-0.432,0.43c0,0.27,0.164,0.433,0.432,0.433h1.281c0.096,0,0.121,0.024,0.121,0.121v11.748
		c0,0.273,0.164,0.43,0.43,0.43c0.268,0,0.432-0.162,0.432-0.43v-1.023c0-0.043,0-0.068,0.008-0.096c0,0,0,0,0.01,0.008
		c0.316,0.404,0.773,0.803,1.367,1.182c0.627,0.371,1.352,0.551,2.135,0.551c1.264,0,2.297-0.447,3.055-1.324
		c0.756-0.879,1.135-2.082,1.135-3.581c0-1.521-0.465-2.71-1.377-3.527C81.574,4.226,80.309,3.802,78.725,3.802z M79.672,12.615
		c-0.971,0-1.867-0.395-2.648-1.188c-0.328-0.326-0.621-0.725-0.887-1.182V4.79c0-0.097,0.018-0.12,0.119-0.12h2.48
		c1.35,0,2.41,0.336,3.141,0.989c0.732,0.651,1.102,1.627,1.102,2.899c0,1.281-0.311,2.288-0.93,3.003
		C81.438,12.264,80.646,12.615,79.672,12.615z"/>
	<path fill="#010101" d="M90.086,3.623c-1.369,0-2.504,0.464-3.365,1.367c-0.859,0.904-1.291,2.101-1.291,3.562
		c0,1.454,0.439,2.649,1.291,3.556c0.861,0.912,1.988,1.369,3.365,1.369s2.504-0.465,3.365-1.369
		c0.861-0.902,1.291-2.102,1.291-3.556c0-1.453-0.43-2.65-1.291-3.562C92.59,4.086,91.463,3.623,90.086,3.623z M90.086,12.615
		c-1.145,0-2.074-0.369-2.762-1.102c-0.68-0.73-1.033-1.729-1.033-2.962c0-1.23,0.354-2.23,1.041-2.97
		c0.688-0.729,1.617-1.107,2.754-1.107c1.135,0,2.057,0.371,2.744,1.107c0.689,0.738,1.043,1.736,1.043,2.97
		c0,1.229-0.344,2.229-1.033,2.962C92.168,12.246,91.238,12.615,90.086,12.615z"/>
	<path fill="#010101" d="M106.756,12.438h-1.281c-0.096,0-0.119-0.021-0.119-0.121V4.245c0-0.274-0.164-0.433-0.432-0.433h-1.834
		c-0.273,0-0.43,0.164-0.43,0.433c0,0.267,0.162,0.43,0.43,0.43h1.283c0.094,0,0.119,0.019,0.119,0.12v5.465
		c-0.268,0.43-0.584,0.826-0.93,1.18c-0.783,0.783-1.625,1.188-2.514,1.188c-0.887,0-1.582-0.248-2.09-0.729
		c-0.508-0.492-0.758-1.24-0.758-2.229v-5.42c0-0.274-0.164-0.433-0.43-0.433h-1.834c-0.268,0-0.43,0.164-0.43,0.433
		c0,0.267,0.164,0.431,0.43,0.431h1.283c0.096,0,0.119,0.018,0.119,0.119v4.861c0,1.222,0.336,2.177,0.99,2.841
		c0.662,0.652,1.602,0.988,2.797,0.988c1.207,0,2.334-0.576,3.338-1.713c0.008-0.01,0.008-0.01,0.02-0.02
		c0,0.025,0.008,0.055,0.008,0.088v1.023c0,0.273,0.164,0.43,0.432,0.43h1.832c0.275,0,0.432-0.164,0.432-0.43
		C107.186,12.6,107.031,12.438,106.756,12.438z"/>
	<path fill="#010101" d="M114.312,11.602c-0.105,0-0.207,0.051-0.305,0.146c-0.607,0.574-1.254,0.877-1.898,0.877
		c-0.654,0-1.146-0.195-1.506-0.619c-0.361-0.412-0.555-1.051-0.555-1.885V4.793c0-0.094,0.027-0.12,0.121-0.12h3.115
		c0.273,0,0.432-0.164,0.432-0.43c0-0.268-0.164-0.432-0.432-0.432h-3.113c-0.096,0-0.121-0.02-0.121-0.121V0.566
		c0-0.273-0.162-0.43-0.432-0.43c-0.273,0-0.438,0.162-0.438,0.43v3.125c0,0.096-0.016,0.121-0.109,0.121h-1.283
		c-0.275,0-0.43,0.164-0.43,0.432c0,0.266,0.164,0.43,0.43,0.43h1.283c0.094,0,0.109,0.02,0.109,0.12v5.328
		c0,1.074,0.26,1.91,0.775,2.486c0.516,0.584,1.236,0.877,2.135,0.877l0.188,0.01c0.098,0,0.336-0.043,1.369-0.395
		c0.311-0.154,0.617-0.391,0.92-0.689c0.053-0.051,0.207-0.205,0.174-0.352c0-0.111-0.062-0.219-0.189-0.355
		C114.465,11.617,114.373,11.602,114.312,11.602z"/>
	<path fill="#010101" d="M136.867,12.438h-1.281c-0.096,0-0.119-0.021-0.119-0.121V7.454c0-1.195-0.312-2.144-0.912-2.812
		c-0.611-0.672-1.385-1.018-2.307-1.018s-1.791,0.413-2.574,1.225c-0.268,0.273-0.506,0.584-0.723,0.909
		c-0.232-0.627-0.576-1.127-1.051-1.487c-0.553-0.422-1.205-0.638-1.953-0.638c-0.975,0-1.963,0.576-2.938,1.714
		c-0.008,0.008-0.018,0.019-0.018,0.019c0-0.025,0-0.054,0-0.087V4.248c0-0.275-0.162-0.432-0.43-0.432h-1.834
		c-0.268,0-0.432,0.164-0.432,0.432s0.164,0.432,0.432,0.432h1.281c0.096,0,0.121,0.018,0.121,0.118v7.531
		c0,0.094-0.025,0.119-0.121,0.119h-1.281c-0.268,0-0.432,0.164-0.432,0.432c0,0.27,0.164,0.432,0.432,0.432h3.484
		c0.268,0,0.432-0.162,0.432-0.432c0-0.268-0.164-0.432-0.432-0.432h-1.102c-0.096,0-0.119-0.018-0.119-0.119v-5.47
		c0.268-0.438,0.559-0.825,0.859-1.171c0.695-0.791,1.4-1.194,2.092-1.194c0.705,0,1.266,0.25,1.729,0.758
		c0.465,0.507,0.697,1.249,0.697,2.202v4.862c0,0.096-0.027,0.121-0.121,0.121h-1.102c-0.275,0-0.434,0.162-0.434,0.43
		s0.164,0.432,0.434,0.432h3.303c0.275,0,0.432-0.164,0.432-0.432s-0.164-0.43-0.432-0.43h-1.096c-0.096,0-0.119-0.02-0.119-0.121
		V7.452c0-0.096-0.01-0.268-0.035-0.518c0.23-0.432,0.516-0.844,0.834-1.212c0.725-0.816,1.447-1.229,2.145-1.229
		c0.705,0,1.273,0.25,1.738,0.758c0.465,0.507,0.697,1.249,0.697,2.202v4.862c0,0.096-0.027,0.121-0.121,0.121h-1.102
		c-0.268,0-0.432,0.162-0.432,0.43s0.164,0.432,0.432,0.432h3.484c0.266,0,0.43-0.164,0.43-0.432
		C137.305,12.6,137.133,12.438,136.867,12.438z"/>
	<path fill="#010101" d="M145.764,4.878c-0.834-0.834-1.926-1.256-3.242-1.256c-1.324,0-2.4,0.464-3.221,1.395
		c-0.809,0.92-1.221,2.107-1.221,3.537c0,1.429,0.412,2.616,1.221,3.538c0.816,0.922,1.912,1.395,3.246,1.395
		c0.912,0,1.678-0.146,2.271-0.432c0.586-0.273,1.109-0.617,1.561-1.008c0.119-0.102,0.18-0.205,0.195-0.309
		c0-0.061-0.008-0.154-0.094-0.25c-0.105-0.119-0.199-0.197-0.275-0.24c-0.129-0.061-0.268-0.018-0.432,0.129
		c-0.104,0.096-0.248,0.215-0.438,0.361c-0.715,0.584-1.635,0.885-2.736,0.885c-1.092,0-1.961-0.344-2.582-1.031
		c-0.627-0.688-0.979-1.566-1.049-2.599c-0.01-0.045,0-0.068,0-0.068c0.008-0.01,0.043-0.027,0.109-0.027h7.238
		c0.455,0,0.705-0.248,0.705-0.705V7.919C147.023,6.737,146.6,5.713,145.764,4.878z M142.531,4.492c1.051,0,1.928,0.336,2.605,1.007
		c0.68,0.67,1.033,1.479,1.033,2.411c0,0.094-0.025,0.119-0.121,0.119h-6.955c-0.104,0-0.104-0.018-0.104-0.062
		c0-0.834,0.336-1.635,0.99-2.375C140.631,4.861,141.48,4.492,142.531,4.492z"/>
</g>
<path fill="#010101" d="M166.006,8.08h-11.744c-0.273,0-0.432,0.164-0.432,0.43c0,0.268,0.164,0.432,0.432,0.432h11.744
	c0.273,0,0.432-0.164,0.432-0.43C166.438,8.244,166.273,8.08,166.006,8.08z"/>
<path fill="#010101" d="M-6.637,8.08h-11.744c-0.273,0-0.432,0.164-0.432,0.43c0,0.268,0.164,0.432,0.432,0.432h11.744
	c0.273,0,0.432-0.164,0.432-0.43C-6.205,8.244-6.369,8.08-6.637,8.08z"/>
</svg>
