<?xml version="1.0" encoding="utf-8"?>
<!-- Generator: Adobe Illustrator 16.0.0, SVG Export Plug-In . SVG Version: 6.00 Build 0)  -->
<!DOCTYPE svg PUBLIC "-//W3C//DTD SVG 1.1//EN" "http://www.w3.org/Graphics/SVG/1.1/DTD/svg11.dtd">
<svg version="1.1" id="Calque_1" xmlns="http://www.w3.org/2000/svg" xmlns:xlink="http://www.w3.org/1999/xlink" x="0px" y="0px"
	 width="188.305px" height="15.991px" viewBox="-2.048 -1.098 188.305 15.991"
	 enable-background="new -2.048 -1.098 188.305 15.991" xml:space="preserve">
<g>
	<path fill="#010101" d="M31.983,12.486h-1.197c-0.062,0-0.146-0.016-0.224-0.17l-4.586-11.92C25.908,0.146,25.709,0,25.417,0
		c-0.293,0-0.491,0.138-0.551,0.378l-4.578,11.919c-0.104,0.188-0.198,0.188-0.224,0.188h-1.197c-0.266,0-0.43,0.164-0.43,0.431
		c0,0.268,0.164,0.432,0.43,0.432h3.486c0.275,0,0.43-0.164,0.43-0.432c0-0.267-0.164-0.431-0.43-0.431h-1.102
		c-0.026,0-0.052,0-0.061,0c0.009-0.018,0.018-0.034,0.026-0.062l1.3-3.391c0.034-0.076,0.094-0.162,0.292-0.162h5.215
		c0.198,0,0.267,0.086,0.292,0.153l1.308,3.409c0.009,0.018,0.017,0.035,0.017,0.043c-0.017,0-0.035,0-0.06,0h-1.102
		c-0.267,0-0.43,0.164-0.43,0.432c0,0.266,0.164,0.43,0.43,0.43h3.485c0.267,0,0.431-0.164,0.431-0.43
		C32.396,12.643,32.25,12.486,31.983,12.486z M27.929,7.995c-0.017,0-0.043,0.008-0.077,0.008h-4.846c-0.034,0-0.06,0-0.077-0.008
		c0-0.01,0.008-0.035,0.025-0.053l2.479-6.437l2.479,6.447C27.92,7.978,27.929,7.995,27.929,7.995z"/>
	<path fill="#010101" d="M41.508,12.486h-1.28c-0.097,0-0.121-0.016-0.121-0.118V0.62c0-0.275-0.162-0.431-0.431-0.431h-1.834
		c-0.269,0-0.433,0.164-0.433,0.431s0.164,0.43,0.433,0.43h1.282c0.096,0,0.119,0.018,0.119,0.121v11.197
		c0,0.094-0.018,0.118-0.119,0.118h-1.282c-0.269,0-0.433,0.164-0.433,0.433c0,0.268,0.164,0.43,0.433,0.43h3.677
		c0.266,0,0.43-0.164,0.43-0.43C41.95,12.652,41.776,12.486,41.508,12.486z"/>
	<path fill="#010101" d="M44.832,2.702c0.248,0,0.464-0.086,0.636-0.258c0.173-0.172,0.258-0.387,0.258-0.637
		s-0.085-0.464-0.258-0.637c-0.344-0.344-0.931-0.344-1.267,0c-0.172,0.172-0.258,0.387-0.258,0.637s0.086,0.465,0.258,0.637
		C44.365,2.616,44.58,2.702,44.832,2.702z"/>
	<path fill="#010101" d="M46.758,12.486h-1.28c-0.097,0-0.121-0.016-0.121-0.118V4.294c0-0.275-0.162-0.43-0.432-0.43h-1.833
		c-0.269,0-0.431,0.164-0.431,0.43s0.162,0.431,0.431,0.431h1.282c0.095,0,0.119,0.017,0.119,0.12v7.53
		c0,0.096-0.018,0.121-0.119,0.121h-1.282c-0.269,0-0.431,0.162-0.431,0.43s0.162,0.43,0.431,0.43h3.677
		c0.266,0,0.43-0.164,0.43-0.43C47.196,12.659,47.026,12.486,46.758,12.486z"/>
	<path fill="#010101" d="M54.315,11.652c-0.104,0-0.207,0.052-0.302,0.146c-0.61,0.578-1.258,0.879-1.901,0.879
		c-0.652,0-1.146-0.197-1.506-0.619c-0.361-0.414-0.553-1.051-0.553-1.887V4.845c0-0.095,0.02-0.12,0.12-0.12h3.125
		c0.269,0,0.433-0.164,0.433-0.431s-0.164-0.43-0.433-0.43h-3.125c-0.095,0-0.12-0.018-0.12-0.121V0.62
		c0-0.275-0.163-0.431-0.43-0.431c-0.268,0-0.432,0.164-0.432,0.431v3.124c0,0.095-0.02,0.121-0.121,0.121h-1.28
		c-0.269,0-0.433,0.164-0.433,0.43s0.164,0.431,0.433,0.431h1.28c0.097,0,0.121,0.017,0.121,0.12v5.326
		c0,1.076,0.258,1.912,0.772,2.488c0.519,0.584,1.239,0.877,2.136,0.877l0.188,0.01c0.095,0,0.335-0.043,1.366-0.396
		c0.312-0.154,0.619-0.387,0.922-0.688c0.052-0.053,0.205-0.207,0.173-0.354c0-0.111-0.062-0.215-0.188-0.354
		C54.47,11.661,54.375,11.652,54.315,11.652z"/>
	<path fill="#010101" d="M61.708,11.652c-0.104,0-0.207,0.052-0.303,0.146c-0.62,0.578-1.256,0.879-1.901,0.879
		c-0.653,0-1.146-0.197-1.506-0.619c-0.361-0.414-0.553-1.051-0.553-1.887V4.845c0-0.095,0.02-0.12,0.121-0.12h3.125
		c0.268,0,0.432-0.164,0.432-0.431s-0.164-0.43-0.432-0.43h-3.125c-0.096,0-0.121-0.018-0.121-0.121V0.62
		c0-0.275-0.164-0.431-0.431-0.431c-0.267,0-0.431,0.164-0.431,0.431v3.124c0,0.095-0.02,0.121-0.12,0.121h-1.28
		c-0.268,0-0.431,0.164-0.431,0.43s0.163,0.431,0.431,0.431h1.282c0.094,0,0.12,0.017,0.12,0.12v5.326
		c0,1.076,0.258,1.912,0.772,2.488c0.519,0.584,1.239,0.877,2.133,0.877l0.19,0.01c0.095,0,0.335-0.043,1.369-0.396
		c0.311-0.154,0.619-0.387,0.92-0.688c0.053-0.053,0.207-0.207,0.174-0.354c0-0.111-0.062-0.215-0.189-0.354
		C61.87,11.661,61.777,11.652,61.708,11.652z"/>
	<path fill="#010101" d="M66.329,12.486h-1.281c-0.098,0-0.121-0.016-0.121-0.118V0.62c0-0.275-0.164-0.431-0.432-0.431h-1.834
		c-0.266,0-0.43,0.164-0.43,0.431s0.164,0.43,0.43,0.43h1.283c0.096,0,0.121,0.018,0.121,0.121v11.197
		c0,0.094-0.02,0.118-0.121,0.118h-1.283c-0.266,0-0.43,0.164-0.43,0.433c0,0.268,0.164,0.43,0.43,0.43h3.678
		c0.273,0,0.432-0.164,0.432-0.43C66.771,12.652,66.596,12.486,66.329,12.486z"/>
	<path fill="#010101" d="M72.085,3.675c-1.316,0-2.4,0.465-3.219,1.394c-0.812,0.921-1.223,2.108-1.223,3.538
		c0,1.429,0.41,2.616,1.223,3.536c0.814,0.922,1.91,1.395,3.244,1.395c0.912,0,1.678-0.146,2.271-0.43
		c0.584-0.275,1.107-0.621,1.559-1.008c0.121-0.104,0.182-0.207,0.188-0.311c0.008-0.062-0.012-0.154-0.096-0.25
		c-0.104-0.121-0.197-0.197-0.275-0.24c-0.121-0.062-0.268-0.018-0.432,0.129c-0.104,0.096-0.25,0.215-0.438,0.361
		c-0.715,0.586-1.637,0.887-2.736,0.887c-1.094,0-1.963-0.344-2.582-1.033c-0.629-0.688-0.979-1.559-1.051-2.6
		c-0.01-0.043,0-0.067,0-0.067c0.01-0.011,0.043-0.026,0.111-0.026h7.229c0.459,0,0.707-0.25,0.707-0.705V7.968
		c0-1.18-0.422-2.195-1.256-3.03C74.486,4.096,73.404,3.675,72.085,3.675z M72.085,4.544c1.049,0,1.928,0.335,2.607,1.007
		c0.68,0.67,1.021,1.479,1.021,2.41c0,0.095-0.02,0.121-0.119,0.121h-6.952c-0.105,0-0.105-0.018-0.105-0.062
		c0-0.834,0.338-1.635,0.99-2.375C70.186,4.914,71.036,4.544,72.085,4.544z"/>
	<path fill="#010101" d="M91.816,12.438h-1.283c-0.094,0-0.121-0.021-0.121-0.121V6.806c0-0.894-0.334-1.66-0.988-2.271
		c-0.654-0.611-1.523-0.912-2.582-0.912c-1.359,0-2.514,0.379-3.416,1.107c-0.207,0.146-0.232,0.371-0.078,0.586
		c0.102,0.146,0.223,0.175,0.309,0.175c0.111,0,0.242-0.054,0.371-0.155C84.216,5.189,84.561,5,85.042,4.802
		c0.482-0.207,1.109-0.311,1.867-0.311c0.74,0,1.369,0.224,1.875,0.66c0.51,0.449,0.758,0.99,0.758,1.652v0.732
		c0,0.094-0.018,0.118-0.121,0.118h-3.029c-1.135,0-2.057,0.273-2.754,0.812c-0.713,0.551-1.066,1.256-1.066,2.115
		c0,0.854,0.318,1.56,0.938,2.094c0.611,0.531,1.516,0.8,2.693,0.8c0.662,0,1.309-0.183,1.918-0.541
		c0.604-0.361,1.076-0.759,1.412-1.172c0.01-0.011,0.01-0.011,0.018-0.019c0.008,0.023,0.008,0.051,0.008,0.086v1.023
		c0,0.273,0.164,0.43,0.43,0.43h1.834c0.268,0,0.43-0.164,0.43-0.43C92.253,12.59,92.083,12.438,91.816,12.438z M86.395,8.526h3.029
		c0.094,0,0.121,0.02,0.121,0.121v1.605c-0.129,0.229-0.268,0.435-0.414,0.634c-0.869,1.147-1.885,1.733-3.012,1.733
		c-0.912,0-1.592-0.197-2.041-0.576c-0.438-0.379-0.652-0.856-0.652-1.463c0-0.596,0.23-1.074,0.705-1.463
		C84.611,8.726,85.37,8.526,86.395,8.526z"/>
	<path fill="#010101" d="M97.537,3.802h-2.477c-0.096,0-0.121-0.017-0.121-0.119V0.568c0-0.273-0.164-0.43-0.432-0.43h-1.833
		c-0.268,0-0.432,0.162-0.432,0.43c0,0.27,0.164,0.433,0.432,0.433h1.282c0.096,0,0.121,0.024,0.121,0.121V12.87
		c0,0.273,0.164,0.43,0.43,0.43c0.268,0,0.432-0.161,0.432-0.43v-1.022c0-0.043,0-0.068,0.008-0.097c0,0,0,0,0.01,0.008
		c0.316,0.404,0.773,0.804,1.367,1.183c0.627,0.371,1.352,0.552,2.135,0.552c1.265,0,2.297-0.447,3.056-1.324
		c0.756-0.879,1.135-2.082,1.135-3.582c0-1.521-0.465-2.709-1.377-3.526C100.387,4.226,99.121,3.802,97.537,3.802z M98.484,12.615
		c-0.971,0-1.867-0.395-2.648-1.188c-0.328-0.326-0.621-0.726-0.887-1.183V4.79c0-0.097,0.018-0.12,0.119-0.12h2.48
		c1.35,0,2.41,0.336,3.141,0.989c0.732,0.651,1.102,1.626,1.102,2.899c0,1.28-0.311,2.288-0.93,3.003
		C100.25,12.264,99.459,12.615,98.484,12.615z"/>
	<path fill="#010101" d="M108.898,3.623c-1.369,0-2.504,0.464-3.365,1.367c-0.859,0.904-1.291,2.101-1.291,3.562
		c0,1.454,0.439,2.649,1.291,3.556c0.861,0.912,1.988,1.369,3.365,1.369s2.504-0.465,3.365-1.369
		c0.861-0.902,1.291-2.102,1.291-3.556c0-1.453-0.43-2.65-1.291-3.562C111.402,4.086,110.275,3.623,108.898,3.623z M108.898,12.615
		c-1.145,0-2.074-0.368-2.762-1.102c-0.68-0.729-1.033-1.729-1.033-2.962c0-1.23,0.354-2.23,1.041-2.97
		c0.688-0.729,1.617-1.107,2.754-1.107c1.135,0,2.057,0.371,2.744,1.107c0.689,0.738,1.043,1.736,1.043,2.97
		c0,1.229-0.344,2.229-1.033,2.962C110.98,12.247,110.051,12.615,108.898,12.615z"/>
	<path fill="#010101" d="M125.568,12.438h-1.281c-0.096,0-0.119-0.021-0.119-0.121V4.245c0-0.274-0.164-0.433-0.432-0.433h-1.834
		c-0.273,0-0.43,0.164-0.43,0.433c0,0.267,0.162,0.43,0.43,0.43h1.283c0.094,0,0.119,0.019,0.119,0.12v5.465
		c-0.268,0.43-0.584,0.826-0.93,1.18c-0.783,0.783-1.625,1.188-2.515,1.188c-0.887,0-1.582-0.248-2.09-0.729
		c-0.508-0.492-0.758-1.24-0.758-2.229V4.25c0-0.274-0.164-0.433-0.431-0.433h-1.834c-0.268,0-0.43,0.164-0.43,0.433
		c0,0.267,0.164,0.431,0.43,0.431h1.283c0.096,0,0.119,0.018,0.119,0.119v4.861c0,1.223,0.336,2.178,0.99,2.842
		c0.662,0.651,1.602,0.987,2.797,0.987c1.207,0,2.334-0.575,3.338-1.713c0.008-0.01,0.008-0.01,0.02-0.021
		c0,0.025,0.009,0.056,0.009,0.089v1.022c0,0.273,0.163,0.43,0.432,0.43h1.832c0.274,0,0.433-0.164,0.433-0.43
		C125.998,12.6,125.844,12.438,125.568,12.438z"/>
	<path fill="#010101" d="M133.125,11.602c-0.105,0-0.207,0.051-0.306,0.146c-0.606,0.573-1.254,0.877-1.897,0.877
		c-0.654,0-1.146-0.195-1.506-0.619c-0.361-0.412-0.556-1.051-0.556-1.885V4.793c0-0.094,0.027-0.12,0.121-0.12h3.115
		c0.272,0,0.432-0.164,0.432-0.43c0-0.268-0.163-0.432-0.432-0.432h-3.113c-0.096,0-0.121-0.02-0.121-0.121V0.566
		c0-0.273-0.161-0.43-0.432-0.43c-0.272,0-0.438,0.162-0.438,0.43v3.125c0,0.096-0.016,0.121-0.109,0.121h-1.282
		c-0.274,0-0.431,0.164-0.431,0.432c0,0.266,0.164,0.43,0.431,0.43h1.282c0.095,0,0.109,0.02,0.109,0.12v5.328
		c0,1.074,0.26,1.91,0.775,2.486c0.516,0.584,1.236,0.877,2.135,0.877l0.188,0.01c0.099,0,0.336-0.043,1.369-0.395
		c0.312-0.154,0.617-0.391,0.92-0.689c0.054-0.051,0.207-0.205,0.175-0.352c0-0.111-0.062-0.219-0.188-0.355
		C133.277,11.618,133.186,11.602,133.125,11.602z"/>
	<path fill="#010101" d="M155.68,12.438h-1.281c-0.096,0-0.119-0.021-0.119-0.121V7.454c0-1.195-0.312-2.144-0.912-2.812
		c-0.611-0.672-1.385-1.018-2.307-1.018s-1.791,0.413-2.574,1.225c-0.268,0.273-0.506,0.584-0.723,0.909
		c-0.232-0.627-0.576-1.127-1.051-1.487c-0.553-0.422-1.205-0.638-1.953-0.638c-0.975,0-1.963,0.576-2.938,1.714
		c-0.008,0.008-0.019,0.019-0.019,0.019c0-0.025,0-0.054,0-0.087V4.248c0-0.275-0.161-0.432-0.43-0.432h-1.834
		c-0.268,0-0.432,0.164-0.432,0.432s0.164,0.432,0.432,0.432h1.281c0.096,0,0.121,0.018,0.121,0.118v7.531
		c0,0.094-0.025,0.119-0.121,0.119h-1.281c-0.268,0-0.432,0.164-0.432,0.432c0,0.271,0.164,0.433,0.432,0.433h3.484
		c0.268,0,0.432-0.162,0.432-0.433c0-0.268-0.164-0.432-0.432-0.432h-1.102c-0.096,0-0.119-0.018-0.119-0.119v-5.47
		c0.268-0.438,0.559-0.825,0.859-1.171c0.694-0.791,1.399-1.194,2.092-1.194c0.705,0,1.266,0.25,1.729,0.758
		c0.465,0.507,0.697,1.249,0.697,2.202v4.862c0,0.097-0.027,0.121-0.121,0.121h-1.102c-0.275,0-0.435,0.162-0.435,0.431
		c0,0.268,0.164,0.432,0.435,0.432h3.303c0.275,0,0.432-0.164,0.432-0.432c0-0.269-0.164-0.431-0.432-0.431h-1.096
		c-0.097,0-0.119-0.021-0.119-0.121V7.452c0-0.096-0.01-0.268-0.035-0.518c0.229-0.432,0.516-0.844,0.834-1.212
		c0.725-0.816,1.447-1.229,2.145-1.229c0.705,0,1.273,0.25,1.738,0.758c0.465,0.507,0.697,1.249,0.697,2.203v4.861
		c0,0.096-0.027,0.121-0.121,0.121h-1.102c-0.269,0-0.433,0.162-0.433,0.43s0.164,0.432,0.433,0.432h3.483
		c0.267,0,0.43-0.164,0.43-0.432C156.117,12.6,155.945,12.438,155.68,12.438z"/>
	<path fill="#010101" d="M164.576,4.878c-0.834-0.834-1.926-1.256-3.242-1.256c-1.324,0-2.399,0.464-3.221,1.395
		c-0.809,0.92-1.221,2.107-1.221,3.537c0,1.429,0.412,2.616,1.221,3.538c0.816,0.922,1.912,1.395,3.246,1.395
		c0.912,0,1.678-0.146,2.271-0.432c0.586-0.273,1.109-0.617,1.561-1.008c0.119-0.103,0.18-0.205,0.195-0.31
		c0-0.061-0.008-0.153-0.094-0.25c-0.105-0.118-0.199-0.196-0.275-0.239c-0.129-0.062-0.268-0.019-0.432,0.129
		c-0.104,0.096-0.248,0.215-0.438,0.36c-0.715,0.584-1.635,0.886-2.735,0.886c-1.093,0-1.961-0.345-2.582-1.031
		c-0.627-0.688-0.979-1.566-1.049-2.6c-0.011-0.045,0-0.068,0-0.068c0.008-0.01,0.043-0.026,0.108-0.026h7.237
		c0.455,0,0.705-0.248,0.705-0.705V7.918C165.836,6.737,165.412,5.713,164.576,4.878z M161.344,4.492
		c1.051,0,1.928,0.336,2.605,1.007c0.68,0.67,1.032,1.479,1.032,2.412c0,0.094-0.024,0.118-0.121,0.118h-6.955
		c-0.104,0-0.104-0.018-0.104-0.062c0-0.834,0.337-1.635,0.99-2.375C159.443,4.861,160.293,4.492,161.344,4.492z"/>
</g>
<path fill="#010101" d="M184.818,8.081h-11.744c-0.273,0-0.432,0.164-0.432,0.43c0,0.268,0.164,0.432,0.432,0.432h11.744
	c0.273,0,0.432-0.164,0.432-0.43C185.25,8.245,185.086,8.081,184.818,8.081z"/>
<path fill="#010101" d="M12.175,8.081H0.432C0.159,8.081,0,8.245,0,8.51c0,0.268,0.164,0.432,0.432,0.432h11.744
	c0.273,0,0.432-0.164,0.432-0.43C12.607,8.245,12.443,8.081,12.175,8.081z"/>
</svg>
