<?xml version="1.0" encoding="utf-8"?>
<!-- Generator: Adobe Illustrator 16.0.0, SVG Export Plug-In . SVG Version: 6.00 Build 0)  -->
<!DOCTYPE svg PUBLIC "-//W3C//DTD SVG 1.1//EN" "http://www.w3.org/Graphics/SVG/1.1/DTD/svg11.dtd">
<svg version="1.1" id="Calque_1" xmlns="http://www.w3.org/2000/svg" xmlns:xlink="http://www.w3.org/1999/xlink" x="0px" y="0px"
	 width="256.165px" height="841.891px" viewBox="176.445 -409.28 256.165 841.891"
	 enable-background="new 176.445 -409.28 256.165 841.891" xml:space="preserve">
<g>
	<path d="M272.018-294.795v3.76c-0.01,0.271-0.221,0.48-0.49,0.48s-0.49-0.21-0.49-0.5v-3.49v-0.229v-0.021v-0.02
		c0.01-0.261,0.23-0.48,0.49-0.48S272.008-295.085,272.018-294.795z"/>
	<path d="M272.018-302.075v3.761c-0.01,0.27-0.221,0.479-0.49,0.479c-0.26,0-0.49-0.21-0.49-0.5v-3.49v-0.229v-0.021v-0.02
		c0.01-0.271,0.23-0.48,0.49-0.48S272.008-302.354,272.018-302.075z"/>
	<path d="M272.018-309.345v3.76c-0.01,0.271-0.221,0.48-0.49,0.48s-0.49-0.21-0.49-0.5v-3.49v-0.23v-0.02v-0.021
		c0.01-0.27,0.23-0.479,0.49-0.479S272.008-309.635,272.018-309.345z"/>
	<path d="M272.018-316.615v3.761c-0.01,0.27-0.221,0.479-0.49,0.479s-0.49-0.21-0.49-0.479v-3.75l0,0v-0.03
		c0.01-0.271,0.23-0.48,0.49-0.48S272.008-316.905,272.018-316.615z"/>
	<path d="M272.018-370.635v3.76c-0.01,0.271-0.221,0.48-0.49,0.48s-0.49-0.21-0.49-0.5v-3.49v-0.23v-0.02v-0.01
		c0.01-0.271,0.23-0.48,0.49-0.48S272.008-370.925,272.018-370.635z"/>
	<path d="M272.018-378.075v3.761c-0.01,0.27-0.221,0.479-0.49,0.479s-0.49-0.21-0.49-0.5v-3.49v-0.229v-0.021v-0.02
		c0.01-0.271,0.23-0.48,0.49-0.48S272.008-378.354,272.018-378.075z"/>
	<path d="M272.018-385.335v3.76c-0.01,0.271-0.221,0.48-0.49,0.48s-0.49-0.21-0.49-0.5v-3.49v-0.229v-0.021v-0.01
		c0.01-0.26,0.23-0.48,0.49-0.48C271.787-385.835,272.008-385.625,272.018-385.335z"/>
	<path d="M272.018-392.604v3.76c-0.01,0.27-0.221,0.479-0.49,0.479s-0.49-0.21-0.49-0.479v-3.51v-0.23v-0.02v-0.021
		c0.01-0.26,0.23-0.479,0.49-0.479S272.008-392.895,272.018-392.604z"/>
	<path d="M272.018-399.875v3.76c-0.01,0.271-0.221,0.48-0.49,0.48s-0.49-0.21-0.49-0.5v-3.49v-0.229v-0.021v-0.02
		c0.01-0.271,0.23-0.48,0.49-0.48S272.008-400.165,272.018-399.875z"/>
	<path d="M272.018-407.155v3.761c-0.01,0.27-0.221,0.479-0.49,0.479s-0.49-0.21-0.49-0.479v-3.511v-0.229v-0.021v-0.02
		c0.01-0.26,0.23-0.48,0.49-0.48C271.787-407.645,272.008-407.445,272.018-407.155z"/>
	<path d="M272.018-229.235v3.761c-0.01,0.27-0.221,0.479-0.49,0.479s-0.49-0.21-0.49-0.5v-3.5v-0.229v-0.021v-0.02
		c0.01-0.271,0.23-0.48,0.49-0.48S272.008-229.524,272.018-229.235z"/>
	<path d="M272.018-236.505v3.76c-0.01,0.271-0.221,0.48-0.49,0.48s-0.49-0.21-0.49-0.5v-3.49v-0.23v-0.02v-0.02
		c0.01-0.261,0.23-0.48,0.49-0.48S272.008-236.795,272.018-236.505z"/>
	<path d="M272.018-243.785v3.761c-0.01,0.27-0.221,0.479-0.49,0.479s-0.49-0.21-0.49-0.479v-3.511v-0.229v-0.021v-0.02
		c0.01-0.26,0.23-0.48,0.49-0.48C271.787-244.274,272.008-244.064,272.018-243.785z"/>
	<path d="M272.018-251.055v3.76c-0.01,0.271-0.221,0.48-0.49,0.48s-0.49-0.21-0.49-0.5v-3.49v-0.23v-0.02v-0.021
		c0.01-0.27,0.23-0.479,0.49-0.479S272.008-251.345,272.018-251.055z"/>
	<path d="M272.018-258.325v3.761c-0.01,0.27-0.221,0.479-0.49,0.479s-0.49-0.21-0.49-0.479v-3.511v-0.229v-0.021v-0.02
		c0.01-0.26,0.23-0.48,0.49-0.48S272.008-258.615,272.018-258.325z"/>
	<path d="M272.018-265.765v3.77c-0.01,0.271-0.221,0.48-0.49,0.48s-0.49-0.21-0.49-0.48v-3.51v-0.23v-0.02v-0.02
		c0.01-0.261,0.23-0.48,0.49-0.48S272.008-266.045,272.018-265.765z"/>
	<path d="M272.018-273.024v3.76c-0.01,0.27-0.221,0.479-0.49,0.479c-0.26,0-0.49-0.21-0.49-0.5v-3.489v-0.23v-0.02v-0.021
		c0.01-0.27,0.23-0.479,0.49-0.479S272.008-273.314,272.018-273.024z"/>
	<path d="M272.018-280.295v3.76c-0.01,0.271-0.221,0.48-0.49,0.48s-0.49-0.21-0.49-0.5v-3.49v-0.229v-0.021v-0.02
		c0.01-0.271,0.23-0.48,0.49-0.48S272.008-280.585,272.018-280.295z"/>
	<path d="M272.018-287.564v3.76c-0.01,0.27-0.221,0.479-0.49,0.479s-0.49-0.21-0.49-0.479v-3.75l0,0v-0.03
		c0.01-0.27,0.23-0.479,0.49-0.479S272.008-287.854,272.018-287.564z"/>
	<path d="M272.018-163.625v3.76c-0.01,0.271-0.221,0.48-0.49,0.48s-0.49-0.21-0.49-0.5v-3.49v-0.229v-0.021v-0.02
		c0.01-0.271,0.23-0.48,0.49-0.48S272.008-163.915,272.018-163.625z"/>
	<path d="M272.018-170.905v3.761c-0.01,0.27-0.221,0.479-0.49,0.479s-0.49-0.21-0.49-0.5v-3.49v-0.229v-0.021v-0.02
		c0.01-0.271,0.23-0.48,0.49-0.48S272.008-171.185,272.018-170.905z"/>
	<path d="M272.018-178.175v3.76c-0.01,0.271-0.221,0.48-0.49,0.48s-0.49-0.21-0.49-0.5v-3.49v-0.23v-0.02v-0.021
		c0.01-0.27,0.23-0.479,0.49-0.479S272.008-178.465,272.018-178.175z"/>
	<path d="M272.018-185.445v3.761c-0.01,0.27-0.221,0.479-0.49,0.479s-0.49-0.21-0.49-0.5v-3.729v-0.011v-0.02
		c0.01-0.271,0.23-0.48,0.49-0.48S272.008-185.735,272.018-185.445z"/>
	<path d="M272.018-192.715v3.76c-0.01,0.271-0.221,0.48-0.49,0.48s-0.49-0.21-0.49-0.5v-3.49v-0.23v-0.02v-0.021
		c0.01-0.27,0.23-0.479,0.49-0.479S272.008-193.005,272.018-192.715z"/>
	<path d="M272.018-200.155v3.761c-0.01,0.27-0.221,0.479-0.49,0.479s-0.49-0.21-0.49-0.5v-3.49v-0.229v-0.021v-0.02
		c0.01-0.271,0.23-0.48,0.49-0.48S272.008-200.445,272.018-200.155z"/>
	<path d="M272.018-207.415v3.76c-0.01,0.271-0.221,0.48-0.49,0.48s-0.49-0.21-0.49-0.5v-3.49v-0.229v-0.021v-0.02
		c0.01-0.271,0.23-0.48,0.49-0.48S272.008-207.705,272.018-207.415z"/>
	<path d="M272.018-214.685v3.76c-0.01,0.27-0.221,0.479-0.49,0.479s-0.49-0.21-0.49-0.5v-3.489v-0.23v-0.02v-0.021
		c0.01-0.27,0.23-0.479,0.49-0.479S272.008-214.975,272.018-214.685z"/>
	<path d="M272.018-221.965v3.76c-0.01,0.271-0.221,0.48-0.49,0.48s-0.49-0.21-0.49-0.5v-3.73v-0.01v-0.021
		c0.01-0.27,0.23-0.479,0.49-0.479S272.008-222.245,272.018-221.965z"/>
	<path d="M272.018-141.854v3.76c-0.01,0.27-0.221,0.479-0.49,0.479s-0.49-0.21-0.49-0.5v-3.489v-0.23v-0.02v-0.021
		c0.01-0.27,0.23-0.479,0.49-0.479S272.008-142.145,272.018-141.854z"/>
	<path d="M272.018-149.125v3.76c-0.01,0.271-0.221,0.48-0.49,0.48s-0.49-0.21-0.49-0.5v-3.49v-0.229v-0.021v-0.01
		c0.01-0.271,0.23-0.48,0.49-0.48S272.008-149.415,272.018-149.125z"/>
	<path d="M272.018-156.395v3.76c-0.01,0.27-0.221,0.479-0.49,0.479s-0.49-0.21-0.49-0.5v-3.729v-0.01v-0.021
		c0.01-0.27,0.23-0.479,0.49-0.479S272.008-156.685,272.018-156.395z"/>
	<path d="M272.018-119.985v3.761c-0.01,0.27-0.221,0.479-0.49,0.479s-0.49-0.21-0.49-0.5v-3.49v-0.229v-0.021v-0.02
		c0.01-0.27,0.23-0.48,0.49-0.48S272.008-120.274,272.018-119.985z"/>
	<path d="M272.018-127.255v3.76c-0.01,0.271-0.221,0.48-0.49,0.48s-0.49-0.21-0.49-0.5v-3.49v-0.23v-0.02v-0.02
		c0.01-0.271,0.23-0.48,0.49-0.48S272.008-127.545,272.018-127.255z"/>
	<path d="M272.018-134.524v3.76c-0.01,0.27-0.221,0.479-0.49,0.479s-0.49-0.21-0.49-0.5v-3.489v-0.23v-0.02v-0.021
		c0.01-0.27,0.23-0.479,0.49-0.479S272.008-134.814,272.018-134.524z"/>
	<path d="M272.018-98.205v3.76c-0.01,0.271-0.221,0.48-0.49,0.48s-0.49-0.21-0.49-0.5v-3.49v-0.229v-0.021v-0.02
		c0.01-0.271,0.23-0.48,0.49-0.48S272.008-98.495,272.018-98.205z"/>
	<path d="M272.018-105.484v3.76c-0.01,0.27-0.221,0.479-0.49,0.479s-0.49-0.21-0.49-0.5v-3.489v-0.23v-0.02v-0.021
		c0.01-0.27,0.23-0.479,0.49-0.479S272.008-105.765,272.018-105.484z"/>
	<path d="M272.018-112.755v3.76c-0.01,0.271-0.221,0.48-0.49,0.48s-0.49-0.21-0.49-0.5v-3.73v-0.01v-0.02
		c0.01-0.271,0.23-0.48,0.49-0.48S272.008-113.035,272.018-112.755z"/>
	<path d="M272.018-54.435v3.76c-0.01,0.271-0.221,0.48-0.49,0.48s-0.49-0.21-0.49-0.5v-3.49v-0.23v-0.02v-0.021
		c0.01-0.27,0.23-0.479,0.49-0.479S272.008-54.725,272.018-54.435z"/>
	<path d="M272.018-61.715v3.76c-0.01,0.271-0.221,0.48-0.49,0.48s-0.49-0.21-0.49-0.5v-3.49v-0.229v-0.021v-0.02
		c0.01-0.271,0.23-0.48,0.49-0.48S272.008-61.994,272.018-61.715z"/>
	<path d="M272.018-68.984v3.76c-0.01,0.27-0.221,0.479-0.49,0.479s-0.49-0.21-0.49-0.5v-3.489v-0.23v-0.02v-0.021
		c0.01-0.27,0.23-0.479,0.49-0.479S272.008-69.274,272.018-68.984z"/>
	<path d="M272.018-76.255v3.76c-0.01,0.271-0.221,0.48-0.49,0.48s-0.49-0.21-0.49-0.5v-3.73v-0.01v-0.02
		c0.01-0.271,0.23-0.48,0.49-0.48S272.008-76.545,272.018-76.255z"/>
	<path d="M272.018-83.524v3.76c-0.01,0.27-0.221,0.479-0.49,0.479s-0.49-0.21-0.49-0.5v-3.489v-0.23v-0.02v-0.021
		c0.01-0.27,0.23-0.479,0.49-0.479S272.008-83.814,272.018-83.524z"/>
	<path d="M272.018-90.965v3.76c-0.01,0.271-0.221,0.48-0.49,0.48s-0.49-0.21-0.49-0.5v-3.49v-0.23v-0.02v-0.02
		c0.01-0.271,0.23-0.48,0.49-0.48S272.008-91.255,272.018-90.965z"/>
	<path d="M272.018-47.205v3.761c-0.01,0.27-0.221,0.479-0.49,0.479s-0.49-0.21-0.49-0.5v-3.729v-0.011v-0.02
		c0.01-0.27,0.23-0.48,0.49-0.48S272.008-47.494,272.018-47.205z"/>
</g>
<g>
	<path d="M272.018,211.557v-3.76c-0.01-0.271-0.221-0.48-0.49-0.48s-0.49,0.21-0.49,0.5v3.49v0.23v0.02v0.02
		c0.01,0.261,0.23,0.48,0.49,0.48S272.008,211.847,272.018,211.557z"/>
	<path d="M272.018,218.837v-3.761c-0.01-0.27-0.221-0.479-0.49-0.479c-0.26,0-0.49,0.21-0.49,0.5v3.49v0.229v0.021v0.02
		c0.01,0.271,0.23,0.48,0.49,0.48S272.008,219.116,272.018,218.837z"/>
	<path d="M272.018,226.106v-3.76c-0.01-0.271-0.221-0.48-0.49-0.48s-0.49,0.21-0.49,0.5v3.49v0.23v0.02v0.021
		c0.01,0.27,0.23,0.479,0.49,0.479S272.008,226.396,272.018,226.106z"/>
	<path d="M272.018,233.377v-3.761c-0.01-0.27-0.221-0.479-0.49-0.479s-0.49,0.21-0.49,0.479v3.75l0,0v0.03
		c0.01,0.271,0.23,0.48,0.49,0.48S272.008,233.667,272.018,233.377z"/>
	<path d="M272.018,240.646v-3.76c-0.01-0.271-0.221-0.48-0.49-0.48s-0.49,0.21-0.49,0.5v3.49v0.23v0.02v0.021
		c0.01,0.27,0.23,0.479,0.49,0.479S272.008,240.937,272.018,240.646z"/>
	<path d="M272.018,248.087v-3.761c-0.01-0.27-0.221-0.479-0.49-0.479s-0.49,0.21-0.49,0.5v3.49v0.229v0.021v0.02
		c0.01,0.271,0.23,0.48,0.49,0.48S272.008,248.377,272.018,248.087z"/>
	<path d="M272.018,255.347v-3.76c-0.01-0.271-0.221-0.48-0.49-0.48s-0.49,0.21-0.49,0.5v3.49v0.229v0.021v0.02
		c0.01,0.261,0.23,0.48,0.49,0.48S272.008,255.637,272.018,255.347z"/>
	<path d="M272.018,262.616v-3.76c-0.01-0.27-0.221-0.479-0.49-0.479s-0.49,0.21-0.49,0.479v3.51v0.23v0.02v0.021
		c0.01,0.26,0.23,0.479,0.49,0.479S272.008,262.906,272.018,262.616z"/>
	<path d="M272.018,269.887v-3.76c-0.01-0.271-0.221-0.48-0.49-0.48s-0.49,0.21-0.49,0.5v3.49v0.229v0.021v0.02
		c0.01,0.271,0.23,0.48,0.49,0.48S272.008,270.177,272.018,269.887z"/>
	<path d="M272.018,277.167v-3.761c-0.01-0.27-0.221-0.479-0.49-0.479s-0.49,0.21-0.49,0.479v3.511v0.229v0.021v0.02
		c0.01,0.26,0.23,0.48,0.49,0.48S272.008,277.457,272.018,277.167z"/>
	<path d="M272.018,145.997v-3.761c-0.01-0.27-0.221-0.479-0.49-0.479s-0.49,0.21-0.49,0.5v3.49v0.229v0.021v0.02
		c0.01,0.271,0.23,0.48,0.49,0.48S272.008,146.287,272.018,145.997z"/>
	<path d="M272.018,153.267v-3.76c-0.01-0.271-0.221-0.48-0.49-0.48s-0.49,0.21-0.49,0.5v3.49v0.229v0.021v0.01
		c0.01,0.261,0.23,0.48,0.49,0.48C271.787,153.767,272.008,153.557,272.018,153.267z"/>
	<path d="M272.018,160.547v-3.76c-0.01-0.271-0.221-0.48-0.49-0.48s-0.49,0.21-0.49,0.48v3.51v0.229v0.021v0.01
		c0.01,0.26,0.23,0.48,0.49,0.48S272.008,160.837,272.018,160.547z"/>
	<path d="M272.018,167.816v-3.76c-0.01-0.27-0.221-0.48-0.49-0.48s-0.49,0.211-0.49,0.5v3.49v0.23v0.02v0.01
		c0.01,0.271,0.23,0.48,0.49,0.48S272.008,168.106,272.018,167.816z"/>
	<path d="M272.018,175.087v-3.761c-0.01-0.27-0.221-0.479-0.49-0.479s-0.49,0.21-0.49,0.479v3.511v0.229v0.021v0.02
		c0.01,0.26,0.23,0.48,0.49,0.48S272.008,175.377,272.018,175.087z"/>
	<path d="M272.018,182.526v-3.76c-0.01-0.271-0.221-0.479-0.49-0.479s-0.49,0.21-0.49,0.479v3.51v0.23v0.02v0.021
		c0.01,0.26,0.23,0.479,0.49,0.479C271.787,183.017,272.008,182.816,272.018,182.526z"/>
	<path d="M272.018,189.787v-3.761c-0.01-0.27-0.221-0.479-0.49-0.479c-0.26,0-0.49,0.21-0.49,0.5v3.49v0.229v0.021v0.02
		c0.01,0.27,0.23,0.48,0.49,0.48S272.008,190.076,272.018,189.787z"/>
	<path d="M272.018,197.057v-3.76c-0.01-0.271-0.221-0.48-0.49-0.48s-0.49,0.21-0.49,0.5v3.49v0.23v0.02v0.02
		c0.01,0.271,0.23,0.48,0.49,0.48S272.008,197.347,272.018,197.057z"/>
	<path d="M272.018,204.326v-3.76c-0.01-0.27-0.221-0.479-0.49-0.479s-0.49,0.21-0.49,0.479v3.75l0,0v0.03
		c0.01,0.27,0.23,0.479,0.49,0.479S272.008,204.616,272.018,204.326z"/>
	<path d="M272.018,80.396v-3.76c-0.01-0.271-0.221-0.48-0.49-0.48s-0.49,0.21-0.49,0.5v3.49v0.23v0.02v0.021
		c0.01,0.27,0.23,0.479,0.49,0.479S272.008,80.677,272.018,80.396z"/>
	<path d="M272.018,87.667v-3.761c-0.01-0.27-0.221-0.479-0.49-0.479s-0.49,0.21-0.49,0.5v3.49v0.229v0.021v0.02
		c0.01,0.271,0.23,0.48,0.49,0.48S272.008,87.957,272.018,87.667z"/>
	<path d="M272.018,94.937v-3.76c-0.01-0.271-0.221-0.48-0.49-0.48s-0.49,0.21-0.49,0.5v3.49v0.23v0.02v0.021
		c0.01,0.27,0.23,0.479,0.49,0.479S272.008,95.227,272.018,94.937z"/>
	<path d="M272.018,102.207v-3.761c-0.01-0.27-0.221-0.479-0.49-0.479s-0.49,0.21-0.49,0.5v3.729v0.011v0.02
		c0.01,0.271,0.23,0.48,0.49,0.48S272.008,102.497,272.018,102.207z"/>
	<path d="M272.018,109.477v-3.76c-0.01-0.271-0.221-0.48-0.49-0.48s-0.49,0.21-0.49,0.5v3.49v0.23v0.02v0.021
		c0.01,0.27,0.23,0.479,0.49,0.479S272.008,109.767,272.018,109.477z"/>
	<path d="M272.018,116.917v-3.761c-0.01-0.27-0.221-0.479-0.49-0.479s-0.49,0.21-0.49,0.5v3.49v0.229v0.021v0.01
		c0.01,0.27,0.23,0.479,0.49,0.479S272.008,117.207,272.018,116.917z"/>
	<path d="M272.018,124.177v-3.76c-0.01-0.271-0.221-0.48-0.49-0.48s-0.49,0.21-0.49,0.5v3.49v0.229v0.021v0.02
		c0.01,0.271,0.23,0.48,0.49,0.48S272.008,124.467,272.018,124.177z"/>
	<path d="M272.018,131.457v-3.761c-0.01-0.27-0.221-0.479-0.49-0.479s-0.49,0.21-0.49,0.5v3.49v0.229v0.021v0.02
		c0.01,0.271,0.23,0.48,0.49,0.48S272.008,131.736,272.018,131.457z"/>
	<path d="M272.018,138.727v-3.76c-0.01-0.271-0.221-0.48-0.49-0.48s-0.49,0.21-0.49,0.5v3.73l0,0v0.02
		c0.01,0.271,0.23,0.48,0.49,0.48S272.008,139.007,272.018,138.727z"/>
	<path d="M272.018,58.616v-3.76c-0.01-0.27-0.221-0.479-0.49-0.479s-0.49,0.21-0.49,0.5v3.489v0.23v0.02v0.011
		c0.01,0.27,0.23,0.479,0.49,0.479S272.008,58.906,272.018,58.616z"/>
	<path d="M272.018,65.887v-3.76c-0.01-0.271-0.221-0.48-0.49-0.48s-0.49,0.21-0.49,0.5v3.49v0.229v0.021v0.02
		c0.01,0.271,0.23,0.48,0.49,0.48S272.008,66.177,272.018,65.887z"/>
	<path d="M272.018,73.167v-3.761c-0.01-0.27-0.221-0.479-0.49-0.479s-0.49,0.21-0.49,0.5v3.729v0.011v0.02
		c0.01,0.271,0.23,0.48,0.49,0.48S272.008,73.446,272.018,73.167z"/>
	<path d="M272.018,36.747v-3.761c-0.01-0.27-0.221-0.479-0.49-0.479s-0.49,0.21-0.49,0.5v3.49v0.229v0.021v0.02
		c0.01,0.271,0.23,0.48,0.49,0.48S272.008,37.037,272.018,36.747z"/>
	<path d="M272.018,44.017v-3.76c-0.01-0.271-0.221-0.48-0.49-0.48s-0.49,0.21-0.49,0.5v3.49v0.229v0.021v0.021
		c0.01,0.27,0.23,0.479,0.49,0.479S272.008,44.307,272.018,44.017z"/>
	<path d="M272.018,51.287v-3.761c-0.01-0.27-0.221-0.479-0.49-0.479s-0.49,0.21-0.49,0.5v3.49v0.229v0.021v0.02
		c0.01,0.27,0.23,0.48,0.49,0.48S272.008,51.576,272.018,51.287z"/>
	<path d="M272.018,14.967v-3.76c-0.01-0.271-0.221-0.48-0.49-0.48s-0.49,0.21-0.49,0.5v3.49v0.229v0.021v0.02
		c0.01,0.271,0.23,0.48,0.49,0.48S272.008,15.257,272.018,14.967z"/>
	<path d="M272.018,22.247v-3.761c-0.01-0.27-0.221-0.479-0.49-0.479s-0.49,0.21-0.49,0.5v3.49v0.229v0.021v0.02
		c0.01,0.271,0.23,0.48,0.49,0.48S272.008,22.537,272.018,22.247z"/>
	<path d="M272.018,29.517v-3.76c-0.01-0.271-0.221-0.48-0.49-0.48s-0.49,0.21-0.49,0.5v3.73v0.01v0.021
		c0.01,0.27,0.23,0.479,0.49,0.479S272.008,29.807,272.018,29.517z"/>
	<path d="M272.018-28.793v-3.761c-0.01-0.27-0.221-0.479-0.49-0.479s-0.49,0.21-0.49,0.5v3.49v0.229v0.021v0.02
		c0.01,0.271,0.23,0.48,0.49,0.48S272.008-28.514,272.018-28.793z"/>
	<path d="M272.018-21.523v-3.76c-0.01-0.271-0.221-0.48-0.49-0.48s-0.49,0.21-0.49,0.5v3.49v0.23v0.02v0.021
		c0.01,0.27,0.23,0.479,0.49,0.479S272.008-21.233,272.018-21.523z"/>
	<path d="M272.018-14.253v-3.761c-0.01-0.27-0.221-0.479-0.49-0.479s-0.49,0.21-0.49,0.5v3.49v0.229v0.021v0.02
		c0.01,0.271,0.23,0.48,0.49,0.48S272.008-13.963,272.018-14.253z"/>
	<path d="M272.018-6.983v-3.76c-0.01-0.271-0.221-0.48-0.49-0.48s-0.49,0.21-0.49,0.5v3.73v0.01v0.021
		c0.01,0.27,0.23,0.479,0.49,0.479S272.008-6.693,272.018-6.983z"/>
	<path d="M272.018,0.287v-3.761c-0.01-0.27-0.221-0.479-0.49-0.479s-0.49,0.21-0.49,0.5v3.49v0.229v0.021v0.02
		c0.01,0.27,0.23,0.47,0.49,0.47S272.008,0.576,272.018,0.287z"/>
	<path d="M272.018,7.727v-3.76c-0.01-0.271-0.221-0.48-0.49-0.48s-0.49,0.21-0.49,0.5v3.49v0.23v0.02v0.021
		c0.01,0.27,0.23,0.479,0.49,0.479S272.008,8.017,272.018,7.727z"/>
	<path d="M272.018-36.033v-3.76c-0.01-0.271-0.221-0.48-0.49-0.48s-0.49,0.21-0.49,0.5v3.73l0,0v0.02
		c0.01,0.271,0.23,0.48,0.49,0.48S272.008-35.743,272.018-36.033z"/>
	<path d="M271.558,285.137L271.558,285.137c0.09-0.01,0.159-0.04,0.22-0.08h0.09v-0.04c0.021-0.01,0.04-0.021,0.061-0.05l2.42-2.88
		c0.16-0.2,0.12-0.521-0.07-0.681c-0.199-0.17-0.5-0.149-0.699,0.07l-1.561,1.86v-2.851c-0.01-0.27-0.23-0.479-0.49-0.479
		c-0.27,0-0.48,0.21-0.49,0.479v2.83l-1.56-1.859c-0.181-0.2-0.479-0.221-0.681-0.051c-0.109,0.101-0.18,0.23-0.18,0.381
		c0,0.109,0.04,0.22,0.12,0.319l2.24,2.67l0.16,0.181l0.02,0.029c0.021,0.03,0.05,0.04,0.07,0.04l0.05,0.021
		c0.061,0.04,0.13,0.07,0.21,0.08h0.011L271.558,285.137z"/>
</g>
<g>
	<path d="M234.075-345.769h-1.39c-0.07,0-0.17-0.021-0.261-0.201l-5.329-13.85c-0.08-0.29-0.311-0.46-0.65-0.46
		s-0.57,0.16-0.64,0.44l-5.32,13.85c-0.12,0.221-0.23,0.221-0.26,0.221h-1.391c-0.31,0-0.5,0.189-0.5,0.5c0,0.31,0.19,0.5,0.5,0.5
		h4.05c0.32,0,0.5-0.19,0.5-0.5c0-0.311-0.189-0.5-0.5-0.5h-1.279c-0.03,0-0.061,0-0.07,0c0.01-0.021,0.02-0.041,0.03-0.07
		l1.51-3.94c0.04-0.09,0.11-0.19,0.34-0.19h6.061c0.229,0,0.31,0.101,0.34,0.181l1.52,3.96c0.01,0.02,0.021,0.04,0.021,0.05
		c-0.021,0-0.04,0-0.07,0h-1.28c-0.31,0-0.5,0.19-0.5,0.5s0.19,0.5,0.5,0.5h4.05c0.311,0,0.5-0.19,0.5-0.5
		S234.385-345.769,234.075-345.769z M229.365-350.979c-0.02,0-0.05,0.01-0.09,0.01h-5.63c-0.04,0-0.07,0-0.09-0.01
		c0-0.01,0.01-0.039,0.029-0.06l2.88-7.48l2.881,7.49C229.355-351.009,229.365-350.989,229.365-350.979z"/>
	<path d="M245.145-345.769h-1.49c-0.11,0-0.14-0.021-0.14-0.141v-13.65c0-0.32-0.19-0.5-0.5-0.5h-2.131c-0.31,0-0.5,0.19-0.5,0.5
		s0.19,0.5,0.5,0.5h1.49c0.11,0,0.141,0.02,0.141,0.14v13.01c0,0.11-0.021,0.141-0.141,0.141h-1.49c-0.31,0-0.5,0.189-0.5,0.5
		c0,0.31,0.19,0.5,0.5,0.5h4.271c0.31,0,0.5-0.19,0.5-0.5C245.655-345.579,245.455-345.769,245.145-345.769z"/>
	<path d="M249.005-357.139c0.29,0,0.54-0.1,0.74-0.3c0.2-0.2,0.3-0.45,0.3-0.74s-0.1-0.54-0.3-0.74c-0.399-0.4-1.08-0.4-1.47,0
		c-0.2,0.2-0.3,0.45-0.3,0.74s0.1,0.54,0.3,0.74C248.465-357.239,248.715-357.139,249.005-357.139z"/>
	<path d="M251.245-345.769h-1.49c-0.109,0-0.14-0.021-0.14-0.141v-9.38c0-0.32-0.19-0.5-0.5-0.5h-2.13c-0.311,0-0.5,0.19-0.5,0.5
		s0.189,0.5,0.5,0.5h1.49c0.109,0,0.14,0.02,0.14,0.14v8.75c0,0.11-0.02,0.141-0.14,0.141h-1.49c-0.311,0-0.5,0.189-0.5,0.5
		c0,0.31,0.189,0.5,0.5,0.5h4.27c0.311,0,0.5-0.19,0.5-0.5C251.755-345.569,251.555-345.769,251.245-345.769z"/>
	<path d="M260.025-346.739c-0.12,0-0.24,0.061-0.351,0.17c-0.71,0.67-1.46,1.021-2.21,1.021c-0.76,0-1.33-0.23-1.75-0.72
		c-0.42-0.48-0.64-1.221-0.64-2.19v-6.19c0-0.11,0.02-0.14,0.14-0.14h3.631c0.31,0,0.5-0.19,0.5-0.5s-0.19-0.5-0.5-0.5h-3.631
		c-0.109,0-0.14-0.02-0.14-0.14v-3.63c0-0.32-0.19-0.5-0.5-0.5s-0.5,0.19-0.5,0.5v3.63c0,0.11-0.02,0.14-0.14,0.14h-1.49
		c-0.311,0-0.5,0.19-0.5,0.5s0.189,0.5,0.5,0.5h1.49c0.109,0,0.14,0.02,0.14,0.14v6.19c0,1.25,0.3,2.22,0.9,2.89
		c0.6,0.68,1.439,1.021,2.479,1.021l0.22,0.01c0.11,0,0.391-0.05,1.591-0.46c0.359-0.18,0.72-0.45,1.069-0.8
		c0.061-0.06,0.24-0.24,0.2-0.41c0-0.13-0.07-0.25-0.22-0.41C260.205-346.72,260.095-346.739,260.025-346.739z"/>
	<path d="M268.615-346.739c-0.12,0-0.24,0.061-0.35,0.17c-0.721,0.67-1.46,1.021-2.21,1.021c-0.761,0-1.33-0.23-1.75-0.72
		c-0.421-0.48-0.641-1.221-0.641-2.19v-6.19c0-0.11,0.021-0.14,0.141-0.14h3.63c0.31,0,0.5-0.19,0.5-0.5s-0.19-0.5-0.5-0.5h-3.63
		c-0.11,0-0.141-0.02-0.141-0.14v-3.63c0-0.32-0.189-0.5-0.5-0.5c-0.31,0-0.5,0.19-0.5,0.5v3.63c0,0.11-0.02,0.14-0.14,0.14h-1.49
		c-0.31,0-0.5,0.19-0.5,0.5s0.19,0.5,0.5,0.5h1.49c0.109,0,0.14,0.02,0.14,0.14v6.19c0,1.25,0.3,2.22,0.9,2.89
		c0.6,0.68,1.439,1.021,2.479,1.021l0.221,0.01c0.109,0,0.39-0.05,1.59-0.46c0.359-0.18,0.72-0.45,1.069-0.8
		c0.061-0.06,0.24-0.24,0.2-0.41c0-0.13-0.069-0.25-0.22-0.41C268.805-346.72,268.695-346.739,268.615-346.739z"/>
	<path d="M273.985-345.769h-1.49c-0.11,0-0.14-0.021-0.14-0.141v-13.65c0-0.32-0.19-0.5-0.5-0.5h-2.13c-0.311,0-0.5,0.19-0.5,0.5
		s0.189,0.5,0.5,0.5h1.489c0.11,0,0.141,0.02,0.141,0.14v13.01c0,0.11-0.021,0.141-0.141,0.141h-1.489c-0.311,0-0.5,0.189-0.5,0.5
		c0,0.31,0.189,0.5,0.5,0.5h4.27c0.32,0,0.5-0.19,0.5-0.5C274.495-345.579,274.295-345.769,273.985-345.769z"/>
	<path d="M280.675-356.009c-1.529,0-2.79,0.54-3.739,1.62c-0.94,1.07-1.42,2.451-1.42,4.11c0,1.66,0.479,3.04,1.42,4.11
		c0.949,1.07,2.22,1.62,3.77,1.62c1.061,0,1.95-0.171,2.641-0.5c0.68-0.32,1.289-0.72,1.81-1.171c0.14-0.119,0.21-0.239,0.22-0.359
		c0.01-0.07-0.01-0.18-0.109-0.29c-0.12-0.14-0.23-0.229-0.32-0.28c-0.14-0.07-0.311-0.02-0.5,0.15c-0.12,0.109-0.29,0.25-0.51,0.42
		c-0.83,0.68-1.9,1.03-3.181,1.03c-1.27,0-2.279-0.4-3-1.2c-0.729-0.8-1.14-1.811-1.22-3.02c-0.01-0.051,0-0.08,0-0.08
		c0.01-0.01,0.05-0.03,0.13-0.03h8.4c0.53,0,0.819-0.29,0.819-0.82v-0.319c0-1.371-0.489-2.551-1.46-3.521
		C283.465-355.519,282.205-356.009,280.675-356.009z M280.675-354.999c1.221,0,2.24,0.39,3.03,1.17c0.79,0.78,1.19,1.721,1.19,2.8
		c0,0.11-0.021,0.14-0.141,0.14h-8.08c-0.119,0-0.119-0.02-0.119-0.069c0-0.97,0.39-1.9,1.149-2.76
		C278.465-354.569,279.455-354.999,280.675-354.999z"/>
	<path d="M199.846-323.844h-1.489c-0.11,0-0.141-0.021-0.141-0.141v-6.399c0-1.041-0.39-1.931-1.149-2.641
		c-0.761-0.71-1.771-1.06-3-1.06c-1.58,0-2.921,0.439-3.971,1.29c-0.239,0.17-0.27,0.43-0.09,0.68c0.12,0.17,0.26,0.2,0.36,0.2
		c0.13,0,0.279-0.06,0.43-0.181c0.22-0.17,0.62-0.39,1.18-0.619c0.561-0.24,1.29-0.36,2.17-0.36c0.86,0,1.591,0.26,2.181,0.771
		c0.59,0.52,0.88,1.149,0.88,1.92v0.85c0,0.11-0.021,0.14-0.141,0.14h-3.52c-1.32,0-2.39,0.32-3.2,0.94
		c-0.83,0.64-1.24,1.46-1.24,2.46c0,0.99,0.37,1.811,1.091,2.43c0.71,0.62,1.76,0.93,3.13,0.93c0.77,0,1.52-0.209,2.229-0.629
		c0.7-0.42,1.25-0.881,1.641-1.36c0.01-0.011,0.01-0.011,0.02-0.021c0.01,0.03,0.01,0.061,0.01,0.1v1.19c0,0.32,0.19,0.5,0.5,0.5
		h2.131c0.31,0,0.5-0.19,0.5-0.5S200.157-323.844,199.846-323.844z M193.547-328.385h3.521c0.109,0,0.14,0.021,0.14,0.141v1.87
		c-0.15,0.26-0.311,0.5-0.48,0.729c-1.01,1.34-2.189,2.021-3.5,2.021c-1.06,0-1.85-0.23-2.369-0.671
		c-0.511-0.439-0.761-1-0.761-1.699c0-0.689,0.271-1.25,0.82-1.7C191.476-328.154,192.357-328.385,193.547-328.385z"/>
	<path d="M206.497-333.874h-2.88c-0.11,0-0.141-0.021-0.141-0.141v-3.619c0-0.32-0.189-0.5-0.5-0.5h-2.13c-0.31,0-0.5,0.189-0.5,0.5
		c0,0.31,0.19,0.5,0.5,0.5h1.49c0.11,0,0.14,0.029,0.14,0.14v13.65c0,0.319,0.19,0.5,0.5,0.5c0.311,0,0.5-0.19,0.5-0.5v-1.19
		c0-0.05,0-0.08,0.011-0.11c0,0,0,0,0.01,0.01c0.37,0.471,0.899,0.931,1.59,1.371c0.73,0.43,1.57,0.64,2.48,0.64
		c1.47,0,2.67-0.521,3.55-1.54s1.319-2.42,1.319-4.16c0-1.77-0.54-3.149-1.6-4.101C209.806-333.384,208.337-333.874,206.497-333.874
		z M207.596-323.635c-1.13,0-2.17-0.459-3.08-1.379c-0.38-0.381-0.72-0.841-1.029-1.371v-6.339c0-0.11,0.02-0.141,0.14-0.141h2.88
		c1.57,0,2.8,0.391,3.65,1.15c0.85,0.76,1.279,1.89,1.279,3.37c0,1.489-0.359,2.66-1.079,3.489
		C209.646-324.045,208.726-323.635,207.596-323.635z"/>
	<path d="M219.697-334.084c-1.59,0-2.91,0.54-3.91,1.59s-1.5,2.439-1.5,4.14c0,1.69,0.51,3.08,1.5,4.13c1,1.061,2.31,1.59,3.91,1.59
		c1.6,0,2.91-0.539,3.91-1.59c1-1.05,1.5-2.439,1.5-4.13s-0.5-3.08-1.5-4.14C222.607-333.544,221.297-334.084,219.697-334.084z
		 M219.697-323.635c-1.33,0-2.41-0.43-3.21-1.279c-0.79-0.85-1.2-2.01-1.2-3.44c0-1.43,0.41-2.59,1.21-3.449
		c0.8-0.851,1.88-1.291,3.2-1.291c1.319,0,2.39,0.431,3.189,1.291c0.8,0.859,1.21,2.02,1.21,3.449c0,1.431-0.399,2.591-1.2,3.44
		C222.117-324.064,221.037-323.635,219.697-323.635z"/>
	<path d="M239.067-323.844h-1.49c-0.11,0-0.141-0.021-0.141-0.141v-9.38c0-0.32-0.189-0.5-0.5-0.5h-2.13c-0.319,0-0.5,0.189-0.5,0.5
		s0.19,0.5,0.5,0.5h1.49c0.11,0,0.14,0.02,0.14,0.141v6.35c-0.31,0.5-0.68,0.96-1.079,1.37c-0.91,0.91-1.891,1.38-2.921,1.38
		c-1.029,0-1.84-0.29-2.43-0.851c-0.59-0.57-0.88-1.439-0.88-2.59v-6.3c0-0.32-0.19-0.5-0.5-0.5h-2.13c-0.311,0-0.5,0.189-0.5,0.5
		s0.189,0.5,0.5,0.5h1.49c0.109,0,0.14,0.02,0.14,0.141v5.649c0,1.42,0.39,2.529,1.15,3.3c0.77,0.761,1.859,1.15,3.25,1.15
		c1.399,0,2.71-0.671,3.88-1.99c0.01-0.01,0.01-0.01,0.02-0.021c0,0.03,0.01,0.061,0.01,0.101v1.19c0,0.319,0.19,0.5,0.5,0.5h2.131
		c0.319,0,0.5-0.19,0.5-0.5C239.567-323.654,239.386-323.844,239.067-323.844z"/>
	<path d="M247.846-324.814c-0.12,0-0.239,0.061-0.35,0.17c-0.71,0.67-1.46,1.021-2.21,1.021c-0.76,0-1.33-0.23-1.75-0.72
		c-0.42-0.48-0.641-1.221-0.641-2.19v-6.189c0-0.11,0.03-0.141,0.141-0.141h3.62c0.319,0,0.5-0.189,0.5-0.5s-0.19-0.5-0.5-0.5h-3.62
		c-0.11,0-0.141-0.02-0.141-0.141v-3.629c0-0.32-0.189-0.5-0.5-0.5c-0.319,0-0.51,0.189-0.51,0.5v3.629
		c0,0.11-0.02,0.141-0.13,0.141h-1.49c-0.319,0-0.5,0.189-0.5,0.5s0.19,0.5,0.5,0.5h1.49c0.11,0,0.13,0.02,0.13,0.141v6.189
		c0,1.25,0.3,2.22,0.9,2.89c0.6,0.68,1.439,1.021,2.479,1.021l0.221,0.01c0.109,0,0.39-0.05,1.59-0.46
		c0.359-0.18,0.72-0.45,1.069-0.8c0.061-0.06,0.24-0.24,0.2-0.41c0-0.13-0.069-0.25-0.22-0.41
		C248.027-324.795,247.917-324.814,247.846-324.814z"/>
	<path d="M274.056-323.844h-1.489c-0.11,0-0.141-0.021-0.141-0.141v-5.65c0-1.39-0.359-2.489-1.06-3.27
		c-0.71-0.78-1.61-1.18-2.681-1.18c-1.069,0-2.079,0.479-2.989,1.42c-0.311,0.319-0.59,0.68-0.84,1.06
		c-0.271-0.729-0.671-1.31-1.221-1.729c-0.64-0.49-1.399-0.74-2.27-0.74c-1.13,0-2.28,0.67-3.41,1.99
		c-0.01,0.01-0.021,0.02-0.021,0.02c0-0.03,0-0.06,0-0.1v-1.2c0-0.32-0.189-0.5-0.5-0.5h-2.13c-0.31,0-0.5,0.189-0.5,0.5
		s0.19,0.5,0.5,0.5h1.49c0.11,0,0.14,0.02,0.14,0.141v8.749c0,0.11-0.029,0.141-0.14,0.141h-1.49c-0.31,0-0.5,0.189-0.5,0.5
		c0,0.31,0.19,0.5,0.5,0.5h4.051c0.31,0,0.5-0.19,0.5-0.5c0-0.311-0.19-0.5-0.5-0.5h-1.28c-0.11,0-0.141-0.021-0.141-0.141v-6.35
		c0.311-0.51,0.65-0.96,1-1.36c0.811-0.92,1.631-1.39,2.431-1.39c0.819,0,1.47,0.29,2.01,0.88s0.81,1.45,0.81,2.56v5.65
		c0,0.11-0.029,0.141-0.14,0.141h-1.28c-0.319,0-0.5,0.189-0.5,0.5c0,0.31,0.19,0.5,0.5,0.5h3.841c0.319,0,0.5-0.19,0.5-0.5
		c0-0.311-0.19-0.5-0.5-0.5h-1.28c-0.11,0-0.141-0.021-0.141-0.141v-5.65c0-0.109-0.01-0.31-0.04-0.6
		c0.271-0.5,0.601-0.979,0.971-1.41c0.84-0.95,1.68-1.43,2.489-1.43c0.82,0,1.48,0.29,2.021,0.88s0.81,1.45,0.81,2.56v5.65
		c0,0.11-0.029,0.141-0.14,0.141h-1.28c-0.31,0-0.5,0.189-0.5,0.5c0,0.31,0.19,0.5,0.5,0.5h4.05c0.311,0,0.5-0.19,0.5-0.5
		C274.566-323.654,274.367-323.844,274.056-323.844z"/>
	<path d="M284.396-332.624c-0.97-0.971-2.239-1.46-3.77-1.46c-1.54,0-2.79,0.54-3.74,1.62c-0.939,1.069-1.42,2.45-1.42,4.109
		c0,1.66,0.48,3.04,1.42,4.11c0.95,1.07,2.221,1.62,3.771,1.62c1.06,0,1.95-0.171,2.64-0.5c0.68-0.32,1.29-0.72,1.811-1.171
		c0.14-0.119,0.21-0.239,0.229-0.359c0-0.07-0.01-0.18-0.11-0.29c-0.119-0.14-0.229-0.229-0.319-0.28
		c-0.15-0.07-0.311-0.02-0.5,0.15c-0.12,0.109-0.29,0.25-0.511,0.42c-0.829,0.68-1.899,1.03-3.18,1.03c-1.27,0-2.28-0.4-3-1.2
		c-0.729-0.8-1.14-1.82-1.22-3.02c-0.01-0.051,0-0.08,0-0.08c0.01-0.01,0.05-0.03,0.13-0.03h8.41c0.53,0,0.82-0.29,0.82-0.82v-0.319
		C285.857-330.464,285.367-331.654,284.396-332.624z M280.636-333.074c1.221,0,2.24,0.39,3.03,1.17s1.2,1.721,1.2,2.8
		c0,0.11-0.03,0.14-0.141,0.14h-8.08c-0.119,0-0.119-0.02-0.119-0.069c0-0.97,0.39-1.9,1.149-2.76
		C278.427-332.645,279.417-333.074,280.636-333.074z"/>
</g>
</svg>
