<?xml version="1.0" encoding="utf-8"?>
<!-- Generator: Adobe Illustrator 16.0.0, SVG Export Plug-In . SVG Version: 6.00 Build 0)  -->
<!DOCTYPE svg PUBLIC "-//W3C//DTD SVG 1.1//EN" "http://www.w3.org/Graphics/SVG/1.1/DTD/svg11.dtd">
<svg version="1.1" id="Calque_1" xmlns="http://www.w3.org/2000/svg" xmlns:xlink="http://www.w3.org/1999/xlink" x="0px" y="0px"
	 width="90px" height="45.875px" viewBox="4.58 -1.415 90 45.875" enable-background="new 4.58 -1.415 90 45.875"
	 xml:space="preserve">
<rect x="4.83" y="-1.347" fill="#FFFFFF" width="89.625" height="45.988"/>
<g>
	<path fill="#010101" d="M46.767,17.612H45.57c-0.06,0-0.146-0.017-0.224-0.171L40.76,5.521c-0.069-0.25-0.267-0.396-0.559-0.396
		c-0.293,0-0.491,0.138-0.551,0.378l-4.578,11.919c-0.104,0.189-0.198,0.189-0.224,0.189h-1.197c-0.266,0-0.43,0.164-0.43,0.431
		s0.164,0.43,0.43,0.43h3.486c0.275,0,0.43-0.164,0.43-0.43s-0.164-0.431-0.43-0.431h-1.102c-0.026,0-0.052,0-0.061,0
		c0.009-0.017,0.018-0.034,0.026-0.06l1.3-3.391c0.034-0.077,0.094-0.163,0.292-0.163h5.215c0.198,0,0.267,0.086,0.292,0.155
		l1.308,3.408c0.009,0.017,0.017,0.035,0.017,0.043c-0.017,0-0.035,0-0.06,0h-1.102c-0.267,0-0.43,0.164-0.43,0.431
		c0,0.267,0.164,0.43,0.43,0.43h3.485c0.267,0,0.43-0.164,0.43-0.43C47.18,17.767,47.034,17.612,46.767,17.612z M42.713,13.12
		c-0.017,0-0.043,0.008-0.077,0.008h-4.846c-0.034,0-0.06,0-0.077-0.008c0-0.009,0.008-0.035,0.025-0.052l2.479-6.438l2.479,6.446
		C42.705,13.103,42.713,13.12,42.713,13.12z"/>
	<path fill="#010101" d="M56.293,17.612h-1.281c-0.096,0-0.121-0.017-0.121-0.12V5.745c0-0.275-0.163-0.431-0.43-0.431h-1.834
		c-0.267,0-0.431,0.164-0.431,0.431c0,0.267,0.164,0.43,0.431,0.43h1.282c0.096,0,0.121,0.018,0.121,0.121v11.196
		c0,0.095-0.018,0.12-0.121,0.12h-1.282c-0.267,0-0.431,0.164-0.431,0.431s0.164,0.43,0.431,0.43h3.676
		c0.266,0,0.43-0.164,0.43-0.43S56.561,17.612,56.293,17.612z"/>
	<path fill="#010101" d="M59.616,7.827c0.249,0,0.464-0.086,0.636-0.258c0.173-0.172,0.258-0.387,0.258-0.637
		c0-0.25-0.085-0.464-0.258-0.637c-0.344-0.344-0.93-0.344-1.265,0c-0.172,0.172-0.259,0.387-0.259,0.637
		c0,0.25,0.087,0.465,0.259,0.637C59.15,7.741,59.365,7.827,59.616,7.827z"/>
	<path fill="#010101" d="M61.543,17.612h-1.281c-0.096,0-0.121-0.017-0.121-0.12V9.419c0-0.275-0.163-0.43-0.431-0.43h-1.833
		c-0.267,0-0.43,0.164-0.43,0.43s0.163,0.431,0.43,0.431h1.282c0.095,0,0.121,0.017,0.121,0.12v7.53
		c0,0.095-0.018,0.121-0.121,0.121h-1.282c-0.267,0-0.43,0.163-0.43,0.43c0,0.267,0.163,0.43,0.43,0.43h3.676
		c0.266,0,0.43-0.164,0.43-0.43C61.982,17.784,61.81,17.612,61.543,17.612z"/>
	<path fill="#010101" d="M69.1,16.777c-0.104,0-0.207,0.052-0.301,0.146c-0.612,0.577-1.258,0.878-1.903,0.878
		c-0.653,0-1.145-0.198-1.506-0.62c-0.361-0.413-0.551-1.05-0.551-1.885V9.97c0-0.095,0.019-0.12,0.12-0.12h3.125
		c0.267,0,0.431-0.164,0.431-0.431s-0.164-0.43-0.431-0.43h-3.125c-0.094,0-0.12-0.018-0.12-0.121V5.745
		c0-0.275-0.163-0.431-0.43-0.431s-0.431,0.164-0.431,0.431v3.124c0,0.095-0.018,0.121-0.12,0.121h-1.282
		c-0.268,0-0.431,0.164-0.431,0.43s0.163,0.431,0.431,0.431h1.282c0.095,0,0.12,0.017,0.12,0.12v5.327
		c0,1.076,0.258,1.911,0.774,2.487c0.517,0.585,1.239,0.878,2.135,0.878l0.189,0.009c0.095,0,0.335-0.043,1.368-0.396
		c0.31-0.155,0.619-0.388,0.921-0.689c0.051-0.052,0.206-0.207,0.172-0.353c0-0.112-0.061-0.215-0.19-0.353
		C69.254,16.786,69.16,16.777,69.1,16.777z"/>
	<path fill="#010101" d="M76.492,16.777c-0.104,0-0.207,0.052-0.302,0.146c-0.62,0.577-1.257,0.878-1.902,0.878
		c-0.653,0-1.145-0.198-1.506-0.62c-0.361-0.413-0.551-1.05-0.551-1.885V9.97c0-0.095,0.018-0.12,0.12-0.12h3.125
		c0.267,0,0.431-0.164,0.431-0.431s-0.164-0.43-0.431-0.43h-3.125c-0.094,0-0.12-0.018-0.12-0.121V5.745
		c0-0.275-0.164-0.431-0.43-0.431c-0.267,0-0.431,0.164-0.431,0.431v3.124c0,0.095-0.018,0.121-0.12,0.121h-1.282
		c-0.268,0-0.431,0.164-0.431,0.43s0.163,0.431,0.431,0.431h1.282c0.094,0,0.12,0.017,0.12,0.12v5.327
		c0,1.076,0.258,1.911,0.774,2.487c0.517,0.585,1.24,0.878,2.134,0.878l0.19,0.009c0.094,0,0.335-0.043,1.368-0.396
		c0.31-0.155,0.619-0.388,0.921-0.689c0.052-0.052,0.206-0.207,0.172-0.353c0-0.112-0.061-0.215-0.189-0.353
		C76.654,16.786,76.561,16.777,76.492,16.777z"/>
	<path fill="#010101" d="M81.113,17.612h-1.282c-0.096,0-0.12-0.017-0.12-0.12V5.745c0-0.275-0.164-0.431-0.431-0.431h-1.834
		c-0.267,0-0.43,0.164-0.43,0.431c0,0.267,0.163,0.43,0.43,0.43h1.282c0.096,0,0.121,0.018,0.121,0.121v11.196
		c0,0.095-0.018,0.12-0.121,0.12h-1.282c-0.267,0-0.43,0.164-0.43,0.431s0.163,0.43,0.43,0.43h3.676c0.274,0,0.43-0.164,0.43-0.43
		S81.38,17.612,81.113,17.612z"/>
	<path fill="#010101" d="M86.871,8.8c-1.318,0-2.402,0.465-3.219,1.394c-0.81,0.921-1.223,2.108-1.223,3.537
		s0.413,2.616,1.223,3.537c0.816,0.921,1.91,1.394,3.244,1.394c0.912,0,1.678-0.146,2.272-0.43c0.585-0.275,1.109-0.62,1.557-1.007
		c0.12-0.104,0.181-0.207,0.189-0.31c0.009-0.061-0.009-0.155-0.094-0.25c-0.104-0.121-0.198-0.198-0.276-0.241
		c-0.121-0.06-0.267-0.017-0.43,0.129c-0.104,0.095-0.25,0.215-0.438,0.362c-0.715,0.585-1.636,0.886-2.737,0.886
		c-1.093,0-1.963-0.344-2.581-1.033c-0.629-0.688-0.981-1.558-1.051-2.599c-0.009-0.043,0-0.069,0-0.069
		c0.009-0.009,0.043-0.026,0.111-0.026h7.229c0.458,0,0.706-0.25,0.706-0.706v-0.276c0-1.179-0.422-2.194-1.255-3.029
		C89.271,9.221,88.188,8.8,86.871,8.8z M86.871,9.669c1.049,0,1.927,0.335,2.607,1.007c0.68,0.671,1.023,1.48,1.023,2.41
		c0,0.095-0.018,0.121-0.119,0.121h-6.954c-0.104,0-0.104-0.017-0.104-0.061c0-0.834,0.336-1.635,0.99-2.375
		C84.969,10.039,85.82,9.669,86.871,9.669z"/>
	<path fill="#010101" d="M17.309,36.478h-1.282c-0.095,0-0.121-0.019-0.121-0.121v-5.509c0-0.894-0.335-1.66-0.99-2.271
		c-0.654-0.611-1.523-0.912-2.582-0.912c-1.359,0-2.513,0.379-3.416,1.109c-0.207,0.146-0.232,0.371-0.078,0.586
		c0.103,0.146,0.224,0.173,0.31,0.173c0.111,0,0.241-0.053,0.37-0.155c0.189-0.146,0.534-0.336,1.016-0.534
		c0.482-0.207,1.11-0.31,1.867-0.31c0.741,0,1.369,0.224,1.876,0.662c0.508,0.448,0.757,0.99,0.757,1.652v0.732
		c0,0.095-0.017,0.12-0.121,0.12h-3.029c-1.136,0-2.057,0.275-2.754,0.809c-0.714,0.551-1.067,1.257-1.067,2.117
		c0,0.853,0.319,1.558,0.938,2.092c0.611,0.533,1.515,0.8,2.693,0.8c0.663,0,1.309-0.18,1.919-0.542
		c0.603-0.361,1.076-0.758,1.412-1.171c0.008-0.009,0.008-0.009,0.017-0.017c0.008,0.025,0.008,0.052,0.008,0.086v1.024
		c0,0.275,0.164,0.43,0.43,0.43h1.833c0.267,0,0.43-0.164,0.43-0.43C17.747,36.632,17.575,36.478,17.309,36.478z M11.887,32.569
		h3.029c0.095,0,0.121,0.018,0.121,0.121v1.608c-0.129,0.225-0.267,0.43-0.413,0.629c-0.869,1.152-1.885,1.737-3.012,1.737
		c-0.912,0-1.592-0.197-2.04-0.576c-0.439-0.378-0.654-0.86-0.654-1.463c0-0.594,0.232-1.075,0.706-1.463
		C10.105,32.768,10.862,32.569,11.887,32.569z"/>
	<path fill="#010101" d="M23.031,27.844h-2.478c-0.095,0-0.121-0.017-0.121-0.12v-3.115c0-0.275-0.164-0.43-0.431-0.43h-1.833
		c-0.267,0-0.43,0.163-0.43,0.43c0,0.268,0.164,0.431,0.43,0.431h1.282c0.095,0,0.121,0.026,0.121,0.121v11.747
		c0,0.275,0.164,0.431,0.43,0.431c0.267,0,0.431-0.164,0.431-0.431v-1.024c0-0.043,0-0.069,0.009-0.095c0,0,0,0,0.008,0.008
		c0.318,0.405,0.774,0.801,1.368,1.18c0.628,0.37,1.352,0.551,2.134,0.551c1.265,0,2.298-0.447,3.055-1.325
		c0.757-0.878,1.136-2.082,1.136-3.58c0-1.522-0.465-2.711-1.377-3.528C25.88,28.267,24.615,27.844,23.031,27.844z M23.978,36.657
		c-0.972,0-1.867-0.396-2.65-1.188c-0.327-0.327-0.62-0.723-0.886-1.18v-5.456c0-0.094,0.017-0.12,0.12-0.12h2.479
		c1.351,0,2.41,0.336,3.142,0.989c0.731,0.654,1.101,1.627,1.101,2.901c0,1.281-0.31,2.288-0.93,3.003
		C25.742,36.304,24.951,36.657,23.978,36.657z"/>
	<path fill="#010101" d="M34.392,27.664c-1.369,0-2.504,0.464-3.365,1.368c-0.86,0.904-1.291,2.1-1.291,3.562
		c0,1.455,0.439,2.651,1.291,3.555c0.861,0.912,1.988,1.368,3.365,1.368c1.376,0,2.504-0.464,3.365-1.368
		c0.86-0.903,1.291-2.1,1.291-3.555c0-1.454-0.43-2.65-1.291-3.562C36.896,28.128,35.768,27.664,34.392,27.664z M34.392,36.657
		c-1.145,0-2.074-0.37-2.763-1.102c-0.68-0.731-1.033-1.729-1.033-2.961c0-1.23,0.353-2.229,1.041-2.969
		c0.688-0.731,1.618-1.109,2.754-1.109c1.136,0,2.057,0.37,2.745,1.109c0.688,0.74,1.042,1.738,1.042,2.969
		c0,1.231-0.344,2.229-1.033,2.961C36.474,36.287,35.544,36.657,34.392,36.657z"/>
	<path fill="#010101" d="M51.061,36.478h-1.282c-0.095,0-0.121-0.019-0.121-0.121v-8.072c0-0.276-0.164-0.431-0.43-0.431h-1.833
		c-0.275,0-0.43,0.164-0.43,0.431c0,0.266,0.163,0.43,0.43,0.43h1.282c0.095,0,0.121,0.018,0.121,0.12v5.465
		c-0.267,0.43-0.585,0.827-0.93,1.18c-0.783,0.783-1.626,1.187-2.513,1.187s-1.583-0.248-2.091-0.73
		c-0.508-0.491-0.757-1.239-0.757-2.229v-5.421c0-0.276-0.164-0.431-0.431-0.431h-1.833c-0.267,0-0.43,0.164-0.43,0.431
		c0,0.266,0.164,0.43,0.43,0.43h1.283c0.095,0,0.12,0.018,0.12,0.12v4.863c0,1.222,0.336,2.177,0.99,2.84
		c0.662,0.653,1.601,0.989,2.797,0.989c1.205,0,2.332-0.577,3.339-1.713c0.008-0.009,0.008-0.009,0.017-0.018
		c0,0.026,0.009,0.053,0.009,0.087v1.024c0,0.275,0.163,0.431,0.43,0.431h1.833c0.275,0,0.43-0.164,0.43-0.431
		C51.491,36.64,51.336,36.478,51.061,36.478z"/>
	<path fill="#010101" d="M58.617,35.642c-0.104,0-0.206,0.052-0.302,0.146c-0.61,0.576-1.256,0.877-1.901,0.877
		c-0.654,0-1.145-0.197-1.506-0.618c-0.361-0.414-0.552-1.051-0.552-1.885v-5.328c0-0.094,0.027-0.12,0.121-0.12h3.115
		c0.275,0,0.431-0.164,0.431-0.43c0-0.267-0.164-0.431-0.431-0.431h-3.115c-0.094,0-0.121-0.018-0.121-0.12v-3.125
		c0-0.275-0.163-0.43-0.43-0.43c-0.275,0-0.439,0.163-0.439,0.43v3.125c0,0.094-0.017,0.12-0.11,0.12h-1.283
		c-0.275,0-0.43,0.164-0.43,0.431c0,0.266,0.163,0.43,0.43,0.43h1.283c0.094,0,0.11,0.018,0.11,0.12v5.328
		c0,1.075,0.259,1.91,0.775,2.486c0.516,0.585,1.238,0.878,2.135,0.878l0.188,0.009c0.096,0,0.336-0.043,1.368-0.396
		c0.311-0.155,0.62-0.388,0.921-0.689c0.052-0.052,0.206-0.206,0.173-0.353c0-0.111-0.061-0.215-0.189-0.353
		C58.772,35.658,58.678,35.642,58.617,35.642z"/>
	<path fill="#010101" d="M81.173,36.478h-1.282c-0.095,0-0.119-0.019-0.119-0.121v-4.863c0-1.195-0.312-2.143-0.913-2.813
		c-0.611-0.672-1.385-1.016-2.306-1.016c-0.922,0-1.791,0.413-2.574,1.223c-0.267,0.275-0.507,0.585-0.723,0.911
		c-0.232-0.627-0.576-1.127-1.051-1.488c-0.55-0.422-1.204-0.637-1.953-0.637c-0.972,0-1.962,0.576-2.935,1.713
		c-0.008,0.008-0.017,0.017-0.017,0.017c0-0.025,0-0.052,0-0.086v-1.032c0-0.276-0.164-0.431-0.431-0.431h-1.833
		c-0.267,0-0.431,0.164-0.431,0.431c0,0.266,0.164,0.43,0.431,0.43h1.282c0.095,0,0.121,0.018,0.121,0.12v7.53
		c0,0.095-0.026,0.121-0.121,0.121h-1.282c-0.267,0-0.431,0.163-0.431,0.431c0,0.267,0.164,0.43,0.431,0.43h3.485
		c0.267,0,0.431-0.163,0.431-0.43c0-0.268-0.164-0.431-0.431-0.431h-1.102c-0.095,0-0.12-0.018-0.12-0.121V30.9
		c0.267-0.439,0.559-0.826,0.86-1.171c0.697-0.792,1.402-1.196,2.091-1.196c0.706,0,1.266,0.25,1.73,0.758
		c0.465,0.507,0.697,1.248,0.697,2.202v4.863c0,0.094-0.026,0.121-0.121,0.121h-1.101c-0.276,0-0.431,0.162-0.431,0.43
		c0,0.267,0.163,0.431,0.431,0.431h3.304c0.276,0,0.431-0.164,0.431-0.431c0-0.268-0.164-0.43-0.431-0.43H73.66
		c-0.095,0-0.12-0.019-0.12-0.121v-4.863c0-0.094-0.008-0.267-0.035-0.516c0.232-0.431,0.517-0.844,0.835-1.214
		c0.724-0.816,1.446-1.23,2.144-1.23c0.706,0,1.273,0.25,1.738,0.758c0.465,0.507,0.697,1.248,0.697,2.202v4.863
		c0,0.094-0.026,0.121-0.121,0.121h-1.101c-0.268,0-0.431,0.162-0.431,0.43c0,0.267,0.163,0.431,0.431,0.431h3.484
		c0.267,0,0.43-0.164,0.43-0.431C81.611,36.64,81.44,36.478,81.173,36.478z"/>
	<path fill="#010101" d="M90.071,28.92c-0.834-0.834-1.927-1.256-3.244-1.256c-1.325,0-2.401,0.464-3.219,1.394
		c-0.809,0.921-1.222,2.108-1.222,3.537s0.413,2.616,1.222,3.538c0.817,0.921,1.911,1.394,3.245,1.394
		c0.912,0,1.678-0.146,2.271-0.431c0.585-0.274,1.11-0.618,1.559-1.007c0.12-0.103,0.18-0.206,0.197-0.31
		c0-0.061-0.009-0.154-0.095-0.249c-0.103-0.12-0.198-0.198-0.275-0.241c-0.128-0.061-0.267-0.018-0.431,0.129
		c-0.103,0.095-0.249,0.215-0.439,0.361c-0.714,0.585-1.634,0.886-2.736,0.886c-1.092,0-1.961-0.344-2.581-1.032
		c-0.628-0.688-0.981-1.566-1.05-2.598c-0.009-0.044,0-0.069,0-0.069c0.009-0.01,0.043-0.027,0.111-0.027h7.238
		c0.455,0,0.705-0.248,0.705-0.705v-0.274C91.328,30.779,90.906,29.755,90.071,28.92z M86.836,28.533
		c1.051,0,1.928,0.336,2.607,1.007s1.033,1.48,1.033,2.41c0,0.095-0.026,0.12-0.121,0.12h-6.954c-0.103,0-0.103-0.018-0.103-0.061
		c0-0.834,0.336-1.635,0.99-2.375C84.935,28.903,85.786,28.533,86.836,28.533z"/>
</g>
</svg>
