<?xml version="1.0" encoding="utf-8"?>
<!-- Generator: Adobe Illustrator 16.0.0, SVG Export Plug-In . SVG Version: 6.00 Build 0)  -->
<!DOCTYPE svg PUBLIC "-//W3C//DTD SVG 1.1//EN" "http://www.w3.org/Graphics/SVG/1.1/DTD/svg11.dtd">
<svg version="1.1" id="Calque_1" xmlns="http://www.w3.org/2000/svg" xmlns:xlink="http://www.w3.org/1999/xlink" x="0px" y="0px"
	 width="8.57px" height="11.03px" viewBox="0 0 8.57 11.03" style="enable-background:new 0 0 8.57 11.03;" xml:space="preserve">
<path style="fill:#010101;" d="M8.51,11.01c-0.24,0-0.44-0.09-0.64-0.23c-0.01-0.01-0.01,0-0.02-0.01c0,0,0,0,0,0
	c-0.07-0.05-0.16-0.04-0.22-0.11l-0.03-0.04L3.94,6.26L0.28,1.91L0.24,1.86c-0.38-0.48-0.31-1.19,0.17-1.59
	c0.48-0.41,1.19-0.35,1.6,0.11l0.01,0.01l0.03,0.04L2.53,1l4.88,5.82l1.13,1.32l0.04-0.04v2.91c0,0-0.01,0-0.01,0
	C8.54,11.03,8.53,11.01,8.51,11.01z"/>
</svg>
