<?xml version="1.0" encoding="utf-8"?>
<!-- Generator: Adobe Illustrator 16.0.0, SVG Export Plug-In . SVG Version: 6.00 Build 0)  -->
<!DOCTYPE svg PUBLIC "-//W3C//DTD SVG 1.1//EN" "http://www.w3.org/Graphics/SVG/1.1/DTD/svg11.dtd">
<svg version="1.1" id="Calque_1" xmlns="http://www.w3.org/2000/svg" xmlns:xlink="http://www.w3.org/1999/xlink" x="0px" y="0px"
	 width="104px" height="200px" viewBox="0 0 104 200" style="enable-background:new 0 0 104 200;" xml:space="preserve">
<rect x="50.64" y="7.83" style="fill:#FFFFFF;" width="32.77" height="113.54"/>
<g>
	<path style="fill:#010101;" d="M67.22,105.54v5.67v0.05c0.02,0.62,0.53,1.12,1.15,1.12c0.62,0,1.13-0.5,1.15-1.12l0-0.01v-0.05
		v-0.73v-9.85v-0.73v-0.05l0-0.01c-0.02-0.62-0.53-1.11-1.15-1.11c-0.62,0-1.13,0.49-1.15,1.11v0.05V105.54z"/>
	<path style="fill:#010101;" d="M67.22,83.5v5.67v0.05c0.02,0.62,0.53,1.12,1.15,1.12c0.62,0,1.13-0.5,1.15-1.12l0-0.01v-0.05v-0.73
		v-9.85v-0.73v-0.05l0-0.01c-0.02-0.62-0.53-1.11-1.15-1.11c-0.62,0-1.13,0.49-1.15,1.11v0.05V83.5z"/>
	<path style="fill:#010101;" d="M67.22,61.45v5.67v0.05c0.02,0.62,0.53,1.12,1.15,1.12c0.62,0,1.13-0.5,1.15-1.12l0-0.01v-0.05
		v-0.73v-9.85v-0.73v-0.05l0-0.01c-0.02-0.62-0.53-1.11-1.15-1.11c-0.62,0-1.13,0.49-1.15,1.11v0.05V61.45z"/>
	<path style="fill:#010101;" d="M67.22,40.2v5.67v0.05c0.02,0.62,0.53,1.12,1.15,1.12c0.62,0,1.13-0.5,1.15-1.12l0-0.01v-0.05v-0.73
		v-9.85v-0.73v-0.05l0-0.01c-0.02-0.62-0.53-1.11-1.15-1.11c-0.62,0-1.13,0.49-1.15,1.11v0.05V40.2z"/>
	<path style="fill:#010101;" d="M60.27,21.44c0.48,0.4,1.19,0.35,1.6-0.11l0.01-0.01l0.03-0.04l0.47-0.56l4.87-5.81v2.65v6.88v0.05
		c0.02,0.62,0.53,1.12,1.15,1.12c0.62,0,1.13-0.5,1.15-1.12l0-0.01v-0.05v-0.73v-8.71l1.65,1.97l3.64,4.34l0.03,0.03
		c0.42,0.46,1.12,0.52,1.6,0.12c0.47-0.4,0.55-1.11,0.16-1.6l-0.01,0L76.6,19.8l-0.47-0.56l-6.33-7.54l-0.47-0.56l-0.03-0.04
		l-0.01-0.01c-0.06-0.06-0.15-0.06-0.22-0.1c0,0,0-0.01,0-0.01c-0.01-0.01-0.03,0-0.04-0.01c-0.19-0.12-0.37-0.22-0.59-0.22
		c-0.01,0-0.02-0.01-0.03-0.01c-0.02,0-0.03,0.02-0.05,0.02c-0.24,0-0.44,0.1-0.64,0.23c-0.01,0.01-0.01,0-0.02,0.01c0,0,0,0,0,0
		c-0.07,0.05-0.17,0.04-0.22,0.11l-0.03,0.04l-3.64,4.34l-3.65,4.34l-0.03,0.04C59.73,20.33,59.79,21.04,60.27,21.44z"/>
</g>
<rect x="6.3" y="120.16" style="fill:#FFFFFF;" width="95.77" height="76.88"/>
<g>
	<path d="M13.06,145.18c-0.01,0-0.01,0-0.02,0h-2.19c-0.56,0-0.92,0.36-0.92,0.92c0,0.56,0.36,0.92,0.92,0.92h10.82
		c2.02,0,3.61-0.58,4.73-1.74c1.12-1.15,1.68-2.64,1.68-4.42c0-3.22-1.29-5.3-3.83-6.18c1.5-1.05,2.26-2.58,2.26-4.58
		c0-1.68-0.57-3.11-1.7-4.24c-1.13-1.13-2.61-1.7-4.39-1.7h-9.56c-0.57,0-0.92,0.35-0.92,0.92c0,0.56,0.36,0.92,0.92,0.92h2.19
		c0.01,0,0.02,0,0.02,0c0,0.01,0,0.01,0,0.02v19.13C13.06,145.17,13.06,145.18,13.06,145.18z M21.66,145.18h-6.74
		c-0.01,0-0.02,0-0.02,0c0-0.01,0-0.01,0-0.02v-9.09c0-0.01,0-0.01,0-0.02c0.01,0,0.01,0,0.02,0h6.74c1.43,0,2.57,0.4,3.37,1.2
		c0.8,0.8,1.2,1.93,1.2,3.37s-0.4,2.57-1.2,3.37C24.23,144.78,23.1,145.18,21.66,145.18z M20.56,134.21h-5.64c-0.01,0-0.02,0-0.02,0
		c0-0.01,0-0.01,0-0.02v-8.15c0-0.01,0-0.02,0-0.02c0.01,0,0.01,0,0.02,0h5.49c1.31,0,2.36,0.38,3.12,1.14
		c0.77,0.77,1.14,1.72,1.14,2.9c0,1.17-0.39,2.17-1.16,2.97C22.72,133.82,21.76,134.21,20.56,134.21z"/>
	<path d="M46.15,145.18h-2.19c-0.01,0-0.01,0-0.02,0c0-0.01,0-0.01,0-0.02v-9.41c0-1.58-0.59-2.93-1.74-4.01
		c-1.15-1.07-2.67-1.61-4.54-1.61c-2.37,0-4.37,0.65-5.94,1.93c-0.43,0.32-0.5,0.8-0.18,1.25c0.23,0.32,0.52,0.37,0.68,0.37
		c0.24,0,0.48-0.1,0.75-0.31c0.32-0.25,0.9-0.56,1.7-0.9c0.8-0.34,1.85-0.51,3.12-0.51c1.22,0,2.26,0.37,3.09,1.1
		c0.83,0.72,1.23,1.6,1.23,2.69v1.26c0,0.01,0,0.02,0,0.02c-0.01,0-0.01,0-0.02,0H36.9c-1.97,0-3.59,0.48-4.82,1.42
		c-1.26,0.97-1.9,2.24-1.9,3.76c0,1.51,0.56,2.76,1.66,3.71c1.08,0.94,2.67,1.41,4.72,1.41c1.16,0,2.29-0.32,3.37-0.96
		c0.9-0.53,1.63-1.11,2.17-1.72v1.44c0,0.56,0.36,0.92,0.92,0.92h3.14c0.56,0,0.92-0.36,0.92-0.92
		C47.07,145.54,46.71,145.18,46.15,145.18z M36.9,138.87h5.17c0.01,0,0.02,0,0.02,0c0,0.01,0,0.01,0,0.02v2.7
		c-0.21,0.37-0.43,0.7-0.66,1.01c-1.45,1.92-3.14,2.9-5,2.9c-1.51,0-2.64-0.32-3.36-0.94c-0.71-0.62-1.05-1.39-1.05-2.36
		c0-0.97,0.37-1.74,1.14-2.36C33.93,139.19,35.19,138.87,36.9,138.87z"/>
	<path d="M56.24,147.33c1.58,0,2.92-0.25,3.97-0.73c1.03-0.48,1.92-1.04,2.65-1.69c0.29-0.28,0.41-0.51,0.41-0.74
		c0-0.2-0.09-0.41-0.26-0.62c-0.15-0.18-0.3-0.3-0.47-0.39c-0.28-0.13-0.6-0.05-0.93,0.24c-0.18,0.16-0.43,0.36-0.77,0.61
		c-1.21,0.98-2.74,1.47-4.55,1.47c-1.8,0-3.27-0.61-4.37-1.81c-1.11-1.21-1.67-2.86-1.67-4.89c0-2.03,0.53-3.71,1.58-4.98
		c1.06-1.23,2.38-1.85,3.93-1.85c2.08,0,3.93,1.01,5.51,3v1.41c0,0.56,0.36,0.92,0.92,0.92c0.56,0,0.92-0.36,0.92-0.92v-5.02
		c0-0.56-0.36-0.92-0.92-0.92c-0.56,0-0.92,0.36-0.92,0.92v1c-1.59-1.48-3.41-2.23-5.43-2.23c-2.14,0-3.94,0.82-5.34,2.43
		c-1.38,1.59-2.09,3.67-2.09,6.17c0,2.5,0.72,4.58,2.14,6.18C51.99,146.52,53.9,147.33,56.24,147.33z"/>
	<path d="M67.77,145.18c-0.01,0-0.01,0-0.02,0h-2.2c-0.56,0-0.92,0.36-0.92,0.92c0,0.56,0.36,0.92,0.92,0.92h5.96
		c0.56,0,0.92-0.36,0.92-0.92c0-0.56-0.36-0.92-0.92-0.92h-1.88c-0.01,0-0.01,0-0.02,0c0-0.01,0-0.01,0-0.02v-2.93l3.05-3.35
		l4.58,6.3h-1.34c-0.56,0-0.92,0.36-0.92,0.92c0,0.56,0.36,0.92,0.92,0.92h5.96c0.56,0,0.92-0.36,0.92-0.92
		c0-0.56-0.36-0.92-0.92-0.92h-2.04c-0.11,0-0.27-0.11-0.42-0.29l-5.43-7.45l4.44-4.83c0.33-0.33,0.49-0.34,0.5-0.34h2.01
		c0.56,0,0.92-0.36,0.92-0.92s-0.36-0.92-0.92-0.92h-6.15c-0.56,0-0.92,0.36-0.92,0.92s0.36,0.92,0.92,0.92h1.33l-6.49,7.08v-14.27
		c0-0.57-0.35-0.92-0.92-0.92h-3.13c-0.57,0-0.92,0.35-0.92,0.92c0,0.56,0.36,0.92,0.92,0.92h2.2c0.01,0,0.01,0,0.02,0
		c0,0.01,0,0.01,0,0.02v19.13C67.77,145.17,67.77,145.18,67.77,145.18z"/>
	<path d="M21.02,181.38c-0.23,0-0.44,0.1-0.64,0.3c-1.02,0.96-2.07,1.45-3.13,1.45c-1.06,0-1.85-0.33-2.44-0.99
		c-0.59-0.68-0.89-1.72-0.89-3.1v-9.09c0-0.01,0-0.02,0-0.02c0.01,0,0.01,0,0.02,0h5.33c0.56,0,0.92-0.36,0.92-0.92
		c0-0.56-0.36-0.92-0.92-0.92h-5.33c-0.01,0-0.02,0-0.02,0c0-0.01,0-0.01,0-0.02v-5.33c0-0.57-0.35-0.92-0.92-0.92
		c-0.56,0-0.92,0.36-0.92,0.92v5.33c0,0.01,0,0.01,0,0.02c-0.01,0-0.01,0-0.02,0h-2.2c-0.56,0-0.92,0.36-0.92,0.92
		c0,0.56,0.36,0.92,0.92,0.92h2.2c0.01,0,0.01,0,0.02,0c0,0.01,0,0.01,0,0.02v9.09c0,1.88,0.46,3.35,1.37,4.37
		c0.92,1.03,2.19,1.56,3.75,1.56c0,0,0,0,0.01,0l0.35,0.02c0.2,0,0.62-0.08,2.42-0.69c0.55-0.28,1.09-0.69,1.62-1.21
		c0.1-0.1,0.42-0.42,0.35-0.72c0-0.24-0.13-0.47-0.38-0.72C21.37,181.42,21.16,181.38,21.02,181.38z"/>
	<path d="M30.85,167.76c-2.4,0-4.37,0.81-5.88,2.4c-1.5,1.58-2.26,3.67-2.26,6.2s0.76,4.62,2.26,6.2c1.5,1.59,3.48,2.4,5.88,2.4
		c2.4,0,4.38-0.81,5.88-2.4c1.5-1.58,2.26-3.67,2.26-6.2s-0.76-4.62-2.26-6.2C35.22,168.57,33.24,167.76,30.85,167.76z
		 M30.85,183.12c-1.91,0-3.45-0.61-4.58-1.82c-1.14-1.21-1.71-2.87-1.71-4.93c0-2.05,0.58-3.72,1.73-4.95
		c1.14-1.22,2.68-1.83,4.56-1.83c1.89,0,3.42,0.62,4.56,1.83c1.15,1.23,1.73,2.89,1.73,4.95c0,2.06-0.58,3.71-1.71,4.93
		C34.3,182.51,32.76,183.12,30.85,183.12z"/>
	<path d="M61,181.38c-0.23,0-0.44,0.1-0.64,0.3c-1.02,0.96-2.07,1.45-3.12,1.45s-1.85-0.33-2.44-0.99c-0.59-0.68-0.89-1.72-0.89-3.1
		v-9.09c0-0.01,0-0.02,0-0.02c0.01,0,0.01,0,0.02,0h5.33c0.56,0,0.92-0.36,0.92-0.92c0-0.56-0.36-0.92-0.92-0.92h-5.33
		c-0.01,0-0.01,0-0.02,0c0-0.01,0-0.01,0-0.02v-5.33c0-0.57-0.35-0.92-0.92-0.92c-0.56,0-0.92,0.36-0.92,0.92v5.33
		c0,0.01,0,0.01,0,0.02c-0.01,0-0.01,0-0.02,0h-2.19c-0.56,0-0.92,0.36-0.92,0.92c0,0.56,0.36,0.92,0.92,0.92h2.19
		c0.01,0,0.02,0,0.02,0c0,0.01,0,0.01,0,0.02v9.09c0,1.88,0.46,3.35,1.37,4.37c0.92,1.03,2.19,1.56,3.76,1.56c0,0,0,0,0,0l0.35,0.02
		c0.2,0,0.62-0.08,2.42-0.69c0.55-0.28,1.09-0.69,1.62-1.21c0.1-0.1,0.42-0.42,0.35-0.72c0-0.23-0.13-0.47-0.38-0.72
		C61.35,181.42,61.14,181.38,61,181.38z"/>
	<path d="M70.83,167.76c-2.4,0-4.38,0.81-5.88,2.4c-1.5,1.58-2.25,3.67-2.25,6.2s0.76,4.62,2.25,6.2c1.5,1.59,3.48,2.4,5.88,2.4
		c2.4,0,4.37-0.81,5.88-2.4c1.5-1.58,2.25-3.67,2.25-6.2s-0.76-4.62-2.25-6.2C75.2,168.57,73.22,167.76,70.83,167.76z M70.83,183.12
		c-1.91,0-3.45-0.61-4.58-1.82c-1.14-1.22-1.71-2.87-1.71-4.93s0.58-3.72,1.73-4.95c1.14-1.22,2.68-1.83,4.57-1.83
		c1.89,0,3.42,0.62,4.56,1.83c1.15,1.23,1.73,2.89,1.73,4.95c0,2.06-0.58,3.72-1.71,4.93C74.28,182.51,72.74,183.12,70.83,183.12z"
		/>
	<path d="M96.22,170.13c-1.34-1.57-3.14-2.37-5.36-2.37c-1.4,0-2.65,0.33-3.72,0.99c-0.89,0.54-1.6,1.11-2.11,1.67v-1.43
		c0-0.56-0.36-0.92-0.92-0.92h-3.13c-0.56,0-0.92,0.36-0.92,0.92c0,0.56,0.36,0.92,0.92,0.92h2.2c0.01,0,0.02,0,0.02,0
		c0,0.01,0,0.01,0,0.02v19.13c0,0.01,0,0.02,0,0.02c-0.01,0-0.01,0-0.02,0h-2.2c-0.56,0-0.92,0.36-0.92,0.92
		c0,0.57,0.35,0.92,0.92,0.92h6.59c0.57,0,0.92-0.35,0.92-0.92c0-0.56-0.36-0.92-0.92-0.92h-2.51c-0.01,0-0.01,0-0.02,0
		c0-0.01,0-0.02,0-0.02v-4.39c0-0.01,0-0.02,0-0.02c0.01,0,0.01,0,0.02,0h4.23c2.74,0,4.93-0.73,6.51-2.16
		c1.59-1.46,2.4-3.53,2.4-6.13C98.21,173.77,97.54,171.68,96.22,170.13z M89.29,182.81h-4.23c-0.01,0-0.01,0-0.02,0
		c0-0.01,0-0.01,0-0.02v-9.28c0.44-0.73,0.93-1.37,1.47-1.91c1.33-1.33,2.81-2,4.42-2c1.59,0,2.91,0.58,3.91,1.73
		c1.02,1.17,1.53,2.85,1.53,5.01c0,2.14-0.61,3.77-1.81,4.84C93.34,182.26,91.57,182.81,89.29,182.81z"/>
</g>
</svg>
