<?xml version="1.0" encoding="utf-8"?>
<!-- Generator: Adobe Illustrator 16.0.0, SVG Export Plug-In . SVG Version: 6.00 Build 0)  -->
<!DOCTYPE svg PUBLIC "-//W3C//DTD SVG 1.1//EN" "http://www.w3.org/Graphics/SVG/1.1/DTD/svg11.dtd">
<svg version="1.1" id="Calque_1" xmlns="http://www.w3.org/2000/svg" xmlns:xlink="http://www.w3.org/1999/xlink" x="0px" y="0px"
	 width="841.89px" height="25.12px" viewBox="0 0 841.89 25.12" style="enable-background:new 0 0 841.89 25.12;"
	 xml:space="preserve">
<g>
	<path d="M75.2,13.38h3.76c0.27,0.01,0.48,0.22,0.48,0.49s-0.21,0.49-0.5,0.49h-3.49l-0.23,0l-0.02,0l-0.02,0
		c-0.26-0.01-0.48-0.23-0.48-0.49C74.7,13.61,74.91,13.39,75.2,13.38z"/>
	<path d="M67.92,13.38h3.76c0.27,0.01,0.48,0.22,0.48,0.49c0,0.26-0.21,0.49-0.5,0.49h-3.49l-0.23,0l-0.02,0l-0.02,0
		c-0.27-0.01-0.48-0.23-0.48-0.49S67.64,13.39,67.92,13.38z"/>
	<path d="M60.65,13.38h3.76c0.27,0.01,0.48,0.22,0.48,0.49s-0.21,0.49-0.5,0.49H60.9l-0.23,0l-0.02,0l-0.02,0
		c-0.27-0.01-0.48-0.23-0.48-0.49S60.36,13.39,60.65,13.38z"/>
	<path d="M53.38,13.38h3.76c0.27,0.01,0.48,0.22,0.48,0.49s-0.21,0.49-0.48,0.49l-3.75,0l0,0l-0.03,0
		c-0.27-0.01-0.48-0.23-0.48-0.49S53.09,13.39,53.38,13.38z"/>
	<path d="M46.11,13.38h3.76c0.27,0.01,0.48,0.22,0.48,0.49s-0.21,0.49-0.5,0.49h-3.49l-0.23,0l-0.02,0l-0.01,0
		c-0.27-0.01-0.48-0.23-0.48-0.49S45.82,13.39,46.11,13.38z"/>
	<path d="M38.67,13.38h3.76c0.27,0.01,0.48,0.22,0.48,0.49s-0.21,0.49-0.5,0.49h-3.49l-0.23,0l-0.02,0l-0.02,0
		c-0.27-0.01-0.48-0.23-0.48-0.49S38.39,13.39,38.67,13.38z"/>
	<path d="M31.41,13.38h3.76c0.27,0.01,0.48,0.22,0.48,0.49s-0.21,0.49-0.5,0.49h-3.49l-0.23,0l-0.02,0l-0.01,0
		c-0.26-0.01-0.48-0.23-0.48-0.49C30.91,13.61,31.12,13.39,31.41,13.38z"/>
	<path d="M24.14,13.38h3.76c0.27,0.01,0.48,0.22,0.48,0.49s-0.21,0.49-0.48,0.49l-3.51,0l-0.23,0l-0.02,0l-0.02,0
		c-0.26-0.01-0.48-0.23-0.48-0.49C23.64,13.61,23.85,13.39,24.14,13.38z"/>
	<path d="M16.87,13.38h3.76c0.27,0.01,0.48,0.22,0.48,0.49s-0.21,0.49-0.5,0.49h-3.49l-0.23,0l-0.02,0l-0.02,0
		c-0.27-0.01-0.48-0.23-0.48-0.49S16.58,13.39,16.87,13.38z"/>
	<path d="M9.59,13.38h3.76c0.27,0.01,0.48,0.22,0.48,0.49s-0.21,0.49-0.48,0.49l-3.51,0l-0.23,0l-0.02,0l-0.02,0
		c-0.26-0.01-0.48-0.23-0.48-0.49C9.1,13.61,9.3,13.39,9.59,13.38z"/>
	<path d="M140.76,13.38h3.76c0.27,0.01,0.48,0.22,0.48,0.49s-0.21,0.49-0.5,0.49H141l-0.23,0l-0.02,0l-0.02,0
		c-0.27-0.01-0.48-0.23-0.48-0.49S140.47,13.39,140.76,13.38z"/>
	<path d="M133.49,13.38h3.76c0.27,0.01,0.48,0.22,0.48,0.49s-0.21,0.49-0.5,0.49h-3.49l-0.23,0l-0.02,0l-0.02,0
		c-0.26-0.01-0.48-0.23-0.48-0.49C132.99,13.61,133.2,13.39,133.49,13.38z"/>
	<path d="M126.21,13.38h3.76c0.27,0.01,0.48,0.22,0.48,0.49s-0.21,0.49-0.48,0.49l-3.51,0l-0.23,0l-0.02,0l-0.02,0
		c-0.26-0.01-0.48-0.23-0.48-0.49C125.72,13.61,125.93,13.39,126.21,13.38z"/>
	<path d="M118.94,13.38h3.76c0.27,0.01,0.48,0.22,0.48,0.49s-0.21,0.49-0.5,0.49h-3.49l-0.23,0l-0.02,0l-0.02,0
		c-0.27-0.01-0.48-0.23-0.48-0.49S118.65,13.39,118.94,13.38z"/>
	<path d="M111.67,13.38h3.76c0.27,0.01,0.48,0.22,0.48,0.49s-0.21,0.49-0.48,0.49l-3.51,0l-0.23,0l-0.02,0l-0.02,0
		c-0.26-0.01-0.48-0.23-0.48-0.49C111.17,13.61,111.38,13.39,111.67,13.38z"/>
	<path d="M104.23,13.38H108c0.27,0.01,0.48,0.22,0.48,0.49s-0.21,0.49-0.48,0.49l-3.51,0l-0.23,0l-0.02,0l-0.02,0
		c-0.26-0.01-0.48-0.23-0.48-0.49C103.74,13.61,103.95,13.39,104.23,13.38z"/>
	<path d="M96.97,13.38h3.76c0.27,0.01,0.48,0.22,0.48,0.49c0,0.26-0.21,0.49-0.5,0.49h-3.49l-0.23,0l-0.02,0l-0.02,0
		c-0.27-0.01-0.48-0.23-0.48-0.49S96.68,13.39,96.97,13.38z"/>
	<path d="M89.7,13.38h3.76c0.27,0.01,0.48,0.22,0.48,0.49s-0.21,0.49-0.5,0.49h-3.49l-0.23,0l-0.02,0l-0.02,0
		c-0.27-0.01-0.48-0.23-0.48-0.49S89.41,13.39,89.7,13.38z"/>
	<path d="M82.43,13.38h3.76c0.27,0.01,0.48,0.22,0.48,0.49s-0.21,0.49-0.48,0.49l-3.75,0l0,0l-0.03,0
		c-0.27-0.01-0.48-0.23-0.48-0.49S82.14,13.39,82.43,13.38z"/>
	<path d="M206.37,13.38h3.76c0.27,0.01,0.48,0.22,0.48,0.49s-0.21,0.49-0.5,0.49h-3.49l-0.23,0l-0.02,0l-0.02,0
		c-0.27-0.01-0.48-0.23-0.48-0.49S206.08,13.39,206.37,13.38z"/>
	<path d="M199.09,13.38h3.76c0.27,0.01,0.48,0.22,0.48,0.49s-0.21,0.49-0.5,0.49h-3.49l-0.23,0l-0.02,0l-0.02,0
		c-0.27-0.01-0.48-0.23-0.48-0.49S198.81,13.39,199.09,13.38z"/>
	<path d="M191.82,13.38h3.76c0.27,0.01,0.48,0.22,0.48,0.49s-0.21,0.49-0.5,0.49h-3.49l-0.23,0l-0.02,0l-0.02,0
		c-0.27-0.01-0.48-0.23-0.48-0.49S191.53,13.39,191.82,13.38z"/>
	<path d="M184.55,13.38h3.76c0.27,0.01,0.48,0.22,0.48,0.49s-0.21,0.49-0.5,0.49h-3.73l-0.01,0l-0.02,0
		c-0.27-0.01-0.48-0.23-0.48-0.49S184.26,13.39,184.55,13.38z"/>
	<path d="M177.28,13.38h3.76c0.27,0.01,0.48,0.22,0.48,0.49s-0.21,0.49-0.5,0.49h-3.49l-0.23,0l-0.02,0l-0.02,0
		c-0.27-0.01-0.48-0.23-0.48-0.49S176.99,13.39,177.28,13.38z"/>
	<path d="M169.84,13.38h3.76c0.27,0.01,0.48,0.22,0.48,0.49s-0.21,0.49-0.5,0.49h-3.49l-0.23,0l-0.02,0l-0.02,0
		c-0.27-0.01-0.48-0.23-0.48-0.49S169.55,13.39,169.84,13.38z"/>
	<path d="M162.58,13.38h3.76c0.27,0.01,0.48,0.22,0.48,0.49s-0.21,0.49-0.5,0.49h-3.49l-0.23,0l-0.02,0l-0.02,0
		c-0.27-0.01-0.48-0.23-0.48-0.49S162.29,13.39,162.58,13.38z"/>
	<path d="M155.31,13.38h3.76c0.27,0.01,0.48,0.22,0.48,0.49s-0.21,0.49-0.5,0.49h-3.49l-0.23,0l-0.02,0l-0.02,0
		c-0.27-0.01-0.48-0.23-0.48-0.49S155.02,13.39,155.31,13.38z"/>
	<path d="M148.03,13.38h3.76c0.27,0.01,0.48,0.22,0.48,0.49s-0.21,0.49-0.5,0.49h-3.73l-0.01,0l-0.02,0
		c-0.27-0.01-0.48-0.23-0.48-0.49S147.75,13.39,148.03,13.38z"/>
	<path d="M228.14,13.38h3.76c0.27,0.01,0.48,0.22,0.48,0.49s-0.21,0.49-0.5,0.49h-3.49l-0.23,0l-0.02,0l-0.02,0
		c-0.27-0.01-0.48-0.23-0.48-0.49S227.85,13.39,228.14,13.38z"/>
	<path d="M220.87,13.38h3.76c0.27,0.01,0.48,0.22,0.48,0.49s-0.21,0.49-0.5,0.49h-3.49l-0.23,0l-0.02,0l-0.01,0
		c-0.27-0.01-0.48-0.23-0.48-0.49S220.58,13.39,220.87,13.38z"/>
	<path d="M213.6,13.38h3.76c0.27,0.01,0.48,0.22,0.48,0.49s-0.21,0.49-0.5,0.49h-3.73l-0.01,0l-0.02,0
		c-0.27-0.01-0.48-0.23-0.48-0.49S213.31,13.39,213.6,13.38z"/>
	<path d="M250.01,13.38h3.76c0.27,0.01,0.48,0.22,0.48,0.49s-0.21,0.49-0.5,0.49h-3.49l-0.23,0l-0.02,0l-0.02,0
		c-0.27-0.01-0.48-0.23-0.48-0.49S249.72,13.39,250.01,13.38z"/>
	<path d="M242.74,13.38h3.76c0.27,0.01,0.48,0.22,0.48,0.49s-0.21,0.49-0.5,0.49h-3.49l-0.23,0l-0.02,0l-0.02,0
		c-0.27-0.01-0.48-0.23-0.48-0.49S242.45,13.39,242.74,13.38z"/>
	<path d="M235.47,13.38h3.76c0.27,0.01,0.48,0.22,0.48,0.49s-0.21,0.49-0.5,0.49h-3.49l-0.23,0l-0.02,0l-0.02,0
		c-0.27-0.01-0.48-0.23-0.48-0.49S235.18,13.39,235.47,13.38z"/>
	<path d="M271.79,13.38h3.76c0.27,0.01,0.48,0.22,0.48,0.49s-0.21,0.49-0.5,0.49h-3.49l-0.23,0l-0.02,0l-0.02,0
		c-0.27-0.01-0.48-0.23-0.48-0.49S271.5,13.39,271.79,13.38z"/>
	<path d="M264.51,13.38h3.76c0.27,0.01,0.48,0.22,0.48,0.49s-0.21,0.49-0.5,0.49h-3.49l-0.23,0l-0.02,0l-0.02,0
		c-0.27-0.01-0.48-0.23-0.48-0.49S264.23,13.39,264.51,13.38z"/>
	<path d="M257.24,13.38H261c0.27,0.01,0.48,0.22,0.48,0.49s-0.21,0.49-0.5,0.49h-3.73l-0.01,0l-0.02,0
		c-0.27-0.01-0.48-0.23-0.48-0.49S256.96,13.39,257.24,13.38z"/>
	<path d="M315.56,13.38h3.76c0.27,0.01,0.48,0.22,0.48,0.49s-0.21,0.49-0.5,0.49h-3.49l-0.23,0l-0.02,0l-0.02,0
		c-0.27-0.01-0.48-0.23-0.48-0.49S315.27,13.39,315.56,13.38z"/>
	<path d="M308.28,13.38h3.76c0.27,0.01,0.48,0.22,0.48,0.49s-0.21,0.49-0.5,0.49h-3.49l-0.23,0l-0.02,0l-0.02,0
		c-0.27-0.01-0.48-0.23-0.48-0.49S308,13.39,308.28,13.38z"/>
	<path d="M301.01,13.38h3.76c0.27,0.01,0.48,0.22,0.48,0.49s-0.21,0.49-0.5,0.49h-3.49l-0.23,0l-0.02,0l-0.02,0
		c-0.27-0.01-0.48-0.23-0.48-0.49S300.72,13.39,301.01,13.38z"/>
	<path d="M293.74,13.38h3.76c0.27,0.01,0.48,0.22,0.48,0.49s-0.21,0.49-0.5,0.49h-3.73l-0.01,0l-0.02,0
		c-0.27-0.01-0.48-0.23-0.48-0.49S293.45,13.39,293.74,13.38z"/>
	<path d="M286.47,13.38h3.76c0.27,0.01,0.48,0.22,0.48,0.49s-0.21,0.49-0.5,0.49h-3.49l-0.23,0l-0.02,0l-0.02,0
		c-0.27-0.01-0.48-0.23-0.48-0.49S286.18,13.39,286.47,13.38z"/>
	<path d="M279.03,13.38h3.76c0.27,0.01,0.48,0.22,0.48,0.49s-0.21,0.49-0.5,0.49h-3.49l-0.23,0l-0.02,0l-0.02,0
		c-0.27-0.01-0.48-0.23-0.48-0.49S278.74,13.39,279.03,13.38z"/>
	<path d="M322.79,13.38h3.76c0.27,0.01,0.48,0.22,0.48,0.49s-0.21,0.49-0.5,0.49h-3.73l-0.01,0l-0.02,0
		c-0.27-0.01-0.48-0.23-0.48-0.49S322.5,13.39,322.79,13.38z"/>
	<path d="M1.63,13.84L1.63,13.84c0.01-0.09,0.04-0.16,0.08-0.22l0-0.09h0.04c0.01-0.02,0.02-0.04,0.05-0.06l2.88-2.42
		c0.2-0.16,0.52-0.12,0.68,0.07c0.17,0.2,0.15,0.5-0.07,0.7l-1.86,1.56h2.85c0.27,0.01,0.48,0.23,0.48,0.49
		c0,0.27-0.21,0.48-0.48,0.49l-2.83,0l1.86,1.56c0.2,0.18,0.22,0.48,0.05,0.68c-0.09,0.11-0.23,0.18-0.38,0.18
		c-0.11,0-0.22-0.04-0.32-0.12l-2.67-2.24L1.8,14.28l-0.03-0.02c-0.03-0.02-0.04-0.05-0.04-0.07l-0.02-0.05
		c-0.04-0.06-0.07-0.13-0.08-0.21l-0.01-0.01L1.63,13.84z"/>
</g>
<g>
	<path d="M767.02,13.38h-3.76c-0.27,0.01-0.48,0.22-0.48,0.49s0.21,0.49,0.5,0.49h3.49l0.23,0l0.02,0l0.02,0
		c0.26-0.01,0.48-0.23,0.48-0.49C767.52,13.61,767.31,13.39,767.02,13.38z"/>
	<path d="M774.3,13.38h-3.76c-0.27,0.01-0.48,0.22-0.48,0.49c0,0.26,0.21,0.49,0.5,0.49h3.49l0.23,0l0.02,0l0.02,0
		c0.27-0.01,0.48-0.23,0.48-0.49S774.58,13.39,774.3,13.38z"/>
	<path d="M781.57,13.38h-3.76c-0.27,0.01-0.48,0.22-0.48,0.49s0.21,0.49,0.5,0.49h3.49l0.23,0l0.02,0l0.02,0
		c0.27-0.01,0.48-0.23,0.48-0.49S781.86,13.39,781.57,13.38z"/>
	<path d="M788.84,13.38h-3.76c-0.27,0.01-0.48,0.22-0.48,0.49s0.21,0.49,0.48,0.49l3.75,0l0,0l0.03,0c0.27-0.01,0.48-0.23,0.48-0.49
		S789.13,13.39,788.84,13.38z"/>
	<path d="M796.11,13.38h-3.76c-0.27,0.01-0.48,0.22-0.48,0.49s0.21,0.49,0.5,0.49h3.49l0.23,0l0.02,0l0.02,0
		c0.27-0.01,0.48-0.23,0.48-0.49S796.4,13.39,796.11,13.38z"/>
	<path d="M803.55,13.38h-3.76c-0.27,0.01-0.48,0.22-0.48,0.49s0.21,0.49,0.5,0.49h3.49l0.23,0l0.02,0l0.02,0
		c0.27-0.01,0.48-0.23,0.48-0.49S803.84,13.39,803.55,13.38z"/>
	<path d="M810.81,13.38h-3.76c-0.27,0.01-0.48,0.22-0.48,0.49s0.21,0.49,0.5,0.49h3.49l0.23,0l0.02,0l0.02,0
		c0.26-0.01,0.48-0.23,0.48-0.49C811.31,13.61,811.1,13.39,810.81,13.38z"/>
	<path d="M818.08,13.38h-3.76c-0.27,0.01-0.48,0.22-0.48,0.49s0.21,0.49,0.48,0.49l3.51,0l0.23,0l0.02,0l0.02,0
		c0.26-0.01,0.48-0.23,0.48-0.49C818.58,13.61,818.37,13.39,818.08,13.38z"/>
	<path d="M825.35,13.38h-3.76c-0.27,0.01-0.48,0.22-0.48,0.49s0.21,0.49,0.5,0.49h3.49l0.23,0l0.02,0l0.02,0
		c0.27-0.01,0.48-0.23,0.48-0.49S825.64,13.39,825.35,13.38z"/>
	<path d="M832.63,13.38h-3.76c-0.27,0.01-0.48,0.22-0.48,0.49s0.21,0.49,0.48,0.49l3.51,0l0.23,0l0.02,0l0.02,0
		c0.26-0.01,0.48-0.23,0.48-0.49C833.13,13.61,832.92,13.39,832.63,13.38z"/>
	<path d="M701.46,13.38h-3.76c-0.27,0.01-0.48,0.22-0.48,0.49s0.21,0.49,0.5,0.49h3.49l0.23,0l0.02,0l0.02,0
		c0.27-0.01,0.48-0.23,0.48-0.49S701.75,13.39,701.46,13.38z"/>
	<path d="M708.73,13.38h-3.76c-0.27,0.01-0.48,0.22-0.48,0.49s0.21,0.49,0.5,0.49h3.49l0.23,0l0.02,0l0.01,0
		c0.26-0.01,0.48-0.23,0.48-0.49C709.23,13.61,709.02,13.39,708.73,13.38z"/>
	<path d="M716.01,13.38h-3.76c-0.27,0.01-0.48,0.22-0.48,0.49s0.21,0.49,0.48,0.49l3.51,0l0.23,0l0.02,0l0.01,0
		c0.26-0.01,0.48-0.23,0.48-0.49C716.5,13.61,716.3,13.39,716.01,13.38z"/>
	<path d="M723.28,13.38h-3.76c-0.27,0.01-0.48,0.22-0.48,0.49s0.21,0.49,0.5,0.49h3.49l0.23,0l0.02,0l0.01,0
		c0.27-0.01,0.48-0.23,0.48-0.49S723.57,13.39,723.28,13.38z"/>
	<path d="M730.55,13.38h-3.76c-0.27,0.01-0.48,0.22-0.48,0.49s0.21,0.49,0.48,0.49l3.51,0l0.23,0l0.02,0l0.02,0
		c0.26-0.01,0.48-0.23,0.48-0.49C731.05,13.61,730.84,13.39,730.55,13.38z"/>
	<path d="M737.99,13.38h-3.76c-0.27,0.01-0.48,0.22-0.48,0.49s0.21,0.49,0.48,0.49l3.51,0l0.23,0l0.02,0l0.02,0
		c0.26-0.01,0.48-0.23,0.48-0.49C738.48,13.61,738.28,13.39,737.99,13.38z"/>
	<path d="M745.25,13.38h-3.76c-0.27,0.01-0.48,0.22-0.48,0.49c0,0.26,0.21,0.49,0.5,0.49H745l0.23,0l0.02,0l0.02,0
		c0.27-0.01,0.48-0.23,0.48-0.49S745.54,13.39,745.25,13.38z"/>
	<path d="M752.52,13.38h-3.76c-0.27,0.01-0.48,0.22-0.48,0.49s0.21,0.49,0.5,0.49h3.49l0.23,0l0.02,0l0.02,0
		c0.27-0.01,0.48-0.23,0.48-0.49S752.81,13.39,752.52,13.38z"/>
	<path d="M759.79,13.38h-3.76c-0.27,0.01-0.48,0.22-0.48,0.49s0.21,0.49,0.48,0.49l3.75,0l0,0l0.03,0c0.27-0.01,0.48-0.23,0.48-0.49
		S760.08,13.39,759.79,13.38z"/>
	<path d="M635.86,13.38h-3.76c-0.27,0.01-0.48,0.22-0.48,0.49s0.21,0.49,0.5,0.49h3.49l0.23,0l0.02,0l0.02,0
		c0.27-0.01,0.48-0.23,0.48-0.49S636.14,13.39,635.86,13.38z"/>
	<path d="M643.13,13.38h-3.76c-0.27,0.01-0.48,0.22-0.48,0.49s0.21,0.49,0.5,0.49h3.49l0.23,0l0.02,0l0.02,0
		c0.27-0.01,0.48-0.23,0.48-0.49S643.42,13.39,643.13,13.38z"/>
	<path d="M650.4,13.38h-3.76c-0.27,0.01-0.48,0.22-0.48,0.49s0.21,0.49,0.5,0.49h3.49l0.23,0l0.02,0l0.02,0
		c0.27-0.01,0.48-0.23,0.48-0.49S650.69,13.39,650.4,13.38z"/>
	<path d="M657.67,13.38h-3.76c-0.27,0.01-0.48,0.22-0.48,0.49s0.21,0.49,0.5,0.49h3.73l0.01,0l0.02,0c0.27-0.01,0.48-0.23,0.48-0.49
		S657.96,13.39,657.67,13.38z"/>
	<path d="M664.94,13.38h-3.76c-0.27,0.01-0.48,0.22-0.48,0.49s0.21,0.49,0.5,0.49h3.49l0.23,0l0.02,0l0.02,0
		c0.27-0.01,0.48-0.23,0.48-0.49S665.23,13.39,664.94,13.38z"/>
	<path d="M672.38,13.38h-3.76c-0.27,0.01-0.48,0.22-0.48,0.49s0.21,0.49,0.5,0.49h3.49l0.23,0l0.02,0l0.01,0
		c0.27-0.01,0.48-0.23,0.48-0.49S672.67,13.39,672.38,13.38z"/>
	<path d="M679.64,13.38h-3.76c-0.27,0.01-0.48,0.22-0.48,0.49s0.21,0.49,0.5,0.49h3.49l0.23,0l0.02,0l0.02,0
		c0.27-0.01,0.48-0.23,0.48-0.49S679.93,13.39,679.64,13.38z"/>
	<path d="M686.92,13.38h-3.76c-0.27,0.01-0.48,0.22-0.48,0.49s0.21,0.49,0.5,0.49h3.49l0.23,0l0.02,0l0.02,0
		c0.27-0.01,0.48-0.23,0.48-0.49S687.2,13.39,686.92,13.38z"/>
	<path d="M694.19,13.38h-3.76c-0.27,0.01-0.48,0.22-0.48,0.49s0.21,0.49,0.5,0.49h3.73l0,0l0.02,0c0.27-0.01,0.48-0.23,0.48-0.49
		S694.47,13.39,694.19,13.38z"/>
	<path d="M614.08,13.38h-3.76c-0.27,0.01-0.48,0.22-0.48,0.49s0.21,0.49,0.5,0.49h3.49l0.23,0l0.02,0l0.01,0
		c0.27-0.01,0.48-0.23,0.48-0.49S614.37,13.39,614.08,13.38z"/>
	<path d="M621.35,13.38h-3.76c-0.27,0.01-0.48,0.22-0.48,0.49s0.21,0.49,0.5,0.49h3.49l0.23,0l0.02,0l0.02,0
		c0.27-0.01,0.48-0.23,0.48-0.49S621.64,13.39,621.35,13.38z"/>
	<path d="M628.63,13.38h-3.76c-0.27,0.01-0.48,0.22-0.48,0.49s0.21,0.49,0.5,0.49h3.73l0.01,0l0.02,0c0.27-0.01,0.48-0.23,0.48-0.49
		S628.91,13.39,628.63,13.38z"/>
	<path d="M592.21,13.38h-3.76c-0.27,0.01-0.48,0.22-0.48,0.49s0.21,0.49,0.5,0.49h3.49l0.23,0l0.02,0l0.02,0
		c0.27-0.01,0.48-0.23,0.48-0.49S592.5,13.39,592.21,13.38z"/>
	<path d="M599.48,13.38h-3.76c-0.27,0.01-0.48,0.22-0.48,0.49s0.21,0.49,0.5,0.49h3.49l0.23,0l0.02,0l0.02,0
		c0.27-0.01,0.48-0.23,0.48-0.49S599.77,13.39,599.48,13.38z"/>
	<path d="M606.75,13.38h-3.76c-0.27,0.01-0.48,0.22-0.48,0.49s0.21,0.49,0.5,0.49h3.49l0.23,0l0.02,0l0.02,0
		c0.27-0.01,0.48-0.23,0.48-0.49S607.04,13.39,606.75,13.38z"/>
	<path d="M570.43,13.38h-3.76c-0.27,0.01-0.48,0.22-0.48,0.49s0.21,0.49,0.5,0.49h3.49l0.23,0l0.02,0l0.02,0
		c0.27-0.01,0.48-0.23,0.48-0.49S570.72,13.39,570.43,13.38z"/>
	<path d="M577.71,13.38h-3.76c-0.27,0.01-0.48,0.22-0.48,0.49s0.21,0.49,0.5,0.49h3.49l0.23,0l0.02,0l0.02,0
		c0.27-0.01,0.48-0.23,0.48-0.49S578,13.39,577.71,13.38z"/>
	<path d="M584.98,13.38h-3.76c-0.27,0.01-0.48,0.22-0.48,0.49s0.21,0.49,0.5,0.49h3.73l0.01,0l0.02,0c0.27-0.01,0.48-0.23,0.48-0.49
		S585.27,13.39,584.98,13.38z"/>
	<path d="M526.67,13.38h-3.76c-0.27,0.01-0.48,0.22-0.48,0.49s0.21,0.49,0.5,0.49h3.49l0.23,0l0.02,0l0.02,0
		c0.27-0.01,0.48-0.23,0.48-0.49S526.95,13.39,526.67,13.38z"/>
	<path d="M533.94,13.38h-3.76c-0.27,0.01-0.48,0.22-0.48,0.49s0.21,0.49,0.5,0.49h3.49l0.23,0l0.02,0l0.02,0
		c0.27-0.01,0.48-0.23,0.48-0.49S534.23,13.39,533.94,13.38z"/>
	<path d="M541.21,13.38h-3.76c-0.27,0.01-0.48,0.22-0.48,0.49s0.21,0.49,0.5,0.49h3.49l0.23,0l0.02,0l0.02,0
		c0.27-0.01,0.48-0.23,0.48-0.49S541.5,13.39,541.21,13.38z"/>
	<path d="M548.48,13.38h-3.76c-0.27,0.01-0.48,0.22-0.48,0.49s0.21,0.49,0.5,0.49h3.73l0.01,0l0.02,0c0.27-0.01,0.48-0.23,0.48-0.49
		S548.77,13.39,548.48,13.38z"/>
	<path d="M555.75,13.38h-3.76c-0.27,0.01-0.48,0.22-0.48,0.49s0.21,0.49,0.5,0.49h3.49l0.23,0l0.02,0l0.02,0
		c0.27-0.01,0.47-0.23,0.47-0.49S556.04,13.39,555.75,13.38z"/>
	<path d="M563.19,13.38h-3.76c-0.27,0.01-0.48,0.22-0.48,0.49s0.21,0.49,0.5,0.49h3.49l0.23,0l0.02,0l0.02,0
		c0.27-0.01,0.48-0.23,0.48-0.49S563.48,13.39,563.19,13.38z"/>
	<path d="M519.43,13.38h-3.76c-0.27,0.01-0.48,0.22-0.48,0.49s0.21,0.49,0.5,0.49h3.73l0,0l0.02,0c0.27-0.01,0.48-0.23,0.48-0.49
		S519.72,13.39,519.43,13.38z"/>
	<path d="M840.6,13.84L840.6,13.84c-0.01-0.09-0.04-0.16-0.08-0.22l0-0.09h-0.04c-0.01-0.02-0.02-0.04-0.05-0.06l-2.88-2.42
		c-0.2-0.16-0.52-0.12-0.68,0.07c-0.17,0.2-0.15,0.5,0.07,0.7l1.86,1.56h-2.85c-0.27,0.01-0.48,0.23-0.48,0.49
		c0,0.27,0.21,0.48,0.48,0.49l2.83,0l-1.86,1.56c-0.2,0.18-0.22,0.48-0.05,0.68c0.1,0.11,0.23,0.18,0.38,0.18
		c0.11,0,0.22-0.04,0.32-0.12l2.67-2.24l0.18-0.16l0.03-0.02c0.03-0.02,0.04-0.05,0.04-0.07l0.02-0.05
		c0.04-0.06,0.07-0.13,0.08-0.21l0-0.01L840.6,13.84z"/>
</g>
<g>
	<path d="M339.46,15.57c-0.31,0-0.5,0.19-0.5,0.5v2.34c0,0.12-0.02,0.14-0.14,0.14h-6.83c-0.11,0-0.14-0.02-0.14-0.14V5.41
		c0-0.11,0.03-0.14,0.14-0.14h1.92c0.32,0,0.5-0.19,0.5-0.5c0-0.32-0.19-0.5-0.5-0.5h-4.69c-0.32,0-0.5,0.19-0.5,0.5
		c0,0.31,0.19,0.5,0.5,0.5h1.49c0.11,0,0.14,0.02,0.14,0.14v13.01c0,0.12-0.02,0.14-0.14,0.14h-1.49c-0.32,0-0.5,0.19-0.5,0.5
		c0,0.32,0.19,0.5,0.5,0.5h10.24c0.32,0,0.5-0.19,0.5-0.5v-2.98C339.96,15.76,339.77,15.57,339.46,15.57z"/>
	<path d="M346.34,8.32c-1.53,0-2.79,0.54-3.74,1.62c-0.94,1.07-1.42,2.45-1.42,4.11c0,1.66,0.48,3.04,1.42,4.11
		c0.95,1.07,2.22,1.62,3.77,1.62c1.06,0,1.95-0.17,2.64-0.5c0.68-0.32,1.29-0.72,1.81-1.17c0.14-0.12,0.21-0.24,0.22-0.36
		c0.01-0.07-0.01-0.18-0.11-0.3c-0.13-0.14-0.23-0.23-0.32-0.27c-0.14-0.07-0.32-0.02-0.49,0.15c-0.12,0.11-0.29,0.25-0.51,0.42
		c-0.83,0.68-1.9,1.02-3.18,1.02c-1.27,0-2.28-0.4-3-1.2c-0.73-0.8-1.14-1.81-1.22-3.01c-0.01-0.05,0-0.08,0.01-0.08
		c0.01-0.01,0.05-0.03,0.13-0.03h8.4c0.53,0,0.82-0.29,0.82-0.82V13.3c0-1.37-0.49-2.55-1.46-3.52
		C349.13,8.81,347.87,8.32,346.34,8.32z M346.34,9.32c1.21,0,2.23,0.39,3.03,1.17c0.79,0.78,1.19,1.72,1.19,2.8
		c0,0.11-0.02,0.14-0.14,0.14h-8.08c-0.12,0-0.12-0.02-0.12-0.07c0-0.97,0.38-1.9,1.15-2.75C344.13,9.75,345.13,9.32,346.34,9.32z"
		/>
	<path d="M360.57,17.58c-0.12,0-0.24,0.06-0.35,0.17c-0.71,0.67-1.46,1.02-2.21,1.02s-1.33-0.24-1.75-0.72
		c-0.42-0.48-0.64-1.22-0.64-2.19V9.67c0-0.11,0.03-0.14,0.14-0.14h3.63c0.31,0,0.5-0.19,0.5-0.5c0-0.31-0.19-0.5-0.5-0.5h-3.63
		c-0.11,0-0.14-0.03-0.14-0.14V4.77c0-0.32-0.19-0.5-0.5-0.5c-0.32,0-0.5,0.19-0.5,0.5v3.62c0,0.12-0.02,0.14-0.14,0.14h-1.49
		c-0.32,0-0.5,0.19-0.5,0.5c0,0.32,0.19,0.5,0.5,0.5h1.49c0.11,0,0.14,0.03,0.14,0.14v6.19c0,1.25,0.3,2.23,0.9,2.9
		c0.6,0.67,1.44,1.02,2.51,1.02l0.19,0.01c0.11,0,0.39-0.05,1.59-0.46c0.36-0.18,0.72-0.45,1.07-0.8c0.06-0.06,0.24-0.24,0.2-0.41
		c0-0.12-0.07-0.25-0.22-0.4C360.75,17.61,360.64,17.58,360.57,17.58z"/>
	<path d="M362.9,4.26c-0.32,0-0.5,0.19-0.5,0.5v4.48c0,0.31,0.19,0.5,0.5,0.5c0.31,0,0.5-0.19,0.5-0.5V4.77
		C363.4,4.45,363.22,4.26,362.9,4.26z"/>
	<path d="M372.96,13.91c-0.39-0.08-0.84-0.16-1.36-0.24c-0.5-0.07-0.99-0.15-1.47-0.24c-1.09-0.16-1.91-0.42-2.44-0.75
		c-0.49-0.32-0.74-0.75-0.74-1.33c0-0.58,0.28-1.05,0.87-1.44c0.6-0.4,1.48-0.6,2.6-0.6c0.6,0,1.14,0.11,1.61,0.32
		c0.9,0.43,1.66,1.03,2.24,1.79v1c0,0.32,0.19,0.5,0.5,0.5c0.31,0,0.5-0.19,0.5-0.5V9.03c0-0.31-0.19-0.5-0.5-0.5
		c-0.32,0-0.5,0.19-0.5,0.5v0.85c0,0.04,0,0.07-0.01,0.11c-0.01-0.01-0.01-0.01-0.02-0.02c-1.1-1.1-2.37-1.66-3.78-1.66
		c-1.4,0-2.51,0.29-3.3,0.87c-0.81,0.59-1.22,1.29-1.22,2.1c0,0.8,0.23,1.42,0.7,1.86c0.45,0.43,1.12,0.76,2,0.99
		c0.41,0.12,1.06,0.24,1.92,0.37c0.9,0.13,1.63,0.26,2.25,0.4c1.27,0.29,1.89,0.85,1.89,1.7c0,0.64-0.3,1.14-0.91,1.54
		c-0.62,0.41-1.55,0.62-2.75,0.62c-0.7,0-1.3-0.11-1.8-0.32c-0.95-0.42-1.72-1.02-2.28-1.79v-1.01c0-0.31-0.19-0.5-0.5-0.5
		s-0.5,0.19-0.5,0.5v3.41c0,0.32,0.19,0.5,0.5,0.5s0.5-0.19,0.5-0.5v-0.85c0-0.03,0-0.07,0.01-0.1c0.01,0.01,0.03,0.02,0.04,0.04
		c0.17,0.18,0.4,0.37,0.69,0.57c1.02,0.7,2.14,1.05,3.34,1.05c1.53,0,2.69-0.3,3.47-0.89c0.79-0.6,1.19-1.34,1.19-2.19
		c0-0.84-0.25-1.48-0.75-1.9C374.49,14.4,373.82,14.1,372.96,13.91z"/>
	<path d="M395.02,8.42h-1.39c-0.68,0-1.26,0.21-1.73,0.63c-0.83-0.49-1.95-0.74-3.35-0.74c-1.47,0-2.64,0.36-3.46,1.07
		c-0.83,0.72-1.24,1.64-1.24,2.73c0.01,1.09,0.29,1.94,0.82,2.54c0.11,0.12,0.11,0.18,0.11,0.18c0,0-0.01,0.01-0.02,0.02
		c-0.82,0.36-1.24,0.86-1.24,1.49c0,0.39,0.13,0.72,0.39,0.98c0.24,0.25,0.46,0.41,0.67,0.48c0.06,0.02,0.09,0.04,0.12,0.05
		c0,0-0.01,0-0.01,0.01c-0.54,0.27-0.96,0.66-1.26,1.16c-0.29,0.5-0.44,1.01-0.44,1.52c0,0.52,0.11,1,0.32,1.42
		c0.67,1.37,2.49,2.06,5.41,2.06c1.01,0,1.89-0.09,2.62-0.26c2.08-0.48,3.12-1.56,3.11-3.23c0-0.53-0.11-1-0.32-1.43
		c-0.67-1.37-2.49-2.06-5.41-2.06h-2.67c-1.01,0-1.52-0.22-1.52-0.65c0-0.26,0.09-0.45,0.29-0.57c0.22-0.14,0.5-0.25,0.87-0.36
		c0.74,0.45,1.82,0.67,3.23,0.67c1.46,0,2.62-0.36,3.44-1.07c0.83-0.72,1.25-1.62,1.25-2.7c0-1.06-0.29-1.94-0.87-2.63
		c-0.03-0.03-0.05-0.06-0.05-0.08c0-0.01,0-0.04,0.06-0.11c0.33-0.16,0.63-0.24,0.89-0.24h0.75c0.11,0,0.14,0.02,0.14,0.14v1.92
		c0,0.31,0.19,0.5,0.5,0.5c0.32,0,0.5-0.19,0.5-0.5V8.93C395.53,8.61,395.34,8.42,395.02,8.42z M384.01,20.55
		c0-1.65,1.59-2.48,4.72-2.48c3.13,0,4.72,0.83,4.72,2.49c0.01,0.34-0.06,0.66-0.21,0.96c-0.51,1.01-2.02,1.52-4.51,1.52
		C385.6,23.04,384.01,22.2,384.01,20.55z M392.6,12.24c0,0.91-0.29,1.61-0.89,2.12c-0.59,0.52-1.6,0.78-2.98,0.78
		c-1.39,0-2.39-0.26-2.99-0.78c-0.6-0.51-0.89-1.21-0.89-2.12c0-0.92,0.29-1.61,0.89-2.13c0.59-0.52,1.6-0.79,2.98-0.79
		c1.38,0,2.39,0.26,2.98,0.79C392.31,10.63,392.6,11.33,392.6,12.24z"/>
	<path d="M401.65,8.32c-1.53,0-2.79,0.54-3.74,1.62c-0.95,1.07-1.42,2.45-1.42,4.11c0,1.66,0.48,3.04,1.42,4.11
		c0.95,1.07,2.22,1.62,3.77,1.62c1.06,0,1.95-0.17,2.64-0.5c0.68-0.32,1.29-0.72,1.81-1.17c0.14-0.12,0.21-0.24,0.22-0.36
		c0.01-0.07-0.01-0.18-0.11-0.3c-0.13-0.14-0.23-0.23-0.32-0.27c-0.14-0.07-0.32-0.02-0.5,0.15c-0.12,0.11-0.29,0.25-0.51,0.42
		c-0.83,0.68-1.9,1.02-3.18,1.02c-1.27,0-2.28-0.4-3-1.2c-0.73-0.8-1.14-1.81-1.22-3.01c-0.01-0.05,0-0.08,0-0.08
		c0.01-0.01,0.05-0.03,0.13-0.03h8.4c0.53,0,0.82-0.29,0.82-0.82V13.3c0-1.37-0.49-2.55-1.46-3.52
		C404.44,8.81,403.18,8.32,401.65,8.32z M401.65,9.32c1.21,0,2.23,0.39,3.03,1.17c0.79,0.78,1.19,1.72,1.19,2.8
		c0,0.11-0.02,0.14-0.14,0.14h-8.08c-0.12,0-0.12-0.02-0.12-0.07c0-0.97,0.39-1.9,1.15-2.75C399.44,9.75,400.43,9.32,401.65,9.32z"
		/>
	<path d="M415.87,17.58c-0.12,0-0.24,0.06-0.35,0.17c-0.71,0.67-1.46,1.02-2.21,1.02c-0.76,0-1.33-0.24-1.75-0.72
		c-0.42-0.48-0.64-1.22-0.64-2.19V9.67c0-0.11,0.02-0.14,0.14-0.14h3.62c0.31,0,0.5-0.19,0.5-0.5c0-0.31-0.19-0.5-0.5-0.5h-3.62
		c-0.11,0-0.14-0.03-0.14-0.14V4.77c0-0.32-0.19-0.5-0.5-0.5c-0.31,0-0.5,0.19-0.5,0.5v3.62c0,0.12-0.02,0.14-0.14,0.14h-1.49
		c-0.31,0-0.5,0.19-0.5,0.5c0,0.32,0.19,0.5,0.5,0.5h1.49c0.11,0,0.14,0.03,0.14,0.14v6.19c0,1.25,0.3,2.23,0.9,2.9
		c0.6,0.67,1.44,1.02,2.52,1.02l0.19,0.01c0.11,0,0.39-0.05,1.59-0.46c0.36-0.18,0.72-0.45,1.07-0.8c0.06-0.06,0.24-0.24,0.2-0.41
		c0-0.12-0.07-0.25-0.22-0.4C416.06,17.61,415.95,17.58,415.87,17.58z"/>
	<path d="M425.36,7.19c0.29,0,0.54-0.1,0.74-0.3c0.2-0.2,0.3-0.45,0.3-0.74c0-0.29-0.1-0.54-0.3-0.74c-0.4-0.4-1.08-0.4-1.48,0
		c-0.2,0.2-0.3,0.45-0.3,0.74c0,0.29,0.1,0.54,0.3,0.74C424.81,7.09,425.06,7.19,425.36,7.19z"/>
	<path d="M427.59,18.56h-1.49c-0.11,0-0.14-0.02-0.14-0.14V9.03c0-0.31-0.19-0.5-0.5-0.5h-2.13c-0.32,0-0.5,0.19-0.5,0.5
		c0,0.32,0.19,0.5,0.5,0.5h1.49c0.11,0,0.14,0.03,0.14,0.14v8.75c0,0.12-0.02,0.14-0.14,0.14h-1.49c-0.32,0-0.5,0.19-0.5,0.5
		c0,0.32,0.19,0.5,0.5,0.5h4.26c0.32,0,0.5-0.19,0.5-0.5C428.1,18.74,427.91,18.56,427.59,18.56z"/>
	<path d="M441.99,18.56h-1.49c-0.11,0-0.14-0.02-0.14-0.14v-5.65c0-1.42-0.39-2.53-1.15-3.3c-0.77-0.76-1.86-1.15-3.25-1.15
		s-2.71,0.67-3.88,2c-0.01,0.01-0.01,0.01-0.02,0.02c0-0.02-0.01-0.06-0.01-0.1v-1.2c0-0.31-0.19-0.5-0.5-0.5h-2.13
		c-0.32,0-0.5,0.19-0.5,0.5c0,0.32,0.19,0.5,0.5,0.5h1.49c0.11,0,0.14,0.02,0.14,0.14v8.75c0,0.12-0.02,0.14-0.14,0.14h-1.49
		c-0.32,0-0.5,0.19-0.5,0.5c0,0.32,0.19,0.5,0.5,0.5h4.05c0.31,0,0.5-0.19,0.5-0.5c0-0.31-0.19-0.5-0.5-0.5h-1.28
		c-0.11,0-0.14-0.02-0.14-0.14v-6.35c0.3-0.5,0.65-0.95,1.05-1.35c0.93-0.93,1.92-1.4,2.94-1.4s1.84,0.29,2.43,0.86
		c0.58,0.56,0.88,1.44,0.88,2.59v5.65c0,0.12-0.02,0.14-0.14,0.14h-1.28c-0.32,0-0.5,0.19-0.5,0.5c0,0.32,0.19,0.5,0.5,0.5h4.05
		c0.31,0,0.5-0.19,0.5-0.5C442.5,18.74,442.31,18.56,441.99,18.56z"/>
	<path d="M456.76,17.58c-0.12,0-0.24,0.06-0.35,0.17c-0.71,0.67-1.46,1.02-2.21,1.02c-0.76,0-1.33-0.24-1.75-0.72
		c-0.42-0.48-0.64-1.22-0.64-2.19V9.67c0-0.11,0.03-0.14,0.13-0.14h3.63c0.31,0,0.5-0.19,0.5-0.5c0-0.31-0.19-0.5-0.5-0.5h-3.63
		c-0.11,0-0.13-0.03-0.13-0.14V4.77c0-0.32-0.19-0.5-0.5-0.5c-0.32,0-0.5,0.19-0.5,0.5v3.62c0,0.11-0.03,0.14-0.14,0.14h-1.49
		c-0.32,0-0.5,0.19-0.5,0.5c0,0.32,0.19,0.5,0.5,0.5h1.49c0.11,0,0.14,0.03,0.14,0.14v6.19c0,1.25,0.3,2.22,0.9,2.9
		c0.6,0.67,1.44,1.02,2.52,1.02l0.19,0.01c0.11,0,0.39-0.05,1.59-0.46c0.35-0.18,0.71-0.45,1.07-0.8c0.06-0.06,0.24-0.24,0.2-0.41
		c0-0.13-0.07-0.25-0.22-0.4C456.95,17.61,456.84,17.58,456.76,17.58z"/>
	<path d="M463.45,8.32c-1.6,0-2.91,0.54-3.91,1.59c-1,1.06-1.5,2.45-1.5,4.14c0,1.69,0.5,3.08,1.5,4.14c1,1.06,2.31,1.59,3.91,1.59
		c1.59,0,2.91-0.54,3.91-1.59c1-1.05,1.5-2.44,1.5-4.14c0-1.69-0.5-3.08-1.5-4.14C466.36,8.85,465.04,8.32,463.45,8.32z
		 M463.45,18.77c-1.33,0-2.41-0.43-3.2-1.28c-0.8-0.85-1.2-2-1.2-3.44c0-1.43,0.41-2.59,1.21-3.45c0.8-0.85,1.87-1.29,3.19-1.29
		s2.4,0.43,3.19,1.29c0.8,0.86,1.21,2.02,1.21,3.45c0,1.43-0.4,2.59-1.2,3.44C465.86,18.34,464.79,18.77,463.45,18.77z"/>
	<path d="M482.82,18.56h-1.49c-0.11,0-0.14-0.02-0.14-0.14V9.03c0-0.31-0.19-0.5-0.5-0.5h-2.13c-0.32,0-0.5,0.19-0.5,0.5
		c0,0.32,0.19,0.5,0.5,0.5h1.49c0.11,0,0.14,0.03,0.14,0.14v6.35c-0.31,0.49-0.67,0.96-1.08,1.37c-0.92,0.91-1.9,1.38-2.92,1.38
		c-1.03,0-1.85-0.29-2.43-0.85s-0.88-1.44-0.88-2.59V9.03c0-0.31-0.19-0.5-0.5-0.5h-2.13c-0.32,0-0.5,0.19-0.5,0.5
		c0,0.32,0.19,0.5,0.5,0.5h1.49c0.11,0,0.14,0.03,0.14,0.14v5.65c0,1.42,0.39,2.53,1.15,3.3c0.77,0.76,1.86,1.15,3.25,1.15
		c1.4,0,2.71-0.67,3.88-1.99c0.01-0.01,0.01-0.01,0.02-0.02c0,0.03,0.01,0.06,0.01,0.11v1.19c0,0.32,0.19,0.5,0.5,0.5h2.13
		c0.31,0,0.5-0.19,0.5-0.5C483.32,18.74,483.13,18.56,482.82,18.56z"/>
	<path d="M493.76,17.18c-0.14-0.07-0.31-0.03-0.5,0.14c-0.12,0.11-0.3,0.25-0.53,0.42c-0.84,0.68-1.91,1.03-3.17,1.03
		c-1.26,0-2.3-0.43-3.07-1.28c-0.77-0.85-1.17-1.99-1.17-3.41c0-1.41,0.37-2.58,1.11-3.46c0.75-0.88,1.66-1.3,2.76-1.3
		c1.47,0,2.77,0.71,3.87,2.12v1c0,0.32,0.19,0.5,0.5,0.5c0.32,0,0.5-0.19,0.5-0.5V9.03c0-0.31-0.19-0.5-0.5-0.5
		c-0.31,0-0.5,0.19-0.5,0.5v0.85c0,0.04,0,0.08,0,0.11c-0.01-0.01-0.02-0.01-0.03-0.02c-1.1-1.1-2.37-1.66-3.79-1.66
		c-1.42,0-2.62,0.54-3.54,1.61c-0.92,1.06-1.39,2.45-1.39,4.12c0,1.67,0.48,3.06,1.42,4.12c0.95,1.06,2.22,1.6,3.77,1.6
		c1.06,0,1.95-0.16,2.65-0.48c0.69-0.32,1.28-0.7,1.77-1.13c0.17-0.17,0.25-0.3,0.25-0.42c0-0.1-0.05-0.21-0.15-0.34
		C493.94,17.3,493.85,17.23,493.76,17.18z"/>
	<path d="M508.44,18.56h-1.49c-0.11,0-0.14-0.02-0.14-0.14v-5.65c0-1.42-0.39-2.53-1.15-3.3c-0.77-0.76-1.86-1.15-3.26-1.15
		c-1.4,0-2.71,0.67-3.88,2c-0.01,0.01-0.02,0.02-0.02,0.02c0-0.03-0.01-0.06-0.01-0.1V4.77c0-0.32-0.19-0.5-0.5-0.5h-2.13
		c-0.32,0-0.5,0.19-0.5,0.5c0,0.31,0.19,0.5,0.5,0.5h1.49c0.11,0,0.14,0.02,0.14,0.14v13.01c0,0.12-0.02,0.14-0.14,0.14h-1.49
		c-0.32,0-0.5,0.19-0.5,0.5c0,0.32,0.19,0.5,0.5,0.5h4.05c0.32,0,0.5-0.19,0.5-0.5c0-0.31-0.19-0.5-0.5-0.5h-1.28
		c-0.11,0-0.14-0.02-0.14-0.14v-6.34c0.31-0.5,0.67-0.96,1.06-1.35c0.93-0.93,1.92-1.4,2.94-1.4c1.03,0,1.84,0.29,2.43,0.86
		c0.58,0.56,0.88,1.43,0.88,2.59v5.65c0,0.12-0.02,0.14-0.14,0.14h-1.28c-0.32,0-0.5,0.19-0.5,0.5c0,0.32,0.19,0.5,0.5,0.5h4.05
		c0.31,0,0.5-0.19,0.5-0.5C508.94,18.74,508.75,18.56,508.44,18.56z"/>
	<path d="M512.69,17.62c-0.23-0.22-0.53-0.34-0.91-0.34c-0.37,0-0.68,0.12-0.91,0.34c-0.23,0.23-0.34,0.54-0.34,0.91
		c0,0.38,0.11,0.68,0.34,0.91c0.23,0.22,0.53,0.34,0.91,0.34c0.38,0,0.68-0.11,0.91-0.34c0.23-0.23,0.34-0.54,0.34-0.91
		C513.03,18.15,512.92,17.84,512.69,17.62z"/>
	<path d="M511.78,15.94c0.32,0,0.5-0.19,0.5-0.5V4.77c0-0.32-0.19-0.5-0.5-0.5c-0.32,0-0.5,0.19-0.5,0.5v10.67
		C511.28,15.75,511.47,15.94,511.78,15.94z"/>
</g>
</svg>
