<?xml version="1.0" encoding="utf-8"?>
<!-- Generator: Adobe Illustrator 16.0.0, SVG Export Plug-In . SVG Version: 6.00 Build 0)  -->
<!DOCTYPE svg PUBLIC "-//W3C//DTD SVG 1.1//EN" "http://www.w3.org/Graphics/SVG/1.1/DTD/svg11.dtd">
<svg version="1.1" id="Calque_1" xmlns="http://www.w3.org/2000/svg" xmlns:xlink="http://www.w3.org/1999/xlink" x="0px" y="0px"
	 width="227.75px" height="17.875px" viewBox="-18.812 0 227.75 17.875" enable-background="new -18.812 0 227.75 17.875"
	 xml:space="preserve">
<text transform="matrix(1 0 0 1 -46.0435 49.626)" stroke="#000000" stroke-width="0.3" stroke-miterlimit="10" font-family="'NixieOne-Regular'" font-size="18.2443">What could I do for you ?</text>
<g>
	<path d="M0.659,0.538h-3.466c-0.265,0-0.423,0.158-0.423,0.423c0,0.266,0.158,0.424,0.423,0.424h1.095
		c0.036,0,0.065,0.006,0.072,0.002c-0.005,0.015-0.014,0.039-0.033,0.077l-3.232,10.425L-7.974,0.913
		c-0.081-0.242-0.261-0.375-0.507-0.375c-0.246,0-0.426,0.133-0.51,0.383l-3.088,10.968l-3.235-10.443
		c-0.012-0.027-0.018-0.045-0.023-0.054c0.013-0.003,0.035-0.006,0.069-0.006h1.095c0.265,0,0.423-0.158,0.423-0.424
		c0-0.265-0.158-0.423-0.423-0.423h-3.466c-0.266,0-0.424,0.158-0.424,0.423c0,0.266,0.158,0.424,0.424,0.424h1.186
		c0.127,0,0.189,0.045,0.222,0.168l3.667,11.862c0.081,0.243,0.254,0.376,0.489,0.376c0.234,0,0.408-0.134,0.491-0.384l3.086-11.064
		l3.101,11.062c0.066,0.249,0.24,0.385,0.492,0.385c0.25,0,0.425-0.137,0.49-0.379L-0.75,1.556c0.041-0.122,0.105-0.171,0.223-0.171
		h1.186c0.266,0,0.424-0.158,0.424-0.424C1.083,0.696,0.925,0.538,0.659,0.538z"/>
	<path d="M12.499,12.761h-1.277c-0.099,0-0.124-0.024-0.124-0.124V7.803c0-1.216-0.331-2.163-0.983-2.815
		C9.461,4.334,8.527,4.004,7.337,4.004c-1.195,0-2.313,0.575-3.316,1.704C4.01,5.718,4,5.727,3.992,5.733
		C3.987,5.711,3.983,5.678,3.983,5.632V0.961c0-0.265-0.158-0.423-0.423-0.423H1.735c-0.265,0-0.423,0.158-0.423,0.423
		c0,0.266,0.158,0.424,0.423,0.424h1.277c0.099,0,0.124,0.024,0.124,0.124v11.129c0,0.099-0.024,0.124-0.124,0.124H1.735
		c-0.265,0-0.423,0.158-0.423,0.424c0,0.265,0.158,0.423,0.423,0.423h3.467c0.265,0,0.423-0.158,0.423-0.423
		c0-0.266-0.158-0.424-0.423-0.424H4.106c-0.099,0-0.124-0.024-0.124-0.124V7.207C4.25,6.782,4.556,6.392,4.888,6.048
		C5.682,5.254,6.53,4.851,7.409,4.851S8.99,5.098,9.495,5.584c0.502,0.485,0.757,1.231,0.757,2.218v4.835
		c0,0.099-0.024,0.124-0.124,0.124H9.032c-0.265,0-0.423,0.158-0.423,0.424c0,0.265,0.158,0.423,0.423,0.423h3.467
		c0.265,0,0.423-0.158,0.423-0.423C12.922,12.919,12.764,12.761,12.499,12.761z"/>
	<path d="M22.771,12.761h-1.277c-0.099,0-0.124-0.024-0.124-0.124V7.164c0-0.891-0.329-1.648-0.979-2.253
		c-0.646-0.602-1.509-0.907-2.565-0.907c-1.355,0-2.499,0.374-3.391,1.105c-0.2,0.146-0.23,0.36-0.079,0.573
		c0.098,0.14,0.22,0.169,0.305,0.169c0.114,0,0.234-0.051,0.367-0.156c0.189-0.149,0.53-0.33,1.015-0.536
		c0.478-0.204,1.103-0.308,1.856-0.308c0.737,0,1.367,0.224,1.872,0.666c0.505,0.442,0.751,0.981,0.751,1.647v0.73
		c0,0.099-0.024,0.124-0.124,0.124h-3.011c-1.123,0-2.044,0.271-2.737,0.807c-0.704,0.544-1.061,1.25-1.061,2.098
		c0,0.845,0.312,1.543,0.928,2.075c0.609,0.527,1.508,0.794,2.67,0.794c0.657,0,1.296-0.182,1.901-0.541
		c0.598-0.354,1.072-0.75,1.397-1.163c0.01-0.01,0.019-0.019,0.027-0.025c0.005,0.023,0.009,0.055,0.009,0.102v1.022
		c0,0.265,0.158,0.423,0.423,0.423h1.825c0.265,0,0.423-0.158,0.423-0.423C23.194,12.919,23.036,12.761,22.771,12.761z
		 M17.388,8.865h3.011c0.099,0,0.124,0.024,0.124,0.124v1.604c-0.126,0.225-0.263,0.434-0.407,0.623
		c-0.866,1.147-1.875,1.729-3,1.729c-0.907,0-1.589-0.193-2.027-0.575c-0.438-0.381-0.651-0.857-0.651-1.456
		c0-0.596,0.23-1.075,0.703-1.462C15.613,9.062,16.37,8.865,17.388,8.865z"/>
	<path d="M30.459,11.93c-0.101,0-0.201,0.049-0.294,0.143c-0.613,0.578-1.25,0.871-1.895,0.871c-0.648,0-1.14-0.201-1.501-0.615
		c-0.363-0.413-0.547-1.046-0.547-1.88V5.157c0-0.099,0.024-0.124,0.124-0.124h3.102c0.265,0,0.423-0.158,0.423-0.424
		c0-0.265-0.158-0.423-0.423-0.423h-3.102c-0.099,0-0.124-0.024-0.124-0.124V0.961c0-0.265-0.158-0.423-0.423-0.423
		c-0.266,0-0.424,0.158-0.424,0.423v3.102c0,0.1-0.024,0.124-0.124,0.124h-1.277c-0.265,0-0.423,0.158-0.423,0.423
		c0,0.266,0.158,0.424,0.423,0.424h1.277c0.099,0,0.124,0.024,0.124,0.124v5.291c0,1.067,0.258,1.898,0.768,2.471
		c0.514,0.579,1.227,0.872,2.119,0.872c0.014,0,0.071,0.003,0.174,0.009l0.017,0c0.096,0,0.335-0.043,1.354-0.39
		c0.306-0.153,0.613-0.383,0.916-0.685c0.05-0.05,0.201-0.203,0.171-0.343c0-0.105-0.061-0.214-0.19-0.344
		C30.612,11.949,30.521,11.93,30.459,11.93z"/>
	<path d="M44.73,11.582c-0.119-0.059-0.258-0.023-0.422,0.122c-0.107,0.096-0.256,0.215-0.45,0.361
		c-0.725,0.583-1.639,0.879-2.717,0.879c-1.082,0-1.965-0.367-2.625-1.092c-0.664-0.728-1.001-1.709-1.001-2.918
		c0-1.21,0.32-2.209,0.949-2.968c0.636-0.74,1.433-1.115,2.368-1.115c1.257,0,2.372,0.611,3.315,1.817v0.861
		c0,0.265,0.159,0.423,0.425,0.423c0.265,0,0.424-0.158,0.424-0.423V4.61c0-0.265-0.159-0.423-0.424-0.423
		c-0.266,0-0.425,0.158-0.425,0.423v0.73c0,0.044-0.002,0.077-0.005,0.1c-0.009-0.006-0.019-0.014-0.029-0.023
		c-0.938-0.938-2.026-1.413-3.235-1.413c-1.214,0-2.231,0.462-3.023,1.374c-0.787,0.906-1.186,2.09-1.186,3.52
		c0,1.431,0.409,2.615,1.214,3.521c0.811,0.911,1.895,1.373,3.223,1.373c0.905,0,1.666-0.14,2.262-0.415
		c0.588-0.272,1.094-0.593,1.512-0.961c0.146-0.146,0.208-0.251,0.208-0.352c0-0.091-0.041-0.186-0.127-0.289
		C44.884,11.685,44.809,11.622,44.73,11.582z"/>
	<path d="M51.305,4.004c-1.362,0-2.485,0.458-3.339,1.36c-0.85,0.9-1.281,2.089-1.281,3.533s0.432,2.633,1.281,3.533
		c0.854,0.903,1.977,1.361,3.339,1.361s2.485-0.458,3.339-1.361c0.85-0.901,1.281-2.089,1.281-3.533
		c0-1.443-0.432-2.632-1.281-3.533C53.79,4.461,52.667,4.004,51.305,4.004z M51.305,12.944c-1.143,0-2.066-0.368-2.746-1.093
		c-0.682-0.728-1.026-1.719-1.026-2.944c0-1.227,0.348-2.22,1.035-2.954c0.686-0.731,1.606-1.102,2.737-1.102
		s2.051,0.371,2.736,1.102c0.688,0.734,1.036,1.728,1.036,2.954c0,1.225-0.345,2.216-1.026,2.944
		C53.371,12.576,52.447,12.944,51.305,12.944z"/>
	<path d="M67.87,12.761h-1.277c-0.1,0-0.123-0.024-0.123-0.124V4.61c0-0.265-0.158-0.423-0.424-0.423h-1.824
		c-0.266,0-0.424,0.158-0.424,0.423c0,0.266,0.158,0.424,0.424,0.424h1.277c0.1,0,0.123,0.024,0.123,0.124v5.431
		c-0.269,0.426-0.58,0.823-0.923,1.177c-0.782,0.782-1.624,1.179-2.503,1.179c-0.88,0-1.582-0.247-2.085-0.733
		c-0.503-0.485-0.757-1.231-0.757-2.218V4.61c0-0.265-0.158-0.423-0.424-0.423h-1.824c-0.266,0-0.424,0.158-0.424,0.423
		c0,0.266,0.158,0.424,0.424,0.424h1.276c0.1,0,0.124,0.024,0.124,0.124v4.835c0,1.216,0.331,2.164,0.983,2.815
		c0.652,0.653,1.587,0.984,2.779,0.984c1.194,0,2.312-0.576,3.317-1.705c0.01-0.01,0.019-0.019,0.026-0.025
		c0.005,0.022,0.009,0.055,0.009,0.102v1.022c0,0.265,0.158,0.423,0.424,0.423h1.824c0.266,0,0.424-0.158,0.424-0.423
		C68.294,12.919,68.136,12.761,67.87,12.761z"/>
	<path d="M72.76,12.761h-1.277c-0.1,0-0.123-0.024-0.123-0.124V0.961c0-0.265-0.159-0.423-0.425-0.423H69.11
		c-0.266,0-0.424,0.158-0.424,0.423c0,0.266,0.158,0.424,0.424,0.424h1.277c0.1,0,0.123,0.024,0.123,0.124v11.129
		c0,0.099-0.023,0.124-0.123,0.124H69.11c-0.266,0-0.424,0.158-0.424,0.424c0,0.265,0.158,0.423,0.424,0.423h3.649
		c0.266,0,0.424-0.158,0.424-0.423C73.184,12.919,73.025,12.761,72.76,12.761z"/>
	<path d="M83.943,12.761h-1.277c-0.1,0-0.123-0.024-0.123-0.124V0.961c0-0.265-0.158-0.423-0.424-0.423h-2.007
		c-0.265,0-0.424,0.158-0.424,0.423c0,0.266,0.159,0.424,0.424,0.424h1.459c0.1,0,0.124,0.024,0.124,0.124v2.554
		c0,0.1-0.024,0.124-0.124,0.124h-2.463c-1.576,0-2.829,0.415-3.723,1.234c-0.897,0.823-1.354,1.999-1.354,3.495
		c0,1.49,0.381,2.686,1.132,3.556c0.756,0.876,1.812,1.32,3.142,1.32c0.704,0,1.372-0.185,1.984-0.55
		c0.603-0.36,1.068-0.754,1.37-1.154c0.01-0.01,0.019-0.018,0.026-0.025c0.005,0.023,0.009,0.056,0.009,0.102v1.022
		c0,0.265,0.158,0.423,0.424,0.423h1.824c0.266,0,0.424-0.158,0.424-0.423C84.367,12.919,84.209,12.761,83.943,12.761z
		 M79.108,5.034h2.463c0.1,0,0.124,0.024,0.124,0.124v5.433c-0.267,0.458-0.564,0.853-0.887,1.175
		c-0.782,0.782-1.671,1.179-2.64,1.179c-0.966,0-1.763-0.354-2.368-1.052c-0.61-0.705-0.92-1.709-0.92-2.985
		c0-1.269,0.369-2.241,1.099-2.889C76.713,5.365,77.766,5.034,79.108,5.034z"/>
	<path d="M93.375,1.385h1.277c0.266,0,0.424-0.158,0.424-0.424c0-0.265-0.158-0.423-0.424-0.423h-3.648
		c-0.266,0-0.425,0.158-0.425,0.423c0,0.266,0.159,0.424,0.425,0.424h1.276c0.1,0,0.124,0.024,0.124,0.124v11.129
		c0,0.099-0.024,0.124-0.124,0.124h-1.276c-0.266,0-0.425,0.158-0.425,0.424c0,0.265,0.159,0.423,0.425,0.423h3.648
		c0.266,0,0.424-0.158,0.424-0.423c0-0.266-0.158-0.424-0.424-0.424h-1.277c-0.1,0-0.123-0.024-0.123-0.124V1.508
		C93.252,1.409,93.275,1.385,93.375,1.385z"/>
	<path d="M111.546,12.761h-1.277c-0.1,0-0.123-0.024-0.123-0.124V0.961c0-0.265-0.158-0.423-0.424-0.423h-2.007
		c-0.266,0-0.424,0.158-0.424,0.423c0,0.266,0.158,0.424,0.424,0.424h1.459c0.1,0,0.124,0.024,0.124,0.124v2.554
		c0,0.1-0.024,0.124-0.124,0.124h-2.463c-1.576,0-2.829,0.415-3.723,1.234c-0.897,0.823-1.354,1.999-1.354,3.495
		c0,1.49,0.381,2.686,1.132,3.556c0.756,0.876,1.812,1.32,3.142,1.32c0.704,0,1.372-0.185,1.984-0.55
		c0.603-0.36,1.068-0.754,1.37-1.154c0.01-0.01,0.019-0.018,0.026-0.025c0.005,0.023,0.009,0.056,0.009,0.102v1.022
		c0,0.265,0.159,0.423,0.424,0.423h1.824c0.265,0,0.424-0.158,0.424-0.423C111.97,12.919,111.811,12.761,111.546,12.761z
		 M106.711,5.034h2.463c0.1,0,0.124,0.024,0.124,0.124v5.433c-0.267,0.458-0.565,0.853-0.887,1.175
		c-0.782,0.782-1.671,1.179-2.64,1.179c-0.966,0-1.763-0.354-2.368-1.052c-0.61-0.705-0.92-1.709-0.92-2.985
		c0-1.269,0.369-2.241,1.099-2.889C104.315,5.365,105.368,5.034,106.711,5.034z"/>
	<path d="M117.786,4.004c-1.362,0-2.485,0.458-3.339,1.36c-0.85,0.9-1.281,2.089-1.281,3.533s0.432,2.633,1.281,3.533
		c0.854,0.903,1.977,1.361,3.339,1.361s2.485-0.458,3.339-1.361c0.85-0.901,1.281-2.089,1.281-3.533
		c0-1.443-0.432-2.632-1.281-3.533C120.271,4.461,119.148,4.004,117.786,4.004z M117.786,12.944c-1.143,0-2.066-0.368-2.746-1.093
		c-0.682-0.728-1.026-1.719-1.026-2.944c0-1.227,0.348-2.22,1.035-2.954c0.686-0.731,1.606-1.102,2.737-1.102
		s2.051,0.371,2.736,1.102c0.688,0.734,1.036,1.728,1.036,2.954c0,1.225-0.345,2.216-1.026,2.944
		C119.853,12.576,118.929,12.944,117.786,12.944z"/>
	<path d="M132.048,1.87c0.381-0.45,0.92-0.668,1.646-0.668c0.432,0,0.807,0.097,1.116,0.288c0.322,0.2,0.564,0.38,0.721,0.535
		c0.229,0.229,0.459,0.246,0.597,0.108c0.131-0.114,0.198-0.232,0.198-0.351c0-0.121-0.098-0.268-0.337-0.508
		c-0.206-0.205-0.507-0.411-0.895-0.611c-0.396-0.205-0.868-0.309-1.4-0.309c-0.99,0-1.759,0.309-2.284,0.918
		c-0.521,0.603-0.785,1.48-0.785,2.607v0.182c0,0.1-0.023,0.124-0.123,0.124h-1.277c-0.266,0-0.424,0.158-0.424,0.423
		c0,0.266,0.158,0.424,0.424,0.424h1.277c0.1,0,0.123,0.024,0.123,0.124v7.48c0,0.099-0.023,0.124-0.123,0.124h-1.277
		c-0.266,0-0.424,0.158-0.424,0.424c0,0.265,0.158,0.423,0.424,0.423h3.831c0.266,0,0.424-0.158,0.424-0.423
		c0-0.266-0.158-0.424-0.424-0.424h-1.46c-0.1,0-0.123-0.024-0.123-0.124v-7.48c0-0.099,0.023-0.124,0.123-0.124h2.92
		c0.266,0,0.424-0.158,0.424-0.424c0-0.265-0.158-0.423-0.424-0.423h-2.92c-0.1,0-0.123-0.024-0.123-0.124V3.88
		C131.473,2.998,131.666,2.321,132.048,1.87z"/>
	<path d="M140.226,4.004c-1.362,0-2.485,0.458-3.339,1.36c-0.85,0.9-1.281,2.089-1.281,3.533s0.432,2.633,1.281,3.533
		c0.854,0.903,1.977,1.361,3.339,1.361s2.485-0.458,3.339-1.361c0.85-0.901,1.281-2.089,1.281-3.533
		c0-1.443-0.432-2.632-1.281-3.533C142.711,4.461,141.588,4.004,140.226,4.004z M140.226,12.944c-1.143,0-2.066-0.368-2.746-1.093
		c-0.682-0.728-1.026-1.719-1.026-2.944c0-1.227,0.348-2.22,1.035-2.954c0.686-0.731,1.606-1.102,2.737-1.102
		s2.051,0.371,2.736,1.102c0.688,0.734,1.036,1.728,1.036,2.954c0,1.225-0.345,2.216-1.026,2.944
		C142.292,12.576,141.368,12.944,140.226,12.944z"/>
	<path d="M153.982,4.004h-0.894c-0.908,0-1.745,0.199-2.488,0.592c-0.737,0.39-1.344,0.853-1.803,1.375
		c-0.052,0.06-0.092,0.098-0.119,0.122c-0.001-0.012-0.001-0.026-0.001-0.042V4.61c0-0.265-0.158-0.423-0.424-0.423h-1.824
		c-0.266,0-0.424,0.158-0.424,0.423c0,0.266,0.158,0.424,0.424,0.424h1.277c0.1,0,0.123,0.024,0.123,0.124v7.48
		c0,0.099-0.023,0.124-0.123,0.124h-1.277c-0.266,0-0.424,0.158-0.424,0.424c0,0.265,0.158,0.423,0.424,0.423h3.831
		c0.266,0,0.424-0.158,0.424-0.423c0-0.266-0.158-0.424-0.424-0.424h-1.46c-0.1,0-0.123-0.024-0.123-0.124V7.569
		c0.185-0.318,0.418-0.642,0.694-0.965c0.987-1.164,2.237-1.753,3.717-1.753h0.347c0.1,0,0.123,0.024,0.123,0.124v1.733
		c0,0.266,0.158,0.424,0.424,0.424s0.424-0.158,0.424-0.424v-2.28C154.406,4.162,154.248,4.004,153.982,4.004z"/>
	<path d="M170.857,4.187h-3.466c-0.266,0-0.425,0.158-0.425,0.423c0,0.266,0.159,0.424,0.425,0.424h1.131
		c0.036,0,0.062,0.002,0.067,0.002c-0.003,0.013-0.01,0.034-0.024,0.067l-2.757,7.114l-3.412-7.131
		c-0.011-0.021-0.018-0.038-0.023-0.046c0.016-0.003,0.039-0.006,0.074-0.006h1.131c0.266,0,0.424-0.158,0.424-0.424
		c0-0.265-0.158-0.423-0.424-0.423h-3.466c-0.266,0-0.425,0.158-0.425,0.423c0,0.266,0.159,0.424,0.425,0.424h1.186
		c0.032,0,0.129,0,0.229,0.188l3.771,8.014c0.037,0.104,0.037,0.216,0.002,0.333l-0.184,0.475c-0.344,0.903-0.697,1.566-1.049,1.971
		c-0.338,0.389-0.734,0.579-1.21,0.579c-0.485,0-0.875-0.093-1.159-0.277c-0.301-0.195-0.554-0.394-0.756-0.596
		c-0.192-0.176-0.416-0.167-0.592,0.017c-0.179,0.187-0.164,0.418,0.026,0.606c0.219,0.283,0.535,0.539,0.939,0.761
		c0.411,0.224,0.92,0.337,1.514,0.337c0.361,0,0.698-0.069,1-0.204c0.304-0.135,0.621-0.383,0.945-0.738
		c0.325-0.358,0.72-1.125,1.205-2.346l3.462-8.931c0.077-0.166,0.163-0.187,0.229-0.187h1.186c0.266,0,0.425-0.158,0.425-0.424
		C171.282,4.345,171.123,4.187,170.857,4.187z"/>
	<path d="M176.24,4.004c-1.362,0-2.485,0.458-3.339,1.36c-0.85,0.9-1.281,2.089-1.281,3.533s0.432,2.633,1.281,3.533
		c0.854,0.903,1.977,1.361,3.339,1.361s2.485-0.458,3.339-1.361c0.85-0.901,1.281-2.089,1.281-3.533
		c0-1.443-0.432-2.632-1.281-3.533C178.726,4.461,177.603,4.004,176.24,4.004z M176.24,12.944c-1.143,0-2.066-0.368-2.746-1.093
		c-0.682-0.728-1.026-1.719-1.026-2.944c0-1.227,0.348-2.22,1.035-2.954c0.686-0.731,1.606-1.102,2.737-1.102
		s2.051,0.371,2.736,1.102c0.688,0.734,1.036,1.728,1.036,2.954c0,1.225-0.345,2.216-1.026,2.944
		C178.307,12.576,177.383,12.944,176.24,12.944z"/>
	<path d="M192.806,12.761h-1.277c-0.1,0-0.123-0.024-0.123-0.124V4.61c0-0.265-0.158-0.423-0.424-0.423h-1.824
		c-0.266,0-0.424,0.158-0.424,0.423c0,0.266,0.158,0.424,0.424,0.424h1.277c0.1,0,0.123,0.024,0.123,0.124v5.431
		c-0.269,0.426-0.58,0.823-0.923,1.177c-0.782,0.782-1.624,1.179-2.503,1.179c-0.88,0-1.582-0.247-2.085-0.733
		c-0.503-0.485-0.757-1.231-0.757-2.218V4.61c0-0.265-0.158-0.423-0.424-0.423h-1.824c-0.266,0-0.424,0.158-0.424,0.423
		c0,0.266,0.158,0.424,0.424,0.424h1.276c0.1,0,0.124,0.024,0.124,0.124v4.835c0,1.216,0.331,2.164,0.983,2.815
		c0.652,0.653,1.587,0.984,2.779,0.984c1.194,0,2.312-0.576,3.317-1.705c0.01-0.01,0.019-0.019,0.026-0.025
		c0.005,0.022,0.009,0.055,0.009,0.102v1.022c0,0.265,0.158,0.423,0.424,0.423h1.824c0.266,0,0.424-0.158,0.424-0.423
		C193.229,12.919,193.071,12.761,192.806,12.761z"/>
	<path d="M203.369,11.667c-0.32,0-0.58,0.098-0.772,0.291c-0.192,0.192-0.29,0.452-0.29,0.771c0,0.32,0.098,0.58,0.29,0.772
		c0.192,0.193,0.452,0.291,0.772,0.291s0.58-0.098,0.772-0.291c0.192-0.192,0.29-0.452,0.29-0.772c0-0.319-0.098-0.579-0.29-0.771
		C203.949,11.764,203.689,11.667,203.369,11.667z"/>
	<path d="M206.535,1.435c-0.779-0.716-1.848-1.08-3.176-1.08c-1.326,0-2.392,0.347-3.164,1.032c-0.778,0.69-1.173,1.621-1.173,2.767
		c0,0.266,0.158,0.424,0.424,0.424s0.424-0.158,0.424-0.424c0-0.923,0.302-1.629,0.924-2.157c0.619-0.527,1.482-0.794,2.565-0.794
		c1.082,0,1.948,0.282,2.573,0.838c0.62,0.551,0.935,1.2,0.935,1.931c0,0.447-0.093,0.857-0.275,1.218
		c-0.184,0.362-0.416,0.656-0.689,0.873l-1.881,1.516c-0.308,0.255-0.566,0.604-0.771,1.037c-0.202,0.431-0.306,0.925-0.306,1.469
		c0,0.265,0.158,0.423,0.424,0.423s0.424-0.158,0.424-0.423c0-0.906,0.433-1.661,1.325-2.306l1.17-0.86
		c0.393-0.304,0.731-0.706,1.007-1.194c0.279-0.497,0.421-1.086,0.421-1.752C207.716,3.008,207.318,2.155,206.535,1.435z"/>
</g>
<g>
	<path d="M7.457-92.317H3.991c-0.265,0-0.423,0.158-0.423,0.423c0,0.266,0.158,0.424,0.423,0.424h1.095
		c0.036,0,0.065,0.002,0.072,0.002c-0.005,0.015-0.014,0.039-0.033,0.077L1.893-80.966l-3.069-10.976
		c-0.081-0.242-0.261-0.375-0.507-0.375c-0.246,0-0.426,0.133-0.51,0.383l-3.088,10.968L-8.517-91.41
		c-0.012-0.027-0.018-0.045-0.023-0.054c0.013-0.003,0.035-0.006,0.069-0.006h1.095c0.265,0,0.423-0.158,0.423-0.424
		c0-0.265-0.158-0.423-0.423-0.423h-3.466c-0.266,0-0.424,0.158-0.424,0.423c0,0.266,0.158,0.424,0.424,0.424h1.186
		c0.127,0,0.189,0.045,0.222,0.168l3.667,11.862c0.081,0.243,0.254,0.376,0.489,0.376c0.234,0,0.408-0.134,0.491-0.384L-1.7-90.512
		l3.101,11.062c0.066,0.249,0.24,0.385,0.492,0.385c0.25,0,0.425-0.137,0.49-0.379l3.666-11.855
		c0.041-0.122,0.105-0.171,0.223-0.171h1.186c0.266,0,0.424-0.158,0.424-0.424C7.881-92.159,7.723-92.317,7.457-92.317z"/>
	<path d="M19.297-80.094H18.02c-0.1,0-0.123-0.024-0.123-0.124v-4.835c0-1.216-0.331-2.163-0.983-2.815
		c-0.654-0.653-1.589-0.983-2.778-0.983c-1.195,0-2.313,0.575-3.316,1.704c-0.011,0.01-0.021,0.019-0.028,0.026
		c-0.005-0.022-0.009-0.055-0.009-0.102v-4.671c0-0.265-0.158-0.423-0.423-0.423H8.533c-0.265,0-0.423,0.158-0.423,0.423
		c0,0.266,0.158,0.424,0.423,0.424H9.81c0.099,0,0.124,0.024,0.124,0.124v11.129c0,0.099-0.024,0.124-0.124,0.124H8.533
		c-0.265,0-0.423,0.158-0.423,0.424c0,0.265,0.158,0.423,0.423,0.423H12c0.266,0,0.424-0.158,0.424-0.423
		c0-0.266-0.158-0.424-0.424-0.424h-1.096c-0.1,0-0.124-0.024-0.124-0.124v-5.431c0.268-0.425,0.573-0.815,0.906-1.159
		c0.793-0.794,1.641-1.197,2.521-1.197s1.581,0.247,2.085,0.733c0.503,0.485,0.757,1.231,0.757,2.218v4.835
		c0,0.099-0.023,0.124-0.123,0.124H15.83c-0.266,0-0.424,0.158-0.424,0.424c0,0.265,0.158,0.423,0.424,0.423h3.467
		c0.266,0,0.424-0.158,0.424-0.423C19.721-79.936,19.562-80.094,19.297-80.094z"/>
	<path d="M29.568-80.094h-1.277c-0.1,0-0.123-0.024-0.123-0.124v-5.474c0-0.891-0.329-1.648-0.979-2.253
		c-0.646-0.602-1.51-0.907-2.565-0.907c-1.355,0-2.498,0.374-3.391,1.105c-0.201,0.146-0.23,0.36-0.08,0.573
		c0.099,0.14,0.221,0.169,0.305,0.169c0.114,0,0.234-0.051,0.367-0.156c0.189-0.149,0.53-0.33,1.015-0.536
		c0.479-0.204,1.103-0.308,1.856-0.308c0.737,0,1.367,0.224,1.872,0.666c0.506,0.442,0.751,0.981,0.751,1.647v0.73
		c0,0.099-0.023,0.124-0.123,0.124h-3.011c-1.123,0-2.044,0.271-2.737,0.807c-0.704,0.544-1.062,1.25-1.062,2.098
		c0,0.845,0.312,1.543,0.929,2.075c0.608,0.527,1.507,0.794,2.67,0.794c0.656,0,1.296-0.182,1.9-0.541
		c0.598-0.354,1.072-0.75,1.397-1.163c0.011-0.01,0.02-0.019,0.027-0.025c0.005,0.023,0.009,0.055,0.009,0.102v1.022
		c0,0.265,0.158,0.423,0.424,0.423h1.825c0.266,0,0.424-0.158,0.424-0.423C29.992-79.936,29.834-80.094,29.568-80.094z
		 M24.186-83.99h3.011c0.1,0,0.123,0.024,0.123,0.124v1.604c-0.125,0.225-0.262,0.434-0.407,0.623c-0.865,1.147-1.875,1.729-3,1.729
		c-0.907,0-1.589-0.193-2.026-0.575c-0.438-0.381-0.651-0.857-0.651-1.456c0-0.596,0.229-1.075,0.702-1.462
		C22.411-83.793,23.168-83.99,24.186-83.99z"/>
	<path d="M37.258-80.925c-0.102,0-0.201,0.049-0.294,0.143c-0.613,0.578-1.251,0.871-1.896,0.871c-0.648,0-1.14-0.201-1.502-0.615
		c-0.362-0.413-0.546-1.046-0.546-1.88v-5.291c0-0.099,0.023-0.124,0.123-0.124h3.102c0.266,0,0.424-0.158,0.424-0.424
		c0-0.265-0.158-0.423-0.424-0.423h-3.102c-0.1,0-0.123-0.024-0.123-0.124v-3.102c0-0.265-0.158-0.423-0.424-0.423
		s-0.425,0.158-0.425,0.423v3.102c0,0.1-0.023,0.124-0.123,0.124h-1.277c-0.266,0-0.424,0.158-0.424,0.423
		c0,0.266,0.158,0.424,0.424,0.424h1.277c0.1,0,0.123,0.024,0.123,0.124v5.291c0,1.067,0.259,1.898,0.769,2.471
		c0.514,0.579,1.227,0.872,2.119,0.872c0.013,0,0.071,0.003,0.174,0.009l0.018,0c0.096,0,0.334-0.043,1.354-0.39
		c0.305-0.153,0.613-0.383,0.915-0.685c0.05-0.05,0.201-0.203,0.172-0.343c0-0.105-0.061-0.214-0.191-0.344
		C37.41-80.906,37.318-80.925,37.258-80.925z"/>
	<path d="M51.528-81.273c-0.119-0.058-0.259-0.024-0.422,0.122c-0.107,0.096-0.256,0.215-0.45,0.361
		c-0.725,0.583-1.639,0.879-2.717,0.879c-1.081,0-1.965-0.367-2.626-1.092c-0.664-0.728-1-1.709-1-2.918
		c0-1.21,0.319-2.209,0.948-2.968c0.637-0.74,1.434-1.115,2.368-1.115c1.257,0,2.372,0.611,3.315,1.817v0.861
		c0,0.265,0.159,0.423,0.425,0.423s0.424-0.158,0.424-0.423v-2.919c0-0.265-0.158-0.423-0.424-0.423s-0.425,0.158-0.425,0.423v0.73
		c0,0.044-0.002,0.077-0.005,0.1c-0.009-0.006-0.019-0.014-0.029-0.023c-0.938-0.938-2.026-1.413-3.235-1.413
		c-1.215,0-2.231,0.462-3.023,1.374c-0.787,0.906-1.187,2.09-1.187,3.52c0,1.431,0.409,2.615,1.215,3.521
		c0.811,0.911,1.895,1.373,3.223,1.373c0.905,0,1.666-0.14,2.262-0.415c0.588-0.272,1.094-0.593,1.512-0.961
		c0.146-0.146,0.208-0.251,0.208-0.352c0-0.091-0.041-0.186-0.127-0.289C51.682-81.17,51.606-81.233,51.528-81.273z"/>
	<path d="M58.103-88.851c-1.362,0-2.485,0.458-3.339,1.36c-0.85,0.9-1.281,2.089-1.281,3.533s0.432,2.633,1.281,3.533
		c0.854,0.903,1.977,1.361,3.339,1.361s2.485-0.458,3.339-1.361c0.85-0.901,1.281-2.089,1.281-3.533
		c0-1.443-0.432-2.632-1.281-3.533C60.588-88.394,59.465-88.851,58.103-88.851z M58.103-79.911c-1.143,0-2.066-0.368-2.746-1.093
		c-0.682-0.728-1.026-1.719-1.026-2.944c0-1.227,0.348-2.22,1.035-2.954c0.686-0.731,1.606-1.102,2.737-1.102
		s2.051,0.371,2.736,1.102c0.688,0.734,1.036,1.728,1.036,2.954c0,1.225-0.345,2.216-1.026,2.944
		C60.169-80.279,59.245-79.911,58.103-79.911z"/>
	<path d="M74.668-80.094h-1.277c-0.1,0-0.123-0.024-0.123-0.124v-8.028c0-0.265-0.158-0.423-0.424-0.423H71.02
		c-0.266,0-0.424,0.158-0.424,0.423c0,0.266,0.158,0.424,0.424,0.424h1.277c0.1,0,0.123,0.024,0.123,0.124v5.431
		c-0.269,0.426-0.58,0.823-0.923,1.177c-0.782,0.782-1.624,1.179-2.503,1.179c-0.88,0-1.582-0.247-2.085-0.733
		c-0.503-0.485-0.757-1.231-0.757-2.218v-5.382c0-0.265-0.158-0.423-0.424-0.423h-1.824c-0.266,0-0.424,0.158-0.424,0.423
		c0,0.266,0.158,0.424,0.424,0.424h1.276c0.1,0,0.124,0.024,0.124,0.124v4.835c0,1.216,0.331,2.164,0.983,2.815
		c0.652,0.653,1.587,0.984,2.779,0.984c1.194,0,2.312-0.576,3.317-1.705c0.01-0.01,0.019-0.019,0.026-0.025
		c0.005,0.022,0.009,0.055,0.009,0.102v1.022c0,0.265,0.158,0.423,0.424,0.423h1.824c0.266,0,0.424-0.158,0.424-0.423
		C75.092-79.936,74.934-80.094,74.668-80.094z"/>
	<path d="M79.558-80.094H78.28c-0.1,0-0.123-0.024-0.123-0.124v-11.677c0-0.265-0.159-0.423-0.425-0.423h-1.824
		c-0.266,0-0.424,0.158-0.424,0.423c0,0.266,0.158,0.424,0.424,0.424h1.277c0.1,0,0.123,0.024,0.123,0.124v11.129
		c0,0.099-0.023,0.124-0.123,0.124h-1.277c-0.266,0-0.424,0.158-0.424,0.424c0,0.265,0.158,0.423,0.424,0.423h3.649
		c0.266,0,0.424-0.158,0.424-0.423C79.981-79.936,79.823-80.094,79.558-80.094z"/>
	<path d="M90.741-80.094h-1.277c-0.1,0-0.123-0.024-0.123-0.124v-11.677c0-0.265-0.158-0.423-0.424-0.423H86.91
		c-0.265,0-0.424,0.158-0.424,0.423c0,0.266,0.159,0.424,0.424,0.424h1.459c0.1,0,0.124,0.024,0.124,0.124v2.554
		c0,0.1-0.024,0.124-0.124,0.124h-2.463c-1.576,0-2.829,0.415-3.723,1.234c-0.897,0.823-1.354,1.999-1.354,3.495
		c0,1.49,0.381,2.686,1.132,3.556c0.756,0.876,1.812,1.32,3.142,1.32c0.704,0,1.372-0.185,1.984-0.55
		c0.603-0.36,1.068-0.754,1.37-1.154c0.01-0.01,0.019-0.018,0.026-0.025c0.005,0.023,0.009,0.056,0.009,0.102v1.022
		c0,0.265,0.158,0.423,0.424,0.423h1.824c0.266,0,0.424-0.158,0.424-0.423C91.165-79.936,91.007-80.094,90.741-80.094z
		 M85.906-87.821h2.463c0.1,0,0.124,0.024,0.124,0.124v5.433c-0.267,0.458-0.564,0.853-0.887,1.175
		c-0.782,0.782-1.671,1.179-2.64,1.179c-0.966,0-1.763-0.354-2.368-1.052c-0.61-0.705-0.92-1.709-0.92-2.985
		c0-1.269,0.369-2.241,1.099-2.889C83.511-87.49,84.563-87.821,85.906-87.821z"/>
	<path d="M100.173-91.47h1.277c0.266,0,0.424-0.158,0.424-0.424c0-0.265-0.158-0.423-0.424-0.423h-3.648
		c-0.266,0-0.425,0.158-0.425,0.423c0,0.266,0.159,0.424,0.425,0.424h1.276c0.1,0,0.124,0.024,0.124,0.124v11.129
		c0,0.099-0.024,0.124-0.124,0.124h-1.276c-0.266,0-0.425,0.158-0.425,0.424c0,0.265,0.159,0.423,0.425,0.423h3.648
		c0.266,0,0.424-0.158,0.424-0.423c0-0.266-0.158-0.424-0.424-0.424h-1.277c-0.1,0-0.123-0.024-0.123-0.124v-11.129
		C100.05-91.446,100.073-91.47,100.173-91.47z"/>
	<path d="M118.344-80.094h-1.277c-0.1,0-0.123-0.024-0.123-0.124v-11.677c0-0.265-0.158-0.423-0.424-0.423h-2.007
		c-0.266,0-0.424,0.158-0.424,0.423c0,0.266,0.158,0.424,0.424,0.424h1.459c0.1,0,0.124,0.024,0.124,0.124v2.554
		c0,0.1-0.024,0.124-0.124,0.124h-2.463c-1.576,0-2.829,0.415-3.723,1.234c-0.897,0.823-1.354,1.999-1.354,3.495
		c0,1.49,0.381,2.686,1.132,3.556c0.756,0.876,1.812,1.32,3.142,1.32c0.704,0,1.372-0.185,1.984-0.55
		c0.603-0.36,1.068-0.754,1.37-1.154c0.01-0.01,0.019-0.018,0.026-0.025c0.005,0.023,0.009,0.056,0.009,0.102v1.022
		c0,0.265,0.159,0.423,0.424,0.423h1.824c0.265,0,0.424-0.158,0.424-0.423C118.768-79.936,118.608-80.094,118.344-80.094z
		 M113.509-87.821h2.463c0.1,0,0.124,0.024,0.124,0.124v5.433c-0.267,0.458-0.565,0.853-0.887,1.175
		c-0.782,0.782-1.671,1.179-2.64,1.179c-0.966,0-1.763-0.354-2.368-1.052c-0.61-0.705-0.92-1.709-0.92-2.985
		c0-1.269,0.369-2.241,1.099-2.889C111.113-87.49,112.166-87.821,113.509-87.821z"/>
	<path d="M124.584-88.851c-1.362,0-2.485,0.458-3.339,1.36c-0.85,0.9-1.281,2.089-1.281,3.533s0.432,2.633,1.281,3.533
		c0.854,0.903,1.977,1.361,3.339,1.361s2.485-0.458,3.339-1.361c0.85-0.901,1.281-2.089,1.281-3.533
		c0-1.443-0.432-2.632-1.281-3.533C127.069-88.394,125.946-88.851,124.584-88.851z M124.584-79.911
		c-1.143,0-2.066-0.368-2.746-1.093c-0.682-0.728-1.026-1.719-1.026-2.944c0-1.227,0.348-2.22,1.035-2.954
		c0.686-0.731,1.606-1.102,2.737-1.102s2.051,0.371,2.736,1.102c0.688,0.734,1.036,1.728,1.036,2.954
		c0,1.225-0.345,2.216-1.026,2.944C126.65-80.279,125.727-79.911,124.584-79.911z"/>
	<path d="M138.846-90.985c0.381-0.45,0.92-0.668,1.646-0.668c0.432,0,0.807,0.097,1.116,0.288c0.322,0.2,0.564,0.38,0.721,0.535
		c0.229,0.23,0.458,0.246,0.597,0.108c0.131-0.114,0.198-0.232,0.198-0.351c0-0.121-0.098-0.268-0.337-0.508
		c-0.206-0.205-0.507-0.411-0.895-0.611c-0.396-0.205-0.868-0.309-1.4-0.309c-0.99,0-1.759,0.309-2.284,0.918
		c-0.521,0.603-0.785,1.48-0.785,2.607v0.182c0,0.1-0.023,0.124-0.123,0.124h-1.277c-0.266,0-0.424,0.158-0.424,0.423
		c0,0.266,0.158,0.424,0.424,0.424h1.277c0.1,0,0.123,0.024,0.123,0.124v7.48c0,0.099-0.023,0.124-0.123,0.124h-1.277
		c-0.266,0-0.424,0.158-0.424,0.424c0,0.265,0.158,0.423,0.424,0.423h3.831c0.266,0,0.424-0.158,0.424-0.423
		c0-0.266-0.158-0.424-0.424-0.424h-1.46c-0.1,0-0.123-0.024-0.123-0.124v-7.48c0-0.099,0.023-0.124,0.123-0.124h2.92
		c0.266,0,0.424-0.158,0.424-0.424c0-0.265-0.158-0.423-0.424-0.423h-2.92c-0.1,0-0.123-0.024-0.123-0.124v-0.182
		C138.271-89.857,138.464-90.534,138.846-90.985z"/>
	<path d="M147.023-88.851c-1.362,0-2.485,0.458-3.339,1.36c-0.85,0.9-1.281,2.089-1.281,3.533s0.432,2.633,1.281,3.533
		c0.854,0.903,1.977,1.361,3.339,1.361s2.485-0.458,3.339-1.361c0.85-0.901,1.281-2.089,1.281-3.533
		c0-1.443-0.432-2.632-1.281-3.533C149.509-88.394,148.386-88.851,147.023-88.851z M147.023-79.911
		c-1.143,0-2.066-0.368-2.746-1.093c-0.682-0.728-1.026-1.719-1.026-2.944c0-1.227,0.348-2.22,1.035-2.954
		c0.686-0.731,1.606-1.102,2.737-1.102s2.051,0.371,2.736,1.102c0.688,0.734,1.036,1.728,1.036,2.954
		c0,1.225-0.345,2.216-1.026,2.944C149.09-80.279,148.166-79.911,147.023-79.911z"/>
	<path d="M160.78-88.851h-0.894c-0.908,0-1.745,0.199-2.488,0.592c-0.737,0.39-1.344,0.853-1.803,1.375
		c-0.052,0.06-0.092,0.098-0.119,0.122c-0.001-0.012-0.001-0.026-0.001-0.042v-1.441c0-0.265-0.158-0.423-0.424-0.423h-1.824
		c-0.266,0-0.424,0.158-0.424,0.423c0,0.266,0.158,0.424,0.424,0.424h1.277c0.1,0,0.123,0.024,0.123,0.124v7.48
		c0,0.099-0.023,0.124-0.123,0.124h-1.277c-0.266,0-0.424,0.158-0.424,0.424c0,0.265,0.158,0.423,0.424,0.423h3.831
		c0.266,0,0.424-0.158,0.424-0.423c0-0.266-0.158-0.424-0.424-0.424h-1.46c-0.1,0-0.123-0.024-0.123-0.124v-5.068
		c0.185-0.318,0.418-0.642,0.694-0.965c0.987-1.164,2.237-1.753,3.717-1.753h0.347c0.1,0,0.123,0.024,0.123,0.124v1.733
		c0,0.266,0.158,0.424,0.424,0.424s0.424-0.158,0.424-0.424v-2.28C161.204-88.693,161.046-88.851,160.78-88.851z"/>
	<path d="M177.655-88.668h-3.466c-0.266,0-0.425,0.158-0.425,0.423c0,0.266,0.159,0.424,0.425,0.424h1.131
		c0.036,0,0.06,0.003,0.067,0.002c-0.003,0.013-0.01,0.034-0.024,0.067l-2.757,7.114l-3.412-7.131
		c-0.011-0.021-0.018-0.038-0.023-0.046c0.016-0.003,0.039-0.006,0.074-0.006h1.131c0.266,0,0.424-0.158,0.424-0.424
		c0-0.265-0.158-0.423-0.424-0.423h-3.466c-0.266,0-0.425,0.158-0.425,0.423c0,0.266,0.159,0.424,0.425,0.424h1.186
		c0.032,0,0.129,0,0.229,0.188l3.771,8.014c0.037,0.104,0.037,0.216,0.002,0.333l-0.184,0.475c-0.344,0.903-0.697,1.566-1.049,1.971
		c-0.338,0.389-0.734,0.579-1.21,0.579c-0.485,0-0.875-0.093-1.159-0.277c-0.301-0.195-0.554-0.394-0.756-0.596
		c-0.193-0.176-0.417-0.167-0.592,0.017c-0.179,0.187-0.164,0.418,0.026,0.606c0.219,0.283,0.535,0.539,0.939,0.761
		c0.411,0.224,0.92,0.337,1.514,0.337c0.361,0,0.698-0.069,1-0.204c0.304-0.135,0.621-0.383,0.945-0.738
		c0.325-0.358,0.72-1.125,1.205-2.346l3.462-8.931c0.077-0.166,0.163-0.187,0.229-0.187h1.186c0.266,0,0.425-0.158,0.425-0.424
		C178.08-88.51,177.921-88.668,177.655-88.668z"/>
	<path d="M183.038-88.851c-1.362,0-2.485,0.458-3.339,1.36c-0.85,0.9-1.281,2.089-1.281,3.533s0.432,2.633,1.281,3.533
		c0.854,0.903,1.977,1.361,3.339,1.361s2.485-0.458,3.339-1.361c0.85-0.901,1.281-2.089,1.281-3.533
		c0-1.443-0.432-2.632-1.281-3.533C185.523-88.394,184.4-88.851,183.038-88.851z M183.038-79.911c-1.143,0-2.066-0.368-2.746-1.093
		c-0.682-0.728-1.026-1.719-1.026-2.944c0-1.227,0.348-2.22,1.035-2.954c0.686-0.731,1.606-1.102,2.737-1.102
		s2.051,0.371,2.736,1.102c0.688,0.734,1.036,1.728,1.036,2.954c0,1.225-0.345,2.216-1.026,2.944
		C185.104-80.279,184.181-79.911,183.038-79.911z"/>
	<path d="M199.604-80.094h-1.277c-0.1,0-0.123-0.024-0.123-0.124v-8.028c0-0.265-0.158-0.423-0.424-0.423h-1.824
		c-0.266,0-0.424,0.158-0.424,0.423c0,0.266,0.158,0.424,0.424,0.424h1.277c0.1,0,0.123,0.024,0.123,0.124v5.431
		c-0.269,0.426-0.58,0.823-0.923,1.177c-0.782,0.782-1.624,1.179-2.503,1.179c-0.88,0-1.582-0.247-2.085-0.733
		c-0.503-0.485-0.757-1.231-0.757-2.218v-5.382c0-0.265-0.158-0.423-0.424-0.423h-1.824c-0.266,0-0.424,0.158-0.424,0.423
		c0,0.266,0.158,0.424,0.424,0.424h1.276c0.1,0,0.124,0.024,0.124,0.124v4.835c0,1.216,0.331,2.164,0.983,2.815
		c0.652,0.653,1.587,0.984,2.779,0.984c1.194,0,2.312-0.576,3.317-1.705c0.01-0.01,0.019-0.019,0.026-0.025
		c0.005,0.022,0.009,0.055,0.009,0.102v1.022c0,0.265,0.158,0.423,0.424,0.423h1.824c0.266,0,0.424-0.158,0.424-0.423
		C200.027-79.936,199.869-80.094,199.604-80.094z"/>
</g>
</svg>
