<?xml version="1.0" encoding="utf-8"?>
<!-- Generator: Adobe Illustrator 16.0.0, SVG Export Plug-In . SVG Version: 6.00 Build 0)  -->
<!DOCTYPE svg PUBLIC "-//W3C//DTD SVG 1.1//EN" "http://www.w3.org/Graphics/SVG/1.1/DTD/svg11.dtd">
<svg version="1.1" id="Calque_1" xmlns="http://www.w3.org/2000/svg" xmlns:xlink="http://www.w3.org/1999/xlink" x="0px" y="0px"
	 width="1181.764px" height="608.922px" viewBox="0 0 1181.764 608.922" enable-background="new 0 0 1181.764 608.922"
	 xml:space="preserve">
<g>
	<g>
		<g>
			<defs>
				<rect id="SVGID_1_" x="242.436" y="161.828" width="617.015" height="354.094"/>
			</defs>
			<clipPath id="SVGID_2_">
				<use xlink:href="#SVGID_1_"  overflow="visible"/>
			</clipPath>
			<path clip-path="url(#SVGID_2_)" fill="#F74F64" d="M550.723,278.187c-7.141,0.795-14.676,1.223-22.416,1.223
				c-40.23,0-75.144-10.822-79.481-20.493c-0.64-1.408-0.555-2.702,0.255-3.939c4.01-6.187,24.276-9.286,34.503-9.286v-0.924
				l0.097,0.924c28.244,0.042,56.629,11.576,68.034,22.811c-0.225,1.92-0.355,2.972-0.466,3.753
				C551.036,273.692,550.965,274.29,550.723,278.187 M623.664,321.063c3.74,4.764,26.01,31.813,58.86,43.858l-0.1,1.138
				c-4.193,60.525-45.677,73.225-79.767,73.225c-10.381,0-18.658-1.28-21.772-1.851c5.447-15.771,8.945-36.021,10.424-60.156
				c0.938-15.259,1.69-28.016,2.218-41.057C602.132,333.663,617.577,324.917,623.664,321.063 M655.491,235.622
				c-7.425,42.664-55.421,67.28-61.607,70.296c4.281-56.089,13.624-92.793,25.684-100.829c5.034-3.37,10.397-5.148,15.502-5.148
				c5.986,0,11.362,2.489,15.146,6.998C655.689,213.465,657.567,223.648,655.491,235.622 M748.384,232.464
				c0.612,0,1.152,0.029,1.666,0.086c3.595,0.427,6.197,1.821,7.734,4.124c1.819,2.717,2.09,6.685,0.767,11.491
				c-1.962,7.139-5.289,9.728-11.917,14.875l-1.92,1.494c-14.762,10.667-41.782,18.359-76.283,21.744
				c5.945-5.759,9.428-10.011,13.724-17.962c1.449-1.293,3.112-2.9,5.02-4.75c4.921-4.735,11.036-10.651,18.146-15.487
				C718.533,239.148,738.927,232.464,748.384,232.464 M785.501,289.961c1.976-14.875-1.28-42.919-14.734-58.69
				c-5.842-6.869-12.883-10.438-20.933-10.638l-0.896-0.014c-15.473,0-36.577,9.969-49.66,19.213
				c-3.884,2.745-7.324,5.219-10.468,7.523c5.461-26.835,1.536-50.229-11.163-66.072c-10.196-12.714-25.143-19.44-43.19-19.44
				c-2.588,0-5.262,0.142-7.936,0.426c-38.198,3.996-65.474,38.696-73.182,92.964c-15.871-12.031-45.138-21.318-67.622-21.318
				c-0.825,0-1.663,0.015-2.488,0.028c-27.889,0.825-59.075,12.43-62.901,42.494c-2.586,20.478,5.179,32.31,8.476,37.359
				c0.17,0.27,0.328,0.497,0.469,0.725c-11.76,11.633-8.089,33.035-4.394,41.725c7.594,17.891,22.911,26.978,45.508,26.978
				c28.499,0,61.321-14.421,79.212-23.522c-2.989,92.181-27.006,147.289-27.248,147.844l-3.712,8.376l2.347-1.223
				c0.285-0.171,29.964-16.07,49.462-52.79l0.284,0.074c14.859,3.583,28.839,5.403,41.597,5.403
				c91.428,0,97.259-93.362,97.416-96.69c5.531,1.024,10.947,1.55,16.127,1.55c14.875,0,27.657-4.395,35.123-12.06
				c4.779-4.935,7.225-10.964,7.055-17.478c-0.071-2.446-1.493-6.086-4.451-8.76C775.617,323.566,782.982,308.776,785.501,289.961"
				/>
		</g>
	</g>
	<g>
		<g>
			<defs>
				<rect id="SVGID_3_" x="242.436" y="161.828" width="617.015" height="354.094"/>
			</defs>
			<clipPath id="SVGID_4_">
				<use xlink:href="#SVGID_3_"  overflow="visible"/>
			</clipPath>
			<path clip-path="url(#SVGID_4_)" fill="#F74F64" d="M441.22,474.808l-6.5-2.702c-0.17,0.898-6.044,18.39-29.125,17.691
				c-41.58-1.28-103.158-40.872-107.853-42.862c2.887-4.696,8.391-16.77,8.931-33.835v-70.522
				c0.114-2.019,0.443-14.235,6.641-21.389c6.557-7.565,23.622-9.926,33.221-0.924c7.693,7.209,4.736,14.206,4.706,15.088
				c0.145-4.963-9.287-10.879-15.188-4.693c-5.575,5.845-0.953,16.71,8.931,17.677c8.033,0.782,15.018-4.024,15.57-15.544
				c0.697-14.733-11.602-28.243-32.481-28.243c-16.807,0-42.194,12.827-41.682,53.6c0,0,0.938,82.028-2.788,82.482l0.356,0.114
				c-11.719-7.138-42.408-9.03-41.483,13.769c0.256,6.414,4.437,15.728,18.203,15.701c16.027-0.031,31.67-15.701,31.67-15.701
				c31.585,18.744,72.514,53.94,115.292,49.077C433.284,500.662,441.22,474.808,441.22,474.808 M281.231,448.827
				c-2.588,4.364-12.118,12.555-21.133,12.769c-7.111,0.171-10.183-6.755-8.376-10.879
				C256.757,439.241,280.691,448.641,281.231,448.827 M389.241,453.691l-5.957-4.88c-2.844,2.375-11.22,8.163-16.596,7.781
				c-5.674-0.413-9.301-6.329-10.467-11.292c0,0,31.032-7.167,29.355-24.901c-0.541-5.631-3.485-9.614-7.296-11.918
				c-17.367-10.509-46.25,1.892-45.622,27.077c0.383,15.105,9.798,23.75,18.273,27.334
				C366.871,469.646,379.442,464.085,389.241,453.691 M377.323,420.128c0,0,0.185,5.674-4.065,9.201
				c-4.239,3.526-17.153,7.765-18.403,8.121c0,0-1.821-20.72,12.176-24.361C369.061,412.562,376.612,413.045,377.323,420.128
				 M432.544,449.637h-7.849c0.241,1.991-1.721,5.89-3.2,6.812c-1.066,0.654-1.991,0.214-2.204-0.852v-32.141v-10.623h12.457v-7.85
				h-12.457v-45.479h-18.673v45.479h-7.579v7.85h7.579v36.818c0,4.594,1.579,8.448,4.735,11.564c3.145,3.126,6.9,4.679,11.235,4.679
				c4.336,0,8.078-1.553,11.236-4.679C430.966,458.084,432.544,454.23,432.544,449.637 M507.305,438.558
				c-3.186-2.502-21.345-16.709-22.697-17.776c-2.247-1.777-3.471-4.65-2.275-6.57c3.482-5.532,13.111-1.451,13.111-1.451
				c-0.355,3-0.838,7.708,1.094,10.481c3.499,4.991,9.486,4.436,12.373,0.34c3.941-5.603-3.371-20.72-19.511-20.649
				c-10.894,0.057-22.228,6.13-22.328,18.274c-0.028,3.072,1.08,5.816,3.243,8.248c2.161,2.432,22.64,18.73,23.905,19.995
				c1.268,1.265,3.498,3.271,3.414,5.461c-0.228,5.889-11.96,5.959-15.8,1.337c0.258,0.312,3.058-6.671,0.386-10.524
				c-3.527-5.105-12.104-5.93-15.361-1.08c-7.322,10.894,8.448,24.091,23.82,23.508c11.179-0.427,21.546-6.957,21.788-19.343
				C512.738,445.172,510.491,441.062,507.305,438.558 M762.163,435.287c0.028-18.629-9.612-30.874-28.812-30.575
				c-22.13,0.327-28.473,22.015-27.933,30.988c1.167,19.554,14.861,30.447,29.768,30.177
				C752.947,465.564,762.149,450.434,762.163,435.287 M738.968,455.51c-7.424,0.299-12.928-10.068-12.686-20.223
				c0.257-10.993,4.365-19.454,10.125-20.265c12.061-1.678,16.539,10.396,16.596,19.824
				C753.077,445.413,747.174,455.169,738.968,455.51 M859.45,433.694c-0.113-19.539-10.963-30.604-17.435-30.348
				c-4.111,0.156-7.11,3.499-7.623,6.272c-1.052,5.574,1.337,9.897,4.522,11.874c3.87,2.404,10.696,2.062,11.064,1.877
				c0.54,1.806,1.962,7.31,1.809,12.457c-0.501,16.227-9.357,22.157-18.092,21.574c-4.096-0.268-6.739-3.88-6.739-5.874v-46.56
				h-18.943v38.17c0.257,4.153-6.412,13.766-13.538,13.809c-2.602,0.014-6.143-0.626-5.958-3.796v-48.182h-18.673v44.128
				c0.285,10.951,11.435,16.596,18.957,16.781c12.344,0.328,19.397-7.664,21.93-10.552c1.976,3.612,9.029,9.955,20.833,10.552
				C854.332,467.029,859.536,448.827,859.45,433.694"/>
		</g>
	</g>
	<g>
		<g>
			<defs>
				<rect id="SVGID_5_" x="242.436" y="161.828" width="617.015" height="354.094"/>
			</defs>
			<clipPath id="SVGID_6_">
				<use xlink:href="#SVGID_5_"  overflow="visible"/>
			</clipPath>
			<path clip-path="url(#SVGID_6_)" fill="#F74F64" d="M458.967,399.976c0.54-0.653,0.925-1.321,1.138-2.033
				c0.213-0.71,0.328-1.437,0.328-2.19c0-1.195-0.242-2.275-0.726-3.257c-0.5-0.981-1.167-1.834-2.036-2.603
				c-0.44-0.327-0.896-0.597-1.379-0.81c-0.483-0.214-0.996-0.384-1.55-0.485c-0.214-0.113-0.455-0.155-0.725-0.155h-0.728
				c-1.08,0-2.133,0.241-3.169,0.725c-1.039,0.483-1.921,1.223-2.673,2.19c-0.443,0.654-0.754,1.336-0.97,2.033
				c-0.225,0.711-0.325,1.438-0.325,2.19c0,1.095,0.242,2.148,0.725,3.171c0.483,1.024,1.167,1.92,2.034,2.673
				c0.213,0.114,0.398,0.228,0.568,0.327c0.171,0.114,0.355,0.213,0.569,0.328c0.211,0.113,0.397,0.213,0.566,0.327
				c0.157,0.099,0.356,0.156,0.57,0.156l-2.773,3.74l3.74,2.759L458.967,399.976z"/>
		</g>
	</g>
</g>
<g>
	<g>
		<g>
			<defs>
				<rect id="SVGID_7_" x="852.454" y="290.231" width="77.717" height="77.605"/>
			</defs>
			<clipPath id="SVGID_8_">
				<use xlink:href="#SVGID_7_"  overflow="visible"/>
			</clipPath>
			<path clip-path="url(#SVGID_8_)" fill="#CBF7E6" d="M879.347,317.465c-2.076-0.17-12.614-3.584-19.54,2.077
				c-16.112,13.182-2.119,30.603,7.75,33.034c10.837,2.674,17.817-3.967,19.823-5.303c0.299-0.199,0.668,0.014,0.569,0.44
				c-0.398,1.807-2.546,6.955-0.259,12.303c2.918,6.811,14.492,12.215,23.651,2.673c3.91-4.082,3.215-8.476,3.17-9.912
				c0-0.271,0.257-0.569,0.471-0.555c1.308,0.057,5.646,1.024,10.039-3.169c9.571-9.145,4.138-20.678-2.688-23.594
				c-5.433-2.303-10.864-0.127-12.527,0.285c-0.387,0.086-0.57-0.213-0.415-0.413c1.252-1.678,8.22-8.888,5.488-19.938
				c-2.432-9.841-20.15-24.005-33.121-7.722c-5.83,7.31-2.189,17.549-2.076,19.526C879.688,317.323,879.517,317.479,879.347,317.465
				"/>
		</g>
	</g>
</g>
<text transform="matrix(1 0 0 1 3 48.0942)" fill="#DBD9D4" font-family="'WorkSans-Medium'" font-size="17">Primary Logo</text>
<text transform="matrix(1 0 0 1 1059.2412 60.0938)" enable-background="new    "><tspan x="0" y="0" fill="#DBD9D4" font-family="'WorkSans-Medium'" font-size="14">©</tspan><tspan x="11.312" y="0" fill="#DBD9D4" font-family="'WorkSans-Medium'" font-size="17"> </tspan><tspan x="16.871" y="0" fill="#DBD9D4" font-family="'WorkSans-Medium'" font-size="14">Delphine Geny</tspan></text>
<line fill="none" stroke="#DBD9D4" stroke-width="1.8" stroke-miterlimit="10" x1="3.382" y1="57.5" x2="1053.382" y2="57.5"/>
</svg>
