<?xml version="1.0" encoding="utf-8"?>
<!-- Generator: Adobe Illustrator 16.0.0, SVG Export Plug-In . SVG Version: 6.00 Build 0)  -->
<!DOCTYPE svg PUBLIC "-//W3C//DTD SVG 1.1//EN" "http://www.w3.org/Graphics/SVG/1.1/DTD/svg11.dtd">
<svg version="1.1" id="Calque_1" xmlns="http://www.w3.org/2000/svg" xmlns:xlink="http://www.w3.org/1999/xlink" x="0px" y="0px"
	 width="1181.764px" height="2435.384px" viewBox="0 0 1181.764 2435.384" enable-background="new 0 0 1181.764 2435.384"
	 xml:space="preserve">
<rect y="701.084" fill="#FFD200" width="590.685" height="555.213"/>
<rect x="589.579" y="701.084" width="590.685" height="555.213"/>
<text transform="matrix(1 0 0 1 3 14.3271)" fill="#DBD9D4" font-family="'WorkSans-Medium'" font-size="17">Logo</text>
<text transform="matrix(1 0 0 1 1059.2412 26.3271)" fill="#DBD9D4" font-family="'WorkSans-Medium'" font-size="14">©</text>
<text transform="matrix(1 0 0 1 1070.5537 26.3271)" fill="#DBD9D4" font-family="'WorkSans-Medium'" font-size="17"> </text>
<text transform="matrix(1 0 0 1 1076.1123 26.3271)" fill="#DBD9D4" font-family="'WorkSans-Medium'" font-size="14">Delphine Geny</text>
<line fill="none" stroke="#DBD9D4" stroke-width="1.8" stroke-miterlimit="10" x1="3.382" y1="23.733" x2="1053.382" y2="23.733"/>
<g>
	<path fill="#231F20" d="M540.342,341.949v109.594c0,14.22-11.452,25.672-25.671,25.672c-14.217,0-25.669-11.452-25.669-25.672
		V341.949h10.268v109.594c0,8.494,6.91,15.406,15.401,15.406s15.403-6.912,15.403-15.406V341.949H540.342z"/>
	<path fill="#231F20" d="M569.963,352.217v51.146h23.895v10.467h-23.895v61.413h-10.269V341.949h42.654v10.268H569.963z"/>
	<path fill="#231F20" d="M626.837,352.217v51.146h23.895v10.467h-23.895v61.413h-10.269V341.949h42.654v10.268H626.837z"/>
	<path fill="#231F20" d="M673.442,475.242V341.949h10.269v133.293H673.442z"/>
	<path fill="#231F20" d="M743.545,386.575v-20.932c0-8.489-6.909-15.401-15.4-15.401s-15.403,6.912-15.403,15.401v85.899
		c0,8.494,6.912,15.406,15.403,15.406s15.4-6.912,15.4-15.406v-18.164h10.269v18.164c0,14.22-11.452,25.672-25.669,25.672
		c-14.22,0-25.672-11.452-25.672-25.672v-85.899c0-14.215,11.452-25.672,25.672-25.672c14.217,0,25.669,11.457,25.669,25.672v19.748
		L743.545,386.575z"/>
	<path fill="#231F20" d="M770.403,475.242V341.949h10.268v133.293H770.403z"/>
	<path fill="#231F20" d="M799.434,365.644c0-14.215,11.451-25.672,25.671-25.672c14.218,0,25.67,11.457,25.67,25.672v85.899
		c0,14.22-11.452,25.672-25.67,25.672c-14.22,0-25.671-11.452-25.671-25.672V365.644z M809.701,451.543
		c0,8.494,6.912,15.406,15.403,15.406c8.492,0,15.401-6.912,15.401-15.406v-85.899c0-8.489-6.909-15.401-15.401-15.401
		c-8.491,0-15.403,6.912-15.403,15.401V451.543z"/>
</g>
<path fill="#231F20" d="M490.307,270.808l-1.929-2.441c-11.435-14.467-17.479-31.885-17.479-50.37
	c0-44.838,36.481-81.317,81.32-81.317c22.926,0,44.914,9.759,60.325,26.774l2.092,2.311L490.307,270.808z M552.22,142.703
	c-41.519,0-75.296,33.777-75.296,75.294c0,16.071,4.933,31.27,14.299,44.153l114.715-96.921
	C591.811,150.875,572.408,142.703,552.22,142.703z"/>
<rect x="303.487" y="492.972" fill="#231F20" width="548.215" height="6.023"/>
<path fill="#231F20" d="M308.462,316.091c-8.422,0-15.275-6.852-15.275-15.274s6.853-15.274,15.275-15.274
	c8.424,0,15.278,6.852,15.278,15.274S316.886,316.091,308.462,316.091z M308.462,291.566c-5.102,0-9.251,4.15-9.251,9.25
	c0,5.1,4.15,9.25,9.251,9.25c5.103,0,9.254-4.15,9.254-9.25C317.716,295.716,313.565,291.566,308.462,291.566z"/>
<rect x="279.784" y="366.595" transform="matrix(0.5073 0.8618 -0.8618 0.5073 489.8385 -117.5695)" fill="#231F20" width="135.914" height="6.024"/>
<rect x="399.561" y="116.224" transform="matrix(0.6336 0.7737 -0.7737 0.6336 321.2385 -229.1932)" fill="#231F20" width="6.024" height="216.605"/>
<path fill="#231F20" d="M559.413,250.656c-12.87,0-23.957-8.194-27.588-20.389l-0.563-1.888l1.503-1.271
	c36.63-30.986,36.63-30.986,37.876-30.986h0.684l0.616,0.295c10.175,4.871,16.25,14.389,16.25,25.461
	C588.192,237.747,575.282,250.656,559.413,250.656z M538.228,230.378c3.377,8.602,11.663,14.254,21.185,14.254
	c12.547,0,22.755-10.207,22.755-22.753c0-8.075-4.136-15.109-11.159-19.151C566.127,206.802,550.071,220.362,538.228,230.378z"/>
<path fill="#231F20" d="M533.969,285.009c-0.455,0-0.917-0.104-1.351-0.321c-1.486-0.748-2.084-2.558-1.337-4.044l9.685-19.248
	c0.748-1.485,2.561-2.083,4.044-1.337c1.486,0.748,2.084,2.558,1.337,4.044l-9.685,19.248
	C536.134,284.402,535.072,285.009,533.969,285.009z"/>
<path fill="#231F20" d="M585.993,287.99c-1.284,0-2.474-0.828-2.875-2.118l-6.402-20.572c-0.495-1.588,0.393-3.277,1.98-3.771
	c1.592-0.497,3.277,0.393,3.771,1.98l6.403,20.573c0.494,1.588-0.393,3.277-1.98,3.771
	C586.591,287.946,586.29,287.99,585.993,287.99z"/>
<path fill="#231F20" d="M605.175,214.892c-1.248,0-2.414-0.782-2.846-2.027c-0.544-1.572,0.288-3.288,1.859-3.832l20.357-7.054
	c1.565-0.543,3.286,0.286,3.833,1.859c0.544,1.572-0.288,3.287-1.86,3.832l-20.357,7.054
	C605.834,214.837,605.501,214.892,605.175,214.892z"/>
<path fill="#231F20" d="M621.159,254.319c-0.323,0-0.65-0.052-0.975-0.163l-20.383-6.968c-1.573-0.539-2.412-2.25-1.875-3.825
	c0.538-1.575,2.246-2.413,3.824-1.875l20.383,6.968c1.575,0.538,2.414,2.25,1.875,3.825
	C623.581,253.532,622.413,254.319,621.159,254.319z"/>
<path fill="#231F20" d="M496.074,162.605c-7.103,0-12.882-5.779-12.882-12.884c0-7.103,5.779-12.881,12.882-12.881
	c7.103,0,12.882,5.778,12.882,12.881C508.956,156.826,503.176,162.605,496.074,162.605z M496.074,142.864
	c-3.782,0-6.859,3.076-6.859,6.857c0,3.783,3.077,6.86,6.859,6.86s6.858-3.077,6.858-6.86
	C502.932,145.94,499.855,142.864,496.074,142.864z"/>
<path fill="#231F20" d="M462.293,499.03l-158.945-0.142l0.231-3.224c2.797-39.07,37.599-69.673,79.23-69.673
	c41.714,0,76.529,30.665,79.259,69.814L462.293,499.03z M309.899,492.869l145.854,0.133c-4.143-34.451-35.537-60.986-72.943-60.986
	C345.481,432.016,314.101,458.492,309.899,492.869z"/>
<g>
	<path fill="#231F20" d="M674.266,311.932v-82.934h6.389v82.934H674.266z"/>
	<path fill="#231F20" d="M719.353,305.543v6.389h-26.416v-82.934h6.39v76.545H719.353z"/>
	<path fill="#231F20" d="M766.526,235.386H755.1v76.545h-6.51v-76.545h-11.55v-6.389h29.486V235.386z"/>
	<path fill="#231F20" d="M806.699,228.998v68.19c0,8.846-7.126,15.973-15.974,15.973c-8.845,0-15.971-7.127-15.971-15.973v-68.19
		h6.389v68.19c0,5.283,4.3,9.583,9.582,9.583c5.284,0,9.584-4.3,9.584-9.583v-68.19H806.699z"/>
	<path fill="#231F20" d="M818.118,243.742c0-8.846,7.126-15.973,15.974-15.973c8.847,0,15.973,7.127,15.973,15.973v53.446
		c0,8.846-7.126,15.973-15.973,15.973c-8.848,0-15.974-7.127-15.974-15.973V243.742z M824.507,297.188
		c0,5.283,4.301,9.583,9.585,9.583s9.584-4.3,9.584-9.583v-53.446c0-5.283-4.3-9.583-9.584-9.583s-9.585,4.301-9.585,9.583V297.188z
		"/>
</g>
<g>
	<g>
		<path fill="#FFFFFF" d="M269.659,949.336v62.899c0,8.161-6.569,14.732-14.73,14.732c-8.162,0-14.734-6.571-14.734-14.732v-62.899
			h5.894v62.899c0,4.873,3.967,8.842,8.841,8.842c4.871,0,8.838-3.969,8.838-8.842v-62.899H269.659z"/>
		<path fill="#FFFFFF" d="M286.662,955.229v29.354h13.712v6.006h-13.712v35.246h-5.894v-76.499h24.481v5.894H286.662z"/>
		<path fill="#FFFFFF" d="M319.303,955.229v29.354h13.715v6.006h-13.715v35.246h-5.894v-76.499h24.481v5.894H319.303z"/>
		<path fill="#FFFFFF" d="M346.053,1025.835v-76.499h5.891v76.499H346.053z"/>
		<path fill="#FFFFFF" d="M386.287,974.948v-12.012c0-4.874-3.966-8.842-8.839-8.842c-4.874,0-8.84,3.968-8.84,8.842v49.299
			c0,4.873,3.967,8.842,8.84,8.842c4.873,0,8.839-3.969,8.839-8.842v-10.428h5.894v10.428c0,8.161-6.574,14.732-14.733,14.732
			c-8.162,0-14.735-6.571-14.735-14.732v-49.299c0-8.159,6.573-14.734,14.735-14.734c8.16,0,14.733,6.575,14.733,14.734v11.332
			L386.287,974.948z"/>
		<path fill="#FFFFFF" d="M401.702,1025.835v-76.499h5.892v76.499H401.702z"/>
		<path fill="#FFFFFF" d="M418.363,962.937c0-8.159,6.572-14.734,14.733-14.734c8.162,0,14.732,6.575,14.732,14.734v49.299
			c0,8.161-6.57,14.732-14.732,14.732c-8.162,0-14.733-6.571-14.733-14.732V962.937z M424.256,1012.235
			c0,4.873,3.966,8.842,8.841,8.842c4.872,0,8.841-3.969,8.841-8.842v-49.299c0-4.874-3.969-8.842-8.841-8.842
			c-4.875,0-8.841,3.968-8.841,8.842V1012.235z"/>
	</g>
	<path fill="#FFFFFF" d="M240.944,908.503l-1.108-1.398c-6.561-8.306-10.029-18.302-10.029-28.91
		c0-25.733,20.934-46.671,46.669-46.671c13.159,0,25.78,5.6,34.624,15.367l1.201,1.324L240.944,908.503z M276.476,834.98
		c-23.827,0-43.211,19.387-43.211,43.214c0,9.223,2.828,17.947,8.204,25.342l65.838-55.627
		C299.201,839.671,288.063,834.98,276.476,834.98z"/>
	<rect x="133.722" y="1036.014" fill="#FFFFFF" width="314.64" height="3.456"/>
	<path fill="#FFFFFF" d="M136.575,934.495c-4.833,0-8.765-3.933-8.765-8.768c0-4.834,3.931-8.766,8.765-8.766
		c4.836,0,8.771,3.932,8.771,8.766C145.347,930.562,141.412,934.495,136.575,934.495z M136.575,920.419
		c-2.927,0-5.309,2.381-5.309,5.309s2.382,5.31,5.309,5.31c2.93,0,5.312-2.382,5.312-5.31S139.505,920.419,136.575,920.419z"/>
	
		<rect x="120.117" y="963.483" transform="matrix(0.5073 0.8618 -0.8618 0.5073 910.1842 338.4326)" fill="#FFFFFF" width="78.003" height="3.454"/>
	
		<rect x="188.862" y="819.781" transform="matrix(0.6334 0.7738 -0.7738 0.6334 752.332 175.8309)" fill="#FFFFFF" width="3.457" height="124.32"/>
	<path fill="#FFFFFF" d="M280.606,896.939c-7.388,0-13.751-4.702-15.835-11.702l-0.321-1.083l0.863-0.729
		c21.026-17.785,21.026-17.785,21.738-17.785h0.394l0.351,0.169c5.843,2.798,9.327,8.261,9.327,14.615
		C297.122,889.528,289.714,896.939,280.606,896.939z M268.448,885.3c1.938,4.938,6.691,8.184,12.158,8.184
		c7.201,0,13.058-5.858,13.058-13.06c0-4.635-2.372-8.672-6.402-10.993C284.459,871.768,275.245,879.551,268.448,885.3z"/>
	<path fill="#FFFFFF" d="M266.002,916.654c-0.261,0-0.525-0.057-0.773-0.183c-0.854-0.431-1.197-1.471-0.769-2.321l5.558-11.05
		c0.432-0.851,1.467-1.195,2.321-0.766c0.854,0.428,1.197,1.468,0.77,2.323l-5.559,11.045
		C267.244,916.307,266.636,916.654,266.002,916.654z"/>
	<path fill="#FFFFFF" d="M295.864,918.366c-0.739,0-1.423-0.475-1.65-1.214l-3.678-11.809c-0.284-0.911,0.226-1.881,1.139-2.164
		c0.919-0.282,1.881,0.225,2.164,1.137l3.672,11.807c0.286,0.913-0.225,1.88-1.137,2.164
		C296.206,918.341,296.032,918.366,295.864,918.366z"/>
	<path fill="#FFFFFF" d="M306.869,876.411c-0.715,0-1.383-0.447-1.631-1.162c-0.313-0.901,0.165-1.887,1.067-2.199l11.684-4.048
		c0.895-0.312,1.884,0.164,2.198,1.066c0.312,0.902-0.164,1.887-1.069,2.198l-11.683,4.049
		C307.25,876.381,307.058,876.411,306.869,876.411z"/>
	<path fill="#FFFFFF" d="M316.047,899.042c-0.188,0-0.375-0.031-0.562-0.093l-11.697-4.001c-0.903-0.309-1.386-1.29-1.078-2.196
		c0.312-0.902,1.294-1.385,2.195-1.073l11.699,3.998c0.904,0.309,1.387,1.29,1.076,2.195
		C317.434,898.591,316.765,899.042,316.047,899.042z"/>
	<path fill="#FFFFFF" d="M244.252,846.402c-4.074,0-7.391-3.315-7.391-7.393c0-4.078,3.317-7.393,7.391-7.393
		c4.077,0,7.394,3.314,7.394,7.393C251.646,843.087,248.329,846.402,244.252,846.402z M244.252,835.074
		c-2.168,0-3.932,1.767-3.932,3.936c0,2.171,1.764,3.935,3.932,3.935c2.171,0,3.937-1.764,3.937-3.935
		C248.188,836.841,246.423,835.074,244.252,835.074z"/>
	<path fill="#FFFFFF" d="M224.867,1039.488l-91.227-0.079l0.132-1.852c1.607-22.423,21.581-39.986,45.475-39.986
		c23.942,0,43.924,17.6,45.489,40.066L224.867,1039.488z M137.4,1035.953l83.712,0.077c-2.378-19.773-20.397-35.003-41.865-35.003
		C157.824,1001.027,139.812,1016.223,137.4,1035.953z"/>
	<g>
		<path fill="#FFFFFF" d="M142.019,1078.942v1.359h-5.62v-17.64h1.36v16.28H142.019z"/>
		<path fill="#FFFFFF" d="M147.378,1065.877v-0.549c0.34,0,0.678-0.392,0.678-0.811h-0.678v-1.855h1.359v1.619
			C148.737,1065.172,148.138,1065.877,147.378,1065.877z"/>
		<path fill="#FFFFFF" d="M162.852,1062.662v14.504c0,1.882-1.518,3.399-3.401,3.399c-1.88,0-3.392-1.518-3.392-3.399v-14.504h1.356
			v14.504c0,1.123,0.914,2.04,2.036,2.04c1.128,0,2.039-0.917,2.039-2.04v-14.504H162.852z"/>
		<path fill="#FFFFFF" d="M171.999,1064.023v6.768h3.162v1.384h-3.162v8.127h-1.359v-17.64h5.646v1.361H171.999z"/>
		<path fill="#FFFFFF" d="M184.756,1064.023v6.768h3.16v1.384h-3.16v8.127h-1.36v-17.64h5.645v1.361H184.756z"/>
		<path fill="#FFFFFF" d="M196.15,1080.302v-17.64h1.359v17.64H196.15z"/>
		<path fill="#FFFFFF" d="M210.656,1068.57v-2.771c0-1.126-0.915-2.037-2.038-2.037c-1.125,0-2.037,0.911-2.037,2.037v11.367
			c0,1.123,0.912,2.04,2.037,2.04c1.123,0,2.038-0.917,2.038-2.04v-2.402h1.359v2.402c0,1.882-1.515,3.399-3.397,3.399
			c-1.881,0-3.399-1.518-3.399-3.399v-11.367c0-1.882,1.518-3.399,3.399-3.399c1.882,0,3.397,1.518,3.397,3.399v2.613
			L210.656,1068.57z"/>
		<path fill="#FFFFFF" d="M219.439,1080.302v-17.64h1.359v17.64H219.439z"/>
		<path fill="#FFFFFF" d="M228.509,1065.799c0-1.882,1.516-3.399,3.399-3.399c1.881,0,3.396,1.518,3.396,3.399v11.367
			c0,1.882-1.515,3.399-3.396,3.399c-1.883,0-3.399-1.518-3.399-3.399V1065.799z M229.87,1077.166c0,1.123,0.911,2.04,2.039,2.04
			c1.123,0,2.036-0.917,2.036-2.04v-11.367c0-1.126-0.913-2.037-2.036-2.037c-1.128,0-2.039,0.911-2.039,2.037V1077.166z"/>
		<path fill="#FFFFFF" d="M252.058,1069.169c0,0-0.782-0.94-0.782-2.195v-1.175c0-1.882,1.517-3.399,3.4-3.399
			c1.878,0,3.394,1.518,3.394,3.399v2.193l-1.357,0.158v-2.352c0-1.126-0.918-2.037-2.037-2.037c-1.126,0-2.042,0.911-2.042,2.037
			v1.175c0,0.759,0.47,1.309,0.47,1.309l4.156,4.938c0,0,0.81,0.966,0.81,2.247v1.698c0,1.882-1.516,3.399-3.394,3.399
			c-1.883,0-3.4-1.518-3.4-3.399v-2.589l1.359-0.155v2.744c0,1.123,0.916,2.04,2.042,2.04c1.119,0,2.037-0.917,2.037-2.04v-1.698
			c0-0.759-0.5-1.358-0.5-1.358L252.058,1069.169z"/>
		<path fill="#FFFFFF" d="M272.237,1062.662v14.504c0,1.882-1.517,3.399-3.397,3.399c-1.883,0-3.398-1.518-3.398-3.399v-14.504
			h1.359v14.504c0,1.123,0.913,2.04,2.039,2.04c1.122,0,2.04-0.917,2.04-2.04v-14.504H272.237z"/>
		<path fill="#FFFFFF" d="M294.453,1080.302h-1.54l-2.799-14.792h-0.051v14.792h-1.36v-17.64h2.038l2.901,15.552h0.054l2.928-15.552
			h2.062v17.64h-1.357v-14.921h-0.052L294.453,1080.302z"/>
		<path fill="#FFFFFF" d="M306.531,1080.302v-17.64h1.358v17.64H306.531z"/>
		<path fill="#FFFFFF" d="M316.097,1069.169c0,0-0.782-0.94-0.782-2.195v-1.175c0-1.882,1.514-3.399,3.396-3.399
			c1.879,0,3.397,1.518,3.397,3.399v2.193l-1.359,0.158v-2.352c0-1.126-0.913-2.037-2.038-2.037c-1.126,0-2.037,0.911-2.037,2.037
			v1.175c0,0.759,0.467,1.309,0.467,1.309l4.156,4.938c0,0,0.812,0.966,0.812,2.247v1.698c0,1.882-1.518,3.399-3.397,3.399
			c-1.882,0-3.396-1.518-3.396-3.399v-2.589l1.359-0.155v2.744c0,1.123,0.911,2.04,2.037,2.04c1.125,0,2.038-0.917,2.038-2.04
			v-1.698c0-0.759-0.497-1.358-0.497-1.358L316.097,1069.169z"/>
		<path fill="#FFFFFF" d="M336.273,1062.662v14.504c0,1.882-1.512,3.399-3.396,3.399c-1.883,0-3.398-1.518-3.398-3.399v-14.504
			h1.359v14.504c0,1.123,0.913,2.04,2.039,2.04c1.124,0,2.039-0.917,2.039-2.04v-14.504H336.273z"/>
		<path fill="#FFFFFF" d="M350.73,1080.302h-1.363v-5.854c0-1.279-1.016-2.298-2.297-2.298h-1.646v8.152h-1.358v-17.64h3.004
			c2.014,0,3.661,1.647,3.661,3.659v2.168c0,1.23-0.629,2.326-1.544,2.979c0.915,0.682,1.544,1.753,1.544,2.979V1080.302z
			 M347.07,1070.791c1.282,0,2.297-1.02,2.297-2.302v-2.168c0-1.279-1.016-2.298-2.297-2.298h-1.646v6.768H347.07z"/>
		<path fill="#FFFFFF" d="M364.998,1080.302h-1.358l-0.706-4.519h-3.579l-0.68,4.519h-1.359l2.691-17.64h2.299L364.998,1080.302z
			 M359.564,1074.422h3.162l-1.544-10.243h-0.05L359.564,1074.422z"/>
		<path fill="#FFFFFF" d="M381.602,1072.62v7.682h-1.362v-17.64h3.005c2.012,0,3.658,1.647,3.658,3.659v2.64
			c0,2.011-1.646,3.659-3.658,3.659H381.602z M383.245,1071.261c1.284,0,2.3-1.021,2.3-2.3v-2.64c0-1.279-1.017-2.298-2.3-2.298
			h-1.643v7.237H383.245z"/>
		<path fill="#FFFFFF" d="M395.425,1064.023v6.768h3.163v1.384h-3.163v6.768h4.493v1.359h-5.852v-17.64h5.646v1.361H395.425z"/>
		<path fill="#FFFFFF" d="M413.667,1080.302h-1.358v-5.854c0-1.279-1.019-2.298-2.3-2.298h-1.646v8.152h-1.356v-17.64h3.002
			c2.014,0,3.658,1.647,3.658,3.659v2.168c0,1.23-0.628,2.326-1.54,2.979c0.912,0.682,1.54,1.753,1.54,2.979V1080.302z
			 M410.009,1070.791c1.281,0,2.3-1.02,2.3-2.302v-2.168c0-1.279-1.019-2.298-2.3-2.298h-1.646v6.768H410.009z"/>
		<path fill="#FFFFFF" d="M435.052,1064.023h-2.431v16.278h-1.387v-16.278h-2.456v-1.361h6.274V1064.023z"/>
		<path fill="#FFFFFF" d="M443.441,1064.023v6.768h3.162v1.384h-3.162v6.768h4.492v1.359h-5.853v-17.64h5.646v1.361H443.441z"/>
	</g>
	<g>
		<path fill="#FFFFFF" d="M346.523,932.107v-47.6h3.667v47.6H346.523z"/>
		<path fill="#FFFFFF" d="M372.403,928.44v3.667H357.24v-47.6h3.666v43.933H372.403z"/>
		<path fill="#FFFFFF" d="M399.477,888.173h-6.558v43.935h-3.737v-43.935h-6.63v-3.665h16.925V888.173z"/>
		<path fill="#FFFFFF" d="M422.532,884.508v39.137c0,5.078-4.09,9.169-9.167,9.169c-5.077,0-9.167-4.091-9.167-9.169v-39.137h3.666
			v39.137c0,3.032,2.469,5.501,5.501,5.501c3.035,0,5.5-2.469,5.5-5.501v-39.137H422.532z"/>
		<path fill="#FFFFFF" d="M429.087,892.972c0-5.078,4.092-9.169,9.167-9.169c5.078,0,9.169,4.091,9.169,9.169v30.673
			c0,5.078-4.091,9.169-9.169,9.169c-5.075,0-9.167-4.091-9.167-9.169V892.972z M432.754,923.645c0,3.032,2.468,5.501,5.5,5.501
			c3.031,0,5.499-2.469,5.499-5.501v-30.673c0-3.033-2.468-5.5-5.499-5.5c-3.032,0-5.5,2.467-5.5,5.5V923.645z"/>
	</g>
</g>
<g>
	<g>
		<path fill="#FFFFFF" d="M855.647,949.336v62.899c0,8.161-6.569,14.732-14.73,14.732c-8.162,0-14.734-6.571-14.734-14.732v-62.899
			h5.894v62.899c0,4.873,3.967,8.842,8.841,8.842c4.871,0,8.838-3.969,8.838-8.842v-62.899H855.647z"/>
		<path fill="#FFFFFF" d="M872.65,955.229v29.354h13.712v6.006H872.65v35.246h-5.894v-76.499h24.481v5.894H872.65z"/>
		<path fill="#FFFFFF" d="M905.291,955.229v29.354h13.715v6.006h-13.715v35.246h-5.894v-76.499h24.481v5.894H905.291z"/>
		<path fill="#FFFFFF" d="M932.041,1025.835v-76.499h5.891v76.499H932.041z"/>
		<path fill="#FFFFFF" d="M972.275,974.948v-12.012c0-4.874-3.966-8.842-8.839-8.842c-4.874,0-8.841,3.968-8.841,8.842v49.299
			c0,4.873,3.967,8.842,8.841,8.842c4.873,0,8.839-3.969,8.839-8.842v-10.428h5.894v10.428c0,8.161-6.573,14.732-14.732,14.732
			c-8.162,0-14.735-6.571-14.735-14.732v-49.299c0-8.159,6.573-14.734,14.735-14.734c8.159,0,14.732,6.575,14.732,14.734v11.332
			L972.275,974.948z"/>
		<path fill="#FFFFFF" d="M987.69,1025.835v-76.499h5.892v76.499H987.69z"/>
		<path fill="#FFFFFF" d="M1004.352,962.937c0-8.159,6.571-14.734,14.733-14.734s14.732,6.575,14.732,14.734v49.299
			c0,8.161-6.57,14.732-14.732,14.732s-14.733-6.571-14.733-14.732V962.937z M1010.244,1012.235c0,4.873,3.966,8.842,8.841,8.842
			c4.872,0,8.841-3.969,8.841-8.842v-49.299c0-4.874-3.969-8.842-8.841-8.842c-4.875,0-8.841,3.968-8.841,8.842V1012.235z"/>
	</g>
	<path fill="#FFFFFF" d="M826.933,908.503l-1.109-1.398c-6.561-8.306-10.028-18.302-10.028-28.91
		c0-25.733,20.935-46.671,46.669-46.671c13.159,0,25.78,5.6,34.624,15.367l1.201,1.324L826.933,908.503z M862.464,834.98
		c-23.826,0-43.211,19.387-43.211,43.214c0,9.223,2.828,17.947,8.204,25.342l65.839-55.627
		C885.189,839.671,874.052,834.98,862.464,834.98z"/>
	<rect x="719.71" y="1036.014" fill="#FFFFFF" width="314.641" height="3.456"/>
	<path fill="#FFFFFF" d="M722.563,934.495c-4.834,0-8.765-3.933-8.765-8.768c0-4.834,3.931-8.766,8.765-8.766
		c4.836,0,8.771,3.932,8.771,8.766C731.335,930.562,727.399,934.495,722.563,934.495z M722.563,920.419
		c-2.927,0-5.309,2.381-5.309,5.309s2.382,5.31,5.309,5.31c2.93,0,5.312-2.382,5.312-5.31S725.493,920.419,722.563,920.419z"/>
	
		<rect x="706.105" y="963.483" transform="matrix(0.5073 0.8618 -0.8618 0.5073 1198.8988 -166.553)" fill="#FFFFFF" width="78.003" height="3.454"/>
	
		<rect x="774.85" y="819.781" transform="matrix(0.6334 0.7738 -0.7738 0.6334 967.1512 -277.6177)" fill="#FFFFFF" width="3.457" height="124.32"/>
	<path fill="#FFFFFF" d="M866.595,896.939c-7.388,0-13.751-4.702-15.836-11.702l-0.32-1.083l0.863-0.729
		c21.025-17.785,21.025-17.785,21.737-17.785h0.394l0.352,0.169c5.843,2.798,9.326,8.261,9.326,14.615
		C883.11,889.528,875.702,896.939,866.595,896.939z M854.437,885.3c1.938,4.938,6.691,8.184,12.158,8.184
		c7.201,0,13.058-5.858,13.058-13.06c0-4.635-2.372-8.672-6.401-10.993C870.448,871.768,861.233,879.551,854.437,885.3z"/>
	<path fill="#FFFFFF" d="M851.99,916.654c-0.261,0-0.525-0.057-0.773-0.183c-0.854-0.431-1.196-1.471-0.769-2.321l5.558-11.05
		c0.432-0.851,1.468-1.195,2.321-0.766c0.854,0.428,1.197,1.468,0.77,2.323l-5.559,11.045
		C853.231,916.307,852.624,916.654,851.99,916.654z"/>
	<path fill="#FFFFFF" d="M881.853,918.366c-0.74,0-1.424-0.475-1.65-1.214l-3.678-11.809c-0.283-0.911,0.226-1.881,1.139-2.164
		c0.919-0.282,1.881,0.225,2.164,1.137l3.672,11.807c0.286,0.913-0.225,1.88-1.137,2.164
		C882.194,918.341,882.021,918.366,881.853,918.366z"/>
	<path fill="#FFFFFF" d="M892.857,876.411c-0.715,0-1.383-0.447-1.631-1.162c-0.313-0.901,0.165-1.887,1.067-2.199l11.684-4.048
		c0.895-0.312,1.885,0.164,2.199,1.066c0.311,0.902-0.164,1.887-1.069,2.198l-11.683,4.049
		C893.239,876.381,893.046,876.411,892.857,876.411z"/>
	<path fill="#FFFFFF" d="M902.035,899.042c-0.188,0-0.374-0.031-0.562-0.093l-11.697-4.001c-0.904-0.309-1.387-1.29-1.078-2.196
		c0.312-0.902,1.294-1.385,2.194-1.073l11.699,3.998c0.904,0.309,1.388,1.29,1.076,2.195
		C903.423,898.591,902.753,899.042,902.035,899.042z"/>
	<path fill="#FFFFFF" d="M830.24,846.402c-4.073,0-7.392-3.315-7.392-7.393c0-4.078,3.318-7.393,7.392-7.393
		c4.077,0,7.394,3.314,7.394,7.393C837.634,843.087,834.317,846.402,830.24,846.402z M830.24,835.074
		c-2.168,0-3.933,1.767-3.933,3.936c0,2.171,1.765,3.935,3.933,3.935c2.171,0,3.937-1.764,3.937-3.935
		C834.177,836.841,832.411,835.074,830.24,835.074z"/>
	<path fill="#FFFFFF" d="M810.855,1039.488l-91.227-0.079l0.132-1.852c1.607-22.423,21.581-39.986,45.475-39.986
		c23.942,0,43.924,17.6,45.489,40.066L810.855,1039.488z M723.389,1035.953l83.712,0.077c-2.378-19.773-20.396-35.003-41.865-35.003
		C743.812,1001.027,725.801,1016.223,723.389,1035.953z"/>
	<g>
		<path fill="#FFFFFF" d="M728.007,1078.942v1.359h-5.62v-17.64h1.36v16.28H728.007z"/>
		<path fill="#FFFFFF" d="M733.366,1065.877v-0.549c0.34,0,0.678-0.392,0.678-0.811h-0.678v-1.855h1.359v1.619
			C734.726,1065.172,734.126,1065.877,733.366,1065.877z"/>
		<path fill="#FFFFFF" d="M748.84,1062.662v14.504c0,1.882-1.518,3.399-3.401,3.399c-1.88,0-3.392-1.518-3.392-3.399v-14.504h1.356
			v14.504c0,1.123,0.913,2.04,2.035,2.04c1.129,0,2.039-0.917,2.039-2.04v-14.504H748.84z"/>
		<path fill="#FFFFFF" d="M757.987,1064.023v6.768h3.162v1.384h-3.162v8.127h-1.359v-17.64h5.646v1.361H757.987z"/>
		<path fill="#FFFFFF" d="M770.744,1064.023v6.768h3.16v1.384h-3.16v8.127h-1.36v-17.64h5.645v1.361H770.744z"/>
		<path fill="#FFFFFF" d="M782.139,1080.302v-17.64h1.359v17.64H782.139z"/>
		<path fill="#FFFFFF" d="M796.644,1068.57v-2.771c0-1.126-0.914-2.037-2.037-2.037c-1.125,0-2.037,0.911-2.037,2.037v11.367
			c0,1.123,0.912,2.04,2.037,2.04c1.123,0,2.037-0.917,2.037-2.04v-2.402h1.359v2.402c0,1.882-1.515,3.399-3.396,3.399
			c-1.881,0-3.398-1.518-3.398-3.399v-11.367c0-1.882,1.518-3.399,3.398-3.399c1.882,0,3.396,1.518,3.396,3.399v2.613
			L796.644,1068.57z"/>
		<path fill="#FFFFFF" d="M805.428,1080.302v-17.64h1.359v17.64H805.428z"/>
		<path fill="#FFFFFF" d="M814.497,1065.799c0-1.882,1.517-3.399,3.399-3.399c1.881,0,3.396,1.518,3.396,3.399v11.367
			c0,1.882-1.515,3.399-3.396,3.399c-1.883,0-3.399-1.518-3.399-3.399V1065.799z M815.858,1077.166c0,1.123,0.91,2.04,2.038,2.04
			c1.123,0,2.036-0.917,2.036-2.04v-11.367c0-1.126-0.913-2.037-2.036-2.037c-1.128,0-2.038,0.911-2.038,2.037V1077.166z"/>
		<path fill="#FFFFFF" d="M838.046,1069.169c0,0-0.782-0.94-0.782-2.195v-1.175c0-1.882,1.517-3.399,3.4-3.399
			c1.878,0,3.394,1.518,3.394,3.399v2.193l-1.356,0.158v-2.352c0-1.126-0.918-2.037-2.037-2.037c-1.126,0-2.042,0.911-2.042,2.037
			v1.175c0,0.759,0.471,1.309,0.471,1.309l4.155,4.938c0,0,0.81,0.966,0.81,2.247v1.698c0,1.882-1.516,3.399-3.394,3.399
			c-1.884,0-3.4-1.518-3.4-3.399v-2.589l1.358-0.155v2.744c0,1.123,0.916,2.04,2.042,2.04c1.119,0,2.037-0.917,2.037-2.04v-1.698
			c0-0.759-0.5-1.358-0.5-1.358L838.046,1069.169z"/>
		<path fill="#FFFFFF" d="M858.226,1062.662v14.504c0,1.882-1.517,3.399-3.396,3.399c-1.883,0-3.398-1.518-3.398-3.399v-14.504
			h1.359v14.504c0,1.123,0.913,2.04,2.039,2.04c1.121,0,2.039-0.917,2.039-2.04v-14.504H858.226z"/>
		<path fill="#FFFFFF" d="M880.441,1080.302h-1.54l-2.799-14.792h-0.051v14.792h-1.36v-17.64h2.038l2.901,15.552h0.054l2.929-15.552
			h2.062v17.64h-1.357v-14.921h-0.052L880.441,1080.302z"/>
		<path fill="#FFFFFF" d="M892.52,1080.302v-17.64h1.358v17.64H892.52z"/>
		<path fill="#FFFFFF" d="M902.085,1069.169c0,0-0.781-0.94-0.781-2.195v-1.175c0-1.882,1.514-3.399,3.396-3.399
			c1.88,0,3.397,1.518,3.397,3.399v2.193l-1.359,0.158v-2.352c0-1.126-0.913-2.037-2.038-2.037c-1.126,0-2.037,0.911-2.037,2.037
			v1.175c0,0.759,0.468,1.309,0.468,1.309l4.155,4.938c0,0,0.812,0.966,0.812,2.247v1.698c0,1.882-1.518,3.399-3.397,3.399
			c-1.882,0-3.396-1.518-3.396-3.399v-2.589l1.358-0.155v2.744c0,1.123,0.911,2.04,2.037,2.04c1.125,0,2.038-0.917,2.038-2.04
			v-1.698c0-0.759-0.496-1.358-0.496-1.358L902.085,1069.169z"/>
		<path fill="#FFFFFF" d="M922.261,1062.662v14.504c0,1.882-1.512,3.399-3.395,3.399s-3.398-1.518-3.398-3.399v-14.504h1.359v14.504
			c0,1.123,0.913,2.04,2.039,2.04c1.123,0,2.039-0.917,2.039-2.04v-14.504H922.261z"/>
		<path fill="#FFFFFF" d="M936.719,1080.302h-1.363v-5.854c0-1.279-1.016-2.298-2.298-2.298h-1.646v8.152h-1.357v-17.64h3.004
			c2.015,0,3.661,1.647,3.661,3.659v2.168c0,1.23-0.629,2.326-1.544,2.979c0.915,0.682,1.544,1.753,1.544,2.979V1080.302z
			 M933.058,1070.791c1.282,0,2.298-1.02,2.298-2.302v-2.168c0-1.279-1.016-2.298-2.298-2.298h-1.646v6.768H933.058z"/>
		<path fill="#FFFFFF" d="M950.986,1080.302h-1.358l-0.705-4.519h-3.579l-0.68,4.519h-1.359l2.69-17.64h2.3L950.986,1080.302z
			 M945.552,1074.422h3.162l-1.544-10.243h-0.05L945.552,1074.422z"/>
		<path fill="#FFFFFF" d="M967.591,1072.62v7.682h-1.363v-17.64h3.006c2.012,0,3.657,1.647,3.657,3.659v2.64
			c0,2.011-1.646,3.659-3.657,3.659H967.591z M969.233,1071.261c1.283,0,2.3-1.021,2.3-2.3v-2.64c0-1.279-1.017-2.298-2.3-2.298
			h-1.643v7.237H969.233z"/>
		<path fill="#FFFFFF" d="M981.413,1064.023v6.768h3.163v1.384h-3.163v6.768h4.493v1.359h-5.852v-17.64h5.646v1.361H981.413z"/>
		<path fill="#FFFFFF" d="M999.655,1080.302h-1.357v-5.854c0-1.279-1.02-2.298-2.301-2.298h-1.646v8.152h-1.356v-17.64h3.002
			c2.014,0,3.658,1.647,3.658,3.659v2.168c0,1.23-0.628,2.326-1.54,2.979c0.912,0.682,1.54,1.753,1.54,2.979V1080.302z
			 M995.997,1070.791c1.281,0,2.301-1.02,2.301-2.302v-2.168c0-1.279-1.02-2.298-2.301-2.298h-1.646v6.768H995.997z"/>
		<path fill="#FFFFFF" d="M1021.04,1064.023h-2.431v16.278h-1.388v-16.278h-2.455v-1.361h6.273V1064.023z"/>
		<path fill="#FFFFFF" d="M1029.43,1064.023v6.768h3.162v1.384h-3.162v6.768h4.492v1.359h-5.853v-17.64h5.646v1.361H1029.43z"/>
	</g>
	<g>
		<path fill="#FFFFFF" d="M932.512,932.107v-47.6h3.667v47.6H932.512z"/>
		<path fill="#FFFFFF" d="M958.392,928.44v3.667h-15.163v-47.6h3.666v43.933H958.392z"/>
		<path fill="#FFFFFF" d="M985.466,888.173h-6.559v43.935h-3.737v-43.935h-6.63v-3.665h16.926V888.173z"/>
		<path fill="#FFFFFF" d="M1008.521,884.508v39.137c0,5.078-4.09,9.169-9.167,9.169s-9.167-4.091-9.167-9.169v-39.137h3.666v39.137
			c0,3.032,2.469,5.501,5.501,5.501c3.034,0,5.5-2.469,5.5-5.501v-39.137H1008.521z"/>
		<path fill="#FFFFFF" d="M1015.075,892.972c0-5.078,4.092-9.169,9.167-9.169c5.078,0,9.169,4.091,9.169,9.169v30.673
			c0,5.078-4.091,9.169-9.169,9.169c-5.075,0-9.167-4.091-9.167-9.169V892.972z M1018.742,923.645c0,3.032,2.468,5.501,5.5,5.501
			c3.031,0,5.499-2.469,5.499-5.501v-30.673c0-3.033-2.468-5.5-5.499-5.5c-3.032,0-5.5,2.467-5.5,5.5V923.645z"/>
	</g>
</g>
<g>
	<path fill="#231F20" d="M526.808,1591.089l-1.73-2.186c-10.248-12.973-15.666-28.586-15.666-45.158c0-40.197,32.701-72.9,72.9-72.9
		c20.555,0,40.27,8.746,54.082,24.002l1.877,2.072L526.808,1591.089z M582.312,1476.245c-37.221,0-67.5,30.281-67.5,67.5
		c0,14.408,4.42,28.033,12.816,39.584l102.842-86.891C617.806,1483.571,600.409,1476.245,582.312,1476.245z"/>
	<rect x="359.323" y="1790.263" fill="#231F20" width="491.477" height="5.4"/>
	<path fill="#231F20" d="M363.786,1631.688c-7.555,0-13.695-6.145-13.695-13.695s6.141-13.691,13.695-13.691
		c7.551,0,13.695,6.141,13.695,13.691S371.337,1631.688,363.786,1631.688z M363.786,1609.702c-4.574,0-8.295,3.719-8.295,8.291
		s3.721,8.295,8.295,8.295c4.572,0,8.295-3.723,8.295-8.295S368.358,1609.702,363.786,1609.702z"/>
	
		<rect x="338.072" y="1676.966" transform="matrix(0.5073 0.8618 -0.8618 0.5073 1644.0564 483.7146)" fill="#231F20" width="121.848" height="5.398"/>
	
		<rect x="445.457" y="1452.505" transform="matrix(0.6336 0.7737 -0.7737 0.6336 1363.0471 221.0385)" fill="#231F20" width="5.398" height="194.188"/>
	<path fill="#231F20" d="M588.761,1573.026c-11.537,0-21.475-7.348-24.73-18.279l-0.504-1.693l1.348-1.139
		c32.84-27.779,32.84-27.779,33.955-27.779h0.615l0.549,0.264c9.125,4.367,14.566,12.902,14.566,22.828
		C614.56,1561.45,602.989,1573.026,588.761,1573.026z M569.771,1554.845c3.027,7.711,10.453,12.781,18.99,12.781
		c11.25,0,20.4-9.15,20.4-20.398c0-7.238-3.705-13.547-10.002-17.172C594.78,1533.708,580.386,1545.864,569.771,1554.845z"/>
	<path fill="#231F20" d="M565.952,1603.821c-0.41,0-0.82-0.09-1.211-0.287c-1.334-0.672-1.869-2.295-1.201-3.625l8.684-17.258
		c0.67-1.33,2.291-1.869,3.625-1.199c1.334,0.672,1.869,2.295,1.201,3.629l-8.684,17.254
		C567.89,1603.276,566.938,1603.821,565.952,1603.821z"/>
	<path fill="#231F20" d="M612.593,1606.495c-1.152,0-2.221-0.74-2.578-1.898l-5.74-18.441c-0.445-1.426,0.352-2.941,1.775-3.383
		c1.436-0.439,2.939,0.352,3.381,1.777l5.738,18.441c0.445,1.426-0.352,2.938-1.775,3.381
		C613.128,1606.456,612.858,1606.495,612.593,1606.495z"/>
	<path fill="#231F20" d="M629.788,1540.962c-1.119,0-2.164-0.699-2.551-1.818c-0.49-1.406,0.258-2.947,1.668-3.434l18.248-6.324
		c1.4-0.486,2.947,0.258,3.438,1.668c0.486,1.408-0.258,2.947-1.668,3.434l-18.252,6.324
		C630.38,1540.913,630.081,1540.962,629.788,1540.962z"/>
	<path fill="#231F20" d="M644.12,1576.31c-0.293,0-0.584-0.049-0.877-0.146l-18.271-6.248c-1.41-0.482-2.164-2.016-1.682-3.43
		c0.486-1.41,2.02-2.164,3.426-1.678l18.275,6.244c1.412,0.482,2.166,2.02,1.68,3.43
		C646.288,1575.604,645.241,1576.31,644.12,1576.31z"/>
	
		<circle fill="none" stroke="#231F20" stroke-width="5.4001" stroke-linecap="round" stroke-miterlimit="10" cx="531.979" cy="1482.538" r="8.848"/>
	<path fill="#231F20" d="M501.696,1795.69l-142.498-0.125l0.209-2.891c2.508-35.025,33.707-62.461,71.029-62.461
		c37.4,0,68.609,27.49,71.055,62.586L501.696,1795.69z M365.071,1790.169l130.76,0.119c-3.715-30.887-31.859-54.674-65.395-54.674
		C396.972,1735.614,368.839,1759.349,365.071,1790.169z"/>
</g>
<g>
	<g>
		<path fill="#231F20" d="M480.565,2255.404c-2.391-3.825-1.604-8.55,1.78-10.667c3.386-2.117,7.978-0.759,10.372,3.067
			c2.394,3.827,1.604,8.548-1.781,10.667C487.551,2260.588,482.959,2259.231,480.565,2255.404z"/>
		<path fill="#231F20" d="M497.682,2218.831l-45.563,14.602l-1.126-3.512l45.563-14.602L497.682,2218.831z"/>
		<path fill="#231F20" d="M488.633,2193.759l3.644-0.543l2.254,15.071l-47.319,7.069l-0.544-3.645l43.673-6.524L488.633,2193.759z"
			/>
		<path fill="#231F20" d="M451.083,2158.456l-0.955,6.523l43.691,6.413l-0.545,3.718l-43.693-6.415l-0.968,6.592l-3.647-0.534
			l2.47-16.832L451.083,2158.456z"/>
		<path fill="#231F20" d="M457.342,2127.317l36.798,13.943c4.772,1.807,7.163,7.11,5.353,11.885
			c-1.809,4.773-7.11,7.162-11.884,5.354l-36.801-13.942l1.307-3.448l36.799,13.942c2.851,1.081,6.05-0.361,7.132-3.211
			c1.079-2.853-0.363-6.054-3.212-7.132l-36.799-13.943L457.342,2127.317z"/>
		<path fill="#231F20" d="M471.813,2117.87c-4.212-2.887-5.275-8.604-2.388-12.813c2.885-4.21,8.605-5.274,12.812-2.389
			l25.436,17.444c4.209,2.887,5.275,8.604,2.389,12.814c-2.888,4.209-8.605,5.273-12.814,2.387L471.813,2117.87z M499.332,2132.272
			c2.514,1.726,5.964,1.083,7.688-1.433c1.725-2.513,1.081-5.964-1.432-7.687l-25.436-17.445c-2.513-1.724-5.963-1.081-7.687,1.435
			c-1.726,2.514-1.082,5.965,1.432,7.688L499.332,2132.272z"/>
		<path fill="#231F20" d="M512.858,2064.107l22.884,32.001c2.97,4.15,2.019,9.887-2.135,12.856
			c-4.151,2.969-9.884,2.018-12.854-2.135l-22.887-32l2.999-2.144l22.884,32c1.775,2.479,5.235,3.053,7.715,1.279
			c2.479-1.771,3.054-5.234,1.282-7.713l-22.887-31.999L512.858,2064.107z"/>
		<path fill="#231F20" d="M531.846,2058.442l7.156,16.905l7.9-3.343l1.463,3.459l-7.897,3.344l8.595,20.302l-3.395,1.438
			l-18.654-44.062l14.101-5.971l1.437,3.394L531.846,2058.442z"/>
		<path fill="#231F20" d="M558.791,2049.492l3.609,18.007l8.413-1.688l0.74,3.684l-8.413,1.687l4.337,21.621l-3.615,0.725
			l-9.411-46.925l15.017-3.012l0.724,3.615L558.791,2049.492z"/>
		<path fill="#231F20" d="M584.198,2090.452l-1.695-47.818l3.683-0.13l1.695,47.817L584.198,2090.452z"/>
		<path fill="#231F20" d="M613.483,2060.585l1.049-7.44c0.426-3.019-1.684-5.822-4.703-6.249c-3.02-0.425-5.824,1.686-6.252,4.704
			l-4.306,30.539c-0.427,3.021,1.685,5.823,4.702,6.25c3.021,0.427,5.824-1.685,6.25-4.703l0.912-6.459l3.65,0.514l-0.91,6.46
			c-0.713,5.056-5.36,8.552-10.414,7.84c-5.056-0.715-8.555-5.361-7.843-10.415l4.309-30.539c0.715-5.056,5.358-8.553,10.415-7.841
			c5.057,0.713,8.553,5.359,7.84,10.414l-0.99,7.021L613.483,2060.585z"/>
		<path fill="#231F20" d="M618.142,2094.592l14.887-45.475l3.502,1.147l-14.887,45.475L618.142,2094.592z"/>
		<path fill="#231F20" d="M646.562,2063.08c2.43-4.487,8.006-6.144,12.492-3.71c4.488,2.434,6.143,8.008,3.709,12.494
			l-14.697,27.107c-2.432,4.488-8.006,6.142-12.492,3.709c-4.488-2.433-6.143-8.006-3.709-12.493L646.562,2063.08z
			 M635.104,2091.944c-1.453,2.68-0.453,6.041,2.225,7.496c2.68,1.453,6.041,0.453,7.496-2.225l14.697-27.11
			c1.455-2.678,0.455-6.042-2.225-7.496c-2.68-1.451-6.043-0.452-7.496,2.228L635.104,2091.944z"/>
	</g>
	<g>
		<path fill="#231F20" d="M504.473,2289.051l-0.968,1.113l-4.598-4.001l12.555-14.441l1.113,0.968l-11.59,13.329L504.473,2289.051z"
			/>
		<path fill="#231F20" d="M515.85,2279.944l0.363-0.471c0.292,0.228,0.845,0.118,1.123-0.242l-0.584-0.451l1.235-1.594l1.165,0.904
			l-1.076,1.39C517.483,2280.242,516.498,2280.45,515.85,2279.944z"/>
		<path fill="#231F20" d="M528.797,2284.795l-8.659,13.137c-1.124,1.704-3.402,2.172-5.105,1.051
			c-1.704-1.123-2.172-3.401-1.049-5.106l8.659-13.137l1.229,0.811l-8.656,13.139c-0.673,1.017-0.391,2.392,0.628,3.062
			c1.018,0.671,2.391,0.389,3.064-0.629l8.658-13.139L528.797,2284.795z"/>
		<path fill="#231F20" d="M533.511,2289.146l-3.434,6.495l3.034,1.604l-0.704,1.329l-3.033-1.604l-4.124,7.798l-1.304-0.689
			l8.95-16.925l5.418,2.863l-0.691,1.304L533.511,2289.146z"/>
		<path fill="#231F20" d="M542.708,2293.62l-2.846,6.771l3.163,1.328l-0.582,1.389l-3.163-1.33l-3.417,8.13l-1.361-0.572
			l7.417-17.646l5.647,2.373l-0.572,1.359L542.708,2293.62z"/>
		<path fill="#231F20" d="M545.428,2313.603l6.116-18.144l1.397,0.471l-6.114,18.144L545.428,2313.603z"/>
		<path fill="#231F20" d="M561.66,2305.048l0.734-2.914c0.298-1.182-0.421-2.386-1.606-2.685c-1.18-0.297-2.384,0.423-2.682,1.606
			l-3.011,11.958c-0.296,1.184,0.423,2.386,1.606,2.685c1.183,0.298,2.387-0.422,2.685-1.604l0.636-2.531l1.43,0.36l-0.637,2.53
			c-0.499,1.979-2.494,3.172-4.474,2.673c-1.98-0.498-3.172-2.495-2.675-4.472l3.01-11.962c0.497-1.979,2.494-3.172,4.475-2.673
			c1.979,0.498,3.172,2.494,2.673,4.473l-0.692,2.749L561.66,2305.048z"/>
		<path fill="#231F20" d="M565.819,2318.856l3.208-18.867l1.452,0.249l-3.207,18.866L565.819,2318.856z"/>
		<path fill="#231F20" d="M574.878,2304.351c0.183-2.033,1.967-3.522,4.001-3.34c2.032,0.184,3.523,1.969,3.341,4.002l-1.106,12.283
			c-0.181,2.035-1.967,3.525-4,3.343c-2.034-0.183-3.525-1.969-3.342-4.002L574.878,2304.351z M575.241,2316.771
			c-0.109,1.213,0.791,2.289,2.005,2.397c1.213,0.11,2.292-0.789,2.401-2.002l1.104-12.287c0.111-1.213-0.791-2.29-2.003-2.397
			c-1.215-0.111-2.293,0.789-2.401,2.002L575.241,2316.771z"/>
		<path fill="#231F20" d="M594.063,2308.759c0,0-0.913-0.967-0.996-2.326l-0.079-1.272c-0.124-2.036,1.417-3.778,3.453-3.905
			c2.037-0.125,3.78,1.414,3.906,3.453l0.146,2.378l-1.462,0.261l-0.155-2.548c-0.076-1.218-1.127-2.146-2.345-2.072
			c-1.217,0.076-2.146,1.128-2.07,2.344l0.077,1.274c0.05,0.819,0.597,1.381,0.597,1.381l4.831,5.073c0,0,0.94,0.993,1.026,2.379
			l0.113,1.839c0.126,2.039-1.415,3.781-3.453,3.907c-2.038,0.124-3.78-1.415-3.904-3.452l-0.174-2.802l1.461-0.262l0.184,2.973
			c0.076,1.217,1.127,2.147,2.342,2.071c1.219-0.076,2.147-1.127,2.072-2.344l-0.113-1.84c-0.051-0.822-0.628-1.439-0.628-1.439
			L594.063,2308.759z"/>
		<path fill="#231F20" d="M611.565,2299.655l2.527,15.536c0.326,2.017-1.031,3.904-3.047,4.231c-2.017,0.326-3.904-1.03-4.232-3.046
			l-2.527-15.538l1.455-0.238l2.528,15.541c0.195,1.201,1.337,2.021,2.538,1.826c1.205-0.197,2.023-1.335,1.83-2.538l-2.527-15.538
			L611.565,2299.655z"/>
		<path fill="#231F20" d="M634.015,2313.288l-1.58,0.544l-8.09-14.187l-0.051,0.02l5.219,15.172l-1.393,0.482l-6.227-18.097
			l2.09-0.72l8.463,14.927l0.055-0.019l-2.486-16.982l2.117-0.73l6.227,18.096l-1.395,0.48l-5.266-15.307l-0.053,0.017
			L634.015,2313.288z"/>
		<path fill="#231F20" d="M644.366,2309.163l-7.916-17.426l1.344-0.609l7.916,17.426L644.366,2309.163z"/>
		<path fill="#231F20" d="M646.038,2294.979c0,0-1.236-0.481-1.893-1.674l-0.617-1.117c-0.986-1.789-0.342-4.023,1.447-5.01
			c1.787-0.985,4.021-0.34,5.008,1.448l1.15,2.085l-1.209,0.861l-1.232-2.234c-0.59-1.066-1.938-1.458-3.004-0.868
			c-1.068,0.589-1.457,1.937-0.869,3.006l0.615,1.116c0.398,0.72,1.133,0.996,1.133,0.996l6.537,2.515c0,0,1.275,0.493,1.947,1.709
			l0.889,1.617c0.986,1.786,0.34,4.018-1.447,5.007c-1.787,0.985-4.021,0.34-5.006-1.448l-1.357-2.458l1.209-0.862l1.439,2.608
			c0.588,1.066,1.936,1.458,3.004,0.867c1.068-0.588,1.455-1.937,0.869-3.002l-0.893-1.617c-0.396-0.721-1.184-1.03-1.184-1.03
			L646.038,2294.979z"/>
		<path fill="#231F20" d="M657.954,2279.262l8.941,12.951c1.16,1.681,0.74,3.969-0.939,5.129c-1.682,1.161-3.969,0.742-5.131-0.938
			l-8.939-12.951l1.213-0.84l8.943,12.951c0.691,1.006,2.072,1.258,3.076,0.565c1.002-0.692,1.256-2.074,0.564-3.077l-8.941-12.953
			L657.954,2279.262z"/>
		<path fill="#231F20" d="M679.562,2286.271l-1.121,0.958l-4.125-4.829c-0.9-1.058-2.461-1.18-3.516-0.277l-1.359,1.16l5.744,6.727
			l-1.121,0.958l-12.43-14.552l2.482-2.118c1.658-1.419,4.176-1.219,5.596,0.44l1.527,1.79c0.863,1.013,1.121,2.36,0.826,3.543
			c1.232-0.084,2.506,0.36,3.373,1.371L679.562,2286.271z M669.841,2281.001c1.057-0.901,1.18-2.459,0.277-3.517l-1.529-1.789
			c-0.9-1.057-2.459-1.18-3.518-0.278l-1.357,1.16l4.768,5.584L669.841,2281.001z"/>
		<path fill="#231F20" d="M689.118,2276.833l-1.037,1.05l-4.027-2.907l-2.732,2.764l2.971,3.975l-1.039,1.051l-11.559-15.543
			l1.756-1.775L689.118,2276.833z M680.433,2276.54l2.414-2.439l-9.084-6.63l-0.041,0.042L680.433,2276.54z"/>
		<path fill="#231F20" d="M691.052,2261.213l6.771,4.865l-0.861,1.197l-15.547-11.169l1.904-2.65
			c1.273-1.773,3.766-2.182,5.541-0.908l2.326,1.672c1.773,1.274,2.182,3.769,0.908,5.542L691.052,2261.213z M690.896,2258.9
			c0.812-1.128,0.559-2.672-0.57-3.483l-2.326-1.67c-1.129-0.812-2.672-0.557-3.484,0.569l-1.041,1.452l6.379,4.583L690.896,2258.9z
			"/>
		<path fill="#231F20" d="M689.812,2246.282l6.34,3.713l1.732-2.963l1.297,0.76l-1.732,2.962l6.338,3.71l2.463-4.209l1.273,0.745
			l-3.211,5.481l-16.516-9.671l3.096-5.286l1.271,0.744L689.812,2246.282z"/>
		<path fill="#231F20" d="M713.237,2239.304l-0.619,1.337l-5.764-2.669c-1.262-0.582-2.73-0.045-3.314,1.215l-0.748,1.623
			l8.027,3.718l-0.619,1.336l-17.371-8.04l1.371-2.962c0.916-1.979,3.287-2.85,5.27-1.933l2.137,0.988
			c1.209,0.56,2.004,1.678,2.23,2.877c1.086-0.592,2.426-0.721,3.635-0.16L713.237,2239.304z M702.202,2238.567
			c0.584-1.261,0.045-2.729-1.217-3.312l-2.137-0.988c-1.26-0.584-2.729-0.045-3.311,1.218l-0.752,1.62l6.666,3.085
			L702.202,2238.567z"/>
		<path fill="#231F20" d="M702.507,2216.43l-0.752,2.526l16.924,5.049l-0.43,1.438l-16.924-5.048l-0.762,2.553l-1.412-0.421
			l1.943-6.521L702.507,2216.43z"/>
		<path fill="#231F20" d="M703.767,2210.997l7.195,1.476l0.693-3.361l1.473,0.302l-0.691,3.363l7.197,1.477l0.98-4.779l1.445,0.297
			l-1.277,6.225l-18.756-3.849l1.23-6.004l1.447,0.296L703.767,2210.997z"/>
	</g>
	<g>
		<path fill="#231F20" d="M697.017,2079.046c0.02,0.274-0.02,0.557-0.133,0.825c-0.387,0.928-1.445,1.368-2.373,0.985l-11.998-4.973
			c-0.926-0.388-1.367-1.445-0.982-2.373c0.383-0.928,1.447-1.368,2.379-0.986l11.992,4.979
			C696.558,2077.772,696.968,2078.384,697.017,2079.046z"/>
		<path fill="#231F20" d="M696.517,2047.638c0.059,0.773-0.389,1.526-1.145,1.822l-12.086,4.755
			c-0.934,0.371-1.988-0.086-2.352-1.019c-0.369-0.945,0.086-1.991,1.021-2.357l12.088-4.754c0.934-0.369,1.982,0.091,2.352,1.024
			C696.466,2047.281,696.503,2047.461,696.517,2047.638z"/>
		<path fill="#231F20" d="M651.729,2039.328c0.055,0.75-0.363,1.489-1.096,1.8c-0.916,0.401-1.99-0.027-2.383-0.95l-5.137-11.921
			c-0.395-0.919,0.027-1.988,0.947-2.39c0.924-0.396,1.988,0.027,2.387,0.95l5.137,11.929
			C651.671,2038.935,651.716,2039.134,651.729,2039.328z"/>
		<path fill="#231F20" d="M674.729,2027.979c0.014,0.197-0.004,0.396-0.055,0.596l-3.291,12.559
			c-0.26,0.969-1.246,1.553-2.221,1.299c-0.969-0.258-1.551-1.244-1.291-2.216l3.285-12.558c0.256-0.97,1.25-1.554,2.221-1.299
			C674.147,2026.562,674.673,2027.232,674.729,2027.979z"/>
	</g>
</g>
<text transform="matrix(1 0 0 1 5 1349.8057)" fill="#DBD9D4" font-family="'WorkSans-Medium'" font-size="17">Design Element</text>
<text transform="matrix(1 0 0 1 1039.2412 1571.8057)" fill="#DBD9D4" font-family="'WorkSans-Medium'" font-size="14">©</text>
<text transform="matrix(1 0 0 1 1050.5537 1571.8057)" fill="#DBD9D4" font-family="'WorkSans-Medium'" font-size="17"> </text>
<text transform="matrix(1 0 0 1 1078.1123 1361.8057)" fill="#DBD9D4" font-family="'WorkSans-Medium'" font-size="14">Delphine Geny</text>
<line fill="none" stroke="#DBD9D4" stroke-width="1.8" stroke-miterlimit="10" x1="5.382" y1="1359.211" x2="1055.382" y2="1359.211"/>
<text transform="matrix(1 0 0 1 5 1914.8643)" fill="#DBD9D4" font-family="'WorkSans-Medium'" font-size="17">Logo alternative</text>
<text transform="matrix(1 0 0 1 1078.1123 1926.8643)" fill="#DBD9D4" font-family="'WorkSans-Medium'" font-size="14">Delphine Geny</text>
<line fill="none" stroke="#DBD9D4" stroke-width="1.8" stroke-miterlimit="10" x1="5.382" y1="1924.27" x2="1055.382" y2="1924.27"/>
<text transform="matrix(1 0 0 1 3 648.5693)" fill="#DBD9D4" font-family="'WorkSans-Medium'" font-size="17">Logo with baseline</text>
<text transform="matrix(1 0 0 1 1059.2412 660.5693)" fill="#DBD9D4" font-family="'WorkSans-Medium'" font-size="14">©</text>
<text transform="matrix(1 0 0 1 1070.5537 660.5693)" fill="#DBD9D4" font-family="'WorkSans-Medium'" font-size="17"> </text>
<text transform="matrix(1 0 0 1 1076.1123 660.5693)" fill="#DBD9D4" font-family="'WorkSans-Medium'" font-size="14">Delphine Geny</text>
<line fill="none" stroke="#DBD9D4" stroke-width="1.8" stroke-miterlimit="10" x1="3.382" y1="657.976" x2="1053.382" y2="657.976"/>
</svg>
