<?xml version="1.0" encoding="utf-8"?>
<!-- Generator: Adobe Illustrator 16.0.0, SVG Export Plug-In . SVG Version: 6.00 Build 0)  -->
<!DOCTYPE svg PUBLIC "-//W3C//DTD SVG 1.1//EN" "http://www.w3.org/Graphics/SVG/1.1/DTD/svg11.dtd">
<svg version="1.1" id="Calque_1" xmlns="http://www.w3.org/2000/svg" xmlns:xlink="http://www.w3.org/1999/xlink" x="0px" y="0px"
	 width="1181.764px" height="641.768px" viewBox="0 0 1181.764 641.768" enable-background="new 0 0 1181.764 641.768"
	 xml:space="preserve">
<text transform="matrix(1 0 0 1 2.9998 14.3269)" fill="#DBD9D4" font-family="'WorkSans-Medium'" font-size="17">Logo</text>
<text transform="matrix(1 0 0 1 1059.2415 26.3269)" fill="#DBD9D4" font-family="'WorkSans-Medium'" font-size="14">©</text>
<text transform="matrix(1 0 0 1 1070.554 26.3269)" fill="#DBD9D4" font-family="'WorkSans-Medium'" font-size="17"> </text>
<text transform="matrix(1 0 0 1 1076.1125 26.3269)" fill="#DBD9D4" font-family="'WorkSans-Medium'" font-size="14">Delphine Geny</text>
<line fill="none" stroke="#DBD9D4" stroke-width="1.8" stroke-miterlimit="10" x1="3.382" y1="23.733" x2="1053.382" y2="23.733"/>
<g>
	<path fill="#231F20" d="M263.467,281.546v5.221l6.967-0.127v31.083c0,1.404-0.12,2.784-0.364,4.116
		c-0.24,1.333-0.666,2.507-1.278,3.527c-0.608,1.024-1.471,1.853-2.59,2.472c-1.106,0.636-2.539,0.954-4.292,0.954
		c-2.177,0-3.917-0.592-5.207-1.791c-1.282-1.19-2.125-2.795-2.511-4.831l-6.117,1.239c0.689,3.688,2.23,6.458,4.662,8.297
		c2.422,1.845,5.456,2.772,9.101,2.772c2.771,0,5.088-0.443,6.953-1.329c1.871-0.854,3.377-1.998,4.512-3.414
		c1.144-1.398,1.966-2.96,2.489-4.691c0.5-1.727,0.75-3.461,0.75-5.21v-33.066l0.004-0.127l6.975,0.127v-5.221L263.467,281.546
		L263.467,281.546z"/>
	<path fill="#231F20" d="M320.301,325.082c0,1.554,0.046,3.001,0.152,4.359c0.091,1.361,0.134,2.603,0.134,3.711h-5.378
		c0-0.917-0.029-1.84-0.076-2.756c-0.053-0.924-0.075-1.871-0.075-2.848h-0.15c-0.393,0.834-0.929,1.636-1.636,2.408
		c-0.703,0.775-1.536,1.468-2.512,2.074c-0.966,0.598-2.062,1.091-3.268,1.47c-1.216,0.353-2.531,0.527-3.933,0.527
		c-2.235,0-4.168-0.336-5.796-1.008c-1.623-0.685-2.967-1.631-4.043-2.852c-1.062-1.212-1.848-2.674-2.359-4.395
		c-0.511-1.732-0.761-3.606-0.761-5.646v-21.039h5.67v20.454c0,2.866,0.636,5.123,1.895,6.767c1.26,1.656,3.226,2.48,5.9,2.48
		c1.837,0,3.431-0.312,4.767-0.949c1.33-0.624,2.435-1.531,3.276-2.691c0.854-1.168,1.485-2.546,1.891-4.154
		c0.415-1.587,0.623-3.375,0.623-5.311V299.09h5.679L320.301,325.082L320.301,325.082z"/>
</g>
<rect x="333.842" y="278.126" fill="#231F20" width="5.67" height="55.024"/>
<g>
	<path fill="#231F20" d="M353.561,299.091h5.679v34.061h-5.679V299.091z M352.269,285.768c0-1.115,0.389-2.088,1.181-2.91
		c0.804-0.833,1.791-1.244,2.95-1.244c1.177,0,2.156,0.412,2.958,1.244c0.792,0.822,1.199,1.794,1.199,2.91
		c0,1.205-0.387,2.21-1.161,2.979c-0.773,0.788-1.772,1.175-2.996,1.175c-1.206,0-2.201-0.387-2.982-1.175
		C352.646,287.978,352.269,286.972,352.269,285.768"/>
	<path fill="#231F20" d="M398.339,313.075c-0.091-2.916-1.049-5.25-2.832-7.001c-1.81-1.749-4.271-2.612-7.435-2.612
		c-3.155,0-5.704,0.863-7.641,2.612c-1.94,1.751-3.102,4.084-3.489,7.001H398.339z M403.219,326.975
		c-2.043,2.62-4.272,4.456-6.696,5.494c-2.436,1.041-5.244,1.563-8.455,1.563c-2.665,0-5.062-0.479-7.205-1.42
		c-2.13-0.942-3.933-2.21-5.422-3.82c-1.469-1.59-2.616-3.496-3.421-5.676c-0.808-2.181-1.201-4.525-1.201-6.989
		c0-2.629,0.437-5.038,1.313-7.237c0.875-2.22,2.088-4.107,3.637-5.681c1.559-1.575,3.401-2.809,5.535-3.686
		c2.14-0.865,4.458-1.312,6.985-1.312c2.378,0,4.56,0.407,6.552,1.201c1.99,0.8,3.713,1.961,5.134,3.504
		c1.44,1.525,2.542,3.392,3.316,5.602c0.782,2.206,1.163,4.717,1.163,7.53v1.817h-27.513c0.1,1.461,0.438,2.852,1.042,4.194
		c0.62,1.334,1.401,2.503,2.377,3.488c0.97,1.002,2.106,1.786,3.417,2.371c1.314,0.578,2.746,0.871,4.292,0.871
		c2.479,0,4.565-0.439,6.27-1.316c1.693-0.867,3.223-2.145,4.583-3.862L403.219,326.975z"/>
</g>
<path fill="#231F20" d="M458.545,289.48h-0.143l-10.699,25.335h21.036L458.545,289.48z M455.777,281.615h5.762l21.905,51.54h-7.135
	l-5.242-12.661h-25.767l-5.313,12.661h-6.912L455.777,281.615z"/>
<path fill="#231F20" d="M521.224,325.082c0,1.554,0.048,3.001,0.149,4.359c0.096,1.361,0.149,2.603,0.149,3.711h-5.392
	c0-0.917-0.036-1.84-0.067-2.756c-0.055-0.924-0.082-1.871-0.082-2.848h-0.147c-0.383,0.834-0.92,1.636-1.631,2.408
	c-0.713,0.775-1.545,1.468-2.52,2.074c-0.968,0.598-2.062,1.091-3.272,1.47c-1.215,0.353-2.526,0.527-3.929,0.527
	c-2.229,0-4.163-0.336-5.785-1.008c-1.622-0.685-2.976-1.631-4.042-2.852c-1.062-1.212-1.862-2.674-2.377-4.395
	c-0.498-1.732-0.75-3.606-0.75-5.646v-21.039h5.681v20.454c0,2.866,0.625,5.123,1.888,6.767c1.26,1.656,3.23,2.48,5.895,2.48
	c1.847,0,3.431-0.312,4.761-0.949c1.344-0.624,2.436-1.531,3.284-2.691c0.85-1.168,1.48-2.546,1.896-4.154
	c0.422-1.587,0.618-3.375,0.618-5.311V299.09h5.674V325.082L521.224,325.082z"/>
<path fill="#231F20" d="M538.415,316.128c0,1.739,0.306,3.358,0.941,4.836c0.628,1.486,1.496,2.776,2.591,3.855
	c1.087,1.093,2.361,1.957,3.815,2.584c1.449,0.637,3.015,0.951,4.655,0.951c1.941,0,3.67-0.335,5.176-1.016
	c1.508-0.676,2.766-1.582,3.813-2.732c1.042-1.144,1.828-2.446,2.368-3.934c0.542-1.482,0.799-3.047,0.799-4.691
	c0-1.84-0.284-3.526-0.876-5.062c-0.578-1.525-1.406-2.847-2.475-3.959c-1.067-1.125-2.358-1.979-3.854-2.589
	c-1.505-0.611-3.159-0.907-4.954-0.907c-1.789,0-3.431,0.318-4.914,0.98c-1.487,0.655-2.733,1.548-3.786,2.685
	c-1.039,1.151-1.856,2.481-2.43,4.012C538.7,312.666,538.415,314.329,538.415,316.128 M568.256,331.632
	c0,6.209-1.583,10.931-4.761,14.161c-3.181,3.226-7.784,4.835-13.799,4.835c-3.348,0-6.374-0.475-9.066-1.452
	c-2.685-0.976-5.26-2.639-7.68-5.023l4.067-4.656c1.803,1.937,3.706,3.406,5.727,4.408c2.012,0.985,4.328,1.491,6.952,1.491
	c2.518,0,4.625-0.389,6.292-1.13c1.684-0.763,3.002-1.773,3.971-3.064c0.976-1.282,1.647-2.751,2.042-4.404
	c0.383-1.646,0.575-3.368,0.575-5.166v-4.373h-0.133c-1.374,2.186-3.143,3.789-5.324,4.809c-2.181,1.02-4.42,1.53-6.702,1.53
	c-2.665,0-5.109-0.444-7.351-1.303c-2.229-0.89-4.144-2.094-5.754-3.646c-1.601-1.553-2.833-3.396-3.706-5.531
	c-0.88-2.145-1.317-4.47-1.317-6.989c0-2.769,0.436-5.266,1.317-7.508c0.873-2.223,2.098-4.106,3.676-5.646
	c1.58-1.518,3.484-2.704,5.715-3.517c2.224-0.825,4.703-1.242,7.421-1.242c1.161,0,2.332,0.128,3.498,0.405
	c1.16,0.263,2.298,0.674,3.387,1.231c1.089,0.56,2.073,1.268,2.948,2.113c0.873,0.852,1.597,1.835,2.192,2.956h0.133v-5.826h5.679
	v32.54L568.256,331.632L568.256,331.632z"/>
<path fill="#231F20" d="M610.708,325.082c0,1.554,0.04,3.001,0.128,4.359c0.105,1.361,0.154,2.603,0.154,3.711h-5.389
	c0-0.917-0.023-1.84-0.066-2.756c-0.053-0.924-0.068-1.871-0.068-2.848h-0.156c-0.388,0.834-0.932,1.636-1.642,2.408
	c-0.694,0.775-1.545,1.468-2.511,2.074c-0.957,0.598-2.058,1.091-3.264,1.47c-1.221,0.353-2.527,0.527-3.935,0.527
	c-2.243,0-4.163-0.336-5.79-1.008c-1.633-0.685-2.967-1.631-4.043-2.852c-1.065-1.212-1.851-2.674-2.363-4.395
	c-0.512-1.732-0.765-3.606-0.765-5.646v-21.039h5.676v20.454c0,2.866,0.628,5.123,1.901,6.767c1.251,1.656,3.224,2.48,5.881,2.48
	c1.847,0,3.446-0.312,4.777-0.949c1.332-0.624,2.435-1.531,3.279-2.691c0.849-1.168,1.484-2.546,1.886-4.154
	c0.414-1.587,0.624-3.375,0.624-5.311V299.09h5.684L610.708,325.082L610.708,325.082z"/>
<path fill="#231F20" d="M624.456,324.213c1.125,1.394,2.341,2.523,3.674,3.333c1.345,0.835,3.023,1.247,5.067,1.247
	c0.87,0,1.757-0.104,2.66-0.292c0.896-0.192,1.703-0.511,2.44-0.956c0.729-0.43,1.302-0.971,1.752-1.635
	c0.429-0.641,0.646-1.442,0.646-2.354c0-0.933-0.211-1.678-0.623-2.262c-0.405-0.589-0.95-1.082-1.643-1.491
	c-0.671-0.401-1.455-0.738-2.324-0.981c-0.878-0.244-1.771-0.471-2.689-0.663c-1.602-0.338-3.134-0.724-4.586-1.153
	c-1.461-0.437-2.733-1.014-3.83-1.723c-1.083-0.698-1.965-1.602-2.611-2.73c-0.66-1.105-0.979-2.55-0.979-4.294
	c0-1.648,0.362-3.1,1.089-4.365c0.728-1.258,1.697-2.298,2.907-3.131c1.216-0.833,2.582-1.454,4.075-1.894
	c1.511-0.436,3.063-0.656,4.658-0.656c2.431,0,4.678,0.492,6.737,1.461c2.065,0.966,3.683,2.54,4.848,4.736l-4.736,3.122
	c-0.733-1.213-1.682-2.193-2.872-2.939c-1.196-0.758-2.642-1.129-4.328-1.129c-0.788,0-1.578,0.1-2.365,0.288
	c-0.81,0.192-1.521,0.484-2.146,0.879c-0.641,0.386-1.155,0.879-1.568,1.481c-0.416,0.619-0.625,1.303-0.625,2.079
	c0,0.73,0.229,1.352,0.688,1.858c0.462,0.506,1.106,0.963,1.901,1.347c0.802,0.387,1.715,0.723,2.771,1.016
	c1.04,0.301,2.116,0.532,3.238,0.732c1.504,0.294,2.931,0.667,4.288,1.121c1.363,0.475,2.552,1.089,3.573,1.866
	c1.02,0.777,1.821,1.738,2.407,2.909c0.575,1.173,0.868,2.598,0.868,4.304c0,1.94-0.396,3.585-1.163,4.937
	c-0.774,1.364-1.81,2.471-3.099,3.321c-1.278,0.85-2.743,1.465-4.362,1.856c-1.633,0.393-3.284,0.581-4.985,0.581
	c-2.913,0-5.432-0.454-7.536-1.334c-2.111-0.906-4.014-2.576-5.712-4.996L624.456,324.213z"/>
<path fill="#231F20" d="M675.638,303.893h-10.044v17.043c0,1.112,0.026,2.145,0.073,3.087c0.047,0.946,0.239,1.768,0.575,2.477
	c0.348,0.701,0.858,1.26,1.534,1.675c0.68,0.42,1.647,0.618,2.907,0.618c0.83,0,1.685-0.104,2.551-0.292
	c0.873-0.192,1.695-0.482,2.481-0.868l0.208,5.159c-0.967,0.438-2.045,0.758-3.231,0.955c-1.193,0.196-2.318,0.289-3.39,0.289
	c-2.041,0-3.67-0.271-4.88-0.803c-1.204-0.531-2.149-1.286-2.839-2.259c-0.675-0.972-1.119-2.171-1.344-3.601
	c-0.229-1.434-0.324-3.021-0.324-4.766v-18.712h-7.43v-4.803h7.43v-9.689h5.676v9.689h10.044L675.638,303.893L675.638,303.893z"/>
<path fill="#231F20" d="M685.396,299.091h5.674v34.061h-5.674V299.091z M684.091,285.768c0-1.115,0.391-2.088,1.204-2.91
	c0.792-0.833,1.784-1.244,2.939-1.244c1.165,0,2.153,0.412,2.955,1.244c0.791,0.822,1.194,1.794,1.194,2.91
	c0,1.205-0.393,2.21-1.153,2.979c-0.785,0.788-1.786,1.175-2.995,1.175c-1.212,0-2.202-0.387-2.988-1.175
	C684.466,287.978,684.091,286.972,684.091,285.768"/>
<path fill="#231F20" d="M741.728,327.93l-7.415,0.188v-16.003c0-2.044-0.262-3.918-0.771-5.641c-0.507-1.727-1.281-3.19-2.355-4.398
	c-1.071-1.209-2.415-2.163-4.048-2.836c-1.617-0.682-3.55-1.028-5.787-1.028c-1.4,0-2.711,0.187-3.92,0.552
	c-1.221,0.359-2.31,0.841-3.278,1.448c-0.977,0.613-1.813,1.3-2.52,2.087c-0.699,0.78-1.245,1.574-1.634,2.394h-0.15
	c0-0.973-0.023-1.917-0.066-2.844c-0.059-0.914-0.082-1.842-0.082-2.756h-5.389c0,1.115,0.056,2.354,0.156,3.709
	c0.091,1.359,0.143,2.821,0.143,4.367v25.985h5.678v-16.585c0-1.944,0.213-3.723,0.614-5.323c0.414-1.596,1.051-2.987,1.899-4.147
	c0.85-1.167,1.942-2.056,3.279-2.688c1.33-0.642,2.916-0.947,4.765-0.947c2.663,0,4.64,0.828,5.89,2.467
	c1.266,1.652,1.903,3.911,1.903,6.78v20.443h5.672v-0.008h7.415L741.728,327.93L741.728,327.93z"/>
<g>
	<path fill="#24A69E" d="M265.475,414.03c0-11.371,7.879-25.471,18.198-25.471c6.056,0,9.55,1.661,9.55,12.727v32.555h11.829
		v-34.512c0-13.958-12.59-15.17-18.049-15.17c-11.063,0-16.978,6.522-21.221,16.071h-0.307v-16.071
		c-2.724,0.607-5.608,1.061-8.489,1.212c-2.731,0.306-5.607,0.306-8.486,0.306h-3.193v3.488h8.341v44.676h11.828L265.475,414.03
		L265.475,414.03z"/>
	<path fill="#24A69E" d="M379.213,384.16c-5.463,1.371-11.369,1.518-16.987,1.518h-3.483v3.488h8.641v33.96
		c0,3.94-1,7.616-2.77,10.716h14.598L379.213,384.16L379.213,384.16z"/>
	<path fill="#24A69E" d="M339.79,431.771V384.16c-5.46,1.371-11.38,1.518-16.988,1.518h-3.033v3.488h8.192v43.971
		c0,0.235,0.014,0.471,0.02,0.705h11.908C339.832,433.192,339.79,432.512,339.79,431.771z"/>
	<path fill="#24A69E" d="M415.459,389.166h13.346v-3.488h-13.346v-19.263c-3.786,0.613-7.573,0.613-11.523,0.613v18.649h-8.943
		v3.488h8.641v44.676h11.824L415.459,389.166L415.459,389.166z"/>
	<path fill="#24A69E" d="M459.585,413.425c0-6.069,1.677-11.979,3.793-16.381c3.335-6.823,8.495-8.942,8.645-8.942
		c0.457,0,1.366,0,1.366,0.907c0,0.605-0.606,1.979-0.606,3.19c0,3.035,3.184,6.057,5.916,6.057c3.177,0,7.114-1.819,7.114-5.611
		c0-5.759-4.084-8.485-9.24-8.485c-8.334,0-14.409,7.43-17.134,14.253h-0.303v-14.253c-5.46,1.364-11.374,1.518-16.98,1.518h-4.701
		v3.488h10.311v44.676h11.819L459.585,413.425L459.585,413.425z"/>
	<path fill="#24A69E" d="M511.464,384.16c-5.465,1.371-11.386,1.518-16.983,1.518h-5.01v3.488h10.165v44.676h11.829V384.16
		L511.464,384.16z"/>
	<path fill="#24A69E" d="M505.389,369.276c4.402,0,7.734-3.332,7.734-8.027c0-3.945-4.091-7.281-7.734-7.281
		c-3.777,0-7.276,3.336-7.276,7.281C498.114,365.638,501,369.276,505.389,369.276z"/>
	<path fill="#24A69E" d="M549.825,389.166h13.344v-3.488h-13.344v-19.263c-3.787,0.613-7.575,0.613-11.519,0.613v18.649h-8.947
		v3.488h8.645v44.676h11.82L549.825,389.166L549.825,389.166z"/>
	<path fill="#24A69E" d="M589.406,369.276c4.397,0,7.737-3.332,7.737-8.027c0-3.945-4.094-7.281-7.737-7.281
		c-3.781,0-7.272,3.336-7.272,7.281C582.132,365.638,585.007,369.276,589.406,369.276z"/>
	<path fill="#24A69E" d="M595.473,384.16c-5.46,1.371-11.374,1.518-16.976,1.518h-5.001v3.488h10.159v44.676h11.818V384.16z"/>
	<path fill="#24A69E" d="M628.842,415.844c0-12.578,0.149-28.649,15.46-28.649c15.317,0,15.465,16.071,15.465,28.649
		c0,5.937-0.053,12.578-1.639,17.997h10.46c3.134-5.035,4.982-11.178,4.982-17.997c0-18.343-13.344-31.685-29.269-31.685
		c-15.913,0-29.26,13.342-29.26,31.685c0,6.819,1.848,12.962,4.98,17.997h10.453C628.896,428.423,628.842,421.781,628.842,415.844z"
		/>
	<path fill="#24A69E" d="M702.382,414.03c0-11.371,7.89-25.471,18.196-25.471c6.059,0,9.552,1.661,9.552,12.727v32.555h11.829
		v-34.512c0-13.958-12.585-15.17-18.04-15.17c-11.077,0-16.987,6.522-21.234,16.071h-0.301v-16.071
		c-2.727,0.607-5.608,1.061-8.49,1.212c-2.728,0.306-5.606,0.306-8.494,0.306h-3.177v3.488h8.333v44.676h11.826V414.03
		L702.382,414.03z"/>
</g>
<g>
	<rect x="767.903" y="183.829" fill="#24A69E" width="7.016" height="92.847"/>
	<rect x="786.384" y="183.829" fill="#24A69E" width="7" height="92.847"/>
	<path fill="#24A69E" d="M923.246,213.663c16.5,0,29.911-13.426,29.911-29.916c0-16.504-13.411-29.92-29.911-29.92
		c-16.507,0-29.933,13.416-29.933,29.92C893.314,200.238,906.74,213.663,923.246,213.663z M923.246,161.12
		c12.47,0,22.617,10.15,22.617,22.629c0,12.477-10.147,22.62-22.617,22.62c-12.476,0-22.625-10.143-22.625-22.62
		C900.621,171.27,910.771,161.12,923.246,161.12z"/>
	<path fill="#24A69E" d="M974.574,209.689l-3.851-5.831c-20.065,13.621-34.281,35.271-37.918,60.31
		c-9.499-21.009-26.994-37.663-48.587-46.049l-2.487,6.55c26.141,10.179,45.757,33.5,50.674,61.808
		c0.196,1.83,0.461,3.64,0.768,5.438c0.182,1.752,0.293,3.531,0.36,5.316c0.477,13.638-2.222,29.605-9.521,48.253
		c-21.947,56.188-4.477,84.892,7.086,96.596h-69.623V405.1c10.571-0.947,19.896-6.994,26.48-17.309
		c11.694-18.268,12.021-44.614,0.853-68.779c-10.64-23.035-24.967-47.041-25.094-47.274l-3.01-5.01l-3.009,4.998
		c-0.162,0.289-18,29.907-27.891,47.008c-13.077,22.625-14.388,47.38-3.526,66.223c6.555,11.352,16.885,18.608,28.19,20.021v37.103
		h-69.678V299.548c9.914-0.541,17.548-3.418,22.724-8.615c6.525-6.54,6.521-14.401,6.521-14.477l0.036-92.741l-7.008,0.014
		l-0.039,92.674c-0.04,1.679-1.042,16.245-25.646,16.245c-24.644,0-25.906-14.754-25.969-16.437l0.037-92.446h-6.998l-0.051,92.483
		c0.023,0.9,0.886,21.666,29.385,23.28v142.554H217.4v7.001h724.54v-7.001h-0.002l0.002-0.003
		c-5.415-3.587-37.183-28.052-11.397-94.038c5.157-13.189,8.27-25.632,9.461-37.335c0.061-0.454,0.105-0.938,0.153-1.386
		c0.028-0.372,0.077-0.75,0.097-1.117c0.232-2.568,0.363-5.167,0.363-7.803c0-3.228-0.168-6.414-0.517-9.545
		c-0.198-1.827-0.471-3.652-0.776-5.444c-0.291-2.785-0.445-5.617-0.445-8.483C938.877,248.997,953.05,224.311,974.574,209.689z
		 M832.357,381.453c-9.611-16.65-8.293-38.791,3.515-59.208c6.943-12.026,18.057-30.601,24.043-40.612l0.749-1.229l0.705,1.246
		c4.77,8.335,13.868,24.663,21.09,40.311c10.008,21.665,9.857,46.033-0.391,62.064c-5.873,9.179-14.236,14.218-23.544,14.218
		C848.2,398.243,838.425,391.974,832.357,381.453z"/>
</g>
</svg>
