<?xml version="1.0" encoding="utf-8"?>
<!-- Generator: Adobe Illustrator 16.0.0, SVG Export Plug-In . SVG Version: 6.00 Build 0)  -->
<!DOCTYPE svg PUBLIC "-//W3C//DTD SVG 1.1//EN" "http://www.w3.org/Graphics/SVG/1.1/DTD/svg11.dtd">
<svg version="1.1" id="Calque_1" xmlns="http://www.w3.org/2000/svg" xmlns:xlink="http://www.w3.org/1999/xlink" x="0px" y="0px"
	 width="1181.764px" height="2677.557px" viewBox="0 -592.349 1181.764 2677.557"
	 enable-background="new 0 -592.349 1181.764 2677.557" xml:space="preserve">
<rect y="-446.861" fill="#24A69E" width="590.685" height="289.486"/>
<rect x="589.579" y="-446.861" width="590.685" height="289.486"/>
<rect x="226.089" y="99.516" fill="#24A69E" width="329.675" height="70"/>
<text transform="matrix(1 0 0 1 31.0181 113.1562)" fill="#4C4C4C" font-family="'WorkSans-Bold'" font-size="18">CMYK</text>
<text transform="matrix(1 0 0 1 83.9561 113.1562)" fill="#4C4C4C" font-family="'WorkSans-Regular'" font-size="18">  77 11 43 0   </text>
<text transform="matrix(1 0 0 1 31.0181 140.1562)" fill="#4C4C4C" font-family="'WorkSans-Bold'" font-size="18">RGB </text>
<text transform="matrix(1 0 0 1 73.8931 140.1562)" fill="#4C4C4C" font-family="'WorkSans-Regular'" font-size="18"> 40 166 159</text>
<text transform="matrix(1 0 0 1 31.0181 167.1562)" fill="#4C4C4C" font-family="'WorkSans-Bold'" font-size="18">HEX</text>
<text transform="matrix(1 0 0 1 67.665 167.1562)" fill="#4C4C4C" font-family="'WorkSans-Regular'" font-size="18">  #28a69f</text>
<text transform="matrix(1 0 0 1 511.2432 89.5)" fill="#4C4C4C" font-family="'WorkSans-Regular'" font-size="18">100%</text>
<text transform="matrix(1 0 0 1 483.8887 663.1191)" fill="#494747" font-family="'Avenir-Roman'" font-size="28.263" letter-spacing="1">ABCDEFGHIJKLMNOPQRSTUVWXZ  </text>
<text transform="matrix(1 0 0 1 483.8887 703.4893)" fill="#494747" font-family="'Avenir-Roman'" font-size="28.263" letter-spacing="1">abcdefghijklmnopqrstuvwxyz</text>
<text transform="matrix(1 0 0 1 483.8887 744.4893)" fill="#494747" font-family="'Avenir-Roman'" font-size="28.263" letter-spacing="1">1234567890</text>
<text transform="matrix(1 0 0 1 3 -33.9062)" fill="#DBD9D4" font-family="'WorkSans-Medium'" font-size="17">Color Palette</text>
<text transform="matrix(1 0 0 1 444.0781 52.0938)" fill="#DBD9D4" font-family="'WorkSans-Medium'" font-size="17">Primary Color</text>
<text transform="matrix(1 0 0 1 618.0781 52.0938)" fill="#DBD9D4" font-family="'WorkSans-Medium'" font-size="17">Secondary Color</text>
<text transform="matrix(1 0 0 1 1059.2412 -21.9062)" fill="#DBD9D4" font-family="'WorkSans-Medium'" font-size="14">©</text>
<text transform="matrix(1 0 0 1 1070.5537 -21.9062)" fill="#DBD9D4" font-family="'WorkSans-Medium'" font-size="17"> </text>
<text transform="matrix(1 0 0 1 1076.1123 -21.9062)" fill="#DBD9D4" font-family="'WorkSans-Medium'" font-size="14">Delphine Geny</text>
<line fill="none" stroke="#DBD9D4" stroke-width="1.8" stroke-miterlimit="10" x1="3.382" y1="-24.5" x2="1053.382" y2="-24.5"/>
<text transform="matrix(1 0 0 1 3 -523.3779)" fill="#DBD9D4" font-family="'WorkSans-Medium'" font-size="17">Logo alternative</text>
<text transform="matrix(1 0 0 1 1059.2412 -511.3779)" fill="#DBD9D4" font-family="'WorkSans-Medium'" font-size="14">©</text>
<text transform="matrix(1 0 0 1 1070.5537 -511.3779)" fill="#DBD9D4" font-family="'WorkSans-Medium'" font-size="17"> </text>
<text transform="matrix(1 0 0 1 1076.1123 -511.3779)" fill="#DBD9D4" font-family="'WorkSans-Medium'" font-size="14">Delphine Geny</text>
<line fill="none" stroke="#DBD9D4" stroke-width="1.8" stroke-miterlimit="10" x1="3.382" y1="-513.972" x2="1053.382" y2="-513.972"/>
<line fill="none" stroke="#DBD9D4" stroke-width="1.8" stroke-miterlimit="10" x1="585.452" y1="290.511" x2="585.452" y2="35.954"/>
<text transform="matrix(1 0 0 1 3 484.5723)" fill="#DBD9D4" font-family="'WorkSans-Medium'" font-size="17">Typography</text>
<text transform="matrix(1 0 0 1 1059.2412 496.5723)" fill="#DBD9D4" font-family="'WorkSans-Medium'" font-size="14">©</text>
<text transform="matrix(1 0 0 1 1070.5537 496.5723)" fill="#DBD9D4" font-family="'WorkSans-Medium'" font-size="17"> </text>
<text transform="matrix(1 0 0 1 1076.1123 496.5723)" fill="#DBD9D4" font-family="'WorkSans-Medium'" font-size="14">Delphine Geny</text>
<line fill="none" stroke="#DBD9D4" stroke-width="1.8" stroke-miterlimit="10" x1="3.382" y1="493.978" x2="1053.382" y2="493.978"/>
<g>
	<text transform="matrix(1 0 0 1 246.207 138.0625)" fill="#FFFFFF" font-family="'WorkSans-Bold'" font-size="18">Pantone</text>
	<text transform="matrix(1 0 0 1 320.1499 138.0625)" enable-background="new    "><tspan x="0" y="0" fill="#4C4C4C" font-family="'WorkSans-Regular'" font-size="18">  </tspan><tspan x="12.275" y="0" fill="#FFFFFF" font-family="'WorkSans-Regular'" font-size="18">3272C </tspan></text>
</g>
<rect x="810.089" y="99.516" fill="#EAE536" width="329.675" height="70"/>
<text transform="matrix(1 0 0 1 615.0186 113.1562)" fill="#4C4C4C" font-family="'WorkSans-Bold'" font-size="18">CMYK</text>
<text transform="matrix(1 0 0 1 667.9561 113.1562)" fill="#4C4C4C" font-family="'WorkSans-Regular'" font-size="18">  11 0 99 0   </text>
<text transform="matrix(1 0 0 1 615.0186 140.1562)" fill="#4C4C4C" font-family="'WorkSans-Bold'" font-size="18">RGB </text>
<text transform="matrix(1 0 0 1 657.8936 140.1562)" fill="#4C4C4C" font-family="'WorkSans-Regular'" font-size="18"> 235 229 53</text>
<text transform="matrix(1 0 0 1 615.0186 167.1562)" fill="#4C4C4C" font-family="'WorkSans-Bold'" font-size="18">HEX</text>
<text transform="matrix(1 0 0 1 651.665 167.1562)" fill="#4C4C4C" font-family="'WorkSans-Regular'" font-size="18">  #eae536</text>
<text transform="matrix(1 0 0 1 1095.2432 89.5)" fill="#4C4C4C" font-family="'WorkSans-Regular'" font-size="18">100%</text>
<g>
	<text transform="matrix(1 0 0 1 830.207 138.0625)" fill="#FFFFFF" font-family="'WorkSans-Bold'" font-size="18">Pantone</text>
	<text transform="matrix(1 0 0 1 904.1494 138.0625)" enable-background="new    "><tspan x="0" y="0" fill="#4C4C4C" font-family="'WorkSans-Regular'" font-size="18">  </tspan><tspan x="12.275" y="0" fill="#FFFFFF" font-family="'WorkSans-Regular'" font-size="18">166-8C </tspan></text>
</g>
<rect x="226.089" y="219.51" fill="#231F20" width="329.675" height="70"/>
<text transform="matrix(1 0 0 1 31.0181 233.1504)" fill="#4C4C4C" font-family="'WorkSans-Bold'" font-size="18">CMYK</text>
<text transform="matrix(1 0 0 1 83.9561 233.1504)" fill="#4C4C4C" font-family="'WorkSans-Regular'" font-size="18">  40 30 30 100   </text>
<text transform="matrix(1 0 0 1 31.0181 260.1504)" fill="#4C4C4C" font-family="'WorkSans-Bold'" font-size="18">RGB </text>
<text transform="matrix(1 0 0 1 73.8931 260.1504)" fill="#4C4C4C" font-family="'WorkSans-Regular'" font-size="18"> 0 0 0</text>
<text transform="matrix(1 0 0 1 31.0181 287.1504)" fill="#4C4C4C" font-family="'WorkSans-Bold'" font-size="18">HEX</text>
<text transform="matrix(1 0 0 1 67.665 287.1504)" fill="#4C4C4C" font-family="'WorkSans-Regular'" font-size="18">  #000</text>
<text transform="matrix(1 0 0 1 511.2432 209.4941)" fill="#4C4C4C" font-family="'WorkSans-Regular'" font-size="18">100%</text>
<g>
	<text transform="matrix(1 0 0 1 246.207 258.0566)" fill="#FFFFFF" font-family="'WorkSans-Bold'" font-size="18">Black</text>
	<text transform="matrix(1 0 0 1 293.1499 258.0566)" fill="#FFFFFF" font-family="'WorkSans-Regular'" font-size="18">  100%</text>
</g>
<text transform="matrix(1 0 0 1 482.4038 610.3887)" fill="#494747" font-family="'Avenir-Book'" font-size="56">Avenir Roman</text>
<rect x="189.994" y="606.917" fill="none" width="305.489" height="193.254"/>
<text transform="matrix(1 0 0 1 146.9932 746.4497)" enable-background="new    "><tspan x="0" y="0" fill="#24A69E" font-family="'Avenir-Roman'" font-size="242.5374" letter-spacing="3">A</tspan><tspan x="174.625" y="0" fill="#24A69E" font-family="'Avenir-Roman'" font-size="242.5374" letter-spacing="23">a</tspan></text>
<line fill="none" stroke="#494747" stroke-width="1.2272" stroke-miterlimit="10" x1="485.494" y1="622.051" x2="997.382" y2="622.051"/>
<text transform="matrix(1 0 0 1 483.8887 997.1191)" fill="#494747" font-family="'BodoniStd-Book'" font-size="28.263" letter-spacing="1">ABCDEFGHIJKLMNOPQRSTUVWXZ  </text>
<text transform="matrix(1 0 0 1 483.8887 1037.4893)" fill="#494747" font-family="'BodoniStd-Book'" font-size="28.263" letter-spacing="1">abcdefghijklmnopqrstuvwxyz</text>
<text transform="matrix(1 0 0 1 483.8887 1078.4893)" fill="#494747" font-family="'BodoniStd-Book'" font-size="28.263" letter-spacing="1">1234567890</text>
<text transform="matrix(1 0 0 1 482.4038 944.3887)" fill="#494747" font-family="'BodoniStd-Book'" font-size="56">Bodoni Std Book</text>
<rect x="189.994" y="940.917" fill="none" width="305.489" height="193.254"/>
<text transform="matrix(1 0 0 1 146.9932 1080.4497)" enable-background="new    "><tspan x="0" y="0" fill="#24A69E" font-family="'BodoniStd-Book'" font-size="242.5374" letter-spacing="3">A</tspan><tspan x="165.651" y="0" fill="#24A69E" font-family="'BodoniStd-Book'" font-size="242.5374" letter-spacing="23">a</tspan></text>
<line fill="none" stroke="#494747" stroke-width="1.2272" stroke-miterlimit="10" x1="485.494" y1="956.051" x2="997.382" y2="956.051"/>
<text transform="matrix(1 0 0 1 3 1208.4912)" fill="#DBD9D4" font-family="'WorkSans-Medium'" font-size="17">Design Element</text>
<text transform="matrix(1 0 0 1 1059.2412 1220.4912)" fill="#DBD9D4" font-family="'WorkSans-Medium'" font-size="14">©</text>
<text transform="matrix(1 0 0 1 1070.5537 1220.4912)" fill="#DBD9D4" font-family="'WorkSans-Medium'" font-size="17"> </text>
<text transform="matrix(1 0 0 1 1076.1123 1220.4912)" fill="#DBD9D4" font-family="'WorkSans-Medium'" font-size="14">Delphine Geny</text>
<line fill="none" stroke="#DBD9D4" stroke-width="1.8" stroke-miterlimit="10" x1="3.382" y1="1217.897" x2="1053.382" y2="1217.897"/>
<g>
	<path fill="#FFFFFF" d="M115.45-319.242v2.752l3.672-0.067v16.386c0,0.74-0.063,1.468-0.191,2.17
		c-0.126,0.703-0.351,1.321-0.673,1.859c-0.321,0.541-0.776,0.977-1.366,1.304c-0.583,0.335-1.338,0.503-2.262,0.503
		c-1.148,0-2.065-0.312-2.745-0.944c-0.676-0.627-1.12-1.474-1.324-2.547l-3.225,0.653c0.364,1.945,1.176,3.404,2.458,4.374
		c1.277,0.973,2.876,1.462,4.797,1.462c1.46,0,2.682-0.234,3.666-0.701c0.986-0.451,1.78-1.053,2.378-1.8
		c0.602-0.738,1.037-1.561,1.312-2.473c0.264-0.91,0.396-1.825,0.396-2.747v-17.431l0.002-0.067l3.677,0.067v-2.752H115.45z"/>
	<path fill="#FFFFFF" d="M145.41-296.292c0,0.818,0.025,1.581,0.081,2.299c0.048,0.717,0.071,1.372,0.071,1.956h-2.835
		c0-0.483-0.016-0.97-0.041-1.453c-0.028-0.487-0.04-0.986-0.04-1.501h-0.079c-0.207,0.439-0.49,0.862-0.863,1.269
		c-0.37,0.409-0.809,0.774-1.324,1.094c-0.509,0.315-1.087,0.575-1.723,0.775c-0.641,0.187-1.334,0.278-2.074,0.278
		c-1.178,0-2.196-0.177-3.054-0.531c-0.855-0.361-1.564-0.86-2.131-1.503c-0.56-0.639-0.975-1.409-1.244-2.316
		c-0.27-0.913-0.401-1.901-0.401-2.977v-11.091h2.989v10.782c0,1.51,0.335,2.701,0.999,3.567c0.664,0.873,1.701,1.308,3.11,1.308
		c0.969,0,1.809-0.165,2.513-0.501c0.701-0.329,1.283-0.807,1.727-1.418c0.45-0.616,0.782-1.343,0.997-2.19
		c0.219-0.836,0.328-1.779,0.328-2.799v-8.749h2.994V-296.292z"/>
</g>
<rect x="152.548" y="-321.045" fill="#FFFFFF" width="2.989" height="29.006"/>
<g>
	<path fill="#FFFFFF" d="M162.943-309.993h2.994v17.956h-2.994V-309.993z M162.262-317.018c0-0.587,0.206-1.1,0.623-1.533
		c0.423-0.439,0.943-0.656,1.554-0.656c0.621,0,1.137,0.217,1.56,0.656c0.417,0.434,0.632,0.946,0.632,1.533
		c0,0.636-0.204,1.165-0.612,1.57c-0.408,0.416-0.934,0.62-1.58,0.62c-0.636,0-1.16-0.204-1.572-0.62
		C162.461-315.853,162.262-316.382,162.262-317.018"/>
	<path fill="#FFFFFF" d="M186.548-302.622c-0.048-1.538-0.554-2.767-1.494-3.691c-0.954-0.922-2.252-1.377-3.92-1.377
		c-1.663,0-3.006,0.455-4.028,1.377c-1.023,0.924-1.635,2.153-1.839,3.691H186.548z M189.121-295.294
		c-1.077,1.381-2.252,2.349-3.529,2.896c-1.284,0.549-2.764,0.825-4.457,0.825c-1.405,0-2.669-0.253-3.798-0.749
		c-1.123-0.497-2.073-1.165-2.858-2.014c-0.774-0.839-1.379-1.843-1.804-2.992c-0.426-1.149-0.634-2.386-0.634-3.685
		c0-1.386,0.23-2.656,0.693-3.815c0.46-1.17,1.101-2.166,1.917-2.995c0.822-0.83,1.793-1.48,2.918-1.943
		c1.127-0.456,2.35-0.691,3.682-0.691c1.254,0,2.404,0.215,3.454,0.633c1.049,0.422,1.957,1.034,2.707,1.848
		c0.759,0.805,1.339,1.788,1.748,2.953c0.412,1.163,0.613,2.487,0.613,3.97v0.958h-14.504c0.053,0.77,0.232,1.503,0.549,2.211
		c0.327,0.704,0.739,1.319,1.253,1.839c0.511,0.528,1.111,0.942,1.802,1.25c0.693,0.306,1.447,0.459,2.263,0.459
		c1.307,0,2.406-0.232,3.305-0.694c0.893-0.457,1.699-1.13,2.416-2.036L189.121-295.294z"/>
</g>
<path fill="#FFFFFF" d="M218.287-315.06h-0.075l-5.64,13.355h11.089L218.287-315.06z M216.827-319.207h3.037l11.547,27.169h-3.761
	l-2.764-6.674h-13.583l-2.801,6.674h-3.644L216.827-319.207z"/>
<path fill="#FFFFFF" d="M251.328-296.292c0,0.818,0.025,1.581,0.078,2.299c0.051,0.717,0.078,1.372,0.078,1.956h-2.841
	c0-0.483-0.02-0.97-0.037-1.453c-0.029-0.487-0.042-0.986-0.042-1.501h-0.077c-0.201,0.439-0.485,0.862-0.859,1.269
	c-0.376,0.409-0.815,0.774-1.329,1.094c-0.51,0.315-1.088,0.575-1.726,0.775c-0.641,0.187-1.332,0.278-2.071,0.278
	c-1.175,0-2.194-0.177-3.05-0.531c-0.854-0.361-1.569-0.86-2.131-1.503c-0.56-0.639-0.981-1.409-1.253-2.316
	c-0.263-0.913-0.396-1.901-0.396-2.977v-11.091h2.995v10.782c0,1.51,0.329,2.701,0.996,3.567c0.664,0.873,1.703,1.308,3.107,1.308
	c0.974,0,1.809-0.165,2.511-0.501c0.709-0.329,1.284-0.807,1.731-1.418c0.448-0.616,0.78-1.343,1-2.19
	c0.222-0.836,0.325-1.779,0.325-2.799v-8.749h2.991V-296.292z"/>
<path fill="#FFFFFF" d="M260.39-301.013c0,0.917,0.161,1.77,0.496,2.549c0.331,0.784,0.789,1.464,1.365,2.032
	c0.574,0.576,1.245,1.032,2.011,1.362c0.764,0.336,1.589,0.501,2.455,0.501c1.023,0,1.934-0.177,2.729-0.536
	c0.795-0.356,1.458-0.834,2.011-1.441c0.549-0.603,0.963-1.29,1.248-2.073c0.285-0.782,0.422-1.607,0.422-2.473
	c0-0.97-0.149-1.859-0.462-2.668c-0.305-0.805-0.741-1.501-1.304-2.087c-0.563-0.593-1.244-1.043-2.032-1.365
	c-0.793-0.322-1.665-0.479-2.611-0.479c-0.943,0-1.809,0.168-2.59,0.518c-0.783,0.345-1.441,0.815-1.996,1.416
	c-0.547,0.607-0.978,1.308-1.281,2.115C260.54-302.837,260.39-301.961,260.39-301.013 M276.12-292.84
	c0,3.273-0.834,5.763-2.51,7.465c-1.677,1.701-4.103,2.549-7.274,2.549c-1.765,0-3.36-0.25-4.779-0.766
	c-1.415-0.515-2.773-1.39-4.049-2.647l2.145-2.455c0.95,1.021,1.954,1.795,3.019,2.323c1.061,0.52,2.281,0.786,3.665,0.786
	c1.328,0,2.438-0.205,3.316-0.595c0.887-0.402,1.583-0.935,2.094-1.616c0.515-0.676,0.869-1.45,1.077-2.321
	c0.202-0.869,0.303-1.776,0.303-2.724v-2.305h-0.07c-0.724,1.152-1.657,1.998-2.806,2.535c-1.149,0.538-2.331,0.807-3.533,0.807
	c-1.405,0-2.693-0.234-3.875-0.687c-1.174-0.469-2.185-1.104-3.034-1.922c-0.843-0.817-1.494-1.79-1.954-2.916
	c-0.464-1.131-0.694-2.356-0.694-3.685c0-1.459,0.23-2.776,0.694-3.958c0.459-1.172,1.105-2.165,1.938-2.976
	c0.833-0.8,1.836-1.426,3.013-1.854c1.172-0.435,2.479-0.655,3.912-0.655c0.613,0,1.23,0.067,1.843,0.213
	c0.611,0.139,1.211,0.355,1.786,0.648c0.575,0.295,1.093,0.668,1.553,1.114c0.46,0.449,0.841,0.967,1.156,1.558h0.07v-3.071h2.994
	V-292.84z"/>
<path fill="#FFFFFF" d="M298.5-296.292c0,0.818,0.021,1.581,0.067,2.299c0.055,0.717,0.081,1.372,0.081,1.956h-2.84
	c0-0.483-0.013-0.97-0.036-1.453c-0.027-0.487-0.037-0.986-0.037-1.501h-0.081c-0.205,0.439-0.491,0.862-0.865,1.269
	c-0.365,0.409-0.813,0.774-1.324,1.094c-0.504,0.315-1.085,0.575-1.72,0.775c-0.644,0.187-1.332,0.278-2.074,0.278
	c-1.183,0-2.194-0.177-3.052-0.531c-0.86-0.361-1.563-0.86-2.131-1.503c-0.562-0.639-0.976-1.409-1.246-2.316
	c-0.27-0.913-0.403-1.901-0.403-2.977v-11.091h2.993v10.782c0,1.51,0.331,2.701,1.002,3.567c0.66,0.873,1.699,1.308,3.101,1.308
	c0.973,0,1.816-0.165,2.518-0.501c0.703-0.329,1.284-0.807,1.729-1.418c0.447-0.616,0.783-1.343,0.994-2.19
	c0.219-0.836,0.329-1.779,0.329-2.799v-8.749h2.996V-296.292z"/>
<path fill="#FFFFFF" d="M305.747-296.751c0.594,0.735,1.234,1.331,1.937,1.758c0.709,0.439,1.594,0.657,2.671,0.657
	c0.458,0,0.926-0.055,1.402-0.154c0.472-0.101,0.898-0.269,1.287-0.503c0.384-0.228,0.686-0.513,0.923-0.862
	c0.227-0.338,0.341-0.76,0.341-1.241c0-0.492-0.111-0.885-0.329-1.192c-0.213-0.311-0.501-0.57-0.865-0.786
	c-0.354-0.212-0.767-0.389-1.225-0.518c-0.462-0.128-0.933-0.248-1.418-0.35c-0.844-0.179-1.651-0.381-2.418-0.609
	c-0.77-0.229-1.441-0.533-2.02-0.908c-0.57-0.367-1.036-0.843-1.376-1.438c-0.349-0.583-0.517-1.345-0.517-2.264
	c0-0.869,0.19-1.634,0.574-2.301c0.383-0.664,0.895-1.211,1.531-1.651c0.642-0.438,1.361-0.767,2.149-0.999
	c0.795-0.229,1.614-0.346,2.454-0.346c1.282,0,2.467,0.26,3.552,0.77c1.089,0.509,1.941,1.339,2.556,2.497l-2.497,1.646
	c-0.387-0.639-0.887-1.156-1.516-1.549c-0.63-0.4-1.391-0.596-2.281-0.596c-0.414,0-0.831,0.053-1.246,0.152
	c-0.427,0.101-0.803,0.255-1.131,0.462c-0.338,0.205-0.61,0.464-0.828,0.782c-0.219,0.326-0.329,0.687-0.329,1.096
	c0,0.384,0.12,0.712,0.363,0.979c0.242,0.267,0.582,0.508,1.002,0.71c0.423,0.205,0.903,0.381,1.459,0.536
	c0.549,0.158,1.116,0.28,1.708,0.386c0.792,0.154,1.545,0.352,2.261,0.591c0.718,0.25,1.346,0.574,1.883,0.983
	c0.538,0.409,0.96,0.917,1.269,1.533c0.304,0.618,0.458,1.37,0.458,2.269c0,1.023-0.21,1.889-0.613,2.602
	c-0.408,0.719-0.954,1.303-1.635,1.751c-0.673,0.448-1.446,0.772-2.3,0.979c-0.86,0.207-1.731,0.306-2.629,0.306
	c-1.535,0-2.862-0.239-3.973-0.703c-1.112-0.478-2.115-1.358-3.011-2.634L305.747-296.751z"/>
<path fill="#FFFFFF" d="M332.727-307.462h-5.295v8.984c0,0.586,0.015,1.131,0.039,1.627c0.025,0.499,0.126,0.931,0.303,1.306
	c0.185,0.37,0.453,0.664,0.81,0.883c0.358,0.221,0.868,0.326,1.532,0.326c0.438,0,0.888-0.055,1.345-0.154
	c0.46-0.101,0.895-0.255,1.308-0.458l0.111,2.719c-0.51,0.232-1.078,0.4-1.705,0.503c-0.628,0.103-1.221,0.151-1.786,0.151
	c-1.076,0-1.935-0.143-2.572-0.423c-0.636-0.28-1.133-0.678-1.496-1.19c-0.356-0.513-0.591-1.145-0.709-1.899
	c-0.12-0.756-0.171-1.593-0.171-2.512v-9.864h-3.917v-2.531h3.917v-5.107h2.992v5.107h5.295V-307.462z"/>
<path fill="#FFFFFF" d="M337.871-309.993h2.992v17.956h-2.992V-309.993z M337.183-317.018c0-0.587,0.207-1.1,0.636-1.533
	c0.418-0.439,0.94-0.656,1.549-0.656c0.614,0,1.135,0.217,1.558,0.656c0.417,0.434,0.629,0.946,0.629,1.533
	c0,0.636-0.207,1.165-0.608,1.57c-0.413,0.416-0.942,0.62-1.578,0.62c-0.64,0-1.161-0.204-1.575-0.62
	C337.381-315.853,337.183-316.382,337.183-317.018"/>
<path fill="#FFFFFF" d="M367.567-294.791l-3.908,0.1v-8.436c0-1.078-0.139-2.066-0.407-2.974c-0.267-0.911-0.675-1.683-1.241-2.319
	c-0.564-0.638-1.272-1.14-2.134-1.495c-0.853-0.359-1.872-0.542-3.05-0.542c-0.739,0-1.43,0.099-2.067,0.291
	c-0.644,0.19-1.217,0.444-1.729,0.763c-0.515,0.324-0.956,0.686-1.328,1.101c-0.369,0.411-0.657,0.83-0.861,1.262h-0.079
	c0-0.513-0.013-1.01-0.034-1.499c-0.03-0.481-0.044-0.971-0.044-1.453h-2.84c0,0.588,0.029,1.241,0.082,1.955
	c0.048,0.717,0.075,1.486,0.075,2.302v13.698h2.993v-8.743c0-1.025,0.112-1.963,0.324-2.807c0.218-0.841,0.554-1.574,1.001-2.186
	c0.448-0.616,1.024-1.084,1.729-1.418c0.701-0.338,1.537-0.499,2.512-0.499c1.403,0,2.445,0.437,3.104,1.301
	c0.667,0.871,1.003,2.062,1.003,3.574v10.777h2.99v-0.004h3.908V-294.791z"/>
<g>
	<path fill="#FFFFFF" d="M116.508-249.403c0-5.995,4.154-13.427,9.593-13.427c3.192,0,5.035,0.875,5.035,6.709v17.162h6.235v-18.193
		c0-7.357-6.637-7.996-9.514-7.996c-5.832,0-8.951,3.438-11.187,8.472h-0.162v-8.472c-1.436,0.319-2.956,0.559-4.475,0.639
		c-1.44,0.161-2.956,0.161-4.474,0.161h-1.683v1.838h4.396v23.551h6.235V-249.403z"/>
	<path fill="#FFFFFF" d="M176.466-265.149c-2.88,0.722-5.993,0.8-8.955,0.8h-1.836v1.838h4.556v17.902
		c0,2.078-0.528,4.015-1.46,5.649h7.696V-265.149z"/>
	<path fill="#FFFFFF" d="M155.685-240.051v-25.098c-2.879,0.722-6,0.8-8.956,0.8h-1.599v1.838h4.319v23.179
		c0,0.124,0.007,0.248,0.01,0.372h6.277C155.706-239.302,155.685-239.66,155.685-240.051z"/>
	<path fill="#FFFFFF" d="M195.573-262.511h7.035v-1.838h-7.035v-10.154c-1.995,0.324-3.992,0.324-6.074,0.324v9.831h-4.714v1.838
		h4.555v23.551h6.233V-262.511z"/>
	<path fill="#FFFFFF" d="M218.834-249.723c0-3.199,0.883-6.313,2-8.635c1.758-3.597,4.478-4.714,4.558-4.714
		c0.24,0,0.72,0,0.72,0.478c0,0.32-0.319,1.044-0.319,1.683c0,1.6,1.678,3.192,3.119,3.192c1.674,0,3.75-0.958,3.75-2.958
		c0-3.036-2.153-4.473-4.871-4.473c-4.394,0-7.595,3.917-9.033,7.513H218.6v-7.513c-2.878,0.719-5.996,0.8-8.951,0.8h-2.479v1.838
		h5.435v23.551h6.23V-249.723z"/>
	<path fill="#FFFFFF" d="M246.183-265.149c-2.881,0.722-6.001,0.8-8.953,0.8h-2.641v1.838h5.358v23.551h6.235V-265.149z"/>
	<path fill="#FFFFFF" d="M242.98-272.995c2.321,0,4.077-1.756,4.077-4.231c0-2.08-2.157-3.839-4.077-3.839
		c-1.992,0-3.836,1.759-3.836,3.839C239.145-274.913,240.667-272.995,242.98-272.995z"/>
	<path fill="#FFFFFF" d="M266.405-262.511h7.034v-1.838h-7.034v-10.154c-1.996,0.324-3.993,0.324-6.072,0.324v9.831h-4.716v1.838
		h4.558v23.551h6.231V-262.511z"/>
	<path fill="#FFFFFF" d="M287.269-272.995c2.318,0,4.079-1.756,4.079-4.231c0-2.08-2.158-3.839-4.079-3.839
		c-1.993,0-3.833,1.759-3.833,3.839C283.436-274.913,284.951-272.995,287.269-272.995z"/>
	<path fill="#FFFFFF" d="M290.467-265.149c-2.879,0.722-5.995,0.8-8.948,0.8h-2.637v1.838h5.355v23.551h6.229V-265.149z"/>
	<path fill="#FFFFFF" d="M308.059-248.447c0-6.631,0.078-15.103,8.15-15.103c8.074,0,8.152,8.472,8.152,15.103
		c0,3.13-0.028,6.63-0.863,9.487h5.514c1.651-2.655,2.626-5.893,2.626-9.487c0-9.669-7.034-16.702-15.429-16.702
		c-8.39,0-15.424,7.033-15.424,16.702c0,3.595,0.974,6.833,2.625,9.487h5.51C308.086-241.816,308.059-245.316,308.059-248.447z"/>
	<path fill="#FFFFFF" d="M346.826-249.403c0-5.995,4.16-13.427,9.592-13.427c3.193,0,5.036,0.875,5.036,6.709v17.162h6.235v-18.193
		c0-7.357-6.635-7.996-9.51-7.996c-5.84,0-8.954,3.438-11.194,8.472h-0.159v-8.472c-1.437,0.319-2.956,0.559-4.476,0.639
		c-1.438,0.161-2.955,0.161-4.477,0.161h-1.675v1.838h4.394v23.551h6.233V-249.403z"/>
</g>
<g>
	<rect x="381.365" y="-370.754" fill="#FFFFFF" width="3.698" height="48.944"/>
	<rect x="391.107" y="-370.754" fill="#FFFFFF" width="3.69" height="48.944"/>
	<path fill="#FFFFFF" d="M463.254-355.027c8.698,0,15.768-7.078,15.768-15.77c0-8.701-7.069-15.772-15.768-15.772
		c-8.701,0-15.778,7.072-15.778,15.772C447.476-362.104,454.553-355.027,463.254-355.027z M463.254-382.726
		c6.573,0,11.923,5.351,11.923,11.929c0,6.577-5.35,11.924-11.923,11.924c-6.576,0-11.926-5.347-11.926-11.924
		C451.329-377.375,456.678-382.726,463.254-382.726z"/>
	<path fill="#FFFFFF" d="M490.313-357.123l-2.029-3.073c-10.578,7.18-18.072,18.593-19.989,31.792
		c-5.007-11.075-14.229-19.854-25.612-24.275l-1.312,3.452c13.78,5.367,24.121,17.66,26.714,32.583
		c0.102,0.965,0.242,1.919,0.404,2.867c0.096,0.924,0.154,1.861,0.189,2.802c0.252,7.19-1.171,15.606-5.019,25.437
		c-11.568,29.62-2.36,44.751,3.735,50.921h-36.703v-19.495c5.572-0.499,10.488-3.687,13.96-9.125
		c6.165-9.63,6.336-23.519,0.449-36.257c-5.608-12.144-13.16-24.798-13.228-24.921l-1.587-2.641l-1.587,2.635
		c-0.085,0.152-9.488,15.766-14.702,24.781c-6.895,11.926-7.585,24.976-1.859,34.91c3.455,5.985,8.901,9.809,14.861,10.554v19.559
		h-36.73v-75.138c5.227-0.285,9.25-1.802,11.979-4.541c3.44-3.448,3.438-7.592,3.438-7.632l0.02-48.889l-3.694,0.007l-0.021,48.854
		c-0.021,0.885-0.55,8.564-13.52,8.564c-12.99,0-13.656-7.778-13.689-8.665l0.02-48.733h-3.689l-0.026,48.752
		c0.013,0.475,0.468,11.422,15.49,12.272v75.147H91.166v3.691h381.943v-3.691h-0.001l0.001-0.001
		c-2.854-1.891-19.601-14.788-6.009-49.573c2.719-6.953,4.359-13.512,4.988-19.681c0.031-0.239,0.055-0.495,0.08-0.731
		c0.015-0.195,0.041-0.395,0.051-0.588c0.122-1.354,0.191-2.725,0.191-4.113c0-1.702-0.089-3.381-0.271-5.032
		c-0.104-0.963-0.248-1.925-0.41-2.871c-0.152-1.468-0.234-2.96-0.234-4.472C471.495-336.401,478.965-349.414,490.313-357.123z
		 M415.341-266.576c-5.066-8.777-4.371-20.449,1.854-31.212c3.66-6.339,9.518-16.131,12.675-21.409l0.395-0.648l0.373,0.657
		c2.514,4.395,7.31,13.001,11.117,21.25c5.275,11.42,5.195,24.267-0.207,32.717c-3.096,4.838-7.504,7.495-12.411,7.495
		C423.694-257.726,418.541-261.03,415.341-266.576z"/>
</g>
<g>
	<path fill="#FFFFFF" d="M715.419-319.242v2.752l3.672-0.067v16.386c0,0.74-0.062,1.468-0.191,2.17
		c-0.125,0.703-0.35,1.321-0.672,1.859c-0.322,0.541-0.776,0.977-1.366,1.304c-0.583,0.335-1.339,0.503-2.263,0.503
		c-1.147,0-2.064-0.312-2.744-0.944c-0.676-0.627-1.12-1.474-1.324-2.547l-3.225,0.653c0.364,1.945,1.176,3.404,2.458,4.374
		c1.276,0.973,2.876,1.462,4.798,1.462c1.46,0,2.682-0.234,3.666-0.701c0.985-0.451,1.779-1.053,2.377-1.8
		c0.603-0.738,1.037-1.561,1.312-2.473c0.264-0.91,0.396-1.825,0.396-2.747v-17.431l0.002-0.067l3.677,0.067v-2.752H715.419z"/>
	<path fill="#FFFFFF" d="M745.38-296.292c0,0.818,0.024,1.581,0.08,2.299c0.049,0.717,0.07,1.372,0.07,1.956h-2.834
		c0-0.483-0.016-0.97-0.041-1.453c-0.027-0.487-0.039-0.986-0.039-1.501h-0.08c-0.207,0.439-0.489,0.862-0.862,1.269
		c-0.37,0.409-0.81,0.774-1.323,1.094c-0.51,0.315-1.088,0.575-1.723,0.775c-0.642,0.187-1.334,0.278-2.074,0.278
		c-1.178,0-2.196-0.177-3.055-0.531c-0.855-0.361-1.564-0.86-2.131-1.503c-0.561-0.639-0.975-1.409-1.244-2.316
		c-0.27-0.913-0.4-1.901-0.4-2.977v-11.091h2.988v10.782c0,1.51,0.336,2.701,0.999,3.567c0.664,0.873,1.7,1.308,3.11,1.308
		c0.969,0,1.809-0.165,2.513-0.501c0.7-0.329,1.283-0.807,1.728-1.418c0.449-0.616,0.781-1.343,0.996-2.19
		c0.219-0.836,0.328-1.779,0.328-2.799v-8.749h2.994V-296.292z"/>
</g>
<rect x="752.518" y="-321.045" fill="#FFFFFF" width="2.989" height="29.006"/>
<g>
	<path fill="#FFFFFF" d="M762.913-309.993h2.994v17.956h-2.994V-309.993z M762.231-317.018c0-0.587,0.205-1.1,0.623-1.533
		c0.424-0.439,0.943-0.656,1.555-0.656c0.62,0,1.137,0.217,1.559,0.656c0.418,0.434,0.633,0.946,0.633,1.533
		c0,0.636-0.205,1.165-0.612,1.57c-0.407,0.416-0.935,0.62-1.579,0.62c-0.637,0-1.16-0.204-1.572-0.62
		C762.431-315.853,762.231-316.382,762.231-317.018"/>
	<path fill="#FFFFFF" d="M786.519-302.622c-0.049-1.538-0.555-2.767-1.494-3.691c-0.954-0.922-2.252-1.377-3.92-1.377
		c-1.662,0-3.006,0.455-4.027,1.377c-1.023,0.924-1.635,2.153-1.84,3.691H786.519z M789.091-295.294
		c-1.078,1.381-2.253,2.349-3.529,2.896c-1.284,0.549-2.765,0.825-4.457,0.825c-1.404,0-2.669-0.253-3.799-0.749
		c-1.122-0.497-2.072-1.165-2.857-2.014c-0.775-0.839-1.38-1.843-1.805-2.992c-0.426-1.149-0.633-2.386-0.633-3.685
		c0-1.386,0.23-2.656,0.692-3.815c0.46-1.17,1.101-2.166,1.917-2.995c0.822-0.83,1.793-1.48,2.918-1.943
		c1.127-0.456,2.35-0.691,3.682-0.691c1.254,0,2.404,0.215,3.454,0.633c1.049,0.422,1.957,1.034,2.706,1.848
		c0.76,0.805,1.34,1.788,1.748,2.953c0.412,1.163,0.613,2.487,0.613,3.97v0.958h-14.504c0.053,0.77,0.232,1.503,0.549,2.211
		c0.327,0.704,0.74,1.319,1.254,1.839c0.511,0.528,1.111,0.942,1.802,1.25c0.692,0.306,1.447,0.459,2.263,0.459
		c1.307,0,2.406-0.232,3.305-0.694c0.893-0.457,1.699-1.13,2.416-2.036L789.091-295.294z"/>
</g>
<path fill="#FFFFFF" d="M818.257-315.06h-0.076l-5.64,13.355h11.089L818.257-315.06z M816.796-319.207h3.037l11.548,27.169h-3.761
	l-2.764-6.674h-13.584l-2.801,6.674h-3.645L816.796-319.207z"/>
<path fill="#FFFFFF" d="M851.298-296.292c0,0.818,0.025,1.581,0.078,2.299c0.051,0.717,0.078,1.372,0.078,1.956h-2.842
	c0-0.483-0.02-0.97-0.036-1.453c-0.028-0.487-0.042-0.986-0.042-1.501h-0.078c-0.201,0.439-0.484,0.862-0.859,1.269
	c-0.375,0.409-0.814,0.774-1.328,1.094c-0.51,0.315-1.088,0.575-1.726,0.775c-0.642,0.187-1.332,0.278-2.071,0.278
	c-1.176,0-2.194-0.177-3.05-0.531c-0.854-0.361-1.569-0.86-2.132-1.503c-0.56-0.639-0.98-1.409-1.252-2.316
	c-0.264-0.913-0.396-1.901-0.396-2.977v-11.091h2.994v10.782c0,1.51,0.329,2.701,0.996,3.567c0.663,0.873,1.702,1.308,3.107,1.308
	c0.973,0,1.809-0.165,2.51-0.501c0.709-0.329,1.284-0.807,1.732-1.418c0.447-0.616,0.779-1.343,1-2.19
	c0.221-0.836,0.324-1.779,0.324-2.799v-8.749h2.992V-296.292z"/>
<path fill="#FFFFFF" d="M860.36-301.013c0,0.917,0.16,1.77,0.496,2.549c0.33,0.784,0.788,1.464,1.365,2.032
	c0.573,0.576,1.244,1.032,2.011,1.362c0.765,0.336,1.589,0.501,2.454,0.501c1.023,0,1.935-0.177,2.729-0.536
	c0.795-0.356,1.459-0.834,2.012-1.441c0.549-0.603,0.963-1.29,1.248-2.073c0.285-0.782,0.422-1.607,0.422-2.473
	c0-0.97-0.15-1.859-0.463-2.668c-0.305-0.805-0.74-1.501-1.304-2.087c-0.563-0.593-1.243-1.043-2.032-1.365
	c-0.793-0.322-1.664-0.479-2.611-0.479c-0.943,0-1.809,0.168-2.59,0.518c-0.783,0.345-1.441,0.815-1.996,1.416
	c-0.547,0.607-0.978,1.308-1.281,2.115C860.509-302.837,860.36-301.961,860.36-301.013 M876.09-292.84
	c0,3.273-0.835,5.763-2.51,7.465c-1.677,1.701-4.103,2.549-7.274,2.549c-1.766,0-3.36-0.25-4.779-0.766
	c-1.414-0.515-2.773-1.39-4.049-2.647l2.145-2.455c0.95,1.021,1.953,1.795,3.02,2.323c1.061,0.52,2.28,0.786,3.664,0.786
	c1.328,0,2.438-0.205,3.316-0.595c0.887-0.402,1.584-0.935,2.094-1.616c0.516-0.676,0.869-1.45,1.077-2.321
	c0.202-0.869,0.304-1.776,0.304-2.724v-2.305h-0.07c-0.725,1.152-1.657,1.998-2.807,2.535c-1.148,0.538-2.33,0.807-3.533,0.807
	c-1.404,0-2.693-0.234-3.875-0.687c-1.174-0.469-2.184-1.104-3.033-1.922c-0.844-0.817-1.494-1.79-1.953-2.916
	c-0.465-1.131-0.695-2.356-0.695-3.685c0-1.459,0.23-2.776,0.695-3.958c0.459-1.172,1.105-2.165,1.938-2.976
	c0.832-0.8,1.836-1.426,3.013-1.854c1.172-0.435,2.479-0.655,3.911-0.655c0.613,0,1.23,0.067,1.844,0.213
	c0.611,0.139,1.211,0.355,1.786,0.648c0.575,0.295,1.093,0.668,1.554,1.114c0.459,0.449,0.841,0.967,1.156,1.558h0.07v-3.071h2.993
	V-292.84z"/>
<path fill="#FFFFFF" d="M898.47-296.292c0,0.818,0.021,1.581,0.066,2.299c0.055,0.717,0.082,1.372,0.082,1.956h-2.84
	c0-0.483-0.014-0.97-0.037-1.453c-0.027-0.487-0.037-0.986-0.037-1.501h-0.08c-0.205,0.439-0.492,0.862-0.865,1.269
	c-0.365,0.409-0.814,0.774-1.324,1.094c-0.504,0.315-1.086,0.575-1.721,0.775c-0.643,0.187-1.332,0.278-2.074,0.278
	c-1.182,0-2.193-0.177-3.051-0.531c-0.861-0.361-1.564-0.86-2.132-1.503c-0.562-0.639-0.976-1.409-1.246-2.316
	c-0.271-0.913-0.403-1.901-0.403-2.977v-11.091h2.992v10.782c0,1.51,0.332,2.701,1.002,3.567c0.66,0.873,1.699,1.308,3.102,1.308
	c0.973,0,1.816-0.165,2.518-0.501c0.703-0.329,1.283-0.807,1.729-1.418c0.447-0.616,0.783-1.343,0.994-2.19
	c0.219-0.836,0.33-1.779,0.33-2.799v-8.749h2.996V-296.292z"/>
<path fill="#FFFFFF" d="M905.716-296.751c0.594,0.735,1.234,1.331,1.938,1.758c0.709,0.439,1.594,0.657,2.67,0.657
	c0.459,0,0.926-0.055,1.402-0.154c0.473-0.101,0.898-0.269,1.287-0.503c0.385-0.228,0.686-0.513,0.924-0.862
	c0.227-0.338,0.34-0.76,0.34-1.241c0-0.492-0.111-0.885-0.328-1.192c-0.213-0.311-0.502-0.57-0.865-0.786
	c-0.354-0.212-0.768-0.389-1.225-0.518c-0.463-0.128-0.934-0.248-1.418-0.35c-0.844-0.179-1.652-0.381-2.418-0.609
	c-0.77-0.229-1.441-0.533-2.02-0.908c-0.57-0.367-1.037-0.843-1.377-1.438c-0.348-0.583-0.516-1.345-0.516-2.264
	c0-0.869,0.189-1.634,0.574-2.301c0.383-0.664,0.895-1.211,1.531-1.651c0.641-0.438,1.361-0.767,2.148-0.999
	c0.795-0.229,1.615-0.346,2.455-0.346c1.281,0,2.467,0.26,3.551,0.77c1.09,0.509,1.941,1.339,2.557,2.497l-2.498,1.646
	c-0.387-0.639-0.887-1.156-1.516-1.549c-0.629-0.4-1.391-0.596-2.281-0.596c-0.414,0-0.83,0.053-1.246,0.152
	c-0.426,0.101-0.803,0.255-1.131,0.462c-0.338,0.205-0.609,0.464-0.828,0.782c-0.219,0.326-0.328,0.687-0.328,1.096
	c0,0.384,0.119,0.712,0.363,0.979c0.242,0.267,0.582,0.508,1.002,0.71c0.422,0.205,0.902,0.381,1.459,0.536
	c0.549,0.158,1.115,0.28,1.707,0.386c0.793,0.154,1.545,0.352,2.262,0.591c0.717,0.25,1.346,0.574,1.883,0.983
	s0.959,0.917,1.268,1.533c0.305,0.618,0.459,1.37,0.459,2.269c0,1.023-0.211,1.889-0.613,2.602
	c-0.408,0.719-0.955,1.303-1.635,1.751c-0.674,0.448-1.447,0.772-2.301,0.979c-0.859,0.207-1.73,0.306-2.629,0.306
	c-1.535,0-2.861-0.239-3.973-0.703c-1.111-0.478-2.115-1.358-3.01-2.634L905.716-296.751z"/>
<path fill="#FFFFFF" d="M932.696-307.462h-5.295v8.984c0,0.586,0.016,1.131,0.039,1.627c0.025,0.499,0.127,0.931,0.303,1.306
	c0.186,0.37,0.453,0.664,0.811,0.883c0.357,0.221,0.867,0.326,1.531,0.326c0.438,0,0.889-0.055,1.346-0.154
	c0.459-0.101,0.895-0.255,1.307-0.458l0.111,2.719c-0.51,0.232-1.078,0.4-1.705,0.503c-0.627,0.103-1.221,0.151-1.785,0.151
	c-1.076,0-1.936-0.143-2.572-0.423s-1.133-0.678-1.496-1.19c-0.357-0.513-0.592-1.145-0.709-1.899
	c-0.121-0.756-0.172-1.593-0.172-2.512v-9.864h-3.916v-2.531h3.916v-5.107h2.992v5.107h5.295V-307.462z"/>
<path fill="#FFFFFF" d="M937.841-309.993h2.992v17.956h-2.992V-309.993z M937.153-317.018c0-0.587,0.207-1.1,0.635-1.533
	c0.418-0.439,0.941-0.656,1.549-0.656c0.615,0,1.135,0.217,1.559,0.656c0.416,0.434,0.629,0.946,0.629,1.533
	c0,0.636-0.207,1.165-0.609,1.57c-0.412,0.416-0.941,0.62-1.578,0.62c-0.639,0-1.16-0.204-1.574-0.62
	C937.351-315.853,937.153-316.382,937.153-317.018"/>
<path fill="#FFFFFF" d="M967.536-294.791l-3.908,0.1v-8.436c0-1.078-0.139-2.066-0.406-2.974c-0.268-0.911-0.676-1.683-1.242-2.319
	c-0.564-0.638-1.271-1.14-2.133-1.495c-0.854-0.359-1.873-0.542-3.051-0.542c-0.738,0-1.43,0.099-2.066,0.291
	c-0.645,0.19-1.217,0.444-1.729,0.763c-0.516,0.324-0.957,0.686-1.328,1.101c-0.369,0.411-0.658,0.83-0.861,1.262h-0.08
	c0-0.513-0.012-1.01-0.033-1.499c-0.031-0.481-0.045-0.971-0.045-1.453h-2.84c0,0.588,0.029,1.241,0.082,1.955
	c0.049,0.717,0.076,1.486,0.076,2.302v13.698h2.992v-8.743c0-1.025,0.113-1.963,0.324-2.807c0.219-0.841,0.555-1.574,1.002-2.186
	c0.447-0.616,1.023-1.084,1.729-1.418c0.701-0.338,1.537-0.499,2.512-0.499c1.404,0,2.445,0.437,3.105,1.301
	c0.666,0.871,1.002,2.062,1.002,3.574v10.777h2.99v-0.004h3.908V-294.791z"/>
<g>
	<path fill="#FFFFFF" d="M716.478-249.403c0-5.995,4.154-13.427,9.594-13.427c3.191,0,5.035,0.875,5.035,6.709v17.162h6.234v-18.193
		c0-7.357-6.637-7.996-9.514-7.996c-5.832,0-8.951,3.438-11.188,8.472h-0.162v-8.472c-1.436,0.319-2.955,0.559-4.475,0.639
		c-1.439,0.161-2.955,0.161-4.474,0.161h-1.683v1.838h4.396v23.551h6.234V-249.403z"/>
	<path fill="#FFFFFF" d="M776.436-265.149c-2.88,0.722-5.993,0.8-8.955,0.8h-1.836v1.838h4.556v17.902
		c0,2.078-0.527,4.015-1.461,5.649h7.696V-265.149z"/>
	<path fill="#FFFFFF" d="M755.654-240.051v-25.098c-2.879,0.722-5.999,0.8-8.956,0.8H745.1v1.838h4.319v23.179
		c0,0.124,0.006,0.248,0.01,0.372h6.277C755.676-239.302,755.654-239.66,755.654-240.051z"/>
	<path fill="#FFFFFF" d="M795.542-262.511h7.035v-1.838h-7.035v-10.154c-1.994,0.324-3.992,0.324-6.074,0.324v9.831h-4.713v1.838
		h4.555v23.551h6.232V-262.511z"/>
	<path fill="#FFFFFF" d="M818.804-249.723c0-3.199,0.884-6.313,2-8.635c1.759-3.597,4.479-4.714,4.559-4.714
		c0.24,0,0.719,0,0.719,0.478c0,0.32-0.318,1.044-0.318,1.683c0,1.6,1.678,3.192,3.119,3.192c1.674,0,3.75-0.958,3.75-2.958
		c0-3.036-2.153-4.473-4.871-4.473c-4.394,0-7.595,3.917-9.032,7.513h-0.159v-7.513c-2.878,0.719-5.996,0.8-8.951,0.8h-2.479v1.838
		h5.435v23.551h6.23V-249.723z"/>
	<path fill="#FFFFFF" d="M846.152-265.149c-2.881,0.722-6.001,0.8-8.952,0.8h-2.641v1.838h5.357v23.551h6.235V-265.149z"/>
	<path fill="#FFFFFF" d="M842.95-272.995c2.32,0,4.076-1.756,4.076-4.231c0-2.08-2.156-3.839-4.076-3.839
		c-1.992,0-3.836,1.759-3.836,3.839C839.114-274.913,840.636-272.995,842.95-272.995z"/>
	<path fill="#FFFFFF" d="M866.374-262.511h7.035v-1.838h-7.035v-10.154c-1.996,0.324-3.992,0.324-6.072,0.324v9.831h-4.716v1.838
		h4.558v23.551h6.23V-262.511z"/>
	<path fill="#FFFFFF" d="M887.239-272.995c2.318,0,4.078-1.756,4.078-4.231c0-2.08-2.158-3.839-4.078-3.839
		c-1.993,0-3.834,1.759-3.834,3.839C883.405-274.913,884.921-272.995,887.239-272.995z"/>
	<path fill="#FFFFFF" d="M890.437-265.149c-2.879,0.722-5.994,0.8-8.947,0.8h-2.637v1.838h5.355v23.551h6.229V-265.149z"/>
	<path fill="#FFFFFF" d="M908.028-248.447c0-6.631,0.078-15.103,8.15-15.103c8.074,0,8.152,8.472,8.152,15.103
		c0,3.13-0.027,6.63-0.863,9.487h5.514c1.652-2.655,2.627-5.893,2.627-9.487c0-9.669-7.035-16.702-15.43-16.702
		c-8.389,0-15.424,7.033-15.424,16.702c0,3.595,0.975,6.833,2.625,9.487h5.51C908.056-241.816,908.028-245.316,908.028-248.447z"/>
	<path fill="#FFFFFF" d="M946.796-249.403c0-5.995,4.16-13.427,9.592-13.427c3.193,0,5.035,0.875,5.035,6.709v17.162h6.236v-18.193
		c0-7.357-6.635-7.996-9.51-7.996c-5.84,0-8.955,3.438-11.195,8.472h-0.158v-8.472c-1.438,0.319-2.957,0.559-4.477,0.639
		c-1.438,0.161-2.955,0.161-4.477,0.161h-1.674v1.838h4.393v23.551h6.234V-249.403z"/>
</g>
<g>
	<rect x="981.335" y="-370.754" fill="#FFFFFF" width="3.697" height="48.944"/>
	<rect x="991.077" y="-370.754" fill="#FFFFFF" width="3.689" height="48.944"/>
	<path fill="#FFFFFF" d="M1063.224-355.027c8.699,0,15.768-7.078,15.768-15.77c0-8.701-7.068-15.772-15.768-15.772
		c-8.701,0-15.777,7.072-15.777,15.772C1047.446-362.104,1054.522-355.027,1063.224-355.027z M1063.224-382.726
		c6.574,0,11.924,5.351,11.924,11.929c0,6.577-5.35,11.924-11.924,11.924c-6.576,0-11.926-5.347-11.926-11.924
		C1051.298-377.375,1056.647-382.726,1063.224-382.726z"/>
	<path fill="#FFFFFF" d="M1090.282-357.123l-2.029-3.073c-10.578,7.18-18.072,18.593-19.988,31.792
		c-5.008-11.075-14.229-19.854-25.613-24.275l-1.311,3.452c13.779,5.367,24.121,17.66,26.713,32.583
		c0.102,0.965,0.242,1.919,0.404,2.867c0.096,0.924,0.154,1.861,0.189,2.802c0.252,7.19-1.17,15.606-5.018,25.437
		c-11.568,29.62-2.361,44.751,3.734,50.921h-36.703v-19.495c5.572-0.499,10.488-3.687,13.961-9.125
		c6.164-9.63,6.336-23.519,0.449-36.257c-5.609-12.144-13.16-24.798-13.229-24.921l-1.586-2.641l-1.588,2.635
		c-0.084,0.152-9.488,15.766-14.701,24.781c-6.895,11.926-7.586,24.976-1.859,34.91c3.455,5.985,8.9,9.809,14.861,10.554v19.559
		h-36.73v-75.138c5.227-0.285,9.25-1.802,11.979-4.541c3.439-3.448,3.438-7.592,3.438-7.632l0.02-48.889l-3.693,0.007l-0.021,48.854
		c-0.021,0.885-0.549,8.564-13.52,8.564c-12.99,0-13.656-7.778-13.689-8.665l0.02-48.733h-3.689l-0.025,48.752
		c0.012,0.475,0.467,11.422,15.49,12.272v75.147h-295.41v3.691h381.943v-3.691h-0.002l0.002-0.001
		c-2.855-1.891-19.602-14.788-6.01-49.573c2.719-6.953,4.359-13.512,4.988-19.681c0.031-0.239,0.055-0.495,0.08-0.731
		c0.016-0.195,0.041-0.395,0.051-0.588c0.123-1.354,0.191-2.725,0.191-4.113c0-1.702-0.088-3.381-0.271-5.032
		c-0.104-0.963-0.248-1.925-0.41-2.871c-0.152-1.468-0.234-2.96-0.234-4.472C1071.464-336.401,1078.935-349.414,1090.282-357.123z
		 M1015.312-266.576c-5.066-8.777-4.371-20.449,1.854-31.212c3.66-6.339,9.518-16.131,12.674-21.409l0.395-0.648l0.373,0.657
		c2.514,4.395,7.311,13.001,11.117,21.25c5.275,11.42,5.195,24.267-0.207,32.717c-3.096,4.838-7.504,7.495-12.41,7.495
		C1023.663-257.726,1018.511-261.03,1015.312-266.576z"/>
</g>
<g>
	<rect x="248.26" y="1320.836" fill="#24A69E" width="5.622" height="74.412"/>
	<rect x="263.072" y="1320.836" fill="#24A69E" width="5.61" height="74.412"/>
	<path fill="#24A69E" d="M372.761,1344.747c13.225,0,23.973-10.761,23.973-23.977c0-13.228-10.748-23.979-23.973-23.979
		c-13.229,0-23.989,10.751-23.989,23.979C348.772,1333.985,359.532,1344.747,372.761,1344.747z M372.761,1302.634
		c9.993,0,18.127,8.135,18.127,18.135s-8.134,18.128-18.127,18.128c-9.997,0-18.132-8.128-18.132-18.128
		S362.764,1302.634,372.761,1302.634z"/>
	<path fill="#24A69E" d="M413.9,1341.56l-3.086-4.672c-16.082,10.917-27.476,28.269-30.39,48.337
		c-7.612-16.838-21.634-30.187-38.94-36.906l-1.993,5.248c20.95,8.159,36.672,26.849,40.613,49.538
		c0.156,1.466,0.368,2.917,0.615,4.358c0.146,1.406,0.234,2.831,0.288,4.262c0.383,10.931-1.779,23.726-7.63,38.673
		c-17.589,45.032-3.588,68.037,5.679,77.417h-55.801v-29.638c8.472-0.759,15.946-5.606,21.223-13.874
		c9.373-14.64,9.635-35.757,0.684-55.123c-8.527-18.462-20.009-37.701-20.11-37.889l-2.413-4.014l-2.412,4.005
		c-0.13,0.231-14.426,23.97-22.353,37.676c-10.481,18.132-11.532,37.972-2.826,53.075c5.253,9.098,13.532,14.913,22.595,16.045
		v29.736h-55.845v-114.235c7.946-0.433,14.064-2.74,18.213-6.905c5.23-5.242,5.227-11.541,5.227-11.602l0.03-74.328l-5.617,0.01
		l-0.031,74.275c-0.031,1.346-0.835,13.02-20.554,13.02c-19.75,0-20.763-11.824-20.813-13.173l0.029-74.091h-5.608l-0.04,74.121
		c0.02,0.721,0.711,17.364,23.55,18.657v114.25H0v5.611h387.745v-5.611h-0.002l0.002-0.002c-4.34-2.875-29.801-22.482-9.136-75.367
		c4.132-10.571,6.627-20.544,7.582-29.922c0.048-0.365,0.084-0.753,0.123-1.112c0.022-0.296,0.062-0.6,0.076-0.895
		c0.187-2.058,0.292-4.141,0.292-6.253c0-2.587-0.135-5.14-0.413-7.65c-0.158-1.465-0.377-2.926-0.623-4.364
		c-0.231-2.232-0.356-4.5-0.356-6.799C385.29,1373.065,396.648,1353.28,413.9,1341.56z M299.917,1479.222
		c-7.703-13.345-6.646-31.088,2.818-47.452c5.564-9.637,14.471-24.526,19.27-32.549l0.601-0.985l0.566,1
		c3.822,6.681,11.113,19.766,16.902,32.307c8.021,17.362,7.898,36.893-0.314,49.741c-4.707,7.355-11.409,11.395-18.869,11.395
		C312.616,1492.678,304.781,1487.654,299.917,1479.222z"/>
</g>
<g>
	<rect x="839.138" y="1549.348" fill="#24A69E" width="5.621" height="74.412"/>
	<rect x="853.948" y="1549.348" fill="#24A69E" width="5.611" height="74.412"/>
	<path fill="#24A69E" d="M963.638,1573.259c13.225,0,23.973-10.762,23.973-23.978c0-13.228-10.748-23.979-23.973-23.979
		c-13.229,0-23.988,10.751-23.988,23.979C939.649,1562.497,950.409,1573.259,963.638,1573.259z M963.638,1531.146
		c9.994,0,18.127,8.136,18.127,18.136s-8.133,18.128-18.127,18.128c-9.996,0-18.131-8.128-18.131-18.128
		S953.642,1531.146,963.638,1531.146z"/>
	<path fill="#24A69E" d="M1004.776,1570.071l-3.086-4.672c-16.082,10.917-27.475,28.27-30.389,48.337
		c-7.613-16.839-21.635-30.187-38.941-36.906l-1.992,5.248c20.949,8.159,36.672,26.849,40.613,49.538
		c0.156,1.466,0.367,2.917,0.615,4.357c0.145,1.406,0.234,2.831,0.287,4.262c0.383,10.931-1.779,23.727-7.629,38.673
		c-17.59,45.032-3.588,68.037,5.678,77.417h-55.801v-29.638c8.473-0.759,15.947-5.606,21.223-13.874
		c9.373-14.639,9.635-35.756,0.684-55.123c-8.527-18.462-20.008-37.701-20.109-37.889l-2.414-4.014l-2.412,4.005
		c-0.129,0.231-14.426,23.97-22.352,37.677c-10.482,18.131-11.533,37.972-2.826,53.074c5.252,9.098,13.531,14.912,22.594,16.045
		v29.736h-55.844v-114.234c7.945-0.434,14.064-2.74,18.213-6.905c5.23-5.241,5.227-11.541,5.227-11.603l0.029-74.327l-5.617,0.011
		l-0.031,74.274c-0.031,1.347-0.834,13.02-20.553,13.02c-19.75,0-20.764-11.824-20.814-13.173l0.029-74.092h-5.607l-0.041,74.121
		c0.02,0.721,0.711,17.364,23.551,18.658v114.25H397.933v5.611h580.689v-5.611h-0.002l0.002-0.002
		c-4.34-2.875-29.801-22.482-9.137-75.367c4.133-10.571,6.627-20.544,7.582-29.922c0.049-0.365,0.084-0.753,0.123-1.112
		c0.023-0.296,0.062-0.601,0.076-0.896c0.188-2.058,0.293-4.141,0.293-6.253c0-2.587-0.135-5.14-0.414-7.65
		c-0.158-1.465-0.377-2.927-0.623-4.364c-0.23-2.232-0.355-4.5-0.355-6.799C976.167,1601.577,987.524,1581.792,1004.776,1570.071z
		 M890.794,1707.733c-7.703-13.345-6.646-31.088,2.818-47.452c5.564-9.638,14.471-24.526,19.27-32.55l0.6-0.984l0.566,1
		c3.822,6.681,11.113,19.766,16.902,32.307c8.021,17.363,7.898,36.893-0.314,49.741c-4.707,7.355-11.408,11.396-18.869,11.396
		C903.493,1721.19,895.657,1716.165,890.794,1707.733z"/>
</g>
<g>
	<rect x="916.327" y="1894.504" fill="#24A69E" width="5.621" height="74.412"/>
	<rect x="901.526" y="1894.504" fill="#24A69E" width="5.611" height="74.412"/>
	<path fill="#24A69E" d="M797.448,1945.005c-13.225,0-23.973,10.762-23.973,23.978c0,13.228,10.748,23.979,23.973,23.979
		c13.229,0,23.988-10.751,23.988-23.979C821.437,1955.767,810.677,1945.005,797.448,1945.005z M797.448,1987.118
		c-9.994,0-18.127-8.136-18.127-18.136s8.133-18.128,18.127-18.128c9.996,0,18.131,8.128,18.131,18.128
		S807.444,1987.118,797.448,1987.118z"/>
	<path fill="#24A69E" d="M756.31,1948.192l3.086,4.672c16.082-10.917,27.475-28.27,30.389-48.337
		c7.613,16.839,21.635,30.187,38.941,36.906l1.992-5.248c-20.949-8.159-36.672-26.849-40.613-49.538
		c-0.156-1.466-0.367-2.917-0.615-4.357c-0.145-1.406-0.234-2.831-0.287-4.262c-0.383-10.931,1.779-23.727,7.629-38.673
		c17.59-45.032,3.588-68.037-5.678-77.417h55.801v29.638c-8.473,0.759-15.947,5.606-21.223,13.874
		c-9.373,14.639-9.635,35.756-0.684,55.123c8.527,18.462,20.008,37.701,20.109,37.889l2.414,4.014l2.412-4.005
		c0.129-0.231,14.426-23.97,22.352-37.677c10.482-18.131,11.533-37.972,2.826-53.074c-5.252-9.098-13.531-14.912-22.594-16.045
		v-29.736h55.844v114.234c-7.945,0.434-14.064,2.74-18.213,6.905c-5.23,5.241-5.227,11.541-5.227,11.603l-0.029,74.327l5.617-0.011
		l0.031-74.274c0.031-1.347,0.834-13.02,20.553-13.02c19.75,0,20.764,11.824,20.814,13.173l-0.029,74.092h5.607l0.041-74.121
		c-0.02-0.721-0.711-17.364-23.551-18.658v-114.25h267.737v-5.611h-399.3v5.611h0.002l-0.002,0.002
		c4.34,2.875,29.801,22.482,9.137,75.367c-4.133,10.571-6.627,20.544-7.582,29.922c-0.049,0.365-0.084,0.753-0.123,1.112
		c-0.023,0.296-0.062,0.601-0.076,0.896c-0.188,2.058-0.293,4.141-0.293,6.253c0,2.587,0.135,5.14,0.414,7.65
		c0.158,1.465,0.377,2.927,0.623,4.364c0.23,2.232,0.355,4.5,0.355,6.799C784.919,1916.687,773.562,1936.472,756.31,1948.192z
		 M870.292,1810.53c7.703,13.345,6.646,31.088-2.818,47.452c-5.564,9.638-14.471,24.526-19.27,32.55l-0.6,0.984l-0.566-1
		c-3.822-6.681-11.113-19.766-16.902-32.307c-8.021-17.363-7.898-36.893,0.314-49.741c4.707-7.355,11.408-11.396,18.869-11.396
		C857.593,1797.073,865.429,1802.099,870.292,1810.53z"/>
</g>
</svg>
