<?xml version="1.0" encoding="utf-8"?>
<!-- Generator: Adobe Illustrator 16.0.0, SVG Export Plug-In . SVG Version: 6.00 Build 0)  -->
<!DOCTYPE svg PUBLIC "-//W3C//DTD SVG 1.1//EN" "http://www.w3.org/Graphics/SVG/1.1/DTD/svg11.dtd">
<svg version="1.1" id="Calque_1" xmlns="http://www.w3.org/2000/svg" xmlns:xlink="http://www.w3.org/1999/xlink" x="0px" y="0px"
	 width="1181.764px" height="641.767px" viewBox="0 0 1181.764 641.767" enable-background="new 0 0 1181.764 641.767"
	 xml:space="preserve">
<text transform="matrix(1 0 0 1 3 53.3271)" fill="#DBD9D4" font-family="'WorkSans-Medium'" font-size="17">Logo</text>
<text transform="matrix(1 0 0 1 1059.2412 65.3271)" fill="#DBD9D4" font-family="'WorkSans-Medium'" font-size="14">©</text>
<text transform="matrix(1 0 0 1 1070.5537 65.3271)" fill="#DBD9D4" font-family="'WorkSans-Medium'" font-size="17"> </text>
<text transform="matrix(1 0 0 1 1076.1123 65.3271)" fill="#DBD9D4" font-family="'WorkSans-Medium'" font-size="14">Delphine Geny</text>
<line fill="none" stroke="#DBD9D4" stroke-width="1.8" stroke-miterlimit="10" x1="3.382" y1="62.733" x2="1053.382" y2="62.733"/>
<g>
	<path fill="#231F20" d="M288.938,312.071v4.821l6.433-0.117v28.702c0,1.297-0.11,2.572-0.336,3.801
		c-0.221,1.231-0.614,2.314-1.179,3.257c-0.562,0.946-1.359,1.711-2.392,2.283c-1.021,0.587-2.345,0.881-3.963,0.881
		c-2.01,0-3.617-0.547-4.807-1.654c-1.184-1.099-1.962-2.581-2.319-4.461l-5.648,1.144c0.637,3.406,2.059,5.963,4.305,7.661
		c2.236,1.703,5.038,2.561,8.403,2.561c2.559,0,4.698-0.41,6.421-1.228c1.727-0.789,3.118-1.844,4.166-3.152
		c1.055-1.292,1.815-2.733,2.298-4.332c0.462-1.595,0.693-3.196,0.693-4.812v-30.533l0.004-0.117l6.441,0.117v-4.821
		L288.938,312.071L288.938,312.071z"/>
	<path fill="#231F20" d="M341.418,352.272c0,1.435,0.043,2.771,0.141,4.026c0.084,1.256,0.124,2.403,0.124,3.426h-4.966
		c0-0.846-0.027-1.699-0.07-2.545c-0.049-0.853-0.069-1.727-0.069-2.629h-0.139c-0.362,0.77-0.857,1.51-1.511,2.223
		c-0.649,0.717-1.418,1.356-2.319,1.916c-0.893,0.552-1.904,1.007-3.018,1.357c-1.123,0.326-2.337,0.487-3.632,0.487
		c-2.063,0-3.848-0.311-5.351-0.931c-1.499-0.632-2.74-1.506-3.733-2.633c-0.981-1.119-1.707-2.468-2.179-4.058
		c-0.472-1.6-0.703-3.33-0.703-5.214v-19.427h5.236v18.887c0,2.646,0.587,4.73,1.75,6.249c1.163,1.529,2.979,2.29,5.448,2.29
		c1.697,0,3.168-0.289,4.402-0.877c1.228-0.576,2.248-1.413,3.025-2.484c0.788-1.079,1.371-2.352,1.746-3.837
		c0.383-1.465,0.575-3.116,0.575-4.903v-15.324h5.244L341.418,352.272L341.418,352.272z"/>
</g>
<rect x="353.922" y="308.913" fill="#231F20" width="5.236" height="50.809"/>
<g>
	<path fill="#231F20" d="M372.131,328.272h5.244v31.452h-5.244V328.272z M370.938,315.969c0-1.029,0.359-1.927,1.091-2.686
		c0.742-0.77,1.653-1.149,2.723-1.149c1.087,0,1.992,0.38,2.732,1.149c0.731,0.759,1.107,1.656,1.107,2.686
		c0,1.113-0.357,2.041-1.072,2.751c-0.714,0.728-1.637,1.085-2.767,1.085c-1.113,0-2.032-0.357-2.753-1.085
		C371.287,318.01,370.938,317.082,370.938,315.969"/>
	<path fill="#231F20" d="M413.479,341.185c-0.084-2.693-0.969-4.847-2.615-6.465c-1.671-1.615-3.945-2.412-6.866-2.412
		c-2.913,0-5.266,0.797-7.055,2.412c-1.792,1.618-2.864,3.771-3.222,6.465H413.479z M417.985,354.02
		c-1.887,2.42-3.945,4.115-6.183,5.073c-2.249,0.962-4.842,1.445-7.807,1.445c-2.461,0-4.675-0.443-6.654-1.312
		c-1.966-0.87-3.631-2.041-5.006-3.527c-1.357-1.469-2.417-3.229-3.16-5.241c-0.746-2.014-1.109-4.179-1.109-6.454
		c0-2.428,0.403-4.653,1.213-6.683c0.807-2.05,1.928-3.793,3.358-5.246c1.44-1.454,3.141-2.594,5.112-3.403
		c1.975-0.799,4.117-1.211,6.45-1.211c2.196,0,4.211,0.376,6.05,1.108c1.837,0.739,3.428,1.812,4.741,3.236
		c1.33,1.409,2.346,3.132,3.062,5.173c0.722,2.037,1.074,4.356,1.074,6.953v1.679h-25.406c0.093,1.349,0.406,2.633,0.962,3.873
		c0.572,1.232,1.294,2.311,2.195,3.221c0.896,0.926,1.946,1.649,3.156,2.189c1.214,0.535,2.535,0.805,3.963,0.805
		c2.289,0,4.215-0.406,5.789-1.216c1.563-0.801,2.976-1.98,4.231-3.566L417.985,354.02z"/>
</g>
<path fill="#231F20" d="M469.074,319.397h-0.132l-9.88,23.395h19.425L469.074,319.397z M466.517,312.134h5.32l20.228,47.592h-6.589
	l-4.841-11.691h-23.793l-4.906,11.691h-6.383L466.517,312.134z"/>
<path fill="#231F20" d="M526.952,352.272c0,1.435,0.044,2.771,0.137,4.026c0.089,1.256,0.138,2.403,0.138,3.426h-4.978
	c0-0.846-0.034-1.699-0.063-2.545c-0.051-0.853-0.075-1.727-0.075-2.629h-0.136c-0.353,0.77-0.85,1.51-1.506,2.223
	c-0.658,0.717-1.427,1.356-2.327,1.916c-0.894,0.552-1.904,1.007-3.021,1.357c-1.123,0.326-2.333,0.487-3.628,0.487
	c-2.059,0-3.844-0.311-5.342-0.931c-1.497-0.632-2.748-1.506-3.733-2.633c-0.981-1.119-1.719-2.468-2.195-4.058
	c-0.46-1.6-0.693-3.33-0.693-5.214v-19.427h5.246v18.887c0,2.646,0.577,4.73,1.743,6.249c1.163,1.529,2.982,2.29,5.443,2.29
	c1.705,0,3.168-0.289,4.397-0.877c1.241-0.576,2.249-1.413,3.032-2.484c0.785-1.079,1.367-2.352,1.751-3.837
	c0.39-1.465,0.57-3.116,0.57-4.903v-15.324h5.24V352.272z"/>
<path fill="#231F20" d="M542.826,344.004c0,1.606,0.282,3.101,0.869,4.465c0.58,1.373,1.381,2.564,2.392,3.56
	c1.004,1.01,2.18,1.808,3.523,2.387c1.338,0.588,2.784,0.878,4.299,0.878c1.792,0,3.388-0.31,4.779-0.938
	c1.393-0.624,2.554-1.461,3.521-2.523c0.962-1.056,1.688-2.259,2.187-3.632c0.5-1.369,0.738-2.814,0.738-4.332
	c0-1.699-0.262-3.257-0.809-4.674c-0.534-1.409-1.298-2.629-2.285-3.656c-0.986-1.038-2.178-1.827-3.559-2.391
	c-1.39-0.564-2.917-0.838-4.574-0.838c-1.652,0-3.168,0.294-4.537,0.906c-1.373,0.604-2.524,1.429-3.497,2.479
	c-0.958,1.063-1.713,2.291-2.244,3.704C543.088,340.807,542.826,342.342,542.826,344.004 M570.38,358.32
	c0,5.733-1.462,10.094-4.396,13.076c-2.938,2.979-7.188,4.465-12.742,4.465c-3.092,0-5.886-0.438-8.372-1.341
	c-2.479-0.901-4.857-2.436-7.092-4.638l3.756-4.3c1.665,1.788,3.422,3.145,5.288,4.07c1.857,0.91,3.996,1.377,6.419,1.377
	c2.325,0,4.271-0.358,5.81-1.043c1.555-0.704,2.773-1.638,3.667-2.83c0.902-1.184,1.522-2.54,1.886-4.066
	c0.354-1.521,0.531-3.111,0.531-4.771v-4.038h-0.123c-1.268,2.018-2.902,3.499-4.916,4.44c-2.013,0.942-4.082,1.413-6.188,1.413
	c-2.461,0-4.718-0.41-6.788-1.203c-2.058-0.821-3.827-1.933-5.314-3.366c-1.478-1.433-2.616-3.136-3.422-5.107
	c-0.812-1.981-1.216-4.127-1.216-6.454c0-2.557,0.403-4.863,1.216-6.933c0.806-2.053,1.938-3.792,3.395-5.214
	c1.459-1.401,3.217-2.497,5.277-3.247c2.054-0.762,4.343-1.147,6.853-1.147c1.072,0,2.153,0.118,3.229,0.374
	c1.071,0.243,2.122,0.622,3.128,1.136c1.006,0.517,1.914,1.171,2.722,1.952c0.805,0.787,1.474,1.694,2.024,2.729h0.123v-5.38h5.244
	v30.047H570.38z"/>
<path fill="#231F20" d="M609.581,352.272c0,1.435,0.037,2.771,0.118,4.026c0.097,1.256,0.142,2.403,0.142,3.426h-4.975
	c0-0.846-0.022-1.699-0.062-2.545c-0.049-0.853-0.063-1.727-0.063-2.629h-0.144c-0.358,0.77-0.86,1.51-1.516,2.223
	c-0.641,0.717-1.426,1.356-2.319,1.916c-0.884,0.552-1.899,1.007-3.014,1.357c-1.127,0.326-2.333,0.487-3.632,0.487
	c-2.072,0-3.844-0.311-5.347-0.931c-1.508-0.632-2.739-1.506-3.733-2.633c-0.984-1.119-1.709-2.468-2.183-4.058
	c-0.473-1.6-0.706-3.33-0.706-5.214v-19.427h5.241v18.887c0,2.646,0.58,4.73,1.756,6.249c1.155,1.529,2.976,2.29,5.431,2.29
	c1.705,0,3.182-0.289,4.411-0.877c1.23-0.576,2.248-1.413,3.028-2.484c0.783-1.079,1.371-2.352,1.741-3.837
	c0.383-1.465,0.576-3.116,0.576-4.903v-15.324h5.248L609.581,352.272L609.581,352.272z"/>
<path fill="#231F20" d="M622.276,351.469c1.039,1.288,2.161,2.331,3.392,3.079c1.242,0.77,2.792,1.151,4.679,1.151
	c0.804,0,1.622-0.097,2.457-0.27c0.826-0.177,1.572-0.471,2.253-0.882c0.674-0.398,1.202-0.897,1.618-1.51
	c0.396-0.592,0.597-1.332,0.597-2.174c0-0.861-0.194-1.55-0.575-2.089c-0.374-0.544-0.878-0.999-1.517-1.377
	c-0.62-0.371-1.343-0.681-2.146-0.906c-0.811-0.226-1.635-0.435-2.484-0.612c-1.478-0.313-2.893-0.668-4.234-1.066
	c-1.35-0.402-2.524-0.935-3.537-1.591c-1-0.644-1.815-1.478-2.411-2.52c-0.61-1.022-0.904-2.355-0.904-3.966
	c0-1.521,0.334-2.862,1.005-4.03c0.672-1.162,1.568-2.122,2.685-2.892c1.123-0.769,2.385-1.343,3.764-1.749
	c1.394-0.402,2.828-0.605,4.3-0.605c2.246,0,4.32,0.454,6.222,1.349c1.907,0.892,3.4,2.345,4.477,4.373l-4.374,2.883
	c-0.677-1.12-1.553-2.025-2.653-2.714c-1.104-0.7-2.438-1.043-3.996-1.043c-0.727,0-1.457,0.093-2.184,0.266
	c-0.747,0.178-1.405,0.447-1.981,0.811c-0.592,0.357-1.067,0.812-1.448,1.369c-0.385,0.571-0.577,1.203-0.577,1.92
	c0,0.673,0.211,1.248,0.636,1.715c0.425,0.467,1.021,0.89,1.755,1.244c0.741,0.357,1.583,0.668,2.558,0.938
	c0.961,0.277,1.954,0.491,2.99,0.676c1.389,0.271,2.706,0.616,3.96,1.035c1.259,0.438,2.357,1.006,3.3,1.724
	c0.941,0.717,1.682,1.605,2.223,2.686c0.531,1.083,0.801,2.399,0.801,3.974c0,1.792-0.366,3.31-1.074,4.558
	c-0.715,1.26-1.671,2.282-2.861,3.067c-1.181,0.785-2.533,1.353-4.028,1.715c-1.508,0.362-3.033,0.536-4.604,0.536
	c-2.689,0-5.016-0.419-6.959-1.232c-1.949-0.837-3.706-2.379-5.274-4.613L622.276,351.469z"/>
<path fill="#231F20" d="M669.537,332.707h-9.275v15.737c0,1.027,0.025,1.981,0.068,2.851c0.044,0.874,0.221,1.631,0.531,2.287
	c0.321,0.647,0.793,1.163,1.417,1.546c0.628,0.387,1.521,0.571,2.684,0.571c0.767,0,1.556-0.097,2.356-0.27
	c0.806-0.177,1.565-0.446,2.291-0.801l0.192,4.763c-0.892,0.406-1.888,0.7-2.984,0.882c-1.102,0.182-2.141,0.267-3.13,0.267
	c-1.885,0-3.389-0.25-4.506-0.741c-1.112-0.491-1.984-1.188-2.621-2.085c-0.623-0.898-1.034-2.005-1.241-3.326
	c-0.211-1.324-0.3-2.79-0.3-4.4v-17.279h-6.86v-4.435h6.86v-8.947h5.241v8.947h9.275L669.537,332.707L669.537,332.707z"/>
<path fill="#231F20" d="M678.547,328.272h5.24v31.452h-5.24V328.272z M677.342,315.969c0-1.029,0.362-1.927,1.113-2.686
	c0.731-0.77,1.647-1.149,2.713-1.149c1.077,0,1.989,0.38,2.729,1.149c0.73,0.759,1.103,1.656,1.103,2.686
	c0,1.113-0.362,2.041-1.065,2.751c-0.725,0.728-1.649,1.085-2.766,1.085c-1.119,0-2.033-0.357-2.758-1.085
	C677.689,318.01,677.342,317.082,677.342,315.969"/>
<path fill="#231F20" d="M730.564,354.902l-6.847,0.175V340.3c0-1.888-0.242-3.619-0.713-5.209c-0.467-1.595-1.182-2.947-2.174-4.062
	c-0.99-1.117-2.23-1.997-3.738-2.619c-1.493-0.63-3.278-0.949-5.343-0.949c-1.294,0-2.504,0.173-3.621,0.509
	c-1.127,0.332-2.132,0.777-3.027,1.337c-0.901,0.567-1.675,1.201-2.326,1.928c-0.646,0.72-1.151,1.453-1.509,2.21h-0.139
	c0-0.898-0.021-1.769-0.061-2.626c-0.054-0.844-0.076-1.701-0.076-2.545h-4.976c0,1.029,0.052,2.174,0.145,3.425
	c0.084,1.255,0.131,2.604,0.131,4.032v23.995h5.243v-15.314c0-1.796,0.197-3.438,0.567-4.916c0.383-1.474,0.971-2.758,1.754-3.829
	c0.784-1.078,1.794-1.899,3.028-2.483c1.229-0.592,2.693-0.874,4.4-0.874c2.458,0,4.284,0.765,5.438,2.279
	c1.169,1.525,1.758,3.611,1.758,6.26v18.878h5.237v-0.008h6.847L730.564,354.902L730.564,354.902z"/>
<g>
	<path fill="#24A69E" d="M290.792,434.407c0-10.5,7.276-23.52,16.804-23.52c5.592,0,8.819,1.533,8.819,11.751V452.7h10.922v-31.869
		c0-12.888-11.626-14.007-16.666-14.007c-10.216,0-15.678,6.022-19.596,14.84h-0.283v-14.84c-2.515,0.56-5.178,0.979-7.839,1.119
		c-2.522,0.282-5.177,0.282-7.836,0.282h-2.948v3.221h7.702V452.7h10.922L290.792,434.407L290.792,434.407z"/>
	<path fill="#24A69E" d="M395.818,406.825c-5.045,1.265-10.498,1.401-15.686,1.401h-3.216v3.221h7.979v31.358
		c0,3.639-0.924,7.033-2.558,9.896h13.48L395.818,406.825L395.818,406.825z"/>
	<path fill="#24A69E" d="M359.416,450.789v-43.964c-5.042,1.265-10.509,1.401-15.687,1.401h-2.801v3.221h7.565v40.602
		c0,0.218,0.012,0.435,0.018,0.652h10.996C359.454,452.101,359.416,451.473,359.416,450.789z"/>
	<path fill="#24A69E" d="M429.288,411.447h12.323v-3.221h-12.323v-17.787c-3.496,0.567-6.994,0.567-10.641,0.567v17.22h-8.258v3.221
		h7.979v41.254h10.918L429.288,411.447L429.288,411.447z"/>
	<path fill="#24A69E" d="M470.034,433.847c0-5.604,1.548-11.06,3.503-15.126c3.08-6.301,7.844-8.257,7.982-8.257
		c0.422,0,1.262,0,1.262,0.837c0,0.56-0.56,1.828-0.56,2.947c0,2.802,2.94,5.592,5.463,5.592c2.934,0,6.569-1.679,6.569-5.181
		c0-5.318-3.771-7.835-8.532-7.835c-7.695,0-13.304,6.86-15.821,13.161h-0.279v-13.161c-5.042,1.26-10.503,1.401-15.68,1.401H449.6
		v3.221h9.521V452.7h10.914L470.034,433.847L470.034,433.847z"/>
	<path fill="#24A69E" d="M517.939,406.825c-5.047,1.265-10.514,1.401-15.683,1.401h-4.626v3.221h9.386v41.254h10.923V406.825z"/>
	<path fill="#24A69E" d="M512.33,393.081c4.064,0,7.141-3.076,7.141-7.412c0-3.644-3.777-6.724-7.141-6.724
		c-3.489,0-6.719,3.08-6.719,6.724C505.611,389.722,508.276,393.081,512.33,393.081z"/>
	<path fill="#24A69E" d="M553.362,411.447h12.321v-3.221h-12.321v-17.787c-3.497,0.567-6.995,0.567-10.637,0.567v17.22h-8.262v3.221
		h7.983v41.254h10.915V411.447L553.362,411.447z"/>
	<path fill="#24A69E" d="M589.91,393.081c4.06,0,7.144-3.076,7.144-7.412c0-3.644-3.78-6.724-7.144-6.724
		c-3.491,0-6.715,3.08-6.715,6.724C583.194,389.722,585.848,393.081,589.91,393.081z"/>
	<path fill="#24A69E" d="M595.512,406.825c-5.042,1.265-10.502,1.401-15.675,1.401h-4.618v3.221h9.381v41.254h10.912V406.825z"/>
	<path fill="#24A69E" d="M626.326,436.082c0-11.615,0.137-26.455,14.275-26.455c14.145,0,14.28,14.84,14.28,26.455
		c0,5.482-0.049,11.615-1.512,16.619h9.658c2.893-4.65,4.6-10.322,4.6-16.619c0-16.938-12.321-29.257-27.026-29.257
		c-14.694,0-27.018,12.319-27.018,29.257c0,6.297,1.706,11.969,4.599,16.619h9.652C626.375,447.697,626.326,441.564,626.326,436.082
		z"/>
	<path fill="#24A69E" d="M694.232,434.407c0-10.5,7.286-23.52,16.803-23.52c5.594,0,8.82,1.533,8.82,11.751V452.7h10.923v-31.869
		c0-12.888-11.621-14.007-16.658-14.007c-10.229,0-15.686,6.022-19.608,14.84h-0.278v-14.84c-2.518,0.56-5.179,0.979-7.84,1.119
		c-2.518,0.282-5.177,0.282-7.843,0.282h-2.933v3.221h7.694V452.7h10.92V434.407z"/>
</g>
<g>
	<rect x="754.734" y="221.84" fill="#24A69E" width="6.478" height="85.734"/>
	<rect x="771.799" y="221.84" fill="#24A69E" width="6.464" height="85.734"/>
	<path fill="#24A69E" d="M898.178,249.388c15.236,0,27.62-12.397,27.62-27.624c0-15.24-12.384-27.628-27.62-27.628
		c-15.242,0-27.639,12.388-27.639,27.628C870.539,236.991,882.936,249.388,898.178,249.388z M898.178,200.87
		c11.515,0,20.885,9.372,20.885,20.895c0,11.521-9.37,20.887-20.885,20.887c-11.519,0-20.891-9.366-20.891-20.887
		C877.287,210.242,886.659,200.87,898.178,200.87z"/>
	<path fill="#24A69E" d="M945.575,245.718l-3.556-5.383c-18.528,12.577-31.655,32.569-35.014,55.69
		c-8.771-19.4-24.925-34.778-44.865-42.521l-2.297,6.047c24.139,9.4,42.252,30.934,46.793,57.074
		c0.181,1.689,0.426,3.361,0.709,5.021c0.167,1.618,0.271,3.261,0.332,4.909c0.441,12.594-2.051,27.337-8.791,44.557
		c-20.265,51.884-4.134,78.389,6.543,89.197h-64.29v-34.148c9.762-0.874,18.372-6.458,24.452-15.983
		c10.799-16.868,11.101-41.197,0.787-63.51c-9.824-21.271-23.053-43.438-23.17-43.654l-2.78-4.626l-2.778,4.616
		c-0.149,0.266-16.621,27.616-25.754,43.407c-12.076,20.891-13.286,43.75-3.257,61.149c6.053,10.483,15.592,17.184,26.032,18.487
		v34.261h-64.341V328.694c9.155-0.499,16.204-3.156,20.983-7.955c6.025-6.039,6.021-13.298,6.021-13.368l0.034-85.637l-6.472,0.013
		l-0.036,85.575c-0.036,1.551-0.962,15.001-23.682,15.001c-22.755,0-23.922-13.624-23.979-15.178l0.034-85.364h-6.462l-0.047,85.398
		c0.022,0.831,0.819,20.007,27.134,21.497V460.31H246.4v6.465h669.04v-6.465h-0.002l0.002-0.002
		c-5-3.312-34.335-25.903-10.524-86.835c4.761-12.179,7.635-23.669,8.736-34.475c0.055-0.419,0.097-0.866,0.141-1.28
		c0.026-0.343,0.072-0.692,0.089-1.031c0.215-2.371,0.336-4.771,0.336-7.205c0-2.98-0.155-5.922-0.477-8.813
		c-0.183-1.688-0.435-3.372-0.717-5.028c-0.269-2.571-0.411-5.186-0.411-7.833C912.612,282.015,925.699,259.22,945.575,245.718z
		 M814.25,404.325c-8.875-15.375-7.657-35.819,3.247-54.673c6.411-11.104,16.672-28.257,22.201-37.501l0.691-1.135l0.652,1.151
		c4.404,7.697,12.805,22.773,19.474,37.223c9.241,20.005,9.102,42.507-0.361,57.31c-5.423,8.475-13.146,13.129-21.74,13.129
		C828.881,419.829,819.854,414.04,814.25,404.325z"/>
</g>
</svg>
